M48
;GenerationSoftware,Autodesk,EAGLE,9.6.2*%
;CreationDate,2024-07-17T15:15:24Z*%
FMAT,2
ICI,OFF
METRIC,TZ,000.000
T3C0.200
T2C0.350
T1C0.700
%
G90
M71
T1
X15900Y12485
X7615Y22600
X8885Y22600
X2050Y21085
X2050Y19815
X15900Y13755
X15900Y15025
X15900Y11215
T2
X3500Y22650
X2500Y22650
T3
X15750Y8650
X9450Y14150
X3379Y15875
X2400Y16950
X2387Y16350
X2000Y15600
X2750Y14350
X7700Y13500
X16100Y18750
X14600Y14400
X12850Y14350
X15700Y15900
X5292Y17628
X8025Y17170
X13950Y18700
X13300Y20400
X10200Y22899
X1751Y22000
X6387Y22899
X4200Y16300
X9250Y20800
X6650Y16500
X5350Y19150
X11600Y17600
X5150Y20150
X15700Y22350
X15455Y21600
X10890Y15415
X4150Y7350
X13750Y7050
X14100Y16100
X3750Y20100
X15050Y18200
X3400Y14450
X10200Y17900
X3725Y16915
X10850Y20500
X3675Y17683
X3850Y19377
X5650Y14050
X7200Y11500
X14300Y12500
X3250Y10350
X9400Y2900
X14900Y10300
X8700Y2400
X2083Y12875
X12250Y19120
X2400Y9500
X10600Y19900
X10550Y19300
X1801Y22900
X6705Y21035
X3170Y22030
X4650Y21050
X9225Y16500
X3700Y5800
X5958Y22267
X2250Y18042
X3950Y10615
X8750Y14000
X1770Y8750
X6225Y15125
X15700Y20600
X16222Y16939
X4050Y22250
X5270Y21061
X14400Y3000
X15900Y10100
X15000Y13800
X1800Y9350
X8700Y1400
X8250Y10250
X9900Y11350
X3700Y3000
X14400Y5900
X14650Y19300
M30