M48
;GenerationSoftware,Autodesk,EAGLE,9.6.2*%
;CreationDate,2024-07-17T15:15:24Z*%
FMAT,2
ICI,OFF
METRIC,TZ,000.000
T1C0.200
%
G90
M71
T1
X13950Y10200
X11900Y11200
X12100Y10600
X10800Y10700
X11300Y10300
X10800Y9900
X11400Y9500
X10700Y9200
X11100Y8700
X11600Y8200
X11700Y7550
X10900Y8100
X10900Y7500
X10000Y8100
X10000Y7500
X9200Y8100
X9200Y7500
X8500Y8150
X8400Y7550
X7900Y8200
X7600Y7600
X7250Y8100
X6700Y7800
X6100Y7600
X6200Y8200
X6750Y8500
X6300Y9100
X6900Y9100
X6200Y9900
X6800Y9900
X6000Y10700
X6600Y10700
X11372Y11550
X14145Y11650
M30