M48
;GenerationSoftware,Autodesk,EAGLE,9.6.2*%
;CreationDate,2024-07-17T15:15:24Z*%
FMAT,2
ICI,OFF
METRIC,TZ,000.000
T1C0.200
%
G90
M71
T1
X7650Y21050
X11200Y22899
X8300Y21035
X13675Y22899
X10000Y2650
X10650Y3000
X11300Y2800
X11900Y3000
X12550Y2800
X13200Y3000
X13800Y2800
X13300Y6300
X13100Y5700
X12450Y6150
X11850Y5700
X11200Y6000
X10600Y5750
X9950Y6050
X9350Y5700
X8650Y6050
X8050Y5750
X7400Y6350
X6750Y5900
X6050Y6200
X5450Y5850
X4932Y6432
X4502Y5900
X4300Y3000
X4900Y2700
X5550Y3050
X6200Y2700
X6800Y3100
X7450Y2700
X8100Y3100
X10575Y21053
M30