M48
;GenerationSoftware,Autodesk,EAGLE,9.6.2*%
;CreationDate,2025-03-07T15:53:47Z*%
FMAT,2
ICI,OFF
METRIC,TZ,000.000
T3C0.150
T2C0.500
T1C0.800
%
G90
M71
T1
X6600Y0
T2
X-16550Y-4270
X-16550Y-3000
X-16550Y-1730
T3
X-26450Y-750
X-26100Y-250
X-23595Y250
X3915Y750
X5210Y365
X-18900Y-2200
X-23836Y750
X4500Y-900
X3505Y360
X-19400Y-850
X-24471Y-76
X-26100Y750
X-23895Y-250
X-26495Y250
X-24788Y-538
X3850Y-675
X-17950Y-850
M30