M48
;GenerationSoftware,Autodesk,EAGLE,9.6.2*%
;CreationDate,2024-04-12T21:00:36Z*%
FMAT,2
ICI,OFF
METRIC,TZ,000.000
T5C0.200
T4C0.350
T3C0.400
T2C0.700
T1C0.813
%
G90
M71
T1
X4200Y-3850
X4300Y3850
T2
X2300Y-3900
X-4040Y-3900
X-2770Y-3900
X-1500Y-3900
X-230Y-3900
X1040Y-3900
T3
X5100Y2915
X4385Y2200
X5100Y1485
X5100Y-1585
X4385Y-2300
X5100Y-3015
T4
X3550Y1100
T5
X1200Y-2600
X-100Y3000
X-3800Y-1600
X2900Y-2700
X-3400Y-1000
X3960Y-1200
X-825Y3000
X1547Y3025
X800Y3225
X5650Y600
X2862Y3051
X-2700Y-1000
X-600Y700
X0Y-400
X-1200Y2500
X-250Y-1000
X-2379Y-379
X-2200Y2700
X-100Y300
X1100Y800
X-4300Y4000
X3200Y-1200
X1550Y-500
X-1900Y-1500
M30