G04 EAGLE Gerber RS-274X export*
G75*
%MOMM*%
%FSLAX34Y34*%
%LPD*%
%INCopper Layer 15*%
%IPPOS*%
%AMOC8*
5,1,8,0,0,1.08239X$1,22.5*%
G01*
%ADD10C,1.050000*%
%ADD11C,0.650000*%
%ADD12C,0.500000*%
%ADD13C,0.150000*%
%ADD14C,0.101600*%
%ADD15C,0.300000*%
%ADD16C,0.100000*%
%ADD17C,0.200000*%

G36*
X154446Y5264D02*
X154446Y5264D01*
X154454Y5263D01*
X154544Y5284D01*
X154635Y5302D01*
X154641Y5307D01*
X154649Y5309D01*
X154797Y5411D01*
X164589Y15203D01*
X164593Y15209D01*
X164599Y15214D01*
X164648Y15293D01*
X164700Y15370D01*
X164701Y15378D01*
X164705Y15384D01*
X164737Y15562D01*
X164737Y107823D01*
X164737Y107825D01*
X164737Y107828D01*
X164717Y107923D01*
X164698Y108019D01*
X164696Y108021D01*
X164696Y108024D01*
X164640Y108105D01*
X164585Y108185D01*
X164583Y108187D01*
X164581Y108189D01*
X164498Y108242D01*
X164417Y108294D01*
X164414Y108295D01*
X164412Y108296D01*
X164316Y108313D01*
X164220Y108330D01*
X164217Y108329D01*
X164215Y108330D01*
X164120Y108308D01*
X164024Y108286D01*
X164022Y108285D01*
X164019Y108284D01*
X163871Y108181D01*
X162541Y106851D01*
X162112Y106673D01*
X160887Y106166D01*
X160243Y105899D01*
X157757Y105899D01*
X155459Y106851D01*
X153701Y108609D01*
X152749Y110907D01*
X152749Y113393D01*
X153701Y115691D01*
X155459Y117449D01*
X156865Y118031D01*
X156867Y118033D01*
X156870Y118033D01*
X156950Y118088D01*
X157031Y118143D01*
X157033Y118145D01*
X157035Y118147D01*
X157088Y118229D01*
X157141Y118311D01*
X157142Y118313D01*
X157143Y118315D01*
X157160Y118411D01*
X157178Y118508D01*
X157177Y118510D01*
X157178Y118513D01*
X157156Y118609D01*
X157135Y118704D01*
X157134Y118706D01*
X157133Y118708D01*
X157076Y118789D01*
X157020Y118868D01*
X157018Y118869D01*
X157017Y118871D01*
X156865Y118969D01*
X155459Y119551D01*
X153701Y121309D01*
X152749Y123607D01*
X152749Y126093D01*
X153701Y128391D01*
X155459Y130149D01*
X156531Y130593D01*
X156865Y130731D01*
X156867Y130733D01*
X156870Y130733D01*
X156950Y130789D01*
X157031Y130843D01*
X157033Y130845D01*
X157035Y130847D01*
X157088Y130929D01*
X157141Y131011D01*
X157142Y131013D01*
X157143Y131015D01*
X157160Y131112D01*
X157178Y131208D01*
X157177Y131210D01*
X157178Y131213D01*
X157156Y131309D01*
X157135Y131404D01*
X157134Y131406D01*
X157133Y131408D01*
X157076Y131488D01*
X157020Y131568D01*
X157018Y131569D01*
X157017Y131571D01*
X156865Y131669D01*
X155459Y132251D01*
X153701Y134009D01*
X153189Y135246D01*
X153186Y135249D01*
X153186Y135253D01*
X153130Y135333D01*
X153077Y135412D01*
X153074Y135415D01*
X153071Y135418D01*
X152990Y135470D01*
X152909Y135522D01*
X152905Y135523D01*
X152902Y135525D01*
X152807Y135541D01*
X152712Y135559D01*
X152708Y135558D01*
X152704Y135559D01*
X152611Y135537D01*
X152516Y135516D01*
X152513Y135514D01*
X152509Y135513D01*
X152361Y135411D01*
X151450Y134499D01*
X148550Y134499D01*
X146499Y136550D01*
X146499Y139450D01*
X148550Y141501D01*
X151450Y141501D01*
X152625Y140326D01*
X152628Y140324D01*
X152630Y140320D01*
X152711Y140269D01*
X152792Y140215D01*
X152796Y140214D01*
X152799Y140212D01*
X152894Y140195D01*
X152989Y140177D01*
X152993Y140178D01*
X152996Y140177D01*
X153091Y140199D01*
X153185Y140219D01*
X153188Y140221D01*
X153192Y140222D01*
X153270Y140278D01*
X153349Y140333D01*
X153352Y140337D01*
X153355Y140339D01*
X153452Y140490D01*
X153701Y141091D01*
X155459Y142849D01*
X156486Y143274D01*
X156865Y143431D01*
X156867Y143433D01*
X156870Y143433D01*
X156950Y143488D01*
X157031Y143543D01*
X157033Y143545D01*
X157035Y143547D01*
X157088Y143629D01*
X157141Y143711D01*
X157142Y143713D01*
X157143Y143715D01*
X157160Y143812D01*
X157178Y143908D01*
X157177Y143910D01*
X157178Y143913D01*
X157156Y144009D01*
X157135Y144104D01*
X157134Y144106D01*
X157133Y144108D01*
X157076Y144189D01*
X157020Y144268D01*
X157018Y144269D01*
X157017Y144271D01*
X156865Y144369D01*
X155459Y144951D01*
X153701Y146709D01*
X152749Y149007D01*
X152749Y151493D01*
X153701Y153791D01*
X155459Y155549D01*
X156440Y155956D01*
X156441Y155956D01*
X157665Y156463D01*
X157757Y156501D01*
X160243Y156501D01*
X162541Y155549D01*
X163871Y154219D01*
X163874Y154217D01*
X163875Y154215D01*
X163955Y154163D01*
X164038Y154108D01*
X164041Y154107D01*
X164043Y154106D01*
X164139Y154088D01*
X164235Y154070D01*
X164238Y154071D01*
X164240Y154070D01*
X164337Y154092D01*
X164431Y154112D01*
X164433Y154113D01*
X164436Y154114D01*
X164516Y154170D01*
X164596Y154226D01*
X164597Y154228D01*
X164599Y154230D01*
X164652Y154314D01*
X164703Y154395D01*
X164704Y154398D01*
X164705Y154400D01*
X164737Y154577D01*
X164737Y165728D01*
X164737Y165730D01*
X164737Y165733D01*
X164717Y165829D01*
X164698Y165924D01*
X164696Y165927D01*
X164696Y165929D01*
X164640Y166010D01*
X164585Y166090D01*
X164583Y166092D01*
X164581Y166094D01*
X164498Y166147D01*
X164417Y166199D01*
X164414Y166200D01*
X164412Y166201D01*
X164316Y166218D01*
X164220Y166235D01*
X164217Y166234D01*
X164215Y166235D01*
X164122Y166213D01*
X164024Y166191D01*
X164022Y166190D01*
X164019Y166189D01*
X163871Y166087D01*
X163670Y165886D01*
X160770Y165886D01*
X158720Y167936D01*
X158720Y170836D01*
X160770Y172887D01*
X163670Y172887D01*
X163871Y172686D01*
X163874Y172685D01*
X163875Y172682D01*
X163956Y172630D01*
X164038Y172575D01*
X164041Y172575D01*
X164043Y172573D01*
X164139Y172556D01*
X164235Y172538D01*
X164238Y172538D01*
X164240Y172538D01*
X164337Y172559D01*
X164431Y172579D01*
X164433Y172581D01*
X164436Y172581D01*
X164517Y172639D01*
X164596Y172693D01*
X164597Y172696D01*
X164599Y172697D01*
X164652Y172781D01*
X164703Y172863D01*
X164704Y172865D01*
X164705Y172867D01*
X164737Y173045D01*
X164737Y231230D01*
X164736Y231235D01*
X164737Y231240D01*
X164716Y231333D01*
X164698Y231427D01*
X164695Y231431D01*
X164694Y231436D01*
X164638Y231514D01*
X164585Y231592D01*
X164581Y231595D01*
X164578Y231599D01*
X164496Y231650D01*
X164417Y231702D01*
X164412Y231702D01*
X164407Y231705D01*
X164230Y231737D01*
X140176Y231737D01*
X140174Y231737D01*
X140171Y231737D01*
X140076Y231717D01*
X139980Y231698D01*
X139977Y231696D01*
X139975Y231696D01*
X139894Y231640D01*
X139814Y231585D01*
X139812Y231583D01*
X139810Y231581D01*
X139756Y231496D01*
X139705Y231417D01*
X139704Y231414D01*
X139703Y231412D01*
X139686Y231316D01*
X139669Y231220D01*
X139670Y231217D01*
X139669Y231215D01*
X139691Y231120D01*
X139713Y231024D01*
X139714Y231022D01*
X139715Y231019D01*
X139817Y230871D01*
X140251Y230438D01*
X140251Y227538D01*
X138200Y225487D01*
X135300Y225487D01*
X133699Y227089D01*
X133692Y227093D01*
X133687Y227099D01*
X133609Y227148D01*
X133532Y227200D01*
X133524Y227201D01*
X133517Y227205D01*
X133340Y227237D01*
X118946Y227237D01*
X118938Y227236D01*
X118930Y227237D01*
X118840Y227216D01*
X118749Y227198D01*
X118743Y227193D01*
X118735Y227191D01*
X118587Y227089D01*
X114486Y222987D01*
X112721Y222987D01*
X112713Y222986D01*
X112705Y222987D01*
X112616Y222966D01*
X112524Y222948D01*
X112518Y222943D01*
X112510Y222941D01*
X112362Y222839D01*
X104418Y214895D01*
X104417Y214893D01*
X104415Y214891D01*
X104362Y214810D01*
X104307Y214728D01*
X104307Y214725D01*
X104305Y214723D01*
X104288Y214627D01*
X104270Y214531D01*
X104270Y214528D01*
X104270Y214526D01*
X104291Y214429D01*
X104311Y214335D01*
X104313Y214333D01*
X104313Y214330D01*
X104371Y214250D01*
X104426Y214170D01*
X104428Y214169D01*
X104429Y214167D01*
X104512Y214115D01*
X104595Y214063D01*
X104597Y214062D01*
X104600Y214061D01*
X104777Y214029D01*
X107200Y214029D01*
X109256Y211973D01*
X109272Y211905D01*
X109290Y211811D01*
X109293Y211807D01*
X109294Y211802D01*
X109350Y211724D01*
X109403Y211646D01*
X109407Y211643D01*
X109410Y211639D01*
X109492Y211588D01*
X109571Y211536D01*
X109576Y211536D01*
X109581Y211533D01*
X109758Y211501D01*
X134693Y211501D01*
X139501Y206693D01*
X139501Y203039D01*
X139502Y203031D01*
X139501Y203023D01*
X139522Y202934D01*
X139540Y202842D01*
X139545Y202836D01*
X139547Y202828D01*
X139649Y202680D01*
X145680Y196649D01*
X145687Y196645D01*
X145691Y196639D01*
X145770Y196590D01*
X145847Y196538D01*
X145855Y196537D01*
X145862Y196533D01*
X146039Y196501D01*
X147950Y196501D01*
X150001Y194450D01*
X150001Y191550D01*
X147950Y189499D01*
X145050Y189499D01*
X142999Y191550D01*
X142999Y193461D01*
X142999Y193462D01*
X142999Y193463D01*
X142998Y193469D01*
X142999Y193477D01*
X142978Y193566D01*
X142960Y193658D01*
X142955Y193664D01*
X142953Y193672D01*
X142851Y193820D01*
X135499Y201171D01*
X135499Y204825D01*
X135498Y204833D01*
X135499Y204841D01*
X135478Y204930D01*
X135460Y205022D01*
X135455Y205028D01*
X135453Y205036D01*
X135351Y205184D01*
X133184Y207351D01*
X133177Y207355D01*
X133173Y207361D01*
X133094Y207410D01*
X133017Y207462D01*
X133009Y207463D01*
X133002Y207467D01*
X132825Y207499D01*
X112176Y207499D01*
X112174Y207499D01*
X112171Y207499D01*
X112075Y207479D01*
X111980Y207460D01*
X111977Y207458D01*
X111975Y207458D01*
X111894Y207402D01*
X111814Y207347D01*
X111812Y207345D01*
X111810Y207343D01*
X111757Y207260D01*
X111705Y207179D01*
X111704Y207176D01*
X111703Y207174D01*
X111686Y207078D01*
X111669Y206982D01*
X111670Y206979D01*
X111669Y206977D01*
X111691Y206884D01*
X111713Y206786D01*
X111714Y206784D01*
X111715Y206781D01*
X111817Y206633D01*
X112001Y206450D01*
X112001Y203550D01*
X109950Y201499D01*
X109676Y201499D01*
X109674Y201499D01*
X109671Y201499D01*
X109575Y201479D01*
X109480Y201460D01*
X109477Y201458D01*
X109475Y201458D01*
X109394Y201402D01*
X109314Y201347D01*
X109312Y201345D01*
X109310Y201343D01*
X109257Y201260D01*
X109205Y201179D01*
X109204Y201176D01*
X109203Y201174D01*
X109186Y201078D01*
X109169Y200982D01*
X109170Y200979D01*
X109169Y200977D01*
X109191Y200884D01*
X109213Y200786D01*
X109214Y200784D01*
X109215Y200781D01*
X109317Y200633D01*
X109501Y200450D01*
X109501Y197550D01*
X108059Y196109D01*
X108057Y196104D01*
X108052Y196101D01*
X108001Y196021D01*
X107949Y195942D01*
X107948Y195937D01*
X107945Y195932D01*
X107929Y195838D01*
X107911Y195745D01*
X107912Y195740D01*
X107911Y195735D01*
X107933Y195642D01*
X107953Y195549D01*
X107956Y195544D01*
X107957Y195539D01*
X108059Y195391D01*
X109001Y194450D01*
X109001Y191550D01*
X108817Y191367D01*
X108816Y191364D01*
X108814Y191363D01*
X108761Y191282D01*
X108706Y191200D01*
X108706Y191197D01*
X108705Y191195D01*
X108687Y191099D01*
X108669Y191003D01*
X108669Y191000D01*
X108669Y190998D01*
X108691Y190901D01*
X108710Y190807D01*
X108712Y190805D01*
X108713Y190802D01*
X108770Y190721D01*
X108825Y190642D01*
X108827Y190641D01*
X108829Y190639D01*
X108913Y190586D01*
X108994Y190535D01*
X108997Y190534D01*
X108999Y190533D01*
X109176Y190501D01*
X118052Y190501D01*
X118060Y190502D01*
X118068Y190501D01*
X118157Y190522D01*
X118249Y190540D01*
X118255Y190545D01*
X118263Y190547D01*
X118411Y190649D01*
X118851Y191089D01*
X118855Y191096D01*
X118861Y191100D01*
X118910Y191179D01*
X118962Y191256D01*
X118963Y191264D01*
X118967Y191271D01*
X118999Y191448D01*
X118999Y192652D01*
X121050Y194703D01*
X123950Y194703D01*
X126001Y192652D01*
X126001Y189752D01*
X123950Y187701D01*
X122746Y187701D01*
X122738Y187700D01*
X122730Y187701D01*
X122641Y187680D01*
X122549Y187662D01*
X122543Y187657D01*
X122535Y187655D01*
X122387Y187553D01*
X121947Y187113D01*
X121153Y186319D01*
X121152Y186316D01*
X121150Y186315D01*
X121098Y186235D01*
X121042Y186152D01*
X121042Y186149D01*
X121040Y186147D01*
X121023Y186051D01*
X121005Y185955D01*
X121005Y185952D01*
X121005Y185950D01*
X121026Y185853D01*
X121046Y185759D01*
X121048Y185756D01*
X121048Y185754D01*
X121105Y185674D01*
X121161Y185594D01*
X121163Y185593D01*
X121164Y185590D01*
X121247Y185539D01*
X121330Y185486D01*
X121332Y185486D01*
X121335Y185485D01*
X121512Y185453D01*
X134513Y185453D01*
X135316Y184649D01*
X135323Y184645D01*
X135327Y184639D01*
X135406Y184590D01*
X135483Y184538D01*
X135491Y184537D01*
X135498Y184533D01*
X135675Y184501D01*
X147840Y184501D01*
X147848Y184502D01*
X147855Y184501D01*
X147945Y184522D01*
X148036Y184540D01*
X148043Y184545D01*
X148051Y184547D01*
X148199Y184649D01*
X149050Y185501D01*
X151950Y185501D01*
X154001Y183450D01*
X154001Y180550D01*
X151950Y178499D01*
X149050Y178499D01*
X148199Y179351D01*
X148192Y179355D01*
X148187Y179361D01*
X148109Y179410D01*
X148032Y179462D01*
X148024Y179463D01*
X148017Y179467D01*
X147840Y179499D01*
X133393Y179499D01*
X132590Y180303D01*
X132583Y180307D01*
X132579Y180313D01*
X132500Y180362D01*
X132423Y180414D01*
X132415Y180415D01*
X132408Y180419D01*
X132231Y180451D01*
X107198Y180451D01*
X107190Y180450D01*
X107182Y180451D01*
X107093Y180430D01*
X107001Y180412D01*
X106995Y180407D01*
X106987Y180405D01*
X106839Y180303D01*
X105649Y179113D01*
X105645Y179106D01*
X105639Y179102D01*
X105590Y179023D01*
X105538Y178946D01*
X105537Y178938D01*
X105533Y178931D01*
X105501Y178754D01*
X105501Y177550D01*
X103450Y175499D01*
X102246Y175499D01*
X102238Y175498D01*
X102230Y175499D01*
X102141Y175478D01*
X102049Y175460D01*
X102043Y175455D01*
X102035Y175453D01*
X101887Y175351D01*
X100399Y173863D01*
X100395Y173856D01*
X100389Y173852D01*
X100340Y173773D01*
X100288Y173696D01*
X100287Y173688D01*
X100283Y173681D01*
X100251Y173504D01*
X100251Y160893D01*
X96357Y156999D01*
X49817Y156999D01*
X49809Y156998D01*
X49802Y156999D01*
X49712Y156978D01*
X49621Y156960D01*
X49614Y156955D01*
X49606Y156953D01*
X49458Y156851D01*
X37649Y145042D01*
X37645Y145035D01*
X37639Y145030D01*
X37590Y144952D01*
X37538Y144875D01*
X37537Y144867D01*
X37533Y144860D01*
X37501Y144683D01*
X37501Y143050D01*
X35450Y140999D01*
X32550Y140999D01*
X30499Y143050D01*
X30499Y145950D01*
X32550Y148001D01*
X33325Y148001D01*
X33333Y148002D01*
X33341Y148001D01*
X33431Y148022D01*
X33522Y148040D01*
X33528Y148045D01*
X33536Y148047D01*
X33684Y148149D01*
X44351Y158816D01*
X44355Y158823D01*
X44361Y158827D01*
X44410Y158906D01*
X44462Y158983D01*
X44463Y158991D01*
X44467Y158997D01*
X44499Y159175D01*
X44499Y164992D01*
X44498Y164997D01*
X44499Y165002D01*
X44478Y165095D01*
X44460Y165189D01*
X44457Y165193D01*
X44456Y165198D01*
X44400Y165276D01*
X44347Y165354D01*
X44343Y165357D01*
X44340Y165361D01*
X44258Y165412D01*
X44179Y165464D01*
X44174Y165464D01*
X44169Y165467D01*
X43992Y165499D01*
X37363Y165499D01*
X37363Y165500D01*
X37356Y165504D01*
X37352Y165511D01*
X37273Y165559D01*
X37196Y165611D01*
X37188Y165612D01*
X37181Y165616D01*
X37004Y165648D01*
X35800Y165648D01*
X35117Y166332D01*
X35114Y166333D01*
X35113Y166335D01*
X35033Y166387D01*
X34950Y166443D01*
X34947Y166443D01*
X34945Y166444D01*
X34849Y166462D01*
X34753Y166480D01*
X34750Y166480D01*
X34748Y166480D01*
X34651Y166459D01*
X34557Y166439D01*
X34555Y166437D01*
X34552Y166437D01*
X34472Y166380D01*
X34392Y166324D01*
X34391Y166322D01*
X34389Y166321D01*
X34337Y166237D01*
X34285Y166155D01*
X34284Y166153D01*
X34283Y166150D01*
X34251Y165973D01*
X34251Y162758D01*
X34252Y162753D01*
X34251Y162748D01*
X34272Y162655D01*
X34290Y162561D01*
X34293Y162557D01*
X34294Y162552D01*
X34350Y162474D01*
X34403Y162396D01*
X34407Y162393D01*
X34410Y162389D01*
X34492Y162338D01*
X34571Y162286D01*
X34576Y162286D01*
X34581Y162283D01*
X34758Y162251D01*
X35236Y162251D01*
X37286Y160200D01*
X37286Y157300D01*
X35236Y155249D01*
X32336Y155249D01*
X30285Y157300D01*
X30285Y157559D01*
X30284Y157562D01*
X30285Y157564D01*
X30265Y157659D01*
X30245Y157756D01*
X30244Y157758D01*
X30243Y157761D01*
X30188Y157840D01*
X30133Y157922D01*
X30130Y157923D01*
X30129Y157925D01*
X30045Y157978D01*
X29965Y158031D01*
X29962Y158031D01*
X29960Y158033D01*
X29864Y158049D01*
X29767Y158066D01*
X29765Y158066D01*
X29762Y158066D01*
X29669Y158045D01*
X29572Y158023D01*
X29569Y158021D01*
X29567Y158021D01*
X29419Y157918D01*
X29149Y157648D01*
X29145Y157642D01*
X29139Y157637D01*
X29089Y157558D01*
X29038Y157481D01*
X29037Y157474D01*
X29033Y157467D01*
X29001Y157290D01*
X29001Y153393D01*
X27387Y151780D01*
X23475Y147867D01*
X23470Y147860D01*
X23464Y147856D01*
X23415Y147777D01*
X23364Y147700D01*
X23362Y147692D01*
X23358Y147686D01*
X23326Y147508D01*
X23326Y131410D01*
X23328Y131402D01*
X23326Y131395D01*
X23347Y131305D01*
X23366Y131214D01*
X23370Y131207D01*
X23372Y131199D01*
X23475Y131051D01*
X24326Y130200D01*
X24326Y127300D01*
X22275Y125249D01*
X19375Y125249D01*
X17325Y127300D01*
X17325Y130200D01*
X18176Y131051D01*
X18180Y131058D01*
X18187Y131063D01*
X18236Y131141D01*
X18287Y131218D01*
X18288Y131226D01*
X18293Y131233D01*
X18325Y131410D01*
X18325Y149790D01*
X23851Y155316D01*
X23855Y155323D01*
X23861Y155327D01*
X23910Y155406D01*
X23962Y155483D01*
X23963Y155491D01*
X23967Y155497D01*
X23999Y155675D01*
X23999Y159492D01*
X23998Y159497D01*
X23999Y159502D01*
X23978Y159595D01*
X23960Y159689D01*
X23957Y159693D01*
X23956Y159698D01*
X23900Y159776D01*
X23847Y159854D01*
X23843Y159857D01*
X23840Y159861D01*
X23758Y159912D01*
X23679Y159964D01*
X23674Y159964D01*
X23669Y159967D01*
X23492Y159999D01*
X22421Y159999D01*
X20370Y162050D01*
X20370Y164950D01*
X21626Y166206D01*
X21629Y166210D01*
X21633Y166213D01*
X21684Y166294D01*
X21737Y166373D01*
X21738Y166378D01*
X21741Y166382D01*
X21757Y166476D01*
X21775Y166570D01*
X21773Y166575D01*
X21774Y166580D01*
X21753Y166673D01*
X21733Y166766D01*
X21730Y166770D01*
X21729Y166775D01*
X21626Y166923D01*
X20499Y168050D01*
X20499Y170950D01*
X22550Y173001D01*
X25450Y173001D01*
X27501Y170950D01*
X27501Y168050D01*
X26245Y166794D01*
X26242Y166790D01*
X26238Y166787D01*
X26187Y166707D01*
X26134Y166627D01*
X26133Y166622D01*
X26130Y166618D01*
X26114Y166524D01*
X26096Y166430D01*
X26097Y166425D01*
X26097Y166420D01*
X26118Y166327D01*
X26138Y166234D01*
X26141Y166230D01*
X26142Y166225D01*
X26245Y166077D01*
X27372Y164950D01*
X27372Y164168D01*
X27372Y164166D01*
X27372Y164163D01*
X27392Y164068D01*
X27411Y163972D01*
X27413Y163970D01*
X27413Y163967D01*
X27469Y163886D01*
X27524Y163806D01*
X27526Y163805D01*
X27528Y163802D01*
X27611Y163749D01*
X27692Y163697D01*
X27694Y163696D01*
X27697Y163695D01*
X27793Y163679D01*
X27889Y163661D01*
X27892Y163662D01*
X27894Y163661D01*
X27988Y163683D01*
X28085Y163705D01*
X28087Y163706D01*
X28090Y163707D01*
X28238Y163810D01*
X29101Y164673D01*
X29105Y164679D01*
X29111Y164684D01*
X29160Y164763D01*
X29212Y164840D01*
X29213Y164848D01*
X29217Y164854D01*
X29249Y165032D01*
X29249Y179938D01*
X38713Y189401D01*
X38714Y189404D01*
X38716Y189405D01*
X38769Y189486D01*
X38824Y189568D01*
X38824Y189571D01*
X38825Y189573D01*
X38843Y189669D01*
X38861Y189765D01*
X38861Y189768D01*
X38861Y189770D01*
X38840Y189867D01*
X38820Y189961D01*
X38818Y189963D01*
X38817Y189966D01*
X38761Y190046D01*
X38705Y190126D01*
X38703Y190127D01*
X38701Y190129D01*
X38619Y190181D01*
X38536Y190233D01*
X38533Y190234D01*
X38531Y190235D01*
X38354Y190267D01*
X37050Y190267D01*
X34999Y192318D01*
X34999Y195218D01*
X36415Y196633D01*
X36416Y196636D01*
X36418Y196637D01*
X36471Y196718D01*
X36526Y196800D01*
X36526Y196803D01*
X36527Y196805D01*
X36545Y196901D01*
X36563Y196997D01*
X36563Y197000D01*
X36563Y197002D01*
X36542Y197099D01*
X36522Y197193D01*
X36520Y197195D01*
X36519Y197198D01*
X36463Y197278D01*
X36407Y197358D01*
X36405Y197359D01*
X36403Y197361D01*
X36320Y197414D01*
X36238Y197465D01*
X36235Y197466D01*
X36233Y197467D01*
X36056Y197499D01*
X36050Y197499D01*
X33999Y199550D01*
X33999Y202450D01*
X36050Y204501D01*
X38950Y204501D01*
X40133Y203317D01*
X40136Y203316D01*
X40137Y203314D01*
X40217Y203262D01*
X40300Y203206D01*
X40303Y203206D01*
X40305Y203205D01*
X40401Y203187D01*
X40497Y203169D01*
X40500Y203169D01*
X40502Y203169D01*
X40599Y203190D01*
X40693Y203210D01*
X40695Y203212D01*
X40698Y203213D01*
X40778Y203269D01*
X40858Y203325D01*
X40859Y203327D01*
X40861Y203329D01*
X40912Y203411D01*
X40965Y203494D01*
X40966Y203497D01*
X40967Y203499D01*
X40999Y203676D01*
X40999Y205183D01*
X40998Y205191D01*
X40999Y205198D01*
X40978Y205288D01*
X40960Y205379D01*
X40955Y205386D01*
X40953Y205394D01*
X40851Y205542D01*
X40613Y205780D01*
X38999Y207393D01*
X38999Y213607D01*
X41885Y216493D01*
X42423Y217030D01*
X42426Y217035D01*
X42430Y217038D01*
X42481Y217118D01*
X42534Y217197D01*
X42535Y217203D01*
X42538Y217207D01*
X42553Y217301D01*
X42571Y217394D01*
X42570Y217399D01*
X42571Y217405D01*
X42549Y217497D01*
X42530Y217590D01*
X42527Y217595D01*
X42526Y217600D01*
X42423Y217748D01*
X41320Y218851D01*
X41313Y218855D01*
X41309Y218861D01*
X41230Y218910D01*
X41153Y218962D01*
X41145Y218963D01*
X41138Y218967D01*
X40961Y218999D01*
X39050Y218999D01*
X36999Y221050D01*
X36999Y221742D01*
X36998Y221747D01*
X36999Y221752D01*
X36978Y221845D01*
X36960Y221939D01*
X36957Y221943D01*
X36956Y221948D01*
X36900Y222026D01*
X36847Y222104D01*
X36843Y222107D01*
X36840Y222111D01*
X36758Y222162D01*
X36679Y222214D01*
X36674Y222214D01*
X36669Y222217D01*
X36492Y222249D01*
X35710Y222249D01*
X35705Y222248D01*
X35700Y222249D01*
X35606Y222228D01*
X35513Y222210D01*
X35509Y222207D01*
X35504Y222206D01*
X35426Y222150D01*
X35348Y222097D01*
X35345Y222093D01*
X35340Y222090D01*
X35290Y222008D01*
X35238Y221929D01*
X35237Y221924D01*
X35235Y221919D01*
X35203Y221742D01*
X35203Y218848D01*
X33152Y216797D01*
X30252Y216797D01*
X28201Y218848D01*
X28201Y221748D01*
X30252Y223799D01*
X30465Y223799D01*
X30468Y223799D01*
X30470Y223799D01*
X30564Y223819D01*
X30662Y223838D01*
X30664Y223840D01*
X30666Y223840D01*
X30746Y223896D01*
X30827Y223951D01*
X30829Y223953D01*
X30831Y223955D01*
X30884Y224038D01*
X30937Y224119D01*
X30937Y224122D01*
X30939Y224124D01*
X30955Y224220D01*
X30972Y224316D01*
X30972Y224319D01*
X30972Y224322D01*
X30950Y224415D01*
X30929Y224512D01*
X30927Y224514D01*
X30927Y224517D01*
X30824Y224665D01*
X30749Y224739D01*
X30749Y228261D01*
X33360Y230871D01*
X33361Y230874D01*
X33364Y230875D01*
X33416Y230956D01*
X33471Y231038D01*
X33471Y231041D01*
X33473Y231043D01*
X33490Y231139D01*
X33508Y231235D01*
X33508Y231238D01*
X33508Y231240D01*
X33487Y231337D01*
X33467Y231431D01*
X33465Y231433D01*
X33465Y231436D01*
X33408Y231516D01*
X33353Y231596D01*
X33350Y231597D01*
X33349Y231599D01*
X33266Y231651D01*
X33183Y231703D01*
X33181Y231704D01*
X33179Y231705D01*
X33001Y231737D01*
X26999Y231737D01*
X26996Y231737D01*
X26994Y231737D01*
X26899Y231717D01*
X26802Y231698D01*
X26800Y231696D01*
X26798Y231696D01*
X26717Y231640D01*
X26636Y231585D01*
X26635Y231583D01*
X26633Y231581D01*
X26579Y231496D01*
X26527Y231417D01*
X26527Y231414D01*
X26525Y231412D01*
X26509Y231316D01*
X26492Y231220D01*
X26492Y231217D01*
X26492Y231215D01*
X26514Y231120D01*
X26535Y231024D01*
X26537Y231022D01*
X26537Y231019D01*
X26640Y230871D01*
X29251Y228261D01*
X29251Y224739D01*
X26761Y222249D01*
X23239Y222249D01*
X20749Y224739D01*
X20749Y225562D01*
X20749Y225564D01*
X20749Y225567D01*
X20729Y225662D01*
X20710Y225758D01*
X20708Y225761D01*
X20708Y225763D01*
X20652Y225844D01*
X20597Y225924D01*
X20595Y225926D01*
X20593Y225928D01*
X20510Y225981D01*
X20429Y226033D01*
X20426Y226034D01*
X20424Y226035D01*
X20328Y226052D01*
X20232Y226069D01*
X20229Y226068D01*
X20227Y226069D01*
X20132Y226047D01*
X20036Y226025D01*
X20034Y226024D01*
X20031Y226023D01*
X19883Y225921D01*
X19462Y225499D01*
X16562Y225499D01*
X15629Y226433D01*
X15626Y226434D01*
X15625Y226436D01*
X15545Y226488D01*
X15462Y226544D01*
X15459Y226544D01*
X15457Y226545D01*
X15361Y226563D01*
X15265Y226581D01*
X15262Y226581D01*
X15260Y226581D01*
X15163Y226560D01*
X15069Y226540D01*
X15067Y226538D01*
X15064Y226537D01*
X14984Y226481D01*
X14904Y226425D01*
X14903Y226423D01*
X14901Y226421D01*
X14849Y226338D01*
X14797Y226256D01*
X14796Y226253D01*
X14795Y226251D01*
X14763Y226074D01*
X14763Y215177D01*
X14763Y215175D01*
X14763Y215172D01*
X14783Y215077D01*
X14802Y214981D01*
X14804Y214979D01*
X14804Y214976D01*
X14860Y214895D01*
X14915Y214815D01*
X14917Y214813D01*
X14919Y214811D01*
X15002Y214758D01*
X15083Y214706D01*
X15086Y214705D01*
X15088Y214704D01*
X15184Y214687D01*
X15280Y214670D01*
X15283Y214671D01*
X15285Y214670D01*
X15380Y214692D01*
X15476Y214714D01*
X15478Y214715D01*
X15481Y214716D01*
X15629Y214819D01*
X16959Y216149D01*
X17368Y216318D01*
X18592Y216826D01*
X19257Y217101D01*
X21743Y217101D01*
X24041Y216149D01*
X25799Y214391D01*
X26751Y212093D01*
X26751Y209607D01*
X25799Y207309D01*
X24041Y205551D01*
X22635Y204969D01*
X22633Y204967D01*
X22630Y204967D01*
X22550Y204912D01*
X22469Y204857D01*
X22467Y204855D01*
X22465Y204853D01*
X22412Y204771D01*
X22359Y204689D01*
X22358Y204687D01*
X22357Y204685D01*
X22340Y204588D01*
X22322Y204492D01*
X22323Y204490D01*
X22322Y204487D01*
X22344Y204391D01*
X22365Y204296D01*
X22366Y204294D01*
X22367Y204292D01*
X22424Y204211D01*
X22480Y204132D01*
X22482Y204131D01*
X22483Y204129D01*
X22635Y204031D01*
X24041Y203449D01*
X25799Y201691D01*
X26751Y199393D01*
X26751Y196907D01*
X25799Y194609D01*
X24041Y192851D01*
X22948Y192398D01*
X21743Y191899D01*
X19257Y191899D01*
X16959Y192851D01*
X15629Y194181D01*
X15626Y194183D01*
X15625Y194185D01*
X15545Y194237D01*
X15462Y194292D01*
X15459Y194293D01*
X15457Y194294D01*
X15361Y194312D01*
X15265Y194330D01*
X15262Y194329D01*
X15260Y194330D01*
X15163Y194308D01*
X15069Y194288D01*
X15067Y194287D01*
X15064Y194286D01*
X14984Y194230D01*
X14904Y194174D01*
X14903Y194172D01*
X14901Y194170D01*
X14848Y194086D01*
X14797Y194005D01*
X14796Y194002D01*
X14795Y194000D01*
X14763Y193823D01*
X14763Y96438D01*
X14763Y96436D01*
X14763Y96433D01*
X14783Y96338D01*
X14802Y96242D01*
X14804Y96239D01*
X14804Y96237D01*
X14860Y96156D01*
X14915Y96076D01*
X14917Y96074D01*
X14919Y96072D01*
X15002Y96019D01*
X15083Y95967D01*
X15086Y95966D01*
X15088Y95965D01*
X15184Y95948D01*
X15280Y95931D01*
X15283Y95932D01*
X15285Y95931D01*
X15380Y95953D01*
X15476Y95975D01*
X15478Y95976D01*
X15481Y95977D01*
X15629Y96079D01*
X16550Y97001D01*
X19450Y97001D01*
X19891Y96559D01*
X19896Y96557D01*
X19899Y96552D01*
X19979Y96501D01*
X20058Y96449D01*
X20063Y96448D01*
X20068Y96445D01*
X20162Y96429D01*
X20255Y96411D01*
X20260Y96412D01*
X20265Y96411D01*
X20358Y96433D01*
X20451Y96453D01*
X20455Y96455D01*
X20461Y96457D01*
X20609Y96559D01*
X22550Y98501D01*
X25450Y98501D01*
X26133Y97817D01*
X26136Y97816D01*
X26137Y97814D01*
X26217Y97762D01*
X26300Y97706D01*
X26303Y97706D01*
X26305Y97705D01*
X26401Y97687D01*
X26497Y97669D01*
X26500Y97669D01*
X26502Y97669D01*
X26599Y97690D01*
X26693Y97710D01*
X26695Y97712D01*
X26698Y97713D01*
X26778Y97769D01*
X26858Y97825D01*
X26859Y97827D01*
X26861Y97829D01*
X26913Y97912D01*
X26965Y97994D01*
X26966Y97997D01*
X26967Y97999D01*
X26999Y98176D01*
X26999Y127122D01*
X52628Y152751D01*
X58590Y152751D01*
X58598Y152752D01*
X58605Y152751D01*
X58695Y152772D01*
X58786Y152790D01*
X58793Y152795D01*
X58801Y152797D01*
X58949Y152899D01*
X60800Y154751D01*
X63700Y154751D01*
X65751Y152700D01*
X65751Y149800D01*
X63700Y147749D01*
X60800Y147749D01*
X58949Y149601D01*
X58942Y149605D01*
X58937Y149611D01*
X58859Y149660D01*
X58782Y149712D01*
X58774Y149713D01*
X58767Y149717D01*
X58590Y149749D01*
X54082Y149749D01*
X54074Y149748D01*
X54066Y149749D01*
X53976Y149728D01*
X53885Y149710D01*
X53879Y149705D01*
X53871Y149703D01*
X53723Y149601D01*
X30149Y126027D01*
X30145Y126020D01*
X30139Y126016D01*
X30090Y125937D01*
X30038Y125860D01*
X30037Y125852D01*
X30033Y125846D01*
X30001Y125668D01*
X30001Y107176D01*
X30001Y107174D01*
X30001Y107171D01*
X30021Y107075D01*
X30040Y106980D01*
X30042Y106977D01*
X30042Y106975D01*
X30098Y106894D01*
X30153Y106814D01*
X30155Y106812D01*
X30157Y106810D01*
X30240Y106757D01*
X30321Y106705D01*
X30324Y106704D01*
X30326Y106703D01*
X30422Y106686D01*
X30518Y106669D01*
X30521Y106670D01*
X30523Y106669D01*
X30616Y106691D01*
X30714Y106713D01*
X30716Y106714D01*
X30719Y106715D01*
X30867Y106817D01*
X31050Y107001D01*
X33950Y107001D01*
X35133Y105817D01*
X35136Y105816D01*
X35137Y105814D01*
X35218Y105761D01*
X35300Y105706D01*
X35303Y105706D01*
X35305Y105705D01*
X35401Y105687D01*
X35497Y105669D01*
X35500Y105669D01*
X35502Y105669D01*
X35599Y105690D01*
X35693Y105710D01*
X35695Y105712D01*
X35698Y105713D01*
X35778Y105769D01*
X35858Y105825D01*
X35859Y105827D01*
X35861Y105829D01*
X35914Y105912D01*
X35965Y105994D01*
X35966Y105997D01*
X35967Y105999D01*
X35999Y106176D01*
X35999Y107600D01*
X38050Y109651D01*
X40950Y109651D01*
X43001Y107600D01*
X43001Y104700D01*
X40950Y102649D01*
X38050Y102649D01*
X36867Y103833D01*
X36864Y103834D01*
X36863Y103836D01*
X36783Y103888D01*
X36700Y103944D01*
X36697Y103944D01*
X36695Y103945D01*
X36599Y103963D01*
X36503Y103981D01*
X36500Y103981D01*
X36498Y103981D01*
X36401Y103960D01*
X36307Y103940D01*
X36305Y103938D01*
X36302Y103937D01*
X36222Y103881D01*
X36142Y103825D01*
X36141Y103823D01*
X36139Y103821D01*
X36086Y103738D01*
X36035Y103656D01*
X36034Y103653D01*
X36033Y103651D01*
X36001Y103474D01*
X36001Y102050D01*
X33950Y99999D01*
X31050Y99999D01*
X30867Y100183D01*
X30864Y100184D01*
X30863Y100186D01*
X30782Y100239D01*
X30700Y100294D01*
X30697Y100294D01*
X30695Y100295D01*
X30599Y100313D01*
X30503Y100331D01*
X30500Y100331D01*
X30498Y100331D01*
X30401Y100309D01*
X30307Y100290D01*
X30305Y100288D01*
X30302Y100287D01*
X30221Y100230D01*
X30142Y100175D01*
X30141Y100173D01*
X30139Y100171D01*
X30086Y100087D01*
X30035Y100006D01*
X30034Y100003D01*
X30033Y100001D01*
X30001Y99824D01*
X30001Y91722D01*
X24278Y85999D01*
X21357Y85999D01*
X21349Y85998D01*
X21341Y85999D01*
X21252Y85978D01*
X21160Y85960D01*
X21154Y85955D01*
X21146Y85953D01*
X20998Y85851D01*
X19147Y83999D01*
X16247Y83999D01*
X15629Y84617D01*
X15626Y84619D01*
X15625Y84621D01*
X15545Y84673D01*
X15462Y84728D01*
X15459Y84729D01*
X15457Y84730D01*
X15361Y84747D01*
X15265Y84766D01*
X15262Y84765D01*
X15260Y84766D01*
X15163Y84744D01*
X15069Y84724D01*
X15067Y84723D01*
X15064Y84722D01*
X14984Y84666D01*
X14904Y84610D01*
X14903Y84608D01*
X14901Y84606D01*
X14849Y84523D01*
X14797Y84441D01*
X14796Y84438D01*
X14795Y84436D01*
X14763Y84259D01*
X14763Y15693D01*
X14767Y15670D01*
X14765Y15648D01*
X14787Y15573D01*
X14802Y15496D01*
X14815Y15477D01*
X14822Y15456D01*
X14884Y15376D01*
X14915Y15331D01*
X14925Y15324D01*
X14933Y15314D01*
X26096Y5391D01*
X26177Y5344D01*
X26256Y5295D01*
X26264Y5293D01*
X26270Y5290D01*
X26317Y5284D01*
X26433Y5263D01*
X154438Y5263D01*
X154446Y5264D01*
G37*
G36*
X89076Y162001D02*
X89076Y162001D01*
X89079Y162001D01*
X89174Y162021D01*
X89270Y162040D01*
X89273Y162042D01*
X89275Y162042D01*
X89356Y162098D01*
X89436Y162153D01*
X89438Y162155D01*
X89440Y162157D01*
X89493Y162240D01*
X89545Y162321D01*
X89546Y162324D01*
X89547Y162326D01*
X89564Y162422D01*
X89581Y162518D01*
X89580Y162521D01*
X89581Y162523D01*
X89559Y162618D01*
X89537Y162714D01*
X89536Y162716D01*
X89535Y162719D01*
X89433Y162867D01*
X88749Y163550D01*
X88749Y166522D01*
X88748Y166530D01*
X88749Y166537D01*
X88728Y166627D01*
X88710Y166718D01*
X88705Y166725D01*
X88703Y166733D01*
X88601Y166881D01*
X60131Y195351D01*
X60124Y195355D01*
X60119Y195361D01*
X60041Y195410D01*
X59964Y195462D01*
X59956Y195463D01*
X59949Y195467D01*
X59772Y195499D01*
X49722Y195499D01*
X48694Y196527D01*
X46867Y198354D01*
X46864Y198356D01*
X46863Y198358D01*
X46782Y198410D01*
X46700Y198465D01*
X46697Y198466D01*
X46695Y198467D01*
X46599Y198484D01*
X46503Y198503D01*
X46500Y198502D01*
X46498Y198503D01*
X46401Y198481D01*
X46307Y198461D01*
X46305Y198460D01*
X46302Y198459D01*
X46222Y198402D01*
X46142Y198347D01*
X46141Y198345D01*
X46139Y198343D01*
X46087Y198260D01*
X46035Y198178D01*
X46034Y198175D01*
X46033Y198173D01*
X46001Y197995D01*
X46001Y189616D01*
X44387Y188003D01*
X37582Y181198D01*
X37581Y181196D01*
X37578Y181194D01*
X37526Y181113D01*
X37471Y181031D01*
X37471Y181028D01*
X37469Y181026D01*
X37452Y180930D01*
X37434Y180834D01*
X37434Y180831D01*
X37434Y180829D01*
X37455Y180732D01*
X37475Y180638D01*
X37477Y180636D01*
X37477Y180633D01*
X37534Y180553D01*
X37589Y180473D01*
X37592Y180472D01*
X37593Y180470D01*
X37676Y180418D01*
X37759Y180366D01*
X37761Y180365D01*
X37763Y180364D01*
X37941Y180332D01*
X38200Y180332D01*
X40251Y178281D01*
X40251Y175381D01*
X38385Y173516D01*
X38384Y173514D01*
X38382Y173512D01*
X38329Y173431D01*
X38274Y173349D01*
X38274Y173346D01*
X38273Y173344D01*
X38255Y173248D01*
X38237Y173152D01*
X38237Y173149D01*
X38237Y173147D01*
X38258Y173050D01*
X38278Y172956D01*
X38280Y172954D01*
X38281Y172951D01*
X38337Y172871D01*
X38393Y172791D01*
X38395Y172790D01*
X38397Y172788D01*
X38479Y172736D01*
X38562Y172684D01*
X38565Y172683D01*
X38567Y172682D01*
X38690Y172660D01*
X40701Y170649D01*
X40707Y170645D01*
X40712Y170639D01*
X40790Y170590D01*
X40868Y170538D01*
X40875Y170537D01*
X40882Y170533D01*
X41059Y170501D01*
X48036Y170501D01*
X49501Y169036D01*
X49501Y162508D01*
X49502Y162504D01*
X49501Y162500D01*
X49501Y162499D01*
X49501Y162498D01*
X49522Y162405D01*
X49540Y162311D01*
X49543Y162307D01*
X49544Y162302D01*
X49600Y162224D01*
X49653Y162146D01*
X49657Y162143D01*
X49660Y162139D01*
X49742Y162088D01*
X49821Y162036D01*
X49826Y162036D01*
X49831Y162033D01*
X50008Y162001D01*
X89074Y162001D01*
X89076Y162001D01*
G37*
%LPC*%
G36*
X85550Y10499D02*
X85550Y10499D01*
X83949Y12101D01*
X83942Y12105D01*
X83937Y12111D01*
X83859Y12160D01*
X83782Y12212D01*
X83774Y12213D01*
X83767Y12217D01*
X83590Y12249D01*
X41764Y12249D01*
X27999Y26014D01*
X27999Y51986D01*
X33351Y57337D01*
X33355Y57344D01*
X33361Y57348D01*
X33410Y57427D01*
X33462Y57504D01*
X33463Y57512D01*
X33467Y57518D01*
X33499Y57696D01*
X33499Y59450D01*
X35550Y61501D01*
X38450Y61501D01*
X40501Y59450D01*
X40501Y56550D01*
X38450Y54499D01*
X35675Y54499D01*
X35667Y54498D01*
X35659Y54499D01*
X35570Y54478D01*
X35478Y54460D01*
X35472Y54455D01*
X35464Y54453D01*
X35316Y54351D01*
X31649Y50684D01*
X31645Y50677D01*
X31639Y50673D01*
X31590Y50594D01*
X31538Y50517D01*
X31537Y50509D01*
X31533Y50502D01*
X31501Y50325D01*
X31501Y27675D01*
X31502Y27667D01*
X31501Y27659D01*
X31522Y27570D01*
X31540Y27478D01*
X31545Y27472D01*
X31547Y27464D01*
X31649Y27316D01*
X43066Y15899D01*
X43073Y15895D01*
X43077Y15889D01*
X43156Y15840D01*
X43233Y15788D01*
X43241Y15787D01*
X43248Y15783D01*
X43425Y15751D01*
X83590Y15751D01*
X83598Y15752D01*
X83605Y15751D01*
X83695Y15772D01*
X83786Y15790D01*
X83793Y15795D01*
X83801Y15797D01*
X83949Y15899D01*
X85550Y17501D01*
X88450Y17501D01*
X90051Y15899D01*
X90058Y15895D01*
X90063Y15889D01*
X90141Y15840D01*
X90218Y15788D01*
X90226Y15787D01*
X90233Y15783D01*
X90410Y15751D01*
X131065Y15751D01*
X131072Y15752D01*
X131080Y15751D01*
X131170Y15772D01*
X131261Y15790D01*
X131268Y15795D01*
X131275Y15797D01*
X131423Y15899D01*
X139157Y23633D01*
X139159Y23636D01*
X139161Y23637D01*
X139214Y23718D01*
X139268Y23800D01*
X139269Y23803D01*
X139270Y23805D01*
X139288Y23901D01*
X139306Y23997D01*
X139305Y24000D01*
X139306Y24002D01*
X139284Y24099D01*
X139264Y24193D01*
X139263Y24195D01*
X139262Y24198D01*
X139206Y24278D01*
X139150Y24358D01*
X139148Y24359D01*
X139146Y24361D01*
X139064Y24413D01*
X138981Y24465D01*
X138978Y24466D01*
X138976Y24467D01*
X138799Y24499D01*
X136550Y24499D01*
X134359Y26691D01*
X134354Y26693D01*
X134351Y26698D01*
X134271Y26749D01*
X134192Y26801D01*
X134187Y26802D01*
X134182Y26805D01*
X134088Y26821D01*
X133995Y26839D01*
X133990Y26838D01*
X133984Y26839D01*
X133893Y26817D01*
X133799Y26797D01*
X133794Y26794D01*
X133789Y26793D01*
X133641Y26691D01*
X133450Y26499D01*
X130550Y26499D01*
X129867Y27183D01*
X129864Y27184D01*
X129863Y27186D01*
X129783Y27238D01*
X129700Y27294D01*
X129697Y27294D01*
X129695Y27295D01*
X129599Y27313D01*
X129503Y27331D01*
X129500Y27331D01*
X129498Y27331D01*
X129401Y27310D01*
X129307Y27290D01*
X129305Y27288D01*
X129302Y27287D01*
X129222Y27231D01*
X129142Y27175D01*
X129141Y27173D01*
X129139Y27171D01*
X129087Y27088D01*
X129035Y27006D01*
X129034Y27003D01*
X129033Y27001D01*
X129001Y26824D01*
X129001Y26550D01*
X126950Y24499D01*
X124050Y24499D01*
X121999Y26550D01*
X121999Y26824D01*
X121999Y26826D01*
X121999Y26829D01*
X121979Y26922D01*
X121960Y27020D01*
X121958Y27023D01*
X121958Y27025D01*
X121902Y27106D01*
X121847Y27186D01*
X121845Y27188D01*
X121843Y27190D01*
X121760Y27243D01*
X121679Y27295D01*
X121676Y27296D01*
X121674Y27297D01*
X121578Y27314D01*
X121482Y27331D01*
X121479Y27330D01*
X121477Y27331D01*
X121382Y27309D01*
X121286Y27287D01*
X121284Y27286D01*
X121281Y27285D01*
X121133Y27183D01*
X120450Y26499D01*
X117550Y26499D01*
X117359Y26691D01*
X117354Y26693D01*
X117351Y26698D01*
X117271Y26749D01*
X117192Y26801D01*
X117187Y26802D01*
X117182Y26805D01*
X117088Y26821D01*
X116995Y26839D01*
X116990Y26838D01*
X116984Y26839D01*
X116892Y26817D01*
X116799Y26797D01*
X116794Y26794D01*
X116789Y26793D01*
X116641Y26691D01*
X114450Y24499D01*
X111550Y24499D01*
X109499Y26550D01*
X109499Y26824D01*
X109499Y26826D01*
X109499Y26829D01*
X109479Y26922D01*
X109460Y27020D01*
X109458Y27023D01*
X109458Y27025D01*
X109402Y27106D01*
X109347Y27186D01*
X109345Y27188D01*
X109343Y27190D01*
X109260Y27243D01*
X109179Y27295D01*
X109176Y27296D01*
X109174Y27297D01*
X109078Y27314D01*
X108982Y27331D01*
X108979Y27330D01*
X108977Y27331D01*
X108882Y27309D01*
X108786Y27287D01*
X108784Y27286D01*
X108781Y27285D01*
X108633Y27183D01*
X107950Y26499D01*
X105050Y26499D01*
X104367Y27183D01*
X104364Y27184D01*
X104363Y27186D01*
X104283Y27238D01*
X104200Y27294D01*
X104197Y27294D01*
X104195Y27295D01*
X104099Y27313D01*
X104003Y27331D01*
X104000Y27331D01*
X103998Y27331D01*
X103901Y27310D01*
X103807Y27290D01*
X103805Y27288D01*
X103802Y27287D01*
X103722Y27231D01*
X103642Y27175D01*
X103641Y27173D01*
X103639Y27171D01*
X103587Y27088D01*
X103535Y27006D01*
X103534Y27003D01*
X103533Y27001D01*
X103501Y26824D01*
X103501Y25050D01*
X101450Y22999D01*
X98550Y22999D01*
X96499Y25050D01*
X96499Y25324D01*
X96499Y25326D01*
X96499Y25329D01*
X96479Y25425D01*
X96460Y25520D01*
X96458Y25523D01*
X96458Y25525D01*
X96402Y25606D01*
X96347Y25686D01*
X96345Y25688D01*
X96343Y25690D01*
X96260Y25743D01*
X96179Y25795D01*
X96176Y25796D01*
X96174Y25797D01*
X96078Y25814D01*
X95982Y25831D01*
X95979Y25830D01*
X95977Y25831D01*
X95884Y25809D01*
X95786Y25787D01*
X95784Y25786D01*
X95781Y25785D01*
X95633Y25683D01*
X95450Y25499D01*
X92550Y25499D01*
X90499Y27550D01*
X90499Y30450D01*
X92550Y32501D01*
X95450Y32501D01*
X97501Y30450D01*
X97501Y30176D01*
X97501Y30174D01*
X97501Y30171D01*
X97521Y30075D01*
X97540Y29980D01*
X97542Y29977D01*
X97542Y29975D01*
X97598Y29894D01*
X97653Y29814D01*
X97655Y29812D01*
X97657Y29810D01*
X97740Y29757D01*
X97821Y29705D01*
X97824Y29704D01*
X97826Y29703D01*
X97922Y29686D01*
X98018Y29669D01*
X98021Y29670D01*
X98023Y29669D01*
X98116Y29691D01*
X98214Y29713D01*
X98216Y29714D01*
X98219Y29715D01*
X98367Y29817D01*
X98550Y30001D01*
X101450Y30001D01*
X102133Y29317D01*
X102136Y29316D01*
X102137Y29314D01*
X102217Y29262D01*
X102300Y29206D01*
X102303Y29206D01*
X102305Y29205D01*
X102401Y29187D01*
X102497Y29169D01*
X102500Y29169D01*
X102502Y29169D01*
X102599Y29190D01*
X102693Y29210D01*
X102695Y29212D01*
X102698Y29213D01*
X102778Y29269D01*
X102858Y29325D01*
X102859Y29327D01*
X102861Y29329D01*
X102913Y29412D01*
X102965Y29494D01*
X102966Y29497D01*
X102967Y29499D01*
X102999Y29676D01*
X102999Y31450D01*
X105050Y33501D01*
X107950Y33501D01*
X110001Y31450D01*
X110001Y31176D01*
X110001Y31174D01*
X110001Y31171D01*
X110021Y31076D01*
X110040Y30980D01*
X110042Y30977D01*
X110042Y30975D01*
X110098Y30894D01*
X110153Y30814D01*
X110155Y30812D01*
X110157Y30810D01*
X110240Y30757D01*
X110321Y30705D01*
X110324Y30704D01*
X110326Y30703D01*
X110422Y30686D01*
X110518Y30669D01*
X110521Y30670D01*
X110523Y30669D01*
X110618Y30691D01*
X110714Y30713D01*
X110716Y30714D01*
X110719Y30715D01*
X110867Y30817D01*
X111550Y31501D01*
X114450Y31501D01*
X114641Y31309D01*
X114646Y31307D01*
X114649Y31302D01*
X114729Y31251D01*
X114808Y31199D01*
X114813Y31198D01*
X114818Y31195D01*
X114911Y31179D01*
X115005Y31161D01*
X115010Y31162D01*
X115015Y31161D01*
X115108Y31183D01*
X115201Y31203D01*
X115205Y31205D01*
X115211Y31207D01*
X115359Y31309D01*
X117550Y33501D01*
X120450Y33501D01*
X122501Y31450D01*
X122501Y31176D01*
X122501Y31174D01*
X122501Y31171D01*
X122521Y31076D01*
X122540Y30980D01*
X122542Y30977D01*
X122542Y30975D01*
X122598Y30894D01*
X122653Y30814D01*
X122655Y30812D01*
X122657Y30810D01*
X122740Y30757D01*
X122821Y30705D01*
X122824Y30704D01*
X122826Y30703D01*
X122922Y30686D01*
X123018Y30669D01*
X123021Y30670D01*
X123023Y30669D01*
X123118Y30691D01*
X123214Y30713D01*
X123216Y30714D01*
X123219Y30715D01*
X123367Y30817D01*
X124050Y31501D01*
X126950Y31501D01*
X127633Y30817D01*
X127636Y30816D01*
X127637Y30814D01*
X127717Y30762D01*
X127800Y30706D01*
X127803Y30706D01*
X127805Y30705D01*
X127901Y30687D01*
X127997Y30669D01*
X128000Y30669D01*
X128002Y30669D01*
X128099Y30690D01*
X128193Y30710D01*
X128195Y30712D01*
X128198Y30713D01*
X128278Y30769D01*
X128358Y30825D01*
X128359Y30827D01*
X128361Y30829D01*
X128413Y30912D01*
X128465Y30994D01*
X128466Y30997D01*
X128467Y30999D01*
X128499Y31176D01*
X128499Y31450D01*
X130550Y33501D01*
X133450Y33501D01*
X135641Y31309D01*
X135646Y31307D01*
X135649Y31302D01*
X135729Y31251D01*
X135808Y31199D01*
X135813Y31198D01*
X135818Y31195D01*
X135912Y31179D01*
X136005Y31161D01*
X136010Y31162D01*
X136015Y31161D01*
X136108Y31183D01*
X136201Y31203D01*
X136206Y31206D01*
X136211Y31207D01*
X136359Y31309D01*
X136550Y31501D01*
X139450Y31501D01*
X139641Y31309D01*
X139646Y31307D01*
X139649Y31302D01*
X139729Y31251D01*
X139808Y31199D01*
X139813Y31198D01*
X139818Y31195D01*
X139912Y31179D01*
X140005Y31161D01*
X140010Y31162D01*
X140016Y31161D01*
X140108Y31183D01*
X140201Y31203D01*
X140206Y31206D01*
X140211Y31207D01*
X140359Y31309D01*
X142550Y33501D01*
X145450Y33501D01*
X147501Y31450D01*
X147501Y28550D01*
X145899Y26949D01*
X145895Y26942D01*
X145889Y26937D01*
X145840Y26859D01*
X145788Y26782D01*
X145787Y26774D01*
X145783Y26767D01*
X145751Y26590D01*
X145751Y25275D01*
X132725Y12249D01*
X90410Y12249D01*
X90402Y12248D01*
X90395Y12249D01*
X90305Y12228D01*
X90214Y12210D01*
X90207Y12205D01*
X90199Y12203D01*
X90051Y12101D01*
X88450Y10499D01*
X85550Y10499D01*
G37*
%LPD*%
%LPC*%
G36*
X47550Y23499D02*
X47550Y23499D01*
X45499Y25550D01*
X45499Y26324D01*
X45499Y26326D01*
X45499Y26329D01*
X45479Y26425D01*
X45460Y26520D01*
X45458Y26523D01*
X45458Y26525D01*
X45402Y26606D01*
X45347Y26686D01*
X45345Y26688D01*
X45343Y26690D01*
X45260Y26743D01*
X45179Y26795D01*
X45176Y26796D01*
X45174Y26797D01*
X45078Y26814D01*
X44982Y26831D01*
X44979Y26830D01*
X44977Y26831D01*
X44884Y26809D01*
X44786Y26787D01*
X44784Y26786D01*
X44781Y26785D01*
X44633Y26683D01*
X44450Y26499D01*
X41550Y26499D01*
X40359Y27691D01*
X40354Y27693D01*
X40351Y27698D01*
X40271Y27749D01*
X40192Y27801D01*
X40187Y27802D01*
X40182Y27805D01*
X40088Y27821D01*
X39995Y27839D01*
X39990Y27838D01*
X39985Y27839D01*
X39892Y27817D01*
X39799Y27797D01*
X39794Y27794D01*
X39789Y27793D01*
X39641Y27691D01*
X38450Y26499D01*
X35550Y26499D01*
X33499Y28550D01*
X33499Y31450D01*
X35550Y33501D01*
X38157Y33501D01*
X38165Y33502D01*
X38172Y33501D01*
X38262Y33522D01*
X38353Y33540D01*
X38360Y33545D01*
X38368Y33547D01*
X38516Y33649D01*
X49335Y44468D01*
X50367Y45501D01*
X129825Y45501D01*
X129833Y45502D01*
X129841Y45501D01*
X129931Y45522D01*
X130022Y45540D01*
X130028Y45545D01*
X130036Y45547D01*
X130184Y45649D01*
X140933Y56399D01*
X140936Y56403D01*
X140940Y56406D01*
X140992Y56486D01*
X141044Y56566D01*
X141045Y56571D01*
X141048Y56575D01*
X141064Y56669D01*
X141082Y56762D01*
X141081Y56768D01*
X141082Y56773D01*
X141060Y56864D01*
X141040Y56959D01*
X141037Y56963D01*
X141036Y56968D01*
X140933Y57116D01*
X140499Y57550D01*
X140499Y60450D01*
X142343Y62293D01*
X142347Y62300D01*
X142353Y62305D01*
X142402Y62383D01*
X142454Y62460D01*
X142455Y62468D01*
X142459Y62475D01*
X142491Y62652D01*
X142491Y73625D01*
X153851Y84984D01*
X153855Y84991D01*
X153861Y84995D01*
X153910Y85074D01*
X153962Y85151D01*
X153963Y85159D01*
X153967Y85166D01*
X153999Y85343D01*
X153999Y87950D01*
X156050Y90001D01*
X158950Y90001D01*
X161001Y87950D01*
X161001Y85050D01*
X158950Y82999D01*
X156343Y82999D01*
X156335Y82998D01*
X156328Y82999D01*
X156238Y82978D01*
X156147Y82960D01*
X156140Y82955D01*
X156132Y82953D01*
X155984Y82851D01*
X145657Y72524D01*
X145653Y72517D01*
X145647Y72513D01*
X145598Y72434D01*
X145546Y72357D01*
X145545Y72349D01*
X145541Y72342D01*
X145509Y72165D01*
X145509Y62652D01*
X145510Y62644D01*
X145509Y62637D01*
X145530Y62547D01*
X145548Y62456D01*
X145553Y62449D01*
X145555Y62441D01*
X145657Y62293D01*
X147501Y60450D01*
X147501Y57550D01*
X145450Y55499D01*
X144511Y55499D01*
X144503Y55498D01*
X144496Y55499D01*
X144406Y55478D01*
X144315Y55460D01*
X144308Y55455D01*
X144301Y55453D01*
X144153Y55351D01*
X132317Y43516D01*
X131285Y42483D01*
X51827Y42483D01*
X51819Y42482D01*
X51812Y42483D01*
X51722Y42462D01*
X51631Y42444D01*
X51624Y42439D01*
X51616Y42437D01*
X51468Y42335D01*
X43500Y34367D01*
X43499Y34364D01*
X43497Y34363D01*
X43444Y34282D01*
X43389Y34200D01*
X43389Y34197D01*
X43387Y34195D01*
X43370Y34099D01*
X43352Y34003D01*
X43352Y34000D01*
X43352Y33998D01*
X43373Y33901D01*
X43393Y33807D01*
X43395Y33805D01*
X43395Y33802D01*
X43452Y33722D01*
X43508Y33642D01*
X43510Y33641D01*
X43511Y33639D01*
X43594Y33587D01*
X43677Y33535D01*
X43679Y33534D01*
X43682Y33533D01*
X43859Y33501D01*
X44450Y33501D01*
X46501Y31450D01*
X46501Y30676D01*
X46501Y30674D01*
X46501Y30671D01*
X46521Y30575D01*
X46540Y30480D01*
X46542Y30477D01*
X46542Y30475D01*
X46598Y30394D01*
X46653Y30314D01*
X46655Y30312D01*
X46657Y30310D01*
X46740Y30257D01*
X46821Y30205D01*
X46824Y30204D01*
X46826Y30203D01*
X46922Y30186D01*
X47018Y30169D01*
X47021Y30170D01*
X47023Y30169D01*
X47116Y30191D01*
X47214Y30213D01*
X47216Y30214D01*
X47219Y30215D01*
X47367Y30317D01*
X47550Y30501D01*
X50450Y30501D01*
X51133Y29817D01*
X51136Y29816D01*
X51137Y29814D01*
X51217Y29762D01*
X51300Y29706D01*
X51303Y29706D01*
X51305Y29705D01*
X51401Y29687D01*
X51497Y29669D01*
X51500Y29669D01*
X51502Y29669D01*
X51599Y29690D01*
X51693Y29710D01*
X51695Y29712D01*
X51698Y29713D01*
X51778Y29769D01*
X51858Y29825D01*
X51859Y29827D01*
X51861Y29829D01*
X51913Y29912D01*
X51965Y29994D01*
X51966Y29997D01*
X51967Y29999D01*
X51999Y30176D01*
X51999Y31950D01*
X54050Y34001D01*
X56950Y34001D01*
X59001Y31950D01*
X59001Y30176D01*
X59001Y30174D01*
X59001Y30171D01*
X59021Y30076D01*
X59040Y29980D01*
X59042Y29977D01*
X59042Y29975D01*
X59098Y29894D01*
X59153Y29814D01*
X59155Y29812D01*
X59157Y29810D01*
X59240Y29757D01*
X59321Y29705D01*
X59324Y29704D01*
X59326Y29703D01*
X59422Y29686D01*
X59518Y29669D01*
X59521Y29670D01*
X59523Y29669D01*
X59618Y29691D01*
X59714Y29713D01*
X59716Y29714D01*
X59719Y29715D01*
X59867Y29817D01*
X60550Y30501D01*
X63450Y30501D01*
X63633Y30317D01*
X63636Y30316D01*
X63637Y30314D01*
X63718Y30261D01*
X63800Y30206D01*
X63803Y30206D01*
X63805Y30205D01*
X63901Y30187D01*
X63997Y30169D01*
X64000Y30169D01*
X64002Y30169D01*
X64099Y30191D01*
X64193Y30210D01*
X64195Y30212D01*
X64198Y30213D01*
X64279Y30270D01*
X64358Y30325D01*
X64359Y30327D01*
X64361Y30329D01*
X64414Y30413D01*
X64465Y30494D01*
X64466Y30497D01*
X64467Y30499D01*
X64499Y30676D01*
X64499Y32450D01*
X66550Y34501D01*
X69450Y34501D01*
X71501Y32450D01*
X71501Y30176D01*
X71501Y30174D01*
X71501Y30171D01*
X71521Y30076D01*
X71540Y29980D01*
X71542Y29977D01*
X71542Y29975D01*
X71598Y29894D01*
X71653Y29814D01*
X71655Y29812D01*
X71657Y29810D01*
X71740Y29757D01*
X71821Y29705D01*
X71824Y29704D01*
X71826Y29703D01*
X71922Y29686D01*
X72018Y29669D01*
X72021Y29670D01*
X72023Y29669D01*
X72118Y29691D01*
X72214Y29713D01*
X72216Y29714D01*
X72219Y29715D01*
X72367Y29817D01*
X73050Y30501D01*
X75950Y30501D01*
X76633Y29817D01*
X76636Y29816D01*
X76637Y29814D01*
X76717Y29762D01*
X76800Y29706D01*
X76803Y29706D01*
X76805Y29705D01*
X76901Y29687D01*
X76997Y29669D01*
X77000Y29669D01*
X77002Y29669D01*
X77099Y29690D01*
X77193Y29710D01*
X77195Y29712D01*
X77198Y29713D01*
X77278Y29769D01*
X77358Y29825D01*
X77359Y29827D01*
X77361Y29829D01*
X77413Y29912D01*
X77465Y29994D01*
X77466Y29997D01*
X77467Y29999D01*
X77499Y30176D01*
X77499Y32450D01*
X79550Y34501D01*
X82450Y34501D01*
X84501Y32450D01*
X84501Y29550D01*
X82450Y27499D01*
X79550Y27499D01*
X78867Y28183D01*
X78864Y28184D01*
X78863Y28186D01*
X78783Y28238D01*
X78700Y28294D01*
X78697Y28294D01*
X78695Y28295D01*
X78599Y28313D01*
X78503Y28331D01*
X78500Y28331D01*
X78498Y28331D01*
X78401Y28310D01*
X78307Y28290D01*
X78305Y28288D01*
X78302Y28287D01*
X78222Y28231D01*
X78142Y28175D01*
X78141Y28173D01*
X78139Y28171D01*
X78087Y28088D01*
X78035Y28006D01*
X78034Y28003D01*
X78033Y28001D01*
X78001Y27824D01*
X78001Y25550D01*
X75950Y23499D01*
X73050Y23499D01*
X70999Y25550D01*
X70999Y27824D01*
X70999Y27826D01*
X70999Y27829D01*
X70979Y27924D01*
X70960Y28020D01*
X70958Y28023D01*
X70958Y28025D01*
X70902Y28106D01*
X70847Y28186D01*
X70845Y28188D01*
X70843Y28190D01*
X70760Y28243D01*
X70679Y28295D01*
X70676Y28296D01*
X70674Y28297D01*
X70578Y28314D01*
X70482Y28331D01*
X70479Y28330D01*
X70477Y28331D01*
X70382Y28309D01*
X70286Y28287D01*
X70284Y28286D01*
X70281Y28285D01*
X70133Y28183D01*
X69450Y27499D01*
X66550Y27499D01*
X66367Y27683D01*
X66364Y27684D01*
X66363Y27686D01*
X66282Y27739D01*
X66200Y27794D01*
X66197Y27794D01*
X66195Y27795D01*
X66099Y27813D01*
X66003Y27831D01*
X66000Y27831D01*
X65998Y27831D01*
X65901Y27809D01*
X65807Y27790D01*
X65805Y27788D01*
X65802Y27787D01*
X65721Y27730D01*
X65642Y27675D01*
X65641Y27673D01*
X65639Y27671D01*
X65586Y27587D01*
X65535Y27506D01*
X65534Y27503D01*
X65533Y27501D01*
X65501Y27324D01*
X65501Y25550D01*
X63450Y23499D01*
X60550Y23499D01*
X58499Y25550D01*
X58499Y27324D01*
X58499Y27326D01*
X58499Y27329D01*
X58479Y27424D01*
X58460Y27520D01*
X58458Y27523D01*
X58458Y27525D01*
X58402Y27606D01*
X58347Y27686D01*
X58345Y27688D01*
X58343Y27690D01*
X58260Y27743D01*
X58179Y27795D01*
X58176Y27796D01*
X58174Y27797D01*
X58078Y27814D01*
X57982Y27831D01*
X57979Y27830D01*
X57977Y27831D01*
X57882Y27809D01*
X57786Y27787D01*
X57784Y27786D01*
X57781Y27785D01*
X57633Y27683D01*
X56950Y26999D01*
X54050Y26999D01*
X53367Y27683D01*
X53364Y27684D01*
X53363Y27686D01*
X53283Y27738D01*
X53200Y27794D01*
X53197Y27794D01*
X53195Y27795D01*
X53099Y27813D01*
X53003Y27831D01*
X53000Y27831D01*
X52998Y27831D01*
X52901Y27810D01*
X52807Y27790D01*
X52805Y27788D01*
X52802Y27787D01*
X52722Y27731D01*
X52642Y27675D01*
X52641Y27673D01*
X52639Y27671D01*
X52587Y27588D01*
X52535Y27506D01*
X52534Y27503D01*
X52533Y27501D01*
X52501Y27324D01*
X52501Y25550D01*
X50450Y23499D01*
X47550Y23499D01*
G37*
%LPD*%
G36*
X73834Y212985D02*
X73834Y212985D01*
X73839Y212984D01*
X73931Y213006D01*
X74024Y213026D01*
X74029Y213029D01*
X74034Y213030D01*
X74182Y213133D01*
X75050Y214001D01*
X77954Y214001D01*
X77962Y214002D01*
X77970Y214001D01*
X78060Y214022D01*
X78151Y214040D01*
X78157Y214045D01*
X78165Y214047D01*
X78313Y214149D01*
X82014Y217851D01*
X97177Y217851D01*
X97184Y217852D01*
X97192Y217851D01*
X97282Y217872D01*
X97373Y217890D01*
X97380Y217895D01*
X97387Y217897D01*
X97535Y217999D01*
X108351Y228815D01*
X108355Y228821D01*
X108361Y228826D01*
X108410Y228904D01*
X108462Y228982D01*
X108463Y228989D01*
X108467Y228996D01*
X108499Y229173D01*
X108499Y230438D01*
X108933Y230871D01*
X108934Y230874D01*
X108936Y230875D01*
X108989Y230956D01*
X109044Y231038D01*
X109044Y231041D01*
X109045Y231043D01*
X109063Y231139D01*
X109081Y231235D01*
X109081Y231238D01*
X109081Y231240D01*
X109059Y231337D01*
X109040Y231431D01*
X109038Y231433D01*
X109037Y231436D01*
X108980Y231516D01*
X108925Y231596D01*
X108923Y231597D01*
X108921Y231599D01*
X108838Y231651D01*
X108756Y231703D01*
X108753Y231704D01*
X108751Y231705D01*
X108574Y231737D01*
X93177Y231737D01*
X93175Y231737D01*
X93172Y231737D01*
X93077Y231717D01*
X92981Y231698D01*
X92979Y231696D01*
X92976Y231696D01*
X92895Y231640D01*
X92815Y231585D01*
X92813Y231583D01*
X92811Y231581D01*
X92757Y231496D01*
X92706Y231417D01*
X92705Y231414D01*
X92704Y231412D01*
X92687Y231316D01*
X92670Y231220D01*
X92671Y231217D01*
X92670Y231215D01*
X92692Y231120D01*
X92714Y231024D01*
X92715Y231022D01*
X92716Y231019D01*
X92819Y230871D01*
X94149Y229541D01*
X95101Y227243D01*
X95101Y224757D01*
X94149Y222459D01*
X92391Y220701D01*
X91416Y220297D01*
X90192Y219790D01*
X90191Y219790D01*
X90093Y219749D01*
X87607Y219749D01*
X85309Y220701D01*
X83551Y222459D01*
X82969Y223865D01*
X82967Y223867D01*
X82967Y223870D01*
X82911Y223950D01*
X82857Y224031D01*
X82855Y224033D01*
X82853Y224035D01*
X82771Y224088D01*
X82689Y224141D01*
X82687Y224142D01*
X82685Y224143D01*
X82588Y224160D01*
X82492Y224178D01*
X82490Y224177D01*
X82487Y224178D01*
X82391Y224156D01*
X82296Y224135D01*
X82294Y224134D01*
X82292Y224133D01*
X82212Y224076D01*
X82132Y224020D01*
X82131Y224018D01*
X82129Y224017D01*
X82031Y223865D01*
X81449Y222459D01*
X79691Y220701D01*
X78716Y220297D01*
X77492Y219790D01*
X77491Y219790D01*
X77393Y219749D01*
X74907Y219749D01*
X72609Y220701D01*
X70851Y222459D01*
X69899Y224757D01*
X69899Y227243D01*
X70851Y229541D01*
X72181Y230871D01*
X72183Y230874D01*
X72185Y230875D01*
X72237Y230955D01*
X72292Y231038D01*
X72293Y231041D01*
X72294Y231043D01*
X72312Y231139D01*
X72330Y231235D01*
X72329Y231238D01*
X72330Y231240D01*
X72308Y231337D01*
X72288Y231431D01*
X72287Y231433D01*
X72286Y231436D01*
X72230Y231516D01*
X72174Y231596D01*
X72172Y231597D01*
X72170Y231599D01*
X72086Y231652D01*
X72005Y231703D01*
X72002Y231704D01*
X72000Y231705D01*
X71823Y231737D01*
X36999Y231737D01*
X36996Y231737D01*
X36994Y231737D01*
X36899Y231717D01*
X36802Y231698D01*
X36800Y231696D01*
X36798Y231696D01*
X36717Y231640D01*
X36636Y231585D01*
X36635Y231583D01*
X36633Y231581D01*
X36579Y231496D01*
X36527Y231417D01*
X36527Y231414D01*
X36525Y231412D01*
X36509Y231316D01*
X36492Y231220D01*
X36492Y231217D01*
X36492Y231215D01*
X36514Y231120D01*
X36535Y231024D01*
X36537Y231022D01*
X36537Y231019D01*
X36640Y230871D01*
X39251Y228261D01*
X39251Y226508D01*
X39252Y226503D01*
X39251Y226498D01*
X39272Y226405D01*
X39290Y226311D01*
X39293Y226307D01*
X39294Y226302D01*
X39350Y226224D01*
X39403Y226146D01*
X39407Y226143D01*
X39410Y226139D01*
X39492Y226088D01*
X39571Y226036D01*
X39576Y226036D01*
X39581Y226033D01*
X39758Y226001D01*
X41950Y226001D01*
X44001Y223950D01*
X44001Y222039D01*
X44002Y222031D01*
X44001Y222023D01*
X44022Y221934D01*
X44040Y221842D01*
X44045Y221836D01*
X44047Y221828D01*
X44149Y221680D01*
X44180Y221649D01*
X44187Y221645D01*
X44191Y221639D01*
X44270Y221590D01*
X44347Y221538D01*
X44355Y221537D01*
X44362Y221533D01*
X44539Y221501D01*
X55569Y221501D01*
X55574Y221502D01*
X55579Y221501D01*
X55672Y221522D01*
X55765Y221540D01*
X55770Y221543D01*
X55775Y221544D01*
X55853Y221600D01*
X55931Y221653D01*
X55934Y221657D01*
X55938Y221660D01*
X55989Y221742D01*
X56040Y221821D01*
X56041Y221826D01*
X56044Y221831D01*
X56076Y222008D01*
X56076Y224123D01*
X58127Y226174D01*
X61027Y226174D01*
X63078Y224123D01*
X63078Y221223D01*
X61027Y219172D01*
X60518Y219172D01*
X60515Y219172D01*
X60513Y219172D01*
X60418Y219152D01*
X60321Y219133D01*
X60319Y219131D01*
X60316Y219131D01*
X60236Y219075D01*
X60155Y219020D01*
X60154Y219018D01*
X60152Y219016D01*
X60099Y218933D01*
X60046Y218852D01*
X60046Y218850D01*
X60044Y218847D01*
X60028Y218751D01*
X60011Y218655D01*
X60011Y218652D01*
X60011Y218650D01*
X60033Y218556D01*
X60054Y218459D01*
X60056Y218457D01*
X60056Y218454D01*
X60159Y218306D01*
X61143Y217322D01*
X61150Y217318D01*
X61154Y217312D01*
X61233Y217263D01*
X61310Y217211D01*
X61318Y217210D01*
X61324Y217206D01*
X61502Y217174D01*
X69423Y217174D01*
X72680Y213917D01*
X73465Y213133D01*
X73469Y213130D01*
X73472Y213125D01*
X73552Y213075D01*
X73631Y213022D01*
X73637Y213021D01*
X73641Y213018D01*
X73735Y213002D01*
X73828Y212984D01*
X73834Y212985D01*
G37*
G36*
X94750Y167669D02*
X94750Y167669D01*
X94752Y167669D01*
X94849Y167690D01*
X94943Y167710D01*
X94945Y167712D01*
X94948Y167713D01*
X95028Y167769D01*
X95108Y167825D01*
X95109Y167827D01*
X95111Y167829D01*
X95163Y167912D01*
X95215Y167994D01*
X95216Y167997D01*
X95217Y167999D01*
X95249Y168176D01*
X95249Y175786D01*
X98351Y178887D01*
X98355Y178894D01*
X98361Y178898D01*
X98410Y178977D01*
X98462Y179054D01*
X98463Y179062D01*
X98464Y179063D01*
X98467Y179069D01*
X98499Y179246D01*
X98499Y180450D01*
X100550Y182501D01*
X101754Y182501D01*
X101762Y182502D01*
X101770Y182501D01*
X101859Y182522D01*
X101951Y182540D01*
X101957Y182545D01*
X101965Y182547D01*
X102113Y182649D01*
X103303Y183839D01*
X104097Y184633D01*
X104098Y184636D01*
X104100Y184637D01*
X104152Y184717D01*
X104208Y184800D01*
X104208Y184803D01*
X104210Y184805D01*
X104227Y184899D01*
X104245Y184997D01*
X104245Y185000D01*
X104245Y185002D01*
X104224Y185099D01*
X104204Y185193D01*
X104202Y185195D01*
X104202Y185198D01*
X104145Y185278D01*
X104089Y185358D01*
X104087Y185359D01*
X104086Y185361D01*
X104002Y185413D01*
X103920Y185465D01*
X103918Y185466D01*
X103915Y185467D01*
X103738Y185499D01*
X81297Y185499D01*
X79683Y187113D01*
X57069Y209728D01*
X57066Y209729D01*
X57065Y209731D01*
X56984Y209784D01*
X56902Y209838D01*
X56899Y209839D01*
X56897Y209840D01*
X56801Y209858D01*
X56705Y209876D01*
X56702Y209876D01*
X56700Y209876D01*
X56603Y209855D01*
X56509Y209834D01*
X56507Y209833D01*
X56504Y209832D01*
X56424Y209776D01*
X56344Y209720D01*
X56343Y209718D01*
X56340Y209716D01*
X56289Y209634D01*
X56236Y209551D01*
X56236Y209548D01*
X56235Y209546D01*
X56203Y209369D01*
X56203Y209156D01*
X54152Y207105D01*
X51252Y207105D01*
X50013Y208344D01*
X50008Y208347D01*
X50005Y208352D01*
X49925Y208402D01*
X49846Y208455D01*
X49840Y208456D01*
X49836Y208459D01*
X49742Y208475D01*
X49649Y208493D01*
X49644Y208492D01*
X49638Y208493D01*
X49546Y208471D01*
X49453Y208451D01*
X49448Y208448D01*
X49443Y208447D01*
X49295Y208344D01*
X48149Y207199D01*
X48145Y207192D01*
X48139Y207187D01*
X48090Y207109D01*
X48038Y207032D01*
X48037Y207024D01*
X48033Y207017D01*
X48001Y206840D01*
X48001Y201675D01*
X48002Y201667D01*
X48001Y201659D01*
X48022Y201570D01*
X48040Y201478D01*
X48045Y201472D01*
X48047Y201464D01*
X48149Y201316D01*
X50816Y198649D01*
X50823Y198645D01*
X50827Y198639D01*
X50906Y198590D01*
X50983Y198538D01*
X50991Y198537D01*
X50998Y198533D01*
X51175Y198501D01*
X61225Y198501D01*
X62253Y197473D01*
X91077Y168649D01*
X91083Y168645D01*
X91088Y168639D01*
X91166Y168590D01*
X91244Y168538D01*
X91251Y168537D01*
X91258Y168533D01*
X91435Y168501D01*
X93700Y168501D01*
X94383Y167817D01*
X94386Y167816D01*
X94387Y167814D01*
X94467Y167762D01*
X94550Y167706D01*
X94553Y167706D01*
X94555Y167705D01*
X94651Y167687D01*
X94747Y167669D01*
X94750Y167669D01*
G37*
%LPC*%
G36*
X92050Y53499D02*
X92050Y53499D01*
X89999Y55550D01*
X89999Y57824D01*
X89999Y57826D01*
X89999Y57829D01*
X89979Y57924D01*
X89960Y58020D01*
X89958Y58023D01*
X89958Y58025D01*
X89902Y58106D01*
X89847Y58186D01*
X89845Y58188D01*
X89843Y58190D01*
X89760Y58243D01*
X89679Y58295D01*
X89676Y58296D01*
X89674Y58297D01*
X89578Y58314D01*
X89482Y58331D01*
X89479Y58330D01*
X89477Y58331D01*
X89382Y58309D01*
X89286Y58287D01*
X89284Y58286D01*
X89281Y58285D01*
X89133Y58183D01*
X87950Y56999D01*
X85050Y56999D01*
X84867Y57183D01*
X84864Y57184D01*
X84863Y57186D01*
X84782Y57239D01*
X84700Y57294D01*
X84697Y57294D01*
X84695Y57295D01*
X84599Y57313D01*
X84503Y57331D01*
X84500Y57331D01*
X84498Y57331D01*
X84401Y57309D01*
X84307Y57290D01*
X84305Y57288D01*
X84302Y57287D01*
X84221Y57230D01*
X84142Y57175D01*
X84141Y57173D01*
X84139Y57171D01*
X84086Y57087D01*
X84035Y57006D01*
X84034Y57003D01*
X84033Y57001D01*
X84001Y56824D01*
X84001Y56050D01*
X81950Y53999D01*
X79050Y53999D01*
X76999Y56050D01*
X76999Y58950D01*
X79050Y61001D01*
X81950Y61001D01*
X82133Y60817D01*
X82136Y60816D01*
X82137Y60814D01*
X82218Y60761D01*
X82300Y60706D01*
X82303Y60706D01*
X82305Y60705D01*
X82401Y60687D01*
X82497Y60669D01*
X82500Y60669D01*
X82502Y60669D01*
X82599Y60691D01*
X82693Y60710D01*
X82695Y60712D01*
X82698Y60713D01*
X82779Y60770D01*
X82858Y60825D01*
X82859Y60827D01*
X82861Y60829D01*
X82914Y60913D01*
X82965Y60994D01*
X82966Y60997D01*
X82967Y60999D01*
X82999Y61176D01*
X82999Y61950D01*
X85050Y64001D01*
X87950Y64001D01*
X90001Y61950D01*
X90001Y59676D01*
X90001Y59674D01*
X90001Y59671D01*
X90021Y59576D01*
X90040Y59480D01*
X90042Y59477D01*
X90042Y59475D01*
X90098Y59394D01*
X90153Y59314D01*
X90155Y59312D01*
X90157Y59310D01*
X90240Y59257D01*
X90321Y59205D01*
X90324Y59204D01*
X90326Y59203D01*
X90422Y59186D01*
X90518Y59169D01*
X90521Y59170D01*
X90523Y59169D01*
X90618Y59191D01*
X90714Y59213D01*
X90716Y59214D01*
X90719Y59215D01*
X90867Y59317D01*
X92050Y60501D01*
X94950Y60501D01*
X95133Y60317D01*
X95136Y60316D01*
X95137Y60314D01*
X95218Y60261D01*
X95300Y60206D01*
X95303Y60206D01*
X95305Y60205D01*
X95401Y60187D01*
X95497Y60169D01*
X95500Y60169D01*
X95502Y60169D01*
X95599Y60191D01*
X95693Y60210D01*
X95695Y60212D01*
X95698Y60213D01*
X95779Y60270D01*
X95858Y60325D01*
X95859Y60327D01*
X95861Y60329D01*
X95914Y60413D01*
X95965Y60494D01*
X95966Y60497D01*
X95967Y60499D01*
X95999Y60676D01*
X95999Y61950D01*
X98050Y64001D01*
X100950Y64001D01*
X103001Y61950D01*
X103001Y60676D01*
X103001Y60674D01*
X103001Y60671D01*
X103021Y60576D01*
X103040Y60480D01*
X103042Y60477D01*
X103042Y60475D01*
X103098Y60394D01*
X103153Y60314D01*
X103155Y60312D01*
X103157Y60310D01*
X103240Y60257D01*
X103321Y60205D01*
X103324Y60204D01*
X103326Y60203D01*
X103422Y60186D01*
X103518Y60169D01*
X103521Y60170D01*
X103523Y60169D01*
X103618Y60191D01*
X103714Y60213D01*
X103716Y60214D01*
X103719Y60215D01*
X103867Y60317D01*
X104550Y61001D01*
X107450Y61001D01*
X107633Y60817D01*
X107636Y60816D01*
X107637Y60814D01*
X107718Y60761D01*
X107800Y60706D01*
X107803Y60706D01*
X107805Y60705D01*
X107901Y60687D01*
X107997Y60669D01*
X108000Y60669D01*
X108002Y60669D01*
X108099Y60691D01*
X108193Y60710D01*
X108195Y60712D01*
X108198Y60713D01*
X108279Y60770D01*
X108358Y60825D01*
X108359Y60827D01*
X108361Y60829D01*
X108414Y60913D01*
X108465Y60994D01*
X108466Y60997D01*
X108467Y60999D01*
X108499Y61176D01*
X108499Y61450D01*
X110550Y63501D01*
X113450Y63501D01*
X115501Y61450D01*
X115501Y60176D01*
X115501Y60174D01*
X115501Y60171D01*
X115521Y60076D01*
X115540Y59980D01*
X115542Y59977D01*
X115542Y59975D01*
X115598Y59894D01*
X115653Y59814D01*
X115655Y59812D01*
X115657Y59810D01*
X115740Y59757D01*
X115821Y59705D01*
X115824Y59704D01*
X115826Y59703D01*
X115922Y59686D01*
X116018Y59669D01*
X116021Y59670D01*
X116023Y59669D01*
X116118Y59691D01*
X116214Y59713D01*
X116216Y59714D01*
X116219Y59715D01*
X116367Y59817D01*
X117050Y60501D01*
X119950Y60501D01*
X120133Y60317D01*
X120136Y60316D01*
X120137Y60314D01*
X120218Y60261D01*
X120300Y60206D01*
X120303Y60206D01*
X120305Y60205D01*
X120401Y60187D01*
X120497Y60169D01*
X120500Y60169D01*
X120502Y60169D01*
X120599Y60191D01*
X120693Y60210D01*
X120695Y60212D01*
X120698Y60213D01*
X120779Y60270D01*
X120858Y60325D01*
X120859Y60327D01*
X120861Y60329D01*
X120914Y60413D01*
X120965Y60494D01*
X120966Y60497D01*
X120967Y60499D01*
X120999Y60676D01*
X120999Y62950D01*
X123050Y65001D01*
X125950Y65001D01*
X128001Y62950D01*
X128001Y60176D01*
X128001Y60174D01*
X128001Y60171D01*
X128021Y60076D01*
X128040Y59980D01*
X128042Y59977D01*
X128042Y59975D01*
X128098Y59894D01*
X128153Y59814D01*
X128155Y59812D01*
X128157Y59810D01*
X128240Y59757D01*
X128321Y59705D01*
X128324Y59704D01*
X128326Y59703D01*
X128422Y59686D01*
X128518Y59669D01*
X128521Y59670D01*
X128523Y59669D01*
X128618Y59691D01*
X128714Y59713D01*
X128716Y59714D01*
X128719Y59715D01*
X128867Y59817D01*
X129691Y60641D01*
X129693Y60646D01*
X129698Y60649D01*
X129749Y60729D01*
X129801Y60808D01*
X129802Y60813D01*
X129805Y60818D01*
X129821Y60912D01*
X129839Y61005D01*
X129838Y61010D01*
X129839Y61016D01*
X129817Y61107D01*
X129797Y61201D01*
X129794Y61206D01*
X129793Y61211D01*
X129691Y61359D01*
X129499Y61550D01*
X129499Y64450D01*
X131550Y66501D01*
X134450Y66501D01*
X136501Y64450D01*
X136501Y61550D01*
X134309Y59359D01*
X134307Y59354D01*
X134302Y59351D01*
X134251Y59271D01*
X134199Y59192D01*
X134198Y59187D01*
X134195Y59182D01*
X134179Y59088D01*
X134161Y58995D01*
X134162Y58990D01*
X134161Y58985D01*
X134183Y58892D01*
X134203Y58799D01*
X134206Y58794D01*
X134207Y58789D01*
X134309Y58641D01*
X134501Y58450D01*
X134501Y55550D01*
X132450Y53499D01*
X129550Y53499D01*
X127499Y55550D01*
X127499Y58324D01*
X127499Y58326D01*
X127499Y58329D01*
X127479Y58424D01*
X127460Y58520D01*
X127458Y58523D01*
X127458Y58525D01*
X127402Y58606D01*
X127347Y58686D01*
X127345Y58688D01*
X127343Y58690D01*
X127260Y58743D01*
X127179Y58795D01*
X127176Y58796D01*
X127174Y58797D01*
X127078Y58814D01*
X126982Y58831D01*
X126979Y58830D01*
X126977Y58831D01*
X126882Y58809D01*
X126786Y58787D01*
X126784Y58786D01*
X126781Y58785D01*
X126633Y58683D01*
X125950Y57999D01*
X123050Y57999D01*
X122867Y58183D01*
X122864Y58184D01*
X122863Y58186D01*
X122782Y58239D01*
X122700Y58294D01*
X122697Y58294D01*
X122695Y58295D01*
X122599Y58313D01*
X122503Y58331D01*
X122500Y58331D01*
X122498Y58331D01*
X122401Y58309D01*
X122307Y58290D01*
X122305Y58288D01*
X122302Y58287D01*
X122221Y58230D01*
X122142Y58175D01*
X122141Y58173D01*
X122139Y58171D01*
X122086Y58087D01*
X122035Y58006D01*
X122034Y58003D01*
X122033Y58001D01*
X122001Y57824D01*
X122001Y55550D01*
X119950Y53499D01*
X117050Y53499D01*
X114999Y55550D01*
X114999Y56824D01*
X114999Y56826D01*
X114999Y56829D01*
X114979Y56924D01*
X114960Y57020D01*
X114958Y57023D01*
X114958Y57025D01*
X114902Y57106D01*
X114847Y57186D01*
X114845Y57188D01*
X114843Y57190D01*
X114760Y57243D01*
X114679Y57295D01*
X114676Y57296D01*
X114674Y57297D01*
X114578Y57314D01*
X114482Y57331D01*
X114479Y57330D01*
X114477Y57331D01*
X114382Y57309D01*
X114286Y57287D01*
X114284Y57286D01*
X114281Y57285D01*
X114133Y57183D01*
X113450Y56499D01*
X110550Y56499D01*
X110367Y56683D01*
X110364Y56684D01*
X110363Y56686D01*
X110282Y56739D01*
X110200Y56794D01*
X110197Y56794D01*
X110195Y56795D01*
X110099Y56813D01*
X110003Y56831D01*
X110000Y56831D01*
X109998Y56831D01*
X109901Y56809D01*
X109807Y56790D01*
X109805Y56788D01*
X109802Y56787D01*
X109721Y56730D01*
X109642Y56675D01*
X109641Y56673D01*
X109639Y56671D01*
X109586Y56587D01*
X109535Y56506D01*
X109534Y56503D01*
X109533Y56501D01*
X109501Y56324D01*
X109501Y56050D01*
X107450Y53999D01*
X104550Y53999D01*
X102499Y56050D01*
X102499Y57324D01*
X102499Y57326D01*
X102499Y57329D01*
X102479Y57424D01*
X102460Y57520D01*
X102458Y57523D01*
X102458Y57525D01*
X102402Y57606D01*
X102347Y57686D01*
X102345Y57688D01*
X102343Y57690D01*
X102260Y57743D01*
X102179Y57795D01*
X102176Y57796D01*
X102174Y57797D01*
X102078Y57814D01*
X101982Y57831D01*
X101979Y57830D01*
X101977Y57831D01*
X101882Y57809D01*
X101786Y57787D01*
X101784Y57786D01*
X101781Y57785D01*
X101633Y57683D01*
X100950Y56999D01*
X98050Y56999D01*
X97867Y57183D01*
X97864Y57184D01*
X97863Y57186D01*
X97782Y57239D01*
X97700Y57294D01*
X97697Y57294D01*
X97695Y57295D01*
X97599Y57313D01*
X97503Y57331D01*
X97500Y57331D01*
X97498Y57331D01*
X97401Y57309D01*
X97307Y57290D01*
X97305Y57288D01*
X97302Y57287D01*
X97221Y57230D01*
X97142Y57175D01*
X97141Y57173D01*
X97139Y57171D01*
X97086Y57087D01*
X97035Y57006D01*
X97034Y57003D01*
X97033Y57001D01*
X97001Y56824D01*
X97001Y55550D01*
X94950Y53499D01*
X92050Y53499D01*
G37*
%LPD*%
%LPC*%
G36*
X53050Y54999D02*
X53050Y54999D01*
X50999Y57050D01*
X50999Y59950D01*
X51006Y59957D01*
X51008Y59959D01*
X51010Y59961D01*
X51063Y60042D01*
X51117Y60124D01*
X51118Y60127D01*
X51119Y60129D01*
X51137Y60226D01*
X51155Y60321D01*
X51154Y60324D01*
X51155Y60326D01*
X51134Y60422D01*
X51113Y60517D01*
X51112Y60519D01*
X51111Y60522D01*
X51055Y60602D01*
X50999Y60682D01*
X50997Y60683D01*
X50995Y60685D01*
X50912Y60737D01*
X50830Y60789D01*
X50827Y60790D01*
X50825Y60791D01*
X50648Y60823D01*
X49024Y60823D01*
X49019Y60822D01*
X49014Y60823D01*
X48921Y60802D01*
X48827Y60784D01*
X48823Y60781D01*
X48818Y60779D01*
X48740Y60724D01*
X48662Y60671D01*
X48659Y60667D01*
X48655Y60663D01*
X48604Y60582D01*
X48552Y60503D01*
X48552Y60498D01*
X48549Y60493D01*
X48517Y60316D01*
X48517Y57550D01*
X46466Y55499D01*
X43566Y55499D01*
X41515Y57550D01*
X41515Y60450D01*
X43566Y62501D01*
X45316Y62501D01*
X45321Y62502D01*
X45326Y62501D01*
X45419Y62522D01*
X45512Y62540D01*
X45517Y62543D01*
X45522Y62544D01*
X45600Y62600D01*
X45678Y62653D01*
X45681Y62657D01*
X45685Y62660D01*
X45736Y62742D01*
X45787Y62821D01*
X45788Y62826D01*
X45791Y62831D01*
X45823Y63008D01*
X45823Y65774D01*
X47874Y67825D01*
X50774Y67825D01*
X52825Y65774D01*
X52825Y62874D01*
X52817Y62867D01*
X52816Y62864D01*
X52814Y62863D01*
X52761Y62782D01*
X52707Y62700D01*
X52706Y62697D01*
X52705Y62695D01*
X52687Y62598D01*
X52669Y62503D01*
X52669Y62500D01*
X52669Y62498D01*
X52690Y62402D01*
X52710Y62307D01*
X52712Y62305D01*
X52713Y62302D01*
X52769Y62222D01*
X52825Y62142D01*
X52827Y62141D01*
X52829Y62139D01*
X52911Y62087D01*
X52994Y62035D01*
X52997Y62034D01*
X52999Y62033D01*
X53176Y62001D01*
X55950Y62001D01*
X56133Y61817D01*
X56136Y61816D01*
X56137Y61814D01*
X56218Y61761D01*
X56300Y61706D01*
X56303Y61706D01*
X56305Y61705D01*
X56401Y61687D01*
X56497Y61669D01*
X56500Y61669D01*
X56502Y61669D01*
X56599Y61691D01*
X56693Y61710D01*
X56695Y61712D01*
X56698Y61713D01*
X56779Y61770D01*
X56858Y61825D01*
X56859Y61827D01*
X56861Y61829D01*
X56914Y61913D01*
X56965Y61994D01*
X56966Y61997D01*
X56967Y61999D01*
X56999Y62176D01*
X56999Y63450D01*
X59050Y65501D01*
X61950Y65501D01*
X64001Y63450D01*
X64001Y61676D01*
X64001Y61674D01*
X64001Y61671D01*
X64021Y61576D01*
X64040Y61480D01*
X64042Y61477D01*
X64042Y61475D01*
X64098Y61394D01*
X64153Y61314D01*
X64155Y61312D01*
X64157Y61310D01*
X64240Y61257D01*
X64321Y61205D01*
X64324Y61204D01*
X64326Y61203D01*
X64422Y61186D01*
X64518Y61169D01*
X64521Y61170D01*
X64523Y61169D01*
X64618Y61191D01*
X64714Y61213D01*
X64716Y61214D01*
X64719Y61215D01*
X64867Y61317D01*
X66050Y62501D01*
X68950Y62501D01*
X69633Y61817D01*
X69636Y61816D01*
X69637Y61814D01*
X69717Y61762D01*
X69800Y61706D01*
X69803Y61706D01*
X69805Y61705D01*
X69901Y61687D01*
X69997Y61669D01*
X70000Y61669D01*
X70002Y61669D01*
X70099Y61690D01*
X70193Y61710D01*
X70195Y61712D01*
X70198Y61713D01*
X70278Y61769D01*
X70358Y61825D01*
X70359Y61827D01*
X70361Y61829D01*
X70413Y61912D01*
X70465Y61994D01*
X70466Y61997D01*
X70467Y61999D01*
X70499Y62176D01*
X70499Y64950D01*
X72550Y67001D01*
X75450Y67001D01*
X77501Y64950D01*
X77501Y62050D01*
X75450Y59999D01*
X72550Y59999D01*
X71867Y60683D01*
X71864Y60684D01*
X71863Y60686D01*
X71783Y60738D01*
X71700Y60794D01*
X71697Y60794D01*
X71695Y60795D01*
X71599Y60813D01*
X71503Y60831D01*
X71500Y60831D01*
X71498Y60831D01*
X71401Y60810D01*
X71307Y60790D01*
X71305Y60788D01*
X71302Y60787D01*
X71222Y60731D01*
X71142Y60675D01*
X71141Y60673D01*
X71139Y60671D01*
X71087Y60588D01*
X71035Y60506D01*
X71034Y60503D01*
X71033Y60501D01*
X71001Y60324D01*
X71001Y57550D01*
X68950Y55499D01*
X66050Y55499D01*
X63999Y57550D01*
X63999Y59324D01*
X63999Y59326D01*
X63999Y59329D01*
X63979Y59424D01*
X63960Y59520D01*
X63958Y59523D01*
X63958Y59525D01*
X63902Y59606D01*
X63847Y59686D01*
X63845Y59688D01*
X63843Y59690D01*
X63760Y59743D01*
X63679Y59795D01*
X63676Y59796D01*
X63674Y59797D01*
X63578Y59814D01*
X63482Y59831D01*
X63479Y59830D01*
X63477Y59831D01*
X63382Y59809D01*
X63286Y59787D01*
X63284Y59786D01*
X63281Y59785D01*
X63133Y59683D01*
X61950Y58499D01*
X59050Y58499D01*
X58867Y58683D01*
X58864Y58684D01*
X58863Y58686D01*
X58782Y58739D01*
X58700Y58794D01*
X58697Y58794D01*
X58695Y58795D01*
X58599Y58813D01*
X58503Y58831D01*
X58500Y58831D01*
X58498Y58831D01*
X58401Y58809D01*
X58307Y58790D01*
X58305Y58788D01*
X58302Y58787D01*
X58221Y58730D01*
X58142Y58675D01*
X58141Y58673D01*
X58139Y58671D01*
X58086Y58587D01*
X58035Y58506D01*
X58034Y58503D01*
X58033Y58501D01*
X58001Y58324D01*
X58001Y57050D01*
X55950Y54999D01*
X53050Y54999D01*
G37*
%LPD*%
G36*
X92906Y201002D02*
X92906Y201002D01*
X92913Y201001D01*
X93003Y201022D01*
X93094Y201040D01*
X93101Y201045D01*
X93109Y201047D01*
X93257Y201149D01*
X102101Y209993D01*
X102105Y210000D01*
X102111Y210005D01*
X102160Y210083D01*
X102212Y210160D01*
X102213Y210168D01*
X102217Y210175D01*
X102249Y210352D01*
X102249Y211501D01*
X102249Y211504D01*
X102249Y211506D01*
X102229Y211601D01*
X102210Y211698D01*
X102208Y211700D01*
X102208Y211702D01*
X102152Y211783D01*
X102097Y211864D01*
X102095Y211865D01*
X102093Y211867D01*
X102010Y211920D01*
X101929Y211973D01*
X101926Y211973D01*
X101924Y211975D01*
X101828Y211991D01*
X101732Y212008D01*
X101729Y212008D01*
X101727Y212008D01*
X101632Y211986D01*
X101536Y211965D01*
X101534Y211963D01*
X101531Y211963D01*
X101383Y211860D01*
X100373Y210849D01*
X87008Y210849D01*
X87003Y210848D01*
X86998Y210849D01*
X86905Y210828D01*
X86811Y210810D01*
X86807Y210807D01*
X86802Y210806D01*
X86724Y210750D01*
X86646Y210697D01*
X86643Y210693D01*
X86639Y210690D01*
X86588Y210608D01*
X86536Y210529D01*
X86536Y210524D01*
X86533Y210519D01*
X86501Y210342D01*
X86501Y208900D01*
X84450Y206849D01*
X81550Y206849D01*
X80034Y208366D01*
X80029Y208368D01*
X80026Y208373D01*
X79946Y208424D01*
X79867Y208476D01*
X79862Y208477D01*
X79857Y208480D01*
X79763Y208496D01*
X79670Y208514D01*
X79665Y208513D01*
X79660Y208514D01*
X79567Y208492D01*
X79474Y208472D01*
X79469Y208469D01*
X79464Y208468D01*
X79316Y208366D01*
X77950Y206999D01*
X77691Y206999D01*
X77688Y206999D01*
X77686Y206999D01*
X77591Y206979D01*
X77494Y206960D01*
X77492Y206958D01*
X77490Y206958D01*
X77409Y206902D01*
X77328Y206847D01*
X77327Y206845D01*
X77325Y206843D01*
X77272Y206760D01*
X77219Y206679D01*
X77219Y206676D01*
X77217Y206674D01*
X77201Y206578D01*
X77184Y206482D01*
X77184Y206479D01*
X77184Y206477D01*
X77206Y206383D01*
X77227Y206286D01*
X77229Y206284D01*
X77229Y206281D01*
X77332Y206133D01*
X82316Y201149D01*
X82323Y201145D01*
X82327Y201139D01*
X82406Y201090D01*
X82483Y201038D01*
X82491Y201037D01*
X82498Y201033D01*
X82675Y201001D01*
X92898Y201001D01*
X92906Y201002D01*
G37*
%LPC*%
G36*
X86050Y136499D02*
X86050Y136499D01*
X83999Y138550D01*
X83999Y141450D01*
X86050Y143501D01*
X88950Y143501D01*
X90133Y142317D01*
X90136Y142316D01*
X90137Y142314D01*
X90217Y142262D01*
X90300Y142206D01*
X90303Y142206D01*
X90305Y142205D01*
X90401Y142187D01*
X90497Y142169D01*
X90500Y142169D01*
X90502Y142169D01*
X90599Y142190D01*
X90693Y142210D01*
X90695Y142212D01*
X90698Y142213D01*
X90778Y142269D01*
X90858Y142325D01*
X90859Y142327D01*
X90861Y142329D01*
X90914Y142412D01*
X90965Y142494D01*
X90966Y142497D01*
X90967Y142499D01*
X90999Y142676D01*
X90999Y142950D01*
X93050Y145001D01*
X95950Y145001D01*
X98001Y142950D01*
X98001Y140050D01*
X95950Y137999D01*
X93050Y137999D01*
X91867Y139183D01*
X91864Y139184D01*
X91863Y139186D01*
X91783Y139238D01*
X91700Y139294D01*
X91697Y139294D01*
X91695Y139295D01*
X91599Y139313D01*
X91503Y139331D01*
X91500Y139331D01*
X91498Y139331D01*
X91401Y139310D01*
X91307Y139290D01*
X91305Y139288D01*
X91302Y139287D01*
X91222Y139231D01*
X91142Y139175D01*
X91141Y139173D01*
X91139Y139171D01*
X91086Y139088D01*
X91035Y139006D01*
X91034Y139003D01*
X91033Y139001D01*
X91001Y138824D01*
X91001Y138550D01*
X88950Y136499D01*
X86050Y136499D01*
G37*
%LPD*%
%LPC*%
G36*
X155550Y202499D02*
X155550Y202499D01*
X153499Y204550D01*
X153499Y207450D01*
X155550Y209501D01*
X158450Y209501D01*
X160501Y207450D01*
X160501Y204550D01*
X158450Y202499D01*
X155550Y202499D01*
G37*
%LPD*%
%LPC*%
G36*
X21050Y176921D02*
X21050Y176921D01*
X18999Y178972D01*
X18999Y181872D01*
X21050Y183923D01*
X23950Y183923D01*
X26001Y181872D01*
X26001Y178972D01*
X23950Y176921D01*
X21050Y176921D01*
G37*
%LPD*%
%LPC*%
G36*
X55050Y136999D02*
X55050Y136999D01*
X52999Y139050D01*
X52999Y141950D01*
X55050Y144001D01*
X57950Y144001D01*
X60001Y141950D01*
X60001Y139050D01*
X57950Y136999D01*
X55050Y136999D01*
G37*
%LPD*%
%LPC*%
G36*
X141550Y121499D02*
X141550Y121499D01*
X139499Y123550D01*
X139499Y126450D01*
X141550Y128501D01*
X144450Y128501D01*
X146501Y126450D01*
X146501Y123550D01*
X144450Y121499D01*
X141550Y121499D01*
G37*
%LPD*%
%LPC*%
G36*
X70550Y111499D02*
X70550Y111499D01*
X68499Y113550D01*
X68499Y116450D01*
X70550Y118501D01*
X73450Y118501D01*
X75501Y116450D01*
X75501Y113550D01*
X73450Y111499D01*
X70550Y111499D01*
G37*
%LPD*%
%LPC*%
G36*
X97550Y109999D02*
X97550Y109999D01*
X95499Y112050D01*
X95499Y114950D01*
X97550Y117001D01*
X100450Y117001D01*
X102501Y114950D01*
X102501Y112050D01*
X100450Y109999D01*
X97550Y109999D01*
G37*
%LPD*%
%LPC*%
G36*
X147550Y99499D02*
X147550Y99499D01*
X145499Y101550D01*
X145499Y104450D01*
X147550Y106501D01*
X150450Y106501D01*
X152501Y104450D01*
X152501Y101550D01*
X150450Y99499D01*
X147550Y99499D01*
G37*
%LPD*%
%LPC*%
G36*
X81050Y98999D02*
X81050Y98999D01*
X78999Y101050D01*
X78999Y103950D01*
X81050Y106001D01*
X83950Y106001D01*
X86001Y103950D01*
X86001Y101050D01*
X83950Y98999D01*
X81050Y98999D01*
G37*
%LPD*%
%LPC*%
G36*
X157550Y97499D02*
X157550Y97499D01*
X155499Y99550D01*
X155499Y102450D01*
X157550Y104501D01*
X160450Y104501D01*
X162501Y102450D01*
X162501Y99550D01*
X160450Y97499D01*
X157550Y97499D01*
G37*
%LPD*%
%LPC*%
G36*
X85550Y20499D02*
X85550Y20499D01*
X83499Y22550D01*
X83499Y25450D01*
X85550Y27501D01*
X88450Y27501D01*
X90501Y25450D01*
X90501Y22550D01*
X88450Y20499D01*
X85550Y20499D01*
G37*
%LPD*%
D10*
X76150Y226000D03*
X88850Y226000D03*
D11*
X35000Y226500D03*
X25000Y226500D03*
D10*
X20500Y210850D03*
X20500Y198150D03*
X159000Y137550D03*
X159000Y150250D03*
X159000Y112150D03*
X159000Y124850D03*
D12*
X37000Y58000D03*
X144000Y30000D03*
X159000Y101000D03*
X150000Y138000D03*
X18000Y93500D03*
X87000Y14000D03*
X82500Y102500D03*
X99000Y113500D03*
D13*
X87000Y14000D02*
X132000Y14000D01*
X144000Y26000D01*
X144000Y30000D01*
X29750Y26740D02*
X29750Y51260D01*
X36490Y58000D02*
X37000Y58000D01*
X36490Y58000D02*
X29750Y51260D01*
X29750Y26740D02*
X42490Y14000D01*
X87000Y14000D01*
D12*
X37000Y30000D03*
X144000Y59000D03*
X157500Y86500D03*
D14*
X144000Y73000D02*
X144000Y59000D01*
X144000Y73000D02*
X157500Y86500D01*
X144000Y59000D02*
X144000Y57332D01*
X130660Y43992D01*
X50992Y43992D02*
X37000Y30000D01*
X50992Y43992D02*
X130660Y43992D01*
D12*
X94500Y141500D03*
X33786Y158750D03*
X24000Y169500D03*
X23871Y163500D03*
X20000Y156000D03*
X27500Y143500D03*
X77000Y135000D03*
X161000Y187500D03*
X146000Y144000D03*
X128500Y143500D03*
X157000Y159000D03*
X52918Y176282D03*
X80250Y171697D03*
X139500Y187000D03*
X133000Y204000D03*
X102000Y228988D03*
X17512Y220000D03*
X63869Y228988D03*
X42000Y163000D03*
X92500Y208000D03*
X66500Y165000D03*
X53500Y191500D03*
X116000Y176000D03*
X51500Y201500D03*
X157000Y223500D03*
X154550Y216000D03*
X108900Y154150D03*
X41500Y73500D03*
X137500Y70500D03*
X141000Y161000D03*
X37500Y201000D03*
X150500Y182000D03*
X34000Y144500D03*
X102000Y179000D03*
X37250Y169149D03*
D15*
X38399Y168000D01*
X47000Y168000D01*
X47000Y159929D01*
X47000Y157929D01*
X34000Y144929D01*
X34000Y144500D01*
X95321Y159500D02*
X97750Y161929D01*
X97750Y174750D02*
X102000Y179000D01*
X97750Y174750D02*
X97750Y161929D01*
X102000Y179000D02*
X105952Y182952D01*
X133477Y182952D01*
X134429Y182000D01*
X150500Y182000D01*
X47429Y159500D02*
X47000Y159929D01*
X47429Y159500D02*
X95321Y159500D01*
D12*
X108500Y205000D03*
X36750Y176831D03*
X38500Y193768D03*
X56500Y140500D03*
X76500Y210500D03*
X112000Y228988D03*
D13*
X77140Y210500D02*
X76500Y210500D01*
X77140Y210500D02*
X82740Y216100D01*
X111000Y228988D02*
X112000Y228988D01*
X111000Y228988D02*
X98112Y216100D01*
X82740Y216100D01*
D12*
X83000Y210350D03*
X136750Y228988D03*
D13*
X85250Y212600D02*
X83000Y210350D01*
X85250Y212600D02*
X99648Y212600D01*
X111786Y224738D02*
X113760Y224738D01*
X111786Y224738D02*
X99648Y212600D01*
X113760Y224738D02*
X118010Y228988D01*
X136750Y228988D01*
D12*
X72000Y115000D03*
X143000Y125000D03*
X32500Y103500D03*
X94000Y29000D03*
X149000Y103000D03*
X100000Y26500D03*
X106500Y30000D03*
X113000Y28000D03*
X119000Y30000D03*
X125500Y28000D03*
X132000Y30000D03*
X138000Y28000D03*
X133000Y63000D03*
X131000Y57000D03*
X124500Y61500D03*
X118500Y57000D03*
X112000Y60000D03*
X106000Y57500D03*
X99500Y60500D03*
X93500Y57000D03*
X86500Y60500D03*
X80500Y57500D03*
X74000Y63500D03*
X67500Y59000D03*
X60500Y62000D03*
X54500Y58500D03*
X49324Y64324D03*
X45016Y59000D03*
X43000Y30000D03*
X49000Y27000D03*
X55500Y30500D03*
X62000Y27000D03*
X68000Y31000D03*
X74500Y27000D03*
X87000Y24000D03*
X81000Y31000D03*
X20825Y128750D03*
D15*
X20825Y148754D01*
X26500Y154429D01*
D12*
X122500Y191202D03*
D15*
X43500Y206429D02*
X41500Y208429D01*
X41500Y212571D01*
X54773Y215606D02*
X57702Y212677D01*
X31750Y178902D02*
X31750Y163786D01*
X26500Y158536D01*
X41500Y212571D02*
X44535Y215606D01*
X54773Y215606D01*
X57702Y212677D02*
X57702Y212631D01*
X82333Y188000D01*
X43500Y190652D02*
X31750Y178902D01*
X43500Y190652D02*
X43500Y206429D01*
X26500Y158536D02*
X26500Y154429D01*
X119298Y188000D02*
X122500Y191202D01*
X119298Y188000D02*
X82333Y188000D01*
D12*
X24000Y95000D03*
X106000Y199000D03*
X105500Y193000D03*
X18012Y229000D03*
X67054Y210350D03*
X31702Y220298D03*
X46500Y210500D03*
X92250Y165000D03*
D16*
X92250Y165354D01*
X60604Y197000D01*
X50343Y197000D02*
X46500Y200843D01*
X46500Y210500D01*
X50343Y197000D02*
X60604Y197000D01*
D12*
X52702Y210606D03*
X59577Y222673D03*
X22500Y180422D03*
X39500Y106150D03*
X87500Y140000D03*
X17697Y87500D03*
X62250Y151250D03*
D16*
X28500Y126500D02*
X28500Y92343D01*
X23657Y87500D02*
X17697Y87500D01*
X23657Y87500D02*
X28500Y92343D01*
X53250Y151250D02*
X62250Y151250D01*
X53250Y151250D02*
X28500Y126500D01*
D12*
X157000Y206000D03*
X162220Y169386D03*
X40500Y222500D03*
X146500Y193000D03*
D17*
X56136Y219500D02*
X43500Y219500D01*
X40500Y222500D01*
X137500Y202000D02*
X146500Y193000D01*
X137500Y202000D02*
X137500Y205864D01*
X60463Y215173D02*
X56136Y219500D01*
X93937Y199000D02*
X105218Y210282D01*
X133864Y209500D02*
X137500Y205864D01*
X68595Y215173D02*
X60463Y215173D01*
X68595Y215173D02*
X72000Y211768D01*
X72000Y208636D01*
X81636Y199000D01*
X93937Y199000D01*
D12*
X105750Y210528D03*
D17*
X105503Y210282D02*
X105218Y210282D01*
X105503Y210282D02*
X105750Y210528D01*
X106778Y209500D01*
X133864Y209500D01*
M02*
