G04 EAGLE Gerber RS-274X export*
G75*
%MOMM*%
%FSLAX34Y34*%
%LPD*%
%INCopper Layer 2*%
%IPPOS*%
%AMOC8*
5,1,8,0,0,1.08239X$1,22.5*%
G01*
%ADD10C,1.050000*%
%ADD11C,0.650000*%
%ADD12C,0.500000*%
%ADD13C,0.300000*%
%ADD14C,0.200000*%
%ADD15C,0.150000*%
%ADD16C,0.300000*%
%ADD17C,0.100000*%
%ADD18C,0.101600*%

G36*
X154446Y5264D02*
X154446Y5264D01*
X154454Y5263D01*
X154544Y5284D01*
X154635Y5302D01*
X154641Y5307D01*
X154649Y5309D01*
X154797Y5411D01*
X164589Y15203D01*
X164593Y15209D01*
X164599Y15214D01*
X164648Y15293D01*
X164700Y15370D01*
X164701Y15378D01*
X164705Y15384D01*
X164737Y15562D01*
X164737Y107823D01*
X164737Y107825D01*
X164737Y107828D01*
X164717Y107923D01*
X164698Y108019D01*
X164696Y108021D01*
X164696Y108024D01*
X164640Y108105D01*
X164585Y108185D01*
X164583Y108187D01*
X164581Y108189D01*
X164498Y108242D01*
X164417Y108294D01*
X164414Y108295D01*
X164412Y108296D01*
X164316Y108313D01*
X164220Y108330D01*
X164217Y108329D01*
X164215Y108330D01*
X164120Y108308D01*
X164024Y108286D01*
X164022Y108285D01*
X164019Y108284D01*
X163871Y108181D01*
X162541Y106851D01*
X162112Y106673D01*
X160887Y106166D01*
X160243Y105899D01*
X157757Y105899D01*
X155459Y106851D01*
X153701Y108609D01*
X152749Y110907D01*
X152749Y113393D01*
X153701Y115691D01*
X155459Y117449D01*
X156865Y118031D01*
X156867Y118033D01*
X156870Y118033D01*
X156950Y118088D01*
X157031Y118143D01*
X157033Y118145D01*
X157035Y118147D01*
X157088Y118229D01*
X157141Y118311D01*
X157142Y118313D01*
X157143Y118315D01*
X157160Y118411D01*
X157178Y118508D01*
X157177Y118510D01*
X157178Y118513D01*
X157156Y118609D01*
X157135Y118704D01*
X157134Y118706D01*
X157133Y118708D01*
X157076Y118789D01*
X157020Y118868D01*
X157018Y118869D01*
X157017Y118871D01*
X156865Y118969D01*
X155459Y119551D01*
X153701Y121309D01*
X152749Y123607D01*
X152749Y126093D01*
X153701Y128391D01*
X155459Y130149D01*
X156531Y130593D01*
X156865Y130731D01*
X156867Y130733D01*
X156870Y130733D01*
X156950Y130789D01*
X157031Y130843D01*
X157033Y130845D01*
X157035Y130847D01*
X157088Y130929D01*
X157141Y131011D01*
X157142Y131013D01*
X157143Y131015D01*
X157160Y131112D01*
X157178Y131208D01*
X157177Y131210D01*
X157178Y131213D01*
X157156Y131309D01*
X157135Y131404D01*
X157134Y131406D01*
X157133Y131408D01*
X157076Y131488D01*
X157020Y131568D01*
X157018Y131569D01*
X157017Y131571D01*
X156865Y131669D01*
X155459Y132251D01*
X153701Y134009D01*
X152749Y136307D01*
X152749Y138793D01*
X152962Y139306D01*
X152962Y139310D01*
X152964Y139313D01*
X152982Y139408D01*
X153000Y139503D01*
X152999Y139506D01*
X153000Y139510D01*
X152979Y139605D01*
X152960Y139699D01*
X152957Y139702D01*
X152956Y139706D01*
X152900Y139785D01*
X152846Y139864D01*
X152843Y139866D01*
X152840Y139869D01*
X152759Y139920D01*
X152677Y139973D01*
X152674Y139973D01*
X152670Y139975D01*
X152493Y140007D01*
X130168Y140007D01*
X130160Y140006D01*
X130152Y140007D01*
X130119Y139999D01*
X126876Y139999D01*
X126832Y140007D01*
X98168Y140007D01*
X98160Y140006D01*
X98153Y140007D01*
X98063Y139986D01*
X97972Y139968D01*
X97965Y139963D01*
X97957Y139961D01*
X97809Y139859D01*
X95950Y137999D01*
X93050Y137999D01*
X91867Y139183D01*
X91864Y139184D01*
X91863Y139186D01*
X91783Y139238D01*
X91700Y139294D01*
X91697Y139294D01*
X91695Y139295D01*
X91599Y139313D01*
X91503Y139331D01*
X91500Y139331D01*
X91498Y139331D01*
X91401Y139310D01*
X91307Y139290D01*
X91305Y139288D01*
X91302Y139287D01*
X91222Y139231D01*
X91142Y139175D01*
X91141Y139173D01*
X91139Y139171D01*
X91086Y139088D01*
X91035Y139006D01*
X91034Y139003D01*
X91033Y139001D01*
X91001Y138824D01*
X91001Y138550D01*
X89157Y136707D01*
X89153Y136700D01*
X89147Y136695D01*
X89098Y136617D01*
X89046Y136540D01*
X89045Y136532D01*
X89041Y136525D01*
X89009Y136348D01*
X89009Y128383D01*
X88492Y127867D01*
X88492Y127866D01*
X88491Y127865D01*
X88490Y127864D01*
X88489Y127863D01*
X88436Y127782D01*
X88381Y127700D01*
X88381Y127697D01*
X88379Y127695D01*
X88362Y127597D01*
X88344Y127503D01*
X88344Y127500D01*
X88344Y127498D01*
X88365Y127401D01*
X88385Y127307D01*
X88387Y127305D01*
X88387Y127302D01*
X88444Y127222D01*
X88500Y127142D01*
X88502Y127141D01*
X88503Y127139D01*
X88587Y127087D01*
X88669Y127035D01*
X88671Y127034D01*
X88674Y127033D01*
X88851Y127001D01*
X139840Y127001D01*
X139848Y127002D01*
X139855Y127001D01*
X139945Y127022D01*
X140036Y127040D01*
X140043Y127045D01*
X140051Y127047D01*
X140199Y127149D01*
X141550Y128501D01*
X144450Y128501D01*
X146501Y126450D01*
X146501Y123550D01*
X144450Y121499D01*
X141550Y121499D01*
X140199Y122851D01*
X140192Y122855D01*
X140187Y122861D01*
X140109Y122910D01*
X140032Y122962D01*
X140024Y122963D01*
X140017Y122967D01*
X139840Y122999D01*
X88539Y122999D01*
X88531Y122998D01*
X88523Y122999D01*
X88434Y122978D01*
X88342Y122960D01*
X88336Y122955D01*
X88328Y122953D01*
X88180Y122851D01*
X86329Y120999D01*
X74508Y120999D01*
X74503Y120998D01*
X74498Y120999D01*
X74405Y120978D01*
X74311Y120960D01*
X74307Y120957D01*
X74302Y120956D01*
X74224Y120900D01*
X74146Y120847D01*
X74143Y120843D01*
X74139Y120840D01*
X74088Y120758D01*
X74036Y120679D01*
X74036Y120674D01*
X74033Y120669D01*
X74001Y120492D01*
X74001Y118160D01*
X74002Y118152D01*
X74001Y118145D01*
X74022Y118055D01*
X74040Y117964D01*
X74045Y117957D01*
X74047Y117949D01*
X74149Y117801D01*
X75501Y116450D01*
X75501Y113550D01*
X73450Y111499D01*
X70550Y111499D01*
X68499Y113550D01*
X68499Y116450D01*
X69851Y117801D01*
X69855Y117808D01*
X69861Y117813D01*
X69910Y117891D01*
X69962Y117968D01*
X69963Y117976D01*
X69967Y117983D01*
X69999Y118160D01*
X69999Y120492D01*
X69998Y120497D01*
X69999Y120502D01*
X69978Y120595D01*
X69960Y120689D01*
X69957Y120693D01*
X69956Y120698D01*
X69900Y120776D01*
X69847Y120854D01*
X69843Y120857D01*
X69840Y120861D01*
X69758Y120912D01*
X69679Y120964D01*
X69674Y120964D01*
X69669Y120967D01*
X69492Y120999D01*
X37539Y120999D01*
X37531Y120998D01*
X37523Y120999D01*
X37434Y120978D01*
X37342Y120960D01*
X37336Y120955D01*
X37328Y120953D01*
X37180Y120851D01*
X34149Y117820D01*
X34145Y117813D01*
X34139Y117809D01*
X34090Y117730D01*
X34038Y117653D01*
X34037Y117645D01*
X34033Y117638D01*
X34001Y117461D01*
X34001Y107160D01*
X34002Y107152D01*
X34001Y107145D01*
X34022Y107055D01*
X34040Y106964D01*
X34045Y106957D01*
X34047Y106950D01*
X34149Y106801D01*
X35133Y105817D01*
X35136Y105816D01*
X35137Y105814D01*
X35218Y105761D01*
X35300Y105706D01*
X35303Y105706D01*
X35305Y105705D01*
X35401Y105687D01*
X35497Y105669D01*
X35500Y105669D01*
X35502Y105669D01*
X35599Y105690D01*
X35693Y105710D01*
X35695Y105712D01*
X35698Y105713D01*
X35778Y105769D01*
X35858Y105825D01*
X35859Y105827D01*
X35861Y105829D01*
X35913Y105912D01*
X35965Y105994D01*
X35966Y105997D01*
X35967Y105999D01*
X35999Y106176D01*
X35999Y107600D01*
X38050Y109651D01*
X40950Y109651D01*
X43001Y107600D01*
X43001Y104700D01*
X40950Y102649D01*
X40661Y102649D01*
X40653Y102648D01*
X40646Y102649D01*
X40556Y102628D01*
X40465Y102610D01*
X40458Y102605D01*
X40451Y102603D01*
X40303Y102501D01*
X36317Y98516D01*
X35285Y97483D01*
X29715Y97483D01*
X25983Y101215D01*
X25983Y119164D01*
X33304Y126484D01*
X34336Y127517D01*
X83665Y127517D01*
X83673Y127518D01*
X83680Y127517D01*
X83770Y127538D01*
X83861Y127556D01*
X83868Y127561D01*
X83876Y127563D01*
X84024Y127665D01*
X85843Y129484D01*
X85847Y129491D01*
X85853Y129495D01*
X85902Y129574D01*
X85954Y129651D01*
X85955Y129659D01*
X85959Y129666D01*
X85991Y129843D01*
X85991Y136348D01*
X85990Y136356D01*
X85991Y136363D01*
X85970Y136453D01*
X85952Y136544D01*
X85947Y136551D01*
X85945Y136559D01*
X85843Y136707D01*
X83999Y138550D01*
X83999Y139500D01*
X83998Y139505D01*
X83999Y139510D01*
X83978Y139603D01*
X83960Y139697D01*
X83957Y139701D01*
X83956Y139706D01*
X83900Y139784D01*
X83847Y139862D01*
X83843Y139865D01*
X83840Y139869D01*
X83758Y139920D01*
X83679Y139972D01*
X83674Y139972D01*
X83669Y139975D01*
X83492Y140007D01*
X60508Y140007D01*
X60503Y140006D01*
X60498Y140007D01*
X60405Y139986D01*
X60311Y139968D01*
X60307Y139965D01*
X60302Y139964D01*
X60224Y139908D01*
X60146Y139855D01*
X60143Y139851D01*
X60139Y139848D01*
X60088Y139766D01*
X60036Y139687D01*
X60036Y139682D01*
X60033Y139677D01*
X60001Y139500D01*
X60001Y139050D01*
X57950Y136999D01*
X55050Y136999D01*
X52999Y139050D01*
X52999Y139500D01*
X52998Y139505D01*
X52999Y139510D01*
X52978Y139603D01*
X52960Y139697D01*
X52957Y139701D01*
X52956Y139706D01*
X52900Y139784D01*
X52847Y139862D01*
X52843Y139865D01*
X52840Y139869D01*
X52758Y139920D01*
X52679Y139972D01*
X52674Y139972D01*
X52669Y139975D01*
X52492Y140007D01*
X29168Y140007D01*
X29160Y140006D01*
X29152Y140007D01*
X29119Y139999D01*
X25876Y139999D01*
X25832Y140007D01*
X15270Y140007D01*
X15265Y140006D01*
X15260Y140007D01*
X15167Y139986D01*
X15073Y139968D01*
X15069Y139965D01*
X15064Y139964D01*
X14986Y139908D01*
X14908Y139855D01*
X14905Y139851D01*
X14901Y139848D01*
X14850Y139766D01*
X14798Y139687D01*
X14798Y139682D01*
X14795Y139677D01*
X14763Y139500D01*
X14763Y90741D01*
X14763Y90739D01*
X14763Y90736D01*
X14783Y90641D01*
X14802Y90545D01*
X14804Y90543D01*
X14804Y90540D01*
X14860Y90460D01*
X14915Y90379D01*
X14917Y90378D01*
X14919Y90376D01*
X15002Y90322D01*
X15083Y90270D01*
X15086Y90269D01*
X15088Y90268D01*
X15184Y90252D01*
X15280Y90234D01*
X15283Y90235D01*
X15285Y90234D01*
X15380Y90256D01*
X15476Y90278D01*
X15478Y90279D01*
X15481Y90280D01*
X15629Y90383D01*
X16247Y91001D01*
X19147Y91001D01*
X21197Y88950D01*
X21197Y86050D01*
X19147Y83999D01*
X16247Y83999D01*
X15629Y84617D01*
X15626Y84619D01*
X15625Y84621D01*
X15545Y84673D01*
X15462Y84728D01*
X15459Y84729D01*
X15457Y84730D01*
X15361Y84747D01*
X15265Y84766D01*
X15262Y84765D01*
X15260Y84766D01*
X15163Y84744D01*
X15069Y84724D01*
X15067Y84723D01*
X15064Y84722D01*
X14984Y84666D01*
X14904Y84610D01*
X14903Y84608D01*
X14901Y84606D01*
X14849Y84523D01*
X14797Y84441D01*
X14796Y84438D01*
X14795Y84436D01*
X14763Y84259D01*
X14763Y15693D01*
X14767Y15670D01*
X14765Y15648D01*
X14787Y15573D01*
X14802Y15496D01*
X14815Y15477D01*
X14822Y15456D01*
X14884Y15376D01*
X14915Y15331D01*
X14925Y15324D01*
X14933Y15314D01*
X26096Y5391D01*
X26177Y5344D01*
X26256Y5295D01*
X26264Y5293D01*
X26270Y5290D01*
X26317Y5284D01*
X26433Y5263D01*
X154438Y5263D01*
X154446Y5264D01*
G37*
G36*
X30334Y141993D02*
X30334Y141993D01*
X30337Y141993D01*
X30433Y142013D01*
X30528Y142032D01*
X30531Y142034D01*
X30533Y142034D01*
X30613Y142090D01*
X30694Y142145D01*
X30696Y142147D01*
X30698Y142149D01*
X30751Y142232D01*
X30803Y142313D01*
X30804Y142316D01*
X30805Y142318D01*
X30822Y142414D01*
X30839Y142510D01*
X30838Y142513D01*
X30839Y142516D01*
X30817Y142608D01*
X30795Y142706D01*
X30794Y142708D01*
X30793Y142711D01*
X30691Y142859D01*
X30499Y143050D01*
X30499Y145950D01*
X32550Y148001D01*
X35450Y148001D01*
X37501Y145950D01*
X37501Y143050D01*
X37309Y142859D01*
X37308Y142857D01*
X37306Y142855D01*
X37253Y142774D01*
X37199Y142692D01*
X37198Y142689D01*
X37197Y142687D01*
X37179Y142592D01*
X37161Y142495D01*
X37161Y142492D01*
X37161Y142490D01*
X37183Y142393D01*
X37203Y142299D01*
X37204Y142297D01*
X37205Y142294D01*
X37262Y142213D01*
X37317Y142134D01*
X37319Y142133D01*
X37321Y142131D01*
X37405Y142078D01*
X37486Y142027D01*
X37489Y142026D01*
X37491Y142025D01*
X37668Y141993D01*
X52832Y141993D01*
X52840Y141994D01*
X52847Y141993D01*
X52937Y142014D01*
X53028Y142032D01*
X53035Y142037D01*
X53043Y142039D01*
X53191Y142141D01*
X55050Y144001D01*
X57950Y144001D01*
X59809Y142141D01*
X59816Y142137D01*
X59821Y142131D01*
X59899Y142082D01*
X59976Y142030D01*
X59984Y142029D01*
X59991Y142025D01*
X60168Y141993D01*
X84332Y141993D01*
X84340Y141994D01*
X84347Y141993D01*
X84437Y142014D01*
X84528Y142032D01*
X84535Y142037D01*
X84543Y142039D01*
X84691Y142141D01*
X86050Y143501D01*
X88950Y143501D01*
X90133Y142317D01*
X90136Y142316D01*
X90137Y142314D01*
X90217Y142262D01*
X90300Y142206D01*
X90303Y142206D01*
X90305Y142205D01*
X90401Y142187D01*
X90497Y142169D01*
X90500Y142169D01*
X90502Y142169D01*
X90599Y142190D01*
X90693Y142210D01*
X90695Y142212D01*
X90698Y142213D01*
X90778Y142269D01*
X90858Y142325D01*
X90859Y142327D01*
X90861Y142329D01*
X90914Y142412D01*
X90965Y142494D01*
X90966Y142497D01*
X90967Y142499D01*
X90999Y142676D01*
X90999Y142950D01*
X93050Y145001D01*
X95950Y145001D01*
X98001Y142950D01*
X98001Y142500D01*
X98002Y142495D01*
X98001Y142490D01*
X98022Y142397D01*
X98040Y142304D01*
X98043Y142299D01*
X98044Y142294D01*
X98100Y142216D01*
X98153Y142138D01*
X98157Y142135D01*
X98160Y142131D01*
X98242Y142080D01*
X98321Y142028D01*
X98326Y142028D01*
X98331Y142025D01*
X98508Y141993D01*
X147317Y141993D01*
X147325Y141994D01*
X147333Y141993D01*
X147423Y142014D01*
X147514Y142032D01*
X147520Y142037D01*
X147528Y142039D01*
X147676Y142141D01*
X148351Y142816D01*
X148355Y142823D01*
X148361Y142827D01*
X148410Y142906D01*
X148462Y142983D01*
X148463Y142991D01*
X148467Y142998D01*
X148499Y143175D01*
X148499Y143286D01*
X152940Y147727D01*
X152944Y147732D01*
X152949Y147736D01*
X152999Y147816D01*
X153051Y147894D01*
X153053Y147900D01*
X153056Y147906D01*
X153071Y147999D01*
X153089Y148091D01*
X153088Y148097D01*
X153089Y148104D01*
X153050Y148280D01*
X152749Y149007D01*
X152749Y151493D01*
X153701Y153791D01*
X155459Y155549D01*
X155891Y155728D01*
X157116Y156235D01*
X157757Y156501D01*
X160243Y156501D01*
X162541Y155549D01*
X163871Y154219D01*
X163874Y154217D01*
X163875Y154215D01*
X163955Y154163D01*
X164038Y154108D01*
X164041Y154107D01*
X164043Y154106D01*
X164139Y154088D01*
X164235Y154070D01*
X164238Y154071D01*
X164240Y154070D01*
X164337Y154092D01*
X164431Y154112D01*
X164433Y154113D01*
X164436Y154114D01*
X164516Y154170D01*
X164596Y154226D01*
X164597Y154228D01*
X164599Y154230D01*
X164652Y154314D01*
X164703Y154395D01*
X164704Y154398D01*
X164705Y154400D01*
X164737Y154577D01*
X164737Y165728D01*
X164737Y165730D01*
X164737Y165733D01*
X164717Y165829D01*
X164698Y165924D01*
X164696Y165927D01*
X164696Y165929D01*
X164640Y166010D01*
X164585Y166090D01*
X164583Y166092D01*
X164581Y166094D01*
X164498Y166147D01*
X164417Y166199D01*
X164414Y166200D01*
X164412Y166201D01*
X164316Y166218D01*
X164220Y166235D01*
X164217Y166234D01*
X164215Y166235D01*
X164122Y166213D01*
X164024Y166191D01*
X164022Y166190D01*
X164019Y166189D01*
X163871Y166087D01*
X163670Y165886D01*
X160770Y165886D01*
X158720Y167936D01*
X158720Y170836D01*
X160770Y172887D01*
X163670Y172887D01*
X163871Y172686D01*
X163874Y172685D01*
X163875Y172682D01*
X163956Y172630D01*
X164038Y172575D01*
X164041Y172575D01*
X164043Y172573D01*
X164139Y172556D01*
X164235Y172538D01*
X164238Y172538D01*
X164240Y172538D01*
X164337Y172559D01*
X164431Y172579D01*
X164433Y172581D01*
X164436Y172581D01*
X164517Y172639D01*
X164596Y172693D01*
X164597Y172696D01*
X164599Y172697D01*
X164652Y172781D01*
X164703Y172863D01*
X164704Y172865D01*
X164705Y172867D01*
X164737Y173045D01*
X164737Y231230D01*
X164736Y231235D01*
X164737Y231240D01*
X164716Y231333D01*
X164698Y231427D01*
X164695Y231431D01*
X164694Y231436D01*
X164638Y231514D01*
X164585Y231592D01*
X164581Y231595D01*
X164578Y231599D01*
X164496Y231650D01*
X164417Y231702D01*
X164412Y231702D01*
X164407Y231705D01*
X164230Y231737D01*
X140176Y231737D01*
X140174Y231737D01*
X140171Y231737D01*
X140076Y231717D01*
X139980Y231698D01*
X139977Y231696D01*
X139975Y231696D01*
X139894Y231640D01*
X139814Y231585D01*
X139812Y231583D01*
X139810Y231581D01*
X139757Y231498D01*
X139705Y231417D01*
X139704Y231414D01*
X139703Y231412D01*
X139686Y231316D01*
X139669Y231220D01*
X139670Y231217D01*
X139669Y231215D01*
X139691Y231120D01*
X139713Y231024D01*
X139714Y231022D01*
X139715Y231019D01*
X139817Y230871D01*
X140251Y230438D01*
X140251Y227538D01*
X138200Y225487D01*
X135300Y225487D01*
X133249Y227538D01*
X133249Y230438D01*
X133683Y230871D01*
X133684Y230874D01*
X133686Y230875D01*
X133739Y230956D01*
X133794Y231038D01*
X133794Y231041D01*
X133795Y231043D01*
X133813Y231139D01*
X133831Y231235D01*
X133831Y231238D01*
X133831Y231240D01*
X133809Y231337D01*
X133790Y231431D01*
X133788Y231433D01*
X133787Y231436D01*
X133730Y231516D01*
X133675Y231596D01*
X133673Y231597D01*
X133671Y231599D01*
X133588Y231651D01*
X133506Y231703D01*
X133503Y231704D01*
X133501Y231705D01*
X133324Y231737D01*
X115426Y231737D01*
X115424Y231737D01*
X115421Y231737D01*
X115326Y231717D01*
X115230Y231698D01*
X115227Y231696D01*
X115225Y231696D01*
X115144Y231640D01*
X115064Y231585D01*
X115062Y231583D01*
X115060Y231581D01*
X115007Y231498D01*
X114955Y231417D01*
X114954Y231414D01*
X114953Y231412D01*
X114936Y231316D01*
X114919Y231220D01*
X114920Y231217D01*
X114919Y231215D01*
X114941Y231120D01*
X114963Y231024D01*
X114964Y231022D01*
X114965Y231019D01*
X115067Y230871D01*
X115501Y230438D01*
X115501Y227538D01*
X113450Y225487D01*
X110550Y225487D01*
X108499Y227538D01*
X108499Y230438D01*
X108933Y230871D01*
X108934Y230874D01*
X108936Y230875D01*
X108989Y230956D01*
X109044Y231038D01*
X109044Y231041D01*
X109045Y231043D01*
X109063Y231139D01*
X109081Y231235D01*
X109081Y231238D01*
X109081Y231240D01*
X109059Y231337D01*
X109040Y231431D01*
X109038Y231433D01*
X109037Y231436D01*
X108980Y231516D01*
X108925Y231596D01*
X108923Y231597D01*
X108921Y231599D01*
X108838Y231651D01*
X108756Y231703D01*
X108753Y231704D01*
X108751Y231705D01*
X108574Y231737D01*
X93177Y231737D01*
X93175Y231737D01*
X93172Y231737D01*
X93077Y231717D01*
X92981Y231698D01*
X92979Y231696D01*
X92976Y231696D01*
X92895Y231640D01*
X92815Y231585D01*
X92813Y231583D01*
X92811Y231581D01*
X92758Y231498D01*
X92706Y231417D01*
X92705Y231414D01*
X92704Y231412D01*
X92687Y231316D01*
X92670Y231220D01*
X92671Y231217D01*
X92670Y231215D01*
X92692Y231120D01*
X92714Y231024D01*
X92715Y231022D01*
X92716Y231019D01*
X92819Y230871D01*
X94149Y229541D01*
X95101Y227243D01*
X95101Y224757D01*
X94800Y224030D01*
X94798Y224023D01*
X94795Y224018D01*
X94779Y223925D01*
X94761Y223833D01*
X94762Y223827D01*
X94761Y223820D01*
X94782Y223729D01*
X94802Y223637D01*
X94805Y223631D01*
X94807Y223625D01*
X94910Y223477D01*
X101387Y216999D01*
X103001Y215386D01*
X103001Y213954D01*
X103001Y213952D01*
X103001Y213949D01*
X103021Y213854D01*
X103040Y213758D01*
X103042Y213756D01*
X103042Y213753D01*
X103098Y213672D01*
X103153Y213592D01*
X103155Y213591D01*
X103157Y213588D01*
X103240Y213535D01*
X103321Y213483D01*
X103324Y213482D01*
X103326Y213481D01*
X103422Y213465D01*
X103518Y213447D01*
X103521Y213448D01*
X103523Y213447D01*
X103618Y213469D01*
X103714Y213491D01*
X103716Y213492D01*
X103719Y213493D01*
X103867Y213596D01*
X104300Y214029D01*
X107200Y214029D01*
X109251Y211978D01*
X109251Y209008D01*
X109252Y209003D01*
X109251Y208998D01*
X109272Y208905D01*
X109290Y208811D01*
X109293Y208807D01*
X109294Y208802D01*
X109350Y208724D01*
X109403Y208646D01*
X109407Y208643D01*
X109410Y208639D01*
X109492Y208588D01*
X109571Y208536D01*
X109576Y208536D01*
X109581Y208533D01*
X109758Y208501D01*
X109950Y208501D01*
X112001Y206450D01*
X112001Y203550D01*
X109950Y201499D01*
X109676Y201499D01*
X109674Y201499D01*
X109671Y201499D01*
X109575Y201479D01*
X109480Y201460D01*
X109477Y201458D01*
X109475Y201458D01*
X109394Y201402D01*
X109314Y201347D01*
X109312Y201345D01*
X109310Y201343D01*
X109257Y201260D01*
X109205Y201179D01*
X109204Y201176D01*
X109203Y201174D01*
X109186Y201078D01*
X109169Y200982D01*
X109170Y200979D01*
X109169Y200977D01*
X109191Y200884D01*
X109213Y200786D01*
X109214Y200784D01*
X109215Y200781D01*
X109317Y200633D01*
X109501Y200450D01*
X109501Y197550D01*
X108059Y196109D01*
X108057Y196104D01*
X108052Y196101D01*
X108001Y196021D01*
X107949Y195942D01*
X107948Y195937D01*
X107945Y195932D01*
X107929Y195838D01*
X107911Y195745D01*
X107912Y195740D01*
X107911Y195735D01*
X107933Y195642D01*
X107953Y195549D01*
X107956Y195544D01*
X107957Y195539D01*
X108059Y195391D01*
X109001Y194450D01*
X109001Y191550D01*
X106950Y189499D01*
X104050Y189499D01*
X103867Y189683D01*
X103864Y189684D01*
X103863Y189686D01*
X103782Y189739D01*
X103700Y189794D01*
X103697Y189794D01*
X103695Y189795D01*
X103599Y189813D01*
X103503Y189831D01*
X103500Y189831D01*
X103498Y189831D01*
X103401Y189809D01*
X103307Y189790D01*
X103305Y189788D01*
X103302Y189787D01*
X103221Y189730D01*
X103142Y189675D01*
X103141Y189673D01*
X103139Y189671D01*
X103086Y189587D01*
X103035Y189506D01*
X103034Y189503D01*
X103033Y189501D01*
X103001Y189324D01*
X103001Y183008D01*
X103002Y183003D01*
X103001Y182998D01*
X103022Y182905D01*
X103040Y182811D01*
X103043Y182807D01*
X103044Y182802D01*
X103100Y182724D01*
X103153Y182646D01*
X103157Y182643D01*
X103160Y182639D01*
X103242Y182588D01*
X103321Y182536D01*
X103326Y182536D01*
X103331Y182533D01*
X103437Y182513D01*
X105501Y180450D01*
X105501Y177550D01*
X103450Y175499D01*
X100550Y175499D01*
X99699Y176351D01*
X99692Y176355D01*
X99687Y176361D01*
X99609Y176410D01*
X99532Y176462D01*
X99524Y176463D01*
X99517Y176467D01*
X99492Y176472D01*
X97999Y177964D01*
X97999Y213104D01*
X97998Y213112D01*
X97999Y213120D01*
X97978Y213209D01*
X97960Y213301D01*
X97955Y213307D01*
X97953Y213315D01*
X97851Y213463D01*
X91373Y219940D01*
X91368Y219944D01*
X91364Y219949D01*
X91284Y219999D01*
X91206Y220051D01*
X91200Y220053D01*
X91194Y220056D01*
X91101Y220071D01*
X91009Y220089D01*
X91003Y220088D01*
X90996Y220089D01*
X90820Y220050D01*
X90093Y219749D01*
X87607Y219749D01*
X85309Y220701D01*
X83551Y222459D01*
X82969Y223865D01*
X82968Y223866D01*
X82967Y223867D01*
X82967Y223870D01*
X82911Y223950D01*
X82857Y224031D01*
X82855Y224033D01*
X82853Y224035D01*
X82771Y224088D01*
X82689Y224141D01*
X82687Y224142D01*
X82685Y224143D01*
X82588Y224160D01*
X82492Y224178D01*
X82490Y224177D01*
X82487Y224178D01*
X82391Y224156D01*
X82296Y224135D01*
X82294Y224134D01*
X82292Y224133D01*
X82212Y224076D01*
X82132Y224020D01*
X82131Y224018D01*
X82129Y224017D01*
X82031Y223865D01*
X81449Y222459D01*
X79691Y220701D01*
X79392Y220577D01*
X79391Y220577D01*
X78167Y220070D01*
X77393Y219749D01*
X74907Y219749D01*
X72609Y220701D01*
X70851Y222459D01*
X69899Y224757D01*
X69899Y227243D01*
X70851Y229541D01*
X72181Y230871D01*
X72183Y230874D01*
X72185Y230875D01*
X72237Y230955D01*
X72292Y231038D01*
X72293Y231041D01*
X72294Y231043D01*
X72312Y231139D01*
X72330Y231235D01*
X72329Y231238D01*
X72330Y231240D01*
X72308Y231337D01*
X72288Y231431D01*
X72287Y231433D01*
X72286Y231436D01*
X72230Y231516D01*
X72174Y231596D01*
X72172Y231597D01*
X72170Y231599D01*
X72086Y231652D01*
X72005Y231703D01*
X72002Y231704D01*
X72000Y231705D01*
X71823Y231737D01*
X36999Y231737D01*
X36996Y231737D01*
X36994Y231737D01*
X36899Y231717D01*
X36802Y231698D01*
X36800Y231696D01*
X36798Y231696D01*
X36717Y231640D01*
X36636Y231585D01*
X36635Y231583D01*
X36633Y231581D01*
X36580Y231498D01*
X36527Y231417D01*
X36527Y231414D01*
X36525Y231412D01*
X36509Y231316D01*
X36492Y231220D01*
X36492Y231217D01*
X36492Y231215D01*
X36514Y231120D01*
X36535Y231024D01*
X36537Y231022D01*
X36537Y231019D01*
X36640Y230871D01*
X39251Y228261D01*
X39251Y226508D01*
X39252Y226503D01*
X39251Y226498D01*
X39272Y226405D01*
X39290Y226311D01*
X39293Y226307D01*
X39294Y226302D01*
X39350Y226224D01*
X39403Y226146D01*
X39407Y226143D01*
X39410Y226139D01*
X39492Y226088D01*
X39571Y226036D01*
X39576Y226036D01*
X39581Y226033D01*
X39758Y226001D01*
X41950Y226001D01*
X44001Y223950D01*
X44001Y221050D01*
X41950Y218999D01*
X39050Y218999D01*
X36999Y221050D01*
X36999Y221742D01*
X36998Y221747D01*
X36999Y221752D01*
X36978Y221845D01*
X36960Y221939D01*
X36957Y221943D01*
X36956Y221948D01*
X36900Y222026D01*
X36847Y222104D01*
X36843Y222107D01*
X36840Y222111D01*
X36758Y222162D01*
X36679Y222214D01*
X36674Y222214D01*
X36669Y222217D01*
X36492Y222249D01*
X35710Y222249D01*
X35705Y222248D01*
X35700Y222249D01*
X35606Y222228D01*
X35513Y222210D01*
X35509Y222207D01*
X35504Y222206D01*
X35426Y222150D01*
X35348Y222097D01*
X35345Y222093D01*
X35340Y222090D01*
X35290Y222008D01*
X35238Y221929D01*
X35237Y221924D01*
X35235Y221919D01*
X35203Y221742D01*
X35203Y218848D01*
X33152Y216797D01*
X30252Y216797D01*
X28201Y218848D01*
X28201Y221748D01*
X30252Y223799D01*
X30465Y223799D01*
X30468Y223799D01*
X30470Y223799D01*
X30564Y223819D01*
X30662Y223838D01*
X30664Y223840D01*
X30666Y223840D01*
X30746Y223896D01*
X30827Y223951D01*
X30829Y223953D01*
X30831Y223955D01*
X30884Y224038D01*
X30937Y224119D01*
X30937Y224122D01*
X30939Y224124D01*
X30955Y224220D01*
X30972Y224316D01*
X30972Y224319D01*
X30972Y224322D01*
X30950Y224415D01*
X30929Y224512D01*
X30927Y224514D01*
X30927Y224517D01*
X30824Y224665D01*
X30749Y224739D01*
X30749Y228261D01*
X33360Y230871D01*
X33361Y230874D01*
X33364Y230875D01*
X33416Y230956D01*
X33471Y231038D01*
X33471Y231041D01*
X33473Y231043D01*
X33490Y231139D01*
X33508Y231235D01*
X33508Y231238D01*
X33508Y231240D01*
X33487Y231337D01*
X33467Y231431D01*
X33465Y231433D01*
X33465Y231436D01*
X33408Y231516D01*
X33353Y231596D01*
X33350Y231597D01*
X33349Y231599D01*
X33266Y231651D01*
X33183Y231703D01*
X33181Y231704D01*
X33179Y231705D01*
X33001Y231737D01*
X26999Y231737D01*
X26996Y231737D01*
X26994Y231737D01*
X26899Y231717D01*
X26802Y231698D01*
X26800Y231696D01*
X26798Y231696D01*
X26717Y231640D01*
X26636Y231585D01*
X26635Y231583D01*
X26633Y231581D01*
X26580Y231498D01*
X26527Y231417D01*
X26527Y231414D01*
X26525Y231412D01*
X26509Y231316D01*
X26492Y231220D01*
X26492Y231217D01*
X26492Y231215D01*
X26514Y231120D01*
X26535Y231024D01*
X26537Y231022D01*
X26537Y231019D01*
X26640Y230871D01*
X29251Y228261D01*
X29251Y224739D01*
X26761Y222249D01*
X23239Y222249D01*
X20749Y224739D01*
X20749Y225562D01*
X20749Y225564D01*
X20749Y225567D01*
X20729Y225662D01*
X20710Y225758D01*
X20708Y225761D01*
X20708Y225763D01*
X20652Y225844D01*
X20597Y225924D01*
X20595Y225926D01*
X20593Y225928D01*
X20510Y225981D01*
X20429Y226033D01*
X20426Y226034D01*
X20424Y226035D01*
X20328Y226052D01*
X20232Y226069D01*
X20229Y226068D01*
X20227Y226069D01*
X20132Y226047D01*
X20036Y226025D01*
X20034Y226024D01*
X20031Y226023D01*
X19883Y225921D01*
X19462Y225499D01*
X16562Y225499D01*
X15629Y226433D01*
X15626Y226434D01*
X15625Y226436D01*
X15545Y226488D01*
X15462Y226544D01*
X15459Y226544D01*
X15457Y226545D01*
X15361Y226563D01*
X15265Y226581D01*
X15262Y226581D01*
X15260Y226581D01*
X15163Y226560D01*
X15069Y226540D01*
X15067Y226538D01*
X15064Y226537D01*
X14984Y226481D01*
X14904Y226425D01*
X14903Y226423D01*
X14901Y226421D01*
X14849Y226338D01*
X14797Y226256D01*
X14796Y226253D01*
X14795Y226251D01*
X14763Y226074D01*
X14763Y215177D01*
X14763Y215175D01*
X14763Y215172D01*
X14783Y215076D01*
X14802Y214981D01*
X14804Y214979D01*
X14804Y214976D01*
X14860Y214895D01*
X14915Y214815D01*
X14917Y214813D01*
X14919Y214811D01*
X15002Y214758D01*
X15083Y214706D01*
X15086Y214705D01*
X15088Y214704D01*
X15184Y214687D01*
X15280Y214670D01*
X15283Y214671D01*
X15285Y214670D01*
X15380Y214692D01*
X15476Y214714D01*
X15478Y214715D01*
X15481Y214716D01*
X15629Y214819D01*
X16959Y216149D01*
X18043Y216598D01*
X19257Y217101D01*
X21743Y217101D01*
X24041Y216149D01*
X25799Y214391D01*
X26751Y212093D01*
X26751Y209607D01*
X25799Y207309D01*
X24041Y205551D01*
X22635Y204969D01*
X22633Y204967D01*
X22630Y204967D01*
X22550Y204912D01*
X22469Y204857D01*
X22467Y204855D01*
X22465Y204853D01*
X22412Y204771D01*
X22359Y204689D01*
X22358Y204687D01*
X22357Y204685D01*
X22340Y204588D01*
X22322Y204492D01*
X22323Y204490D01*
X22322Y204487D01*
X22344Y204391D01*
X22365Y204296D01*
X22366Y204294D01*
X22367Y204292D01*
X22424Y204211D01*
X22480Y204132D01*
X22482Y204131D01*
X22483Y204129D01*
X22635Y204031D01*
X24041Y203449D01*
X25799Y201691D01*
X26751Y199393D01*
X26751Y196907D01*
X25799Y194609D01*
X24041Y192851D01*
X23624Y192678D01*
X22399Y192171D01*
X21743Y191899D01*
X19257Y191899D01*
X16959Y192851D01*
X15629Y194181D01*
X15626Y194183D01*
X15625Y194185D01*
X15545Y194237D01*
X15462Y194292D01*
X15459Y194293D01*
X15457Y194294D01*
X15361Y194312D01*
X15265Y194330D01*
X15262Y194329D01*
X15260Y194330D01*
X15163Y194308D01*
X15069Y194288D01*
X15067Y194287D01*
X15064Y194286D01*
X14984Y194230D01*
X14904Y194174D01*
X14903Y194172D01*
X14901Y194170D01*
X14848Y194086D01*
X14797Y194005D01*
X14796Y194002D01*
X14795Y194000D01*
X14763Y193823D01*
X14763Y142500D01*
X14764Y142495D01*
X14763Y142490D01*
X14784Y142397D01*
X14802Y142304D01*
X14805Y142299D01*
X14806Y142294D01*
X14862Y142216D01*
X14915Y142138D01*
X14919Y142135D01*
X14922Y142131D01*
X15004Y142080D01*
X15083Y142028D01*
X15088Y142028D01*
X15093Y142025D01*
X15270Y141993D01*
X30332Y141993D01*
X30334Y141993D01*
G37*
%LPC*%
G36*
X108238Y10483D02*
X108238Y10483D01*
X93370Y25351D01*
X93364Y25355D01*
X93359Y25361D01*
X93280Y25410D01*
X93203Y25462D01*
X93195Y25463D01*
X93189Y25467D01*
X93011Y25499D01*
X92550Y25499D01*
X90499Y27550D01*
X90499Y30450D01*
X92550Y32501D01*
X95450Y32501D01*
X97501Y30450D01*
X97501Y30176D01*
X97501Y30174D01*
X97501Y30171D01*
X97521Y30075D01*
X97540Y29980D01*
X97542Y29977D01*
X97542Y29975D01*
X97598Y29894D01*
X97653Y29814D01*
X97655Y29812D01*
X97657Y29810D01*
X97740Y29757D01*
X97821Y29705D01*
X97824Y29704D01*
X97826Y29703D01*
X97922Y29686D01*
X98018Y29669D01*
X98021Y29670D01*
X98023Y29669D01*
X98116Y29691D01*
X98214Y29713D01*
X98216Y29714D01*
X98219Y29715D01*
X98367Y29817D01*
X98550Y30001D01*
X101450Y30001D01*
X102133Y29317D01*
X102136Y29316D01*
X102137Y29314D01*
X102217Y29262D01*
X102300Y29206D01*
X102303Y29206D01*
X102305Y29205D01*
X102401Y29187D01*
X102497Y29169D01*
X102500Y29169D01*
X102502Y29169D01*
X102599Y29190D01*
X102693Y29210D01*
X102695Y29212D01*
X102698Y29213D01*
X102778Y29269D01*
X102858Y29325D01*
X102859Y29327D01*
X102861Y29329D01*
X102913Y29412D01*
X102965Y29494D01*
X102966Y29497D01*
X102967Y29499D01*
X102999Y29676D01*
X102999Y31450D01*
X105050Y33501D01*
X107950Y33501D01*
X110001Y31450D01*
X110001Y31176D01*
X110001Y31174D01*
X110001Y31171D01*
X110021Y31076D01*
X110040Y30980D01*
X110042Y30977D01*
X110042Y30975D01*
X110098Y30894D01*
X110153Y30814D01*
X110155Y30812D01*
X110157Y30810D01*
X110240Y30757D01*
X110321Y30705D01*
X110324Y30704D01*
X110326Y30703D01*
X110422Y30686D01*
X110518Y30669D01*
X110521Y30670D01*
X110523Y30669D01*
X110618Y30691D01*
X110714Y30713D01*
X110716Y30714D01*
X110719Y30715D01*
X110867Y30817D01*
X111550Y31501D01*
X114450Y31501D01*
X114641Y31309D01*
X114646Y31307D01*
X114649Y31302D01*
X114729Y31251D01*
X114808Y31199D01*
X114813Y31198D01*
X114818Y31195D01*
X114911Y31179D01*
X115005Y31161D01*
X115010Y31162D01*
X115015Y31161D01*
X115108Y31183D01*
X115201Y31203D01*
X115205Y31205D01*
X115211Y31207D01*
X115359Y31309D01*
X117550Y33501D01*
X120450Y33501D01*
X122501Y31450D01*
X122501Y31176D01*
X122501Y31174D01*
X122501Y31171D01*
X122521Y31076D01*
X122540Y30980D01*
X122542Y30977D01*
X122542Y30975D01*
X122598Y30894D01*
X122653Y30814D01*
X122655Y30812D01*
X122657Y30810D01*
X122740Y30757D01*
X122821Y30705D01*
X122824Y30704D01*
X122826Y30703D01*
X122922Y30686D01*
X123018Y30669D01*
X123021Y30670D01*
X123023Y30669D01*
X123118Y30691D01*
X123214Y30713D01*
X123216Y30714D01*
X123219Y30715D01*
X123367Y30817D01*
X124050Y31501D01*
X126950Y31501D01*
X127633Y30817D01*
X127636Y30816D01*
X127637Y30814D01*
X127717Y30762D01*
X127800Y30706D01*
X127803Y30706D01*
X127805Y30705D01*
X127901Y30687D01*
X127997Y30669D01*
X128000Y30669D01*
X128002Y30669D01*
X128099Y30690D01*
X128193Y30710D01*
X128195Y30712D01*
X128198Y30713D01*
X128278Y30769D01*
X128358Y30825D01*
X128359Y30827D01*
X128361Y30829D01*
X128413Y30912D01*
X128465Y30994D01*
X128466Y30997D01*
X128467Y30999D01*
X128499Y31176D01*
X128499Y31450D01*
X130550Y33501D01*
X133450Y33501D01*
X135625Y31325D01*
X135628Y31324D01*
X135629Y31322D01*
X135710Y31269D01*
X135792Y31214D01*
X135795Y31214D01*
X135797Y31213D01*
X135893Y31195D01*
X135989Y31177D01*
X135992Y31177D01*
X135994Y31177D01*
X136091Y31198D01*
X136185Y31218D01*
X136187Y31220D01*
X136190Y31221D01*
X136270Y31277D01*
X136350Y31333D01*
X136351Y31335D01*
X136353Y31337D01*
X136405Y31419D01*
X136457Y31502D01*
X136458Y31505D01*
X136459Y31507D01*
X136491Y31684D01*
X136491Y60316D01*
X136491Y60318D01*
X136491Y60321D01*
X136471Y60415D01*
X136452Y60512D01*
X136450Y60515D01*
X136450Y60517D01*
X136394Y60598D01*
X136339Y60678D01*
X136337Y60680D01*
X136335Y60682D01*
X136252Y60735D01*
X136171Y60787D01*
X136168Y60788D01*
X136166Y60789D01*
X136070Y60806D01*
X135974Y60823D01*
X135971Y60822D01*
X135969Y60823D01*
X135874Y60801D01*
X135778Y60779D01*
X135776Y60778D01*
X135773Y60777D01*
X135625Y60675D01*
X134309Y59359D01*
X134307Y59354D01*
X134302Y59351D01*
X134251Y59271D01*
X134199Y59192D01*
X134198Y59187D01*
X134195Y59182D01*
X134179Y59088D01*
X134161Y58995D01*
X134162Y58990D01*
X134161Y58984D01*
X134183Y58893D01*
X134203Y58799D01*
X134206Y58794D01*
X134207Y58789D01*
X134309Y58641D01*
X134501Y58450D01*
X134501Y55550D01*
X132450Y53499D01*
X129550Y53499D01*
X127499Y55550D01*
X127499Y58168D01*
X127498Y58176D01*
X127499Y58184D01*
X127478Y58274D01*
X127460Y58365D01*
X127455Y58371D01*
X127453Y58379D01*
X127351Y58527D01*
X127273Y58605D01*
X127269Y58608D01*
X127266Y58612D01*
X127185Y58663D01*
X127106Y58716D01*
X127101Y58717D01*
X127096Y58720D01*
X127003Y58735D01*
X126909Y58753D01*
X126904Y58752D01*
X126899Y58753D01*
X126806Y58731D01*
X126713Y58712D01*
X126709Y58709D01*
X126704Y58708D01*
X126556Y58605D01*
X125950Y57999D01*
X123050Y57999D01*
X122867Y58183D01*
X122864Y58184D01*
X122863Y58186D01*
X122782Y58239D01*
X122700Y58294D01*
X122697Y58294D01*
X122695Y58295D01*
X122599Y58313D01*
X122503Y58331D01*
X122500Y58331D01*
X122498Y58331D01*
X122401Y58309D01*
X122307Y58290D01*
X122305Y58288D01*
X122302Y58287D01*
X122221Y58230D01*
X122142Y58175D01*
X122141Y58173D01*
X122139Y58171D01*
X122086Y58087D01*
X122035Y58006D01*
X122034Y58003D01*
X122033Y58001D01*
X122001Y57824D01*
X122001Y55550D01*
X119950Y53499D01*
X117050Y53499D01*
X114999Y55550D01*
X114999Y56824D01*
X114999Y56826D01*
X114999Y56829D01*
X114979Y56924D01*
X114960Y57020D01*
X114958Y57023D01*
X114958Y57025D01*
X114902Y57105D01*
X114847Y57186D01*
X114845Y57188D01*
X114843Y57190D01*
X114760Y57243D01*
X114679Y57295D01*
X114676Y57296D01*
X114674Y57297D01*
X114578Y57314D01*
X114482Y57331D01*
X114479Y57330D01*
X114477Y57331D01*
X114382Y57309D01*
X114286Y57287D01*
X114284Y57286D01*
X114281Y57285D01*
X114133Y57183D01*
X113450Y56499D01*
X110550Y56499D01*
X110367Y56683D01*
X110364Y56684D01*
X110363Y56686D01*
X110282Y56739D01*
X110200Y56794D01*
X110197Y56794D01*
X110195Y56795D01*
X110099Y56813D01*
X110003Y56831D01*
X110000Y56831D01*
X109998Y56831D01*
X109901Y56809D01*
X109807Y56790D01*
X109805Y56788D01*
X109802Y56787D01*
X109721Y56730D01*
X109642Y56675D01*
X109641Y56673D01*
X109639Y56671D01*
X109586Y56587D01*
X109535Y56506D01*
X109534Y56503D01*
X109533Y56501D01*
X109501Y56324D01*
X109501Y56050D01*
X107450Y53999D01*
X104550Y53999D01*
X102499Y56050D01*
X102499Y57324D01*
X102499Y57326D01*
X102499Y57329D01*
X102479Y57424D01*
X102460Y57520D01*
X102458Y57523D01*
X102458Y57525D01*
X102402Y57606D01*
X102347Y57686D01*
X102345Y57688D01*
X102343Y57690D01*
X102260Y57743D01*
X102179Y57795D01*
X102176Y57796D01*
X102174Y57797D01*
X102078Y57814D01*
X101982Y57831D01*
X101979Y57830D01*
X101977Y57831D01*
X101882Y57809D01*
X101786Y57787D01*
X101784Y57786D01*
X101781Y57785D01*
X101633Y57683D01*
X100950Y56999D01*
X98050Y56999D01*
X97867Y57183D01*
X97864Y57184D01*
X97863Y57186D01*
X97782Y57239D01*
X97700Y57294D01*
X97697Y57294D01*
X97695Y57295D01*
X97599Y57313D01*
X97503Y57331D01*
X97500Y57331D01*
X97498Y57331D01*
X97401Y57309D01*
X97307Y57290D01*
X97305Y57288D01*
X97302Y57287D01*
X97221Y57230D01*
X97142Y57175D01*
X97141Y57173D01*
X97139Y57171D01*
X97086Y57087D01*
X97035Y57006D01*
X97034Y57003D01*
X97033Y57001D01*
X97001Y56824D01*
X97001Y55550D01*
X94950Y53499D01*
X92050Y53499D01*
X89999Y55550D01*
X89999Y57824D01*
X89999Y57826D01*
X89999Y57829D01*
X89979Y57924D01*
X89960Y58020D01*
X89958Y58023D01*
X89958Y58025D01*
X89902Y58106D01*
X89847Y58186D01*
X89845Y58188D01*
X89843Y58190D01*
X89760Y58243D01*
X89679Y58295D01*
X89676Y58296D01*
X89674Y58297D01*
X89578Y58314D01*
X89482Y58331D01*
X89479Y58330D01*
X89477Y58331D01*
X89382Y58309D01*
X89286Y58287D01*
X89284Y58286D01*
X89281Y58285D01*
X89133Y58183D01*
X87950Y56999D01*
X85050Y56999D01*
X84867Y57183D01*
X84864Y57184D01*
X84863Y57186D01*
X84782Y57239D01*
X84700Y57294D01*
X84697Y57294D01*
X84695Y57295D01*
X84599Y57313D01*
X84503Y57331D01*
X84500Y57331D01*
X84498Y57331D01*
X84401Y57309D01*
X84307Y57290D01*
X84305Y57288D01*
X84302Y57287D01*
X84221Y57230D01*
X84142Y57175D01*
X84141Y57173D01*
X84139Y57171D01*
X84086Y57087D01*
X84035Y57006D01*
X84034Y57003D01*
X84033Y57001D01*
X84001Y56824D01*
X84001Y56050D01*
X81950Y53999D01*
X79050Y53999D01*
X76999Y56050D01*
X76999Y58950D01*
X78851Y60801D01*
X78855Y60808D01*
X78861Y60813D01*
X78910Y60891D01*
X78962Y60968D01*
X78963Y60976D01*
X78967Y60983D01*
X78999Y61160D01*
X78999Y62122D01*
X82351Y65473D01*
X82355Y65480D01*
X82361Y65484D01*
X82410Y65563D01*
X82462Y65640D01*
X82463Y65648D01*
X82467Y65654D01*
X82499Y65832D01*
X82499Y71840D01*
X82498Y71848D01*
X82499Y71855D01*
X82478Y71945D01*
X82460Y72036D01*
X82455Y72043D01*
X82453Y72050D01*
X82351Y72198D01*
X82023Y72526D01*
X82019Y72529D01*
X82016Y72534D01*
X81935Y72585D01*
X81856Y72637D01*
X81851Y72638D01*
X81846Y72641D01*
X81753Y72657D01*
X81659Y72675D01*
X81654Y72674D01*
X81649Y72675D01*
X81556Y72653D01*
X81463Y72633D01*
X81459Y72630D01*
X81454Y72629D01*
X81306Y72526D01*
X75974Y67194D01*
X75971Y67190D01*
X75966Y67187D01*
X75915Y67107D01*
X75863Y67027D01*
X75862Y67022D01*
X75859Y67018D01*
X75843Y66924D01*
X75825Y66831D01*
X75826Y66825D01*
X75825Y66820D01*
X75847Y66728D01*
X75867Y66635D01*
X75870Y66630D01*
X75871Y66625D01*
X75974Y66477D01*
X77501Y64950D01*
X77501Y62050D01*
X75450Y59999D01*
X72550Y59999D01*
X71867Y60683D01*
X71864Y60684D01*
X71863Y60686D01*
X71783Y60738D01*
X71700Y60794D01*
X71697Y60794D01*
X71695Y60795D01*
X71599Y60813D01*
X71503Y60831D01*
X71500Y60831D01*
X71498Y60831D01*
X71401Y60810D01*
X71307Y60790D01*
X71305Y60788D01*
X71302Y60787D01*
X71222Y60731D01*
X71142Y60675D01*
X71141Y60673D01*
X71139Y60671D01*
X71087Y60588D01*
X71035Y60506D01*
X71034Y60503D01*
X71033Y60501D01*
X71001Y60324D01*
X71001Y57550D01*
X68950Y55499D01*
X66050Y55499D01*
X63999Y57550D01*
X63999Y59324D01*
X63999Y59326D01*
X63999Y59329D01*
X63979Y59424D01*
X63960Y59520D01*
X63958Y59523D01*
X63958Y59525D01*
X63902Y59606D01*
X63847Y59686D01*
X63845Y59688D01*
X63843Y59690D01*
X63760Y59743D01*
X63679Y59795D01*
X63676Y59796D01*
X63674Y59797D01*
X63578Y59814D01*
X63482Y59831D01*
X63479Y59830D01*
X63477Y59831D01*
X63382Y59809D01*
X63286Y59787D01*
X63284Y59786D01*
X63281Y59785D01*
X63133Y59683D01*
X61950Y58499D01*
X59050Y58499D01*
X58867Y58683D01*
X58864Y58684D01*
X58863Y58686D01*
X58782Y58739D01*
X58700Y58794D01*
X58697Y58794D01*
X58695Y58795D01*
X58599Y58813D01*
X58503Y58831D01*
X58500Y58831D01*
X58498Y58831D01*
X58401Y58809D01*
X58307Y58790D01*
X58305Y58788D01*
X58302Y58787D01*
X58221Y58730D01*
X58142Y58675D01*
X58141Y58673D01*
X58139Y58671D01*
X58086Y58587D01*
X58035Y58506D01*
X58034Y58503D01*
X58033Y58501D01*
X58001Y58324D01*
X58001Y57050D01*
X55950Y54999D01*
X53050Y54999D01*
X50999Y57050D01*
X50999Y59950D01*
X51006Y59957D01*
X51008Y59959D01*
X51010Y59961D01*
X51063Y60042D01*
X51117Y60124D01*
X51118Y60127D01*
X51119Y60129D01*
X51137Y60226D01*
X51155Y60321D01*
X51154Y60324D01*
X51155Y60326D01*
X51134Y60422D01*
X51113Y60517D01*
X51112Y60519D01*
X51111Y60522D01*
X51055Y60602D01*
X50999Y60682D01*
X50997Y60683D01*
X50995Y60685D01*
X50912Y60737D01*
X50830Y60789D01*
X50827Y60790D01*
X50825Y60791D01*
X50648Y60823D01*
X49024Y60823D01*
X49019Y60822D01*
X49014Y60823D01*
X48921Y60802D01*
X48827Y60784D01*
X48823Y60781D01*
X48818Y60779D01*
X48740Y60724D01*
X48662Y60671D01*
X48659Y60667D01*
X48655Y60663D01*
X48604Y60582D01*
X48552Y60503D01*
X48552Y60498D01*
X48549Y60493D01*
X48517Y60316D01*
X48517Y57550D01*
X46466Y55499D01*
X45008Y55499D01*
X45003Y55498D01*
X44998Y55499D01*
X44905Y55478D01*
X44811Y55460D01*
X44807Y55457D01*
X44802Y55456D01*
X44724Y55400D01*
X44646Y55347D01*
X44643Y55343D01*
X44639Y55340D01*
X44588Y55258D01*
X44536Y55179D01*
X44536Y55174D01*
X44533Y55169D01*
X44501Y54992D01*
X44501Y33660D01*
X44501Y33659D01*
X44501Y33658D01*
X44502Y33652D01*
X44501Y33645D01*
X44522Y33555D01*
X44540Y33464D01*
X44545Y33457D01*
X44547Y33449D01*
X44649Y33301D01*
X46501Y31450D01*
X46501Y30676D01*
X46501Y30674D01*
X46501Y30671D01*
X46521Y30575D01*
X46540Y30480D01*
X46542Y30477D01*
X46542Y30475D01*
X46598Y30394D01*
X46653Y30314D01*
X46655Y30312D01*
X46657Y30310D01*
X46740Y30257D01*
X46821Y30205D01*
X46824Y30204D01*
X46826Y30203D01*
X46922Y30186D01*
X47018Y30169D01*
X47021Y30170D01*
X47023Y30169D01*
X47116Y30191D01*
X47214Y30213D01*
X47216Y30214D01*
X47219Y30215D01*
X47367Y30317D01*
X47550Y30501D01*
X50450Y30501D01*
X51133Y29817D01*
X51136Y29816D01*
X51137Y29814D01*
X51217Y29762D01*
X51300Y29706D01*
X51303Y29706D01*
X51305Y29705D01*
X51401Y29687D01*
X51497Y29669D01*
X51500Y29669D01*
X51502Y29669D01*
X51599Y29690D01*
X51693Y29710D01*
X51695Y29712D01*
X51698Y29713D01*
X51778Y29769D01*
X51858Y29825D01*
X51859Y29827D01*
X51861Y29829D01*
X51913Y29912D01*
X51965Y29994D01*
X51966Y29997D01*
X51967Y29999D01*
X51999Y30176D01*
X51999Y31950D01*
X54050Y34001D01*
X56950Y34001D01*
X59001Y31950D01*
X59001Y30176D01*
X59001Y30174D01*
X59001Y30171D01*
X59021Y30076D01*
X59040Y29980D01*
X59042Y29977D01*
X59042Y29975D01*
X59098Y29894D01*
X59153Y29814D01*
X59155Y29812D01*
X59157Y29810D01*
X59240Y29757D01*
X59321Y29705D01*
X59324Y29704D01*
X59326Y29703D01*
X59422Y29686D01*
X59518Y29669D01*
X59521Y29670D01*
X59523Y29669D01*
X59618Y29691D01*
X59714Y29713D01*
X59716Y29714D01*
X59719Y29715D01*
X59867Y29817D01*
X60550Y30501D01*
X63450Y30501D01*
X63633Y30317D01*
X63636Y30316D01*
X63637Y30314D01*
X63718Y30261D01*
X63800Y30206D01*
X63803Y30206D01*
X63805Y30205D01*
X63901Y30187D01*
X63997Y30169D01*
X64000Y30169D01*
X64002Y30169D01*
X64099Y30191D01*
X64193Y30210D01*
X64195Y30212D01*
X64198Y30213D01*
X64279Y30270D01*
X64358Y30325D01*
X64359Y30327D01*
X64361Y30329D01*
X64414Y30413D01*
X64465Y30494D01*
X64466Y30497D01*
X64467Y30499D01*
X64499Y30676D01*
X64499Y32450D01*
X66550Y34501D01*
X69450Y34501D01*
X71501Y32450D01*
X71501Y30176D01*
X71501Y30174D01*
X71501Y30171D01*
X71521Y30076D01*
X71540Y29980D01*
X71542Y29977D01*
X71542Y29975D01*
X71598Y29894D01*
X71653Y29814D01*
X71655Y29812D01*
X71657Y29810D01*
X71740Y29757D01*
X71821Y29705D01*
X71824Y29704D01*
X71826Y29703D01*
X71922Y29686D01*
X72018Y29669D01*
X72021Y29670D01*
X72023Y29669D01*
X72118Y29691D01*
X72214Y29713D01*
X72216Y29714D01*
X72219Y29715D01*
X72367Y29817D01*
X73050Y30501D01*
X75950Y30501D01*
X76633Y29817D01*
X76636Y29816D01*
X76637Y29814D01*
X76717Y29762D01*
X76800Y29706D01*
X76803Y29706D01*
X76805Y29705D01*
X76901Y29687D01*
X76997Y29669D01*
X77000Y29669D01*
X77002Y29669D01*
X77099Y29690D01*
X77193Y29710D01*
X77195Y29712D01*
X77198Y29713D01*
X77278Y29769D01*
X77358Y29825D01*
X77359Y29827D01*
X77361Y29829D01*
X77413Y29912D01*
X77465Y29994D01*
X77466Y29997D01*
X77467Y29999D01*
X77499Y30176D01*
X77499Y32450D01*
X79550Y34501D01*
X82450Y34501D01*
X84501Y32450D01*
X84501Y29550D01*
X82436Y27485D01*
X82405Y27478D01*
X82311Y27460D01*
X82307Y27457D01*
X82302Y27456D01*
X82224Y27400D01*
X82146Y27347D01*
X82143Y27343D01*
X82139Y27340D01*
X82088Y27258D01*
X82036Y27179D01*
X82036Y27174D01*
X82033Y27169D01*
X82001Y26992D01*
X82001Y26722D01*
X80973Y25694D01*
X69806Y14527D01*
X68778Y13499D01*
X31579Y13499D01*
X21499Y23579D01*
X21499Y79249D01*
X54751Y112501D01*
X62278Y112501D01*
X64130Y110649D01*
X64136Y110645D01*
X64141Y110639D01*
X64220Y110590D01*
X64297Y110538D01*
X64305Y110537D01*
X64311Y110533D01*
X64489Y110501D01*
X67450Y110501D01*
X69501Y108450D01*
X69501Y105550D01*
X67317Y103367D01*
X67316Y103364D01*
X67314Y103363D01*
X67261Y103282D01*
X67206Y103200D01*
X67206Y103197D01*
X67205Y103195D01*
X67187Y103099D01*
X67169Y103003D01*
X67169Y103000D01*
X67169Y102998D01*
X67190Y102901D01*
X67210Y102807D01*
X67212Y102805D01*
X67213Y102802D01*
X67269Y102722D01*
X67325Y102642D01*
X67327Y102641D01*
X67329Y102639D01*
X67411Y102587D01*
X67494Y102535D01*
X67497Y102534D01*
X67499Y102533D01*
X67676Y102501D01*
X69450Y102501D01*
X71501Y100450D01*
X71501Y97550D01*
X69317Y95367D01*
X69316Y95364D01*
X69314Y95363D01*
X69261Y95282D01*
X69206Y95200D01*
X69206Y95197D01*
X69205Y95195D01*
X69187Y95099D01*
X69169Y95003D01*
X69169Y95000D01*
X69169Y94998D01*
X69190Y94901D01*
X69210Y94807D01*
X69212Y94805D01*
X69213Y94802D01*
X69269Y94722D01*
X69325Y94642D01*
X69327Y94641D01*
X69329Y94639D01*
X69411Y94587D01*
X69494Y94535D01*
X69497Y94534D01*
X69499Y94533D01*
X69676Y94501D01*
X70450Y94501D01*
X72501Y92450D01*
X72501Y89550D01*
X70559Y87609D01*
X70557Y87604D01*
X70552Y87601D01*
X70501Y87521D01*
X70449Y87442D01*
X70448Y87437D01*
X70445Y87432D01*
X70429Y87338D01*
X70411Y87245D01*
X70412Y87240D01*
X70411Y87235D01*
X70433Y87142D01*
X70453Y87049D01*
X70456Y87044D01*
X70457Y87039D01*
X70559Y86891D01*
X71001Y86450D01*
X71001Y85008D01*
X71002Y85003D01*
X71001Y84998D01*
X71022Y84905D01*
X71040Y84811D01*
X71043Y84807D01*
X71044Y84802D01*
X71100Y84724D01*
X71153Y84646D01*
X71157Y84643D01*
X71160Y84639D01*
X71242Y84588D01*
X71321Y84536D01*
X71326Y84536D01*
X71331Y84533D01*
X71508Y84501D01*
X73950Y84501D01*
X74891Y83559D01*
X74896Y83557D01*
X74899Y83552D01*
X74979Y83501D01*
X75058Y83449D01*
X75063Y83448D01*
X75068Y83445D01*
X75162Y83429D01*
X75255Y83411D01*
X75260Y83412D01*
X75266Y83411D01*
X75358Y83433D01*
X75451Y83453D01*
X75456Y83456D01*
X75461Y83457D01*
X75609Y83559D01*
X77550Y85501D01*
X80450Y85501D01*
X81891Y84059D01*
X81896Y84057D01*
X81899Y84052D01*
X81979Y84001D01*
X82058Y83949D01*
X82063Y83948D01*
X82068Y83945D01*
X82162Y83929D01*
X82255Y83911D01*
X82260Y83912D01*
X82266Y83911D01*
X82358Y83933D01*
X82451Y83953D01*
X82456Y83956D01*
X82461Y83957D01*
X82609Y84059D01*
X83550Y85001D01*
X86450Y85001D01*
X88391Y83059D01*
X88396Y83057D01*
X88399Y83052D01*
X88479Y83001D01*
X88558Y82949D01*
X88563Y82948D01*
X88568Y82945D01*
X88662Y82929D01*
X88755Y82911D01*
X88760Y82912D01*
X88765Y82911D01*
X88858Y82933D01*
X88951Y82953D01*
X88956Y82956D01*
X88961Y82957D01*
X89109Y83059D01*
X90550Y84501D01*
X93450Y84501D01*
X95641Y82309D01*
X95646Y82307D01*
X95649Y82302D01*
X95729Y82251D01*
X95808Y82199D01*
X95813Y82198D01*
X95818Y82195D01*
X95912Y82179D01*
X96005Y82161D01*
X96010Y82162D01*
X96016Y82161D01*
X96108Y82183D01*
X96201Y82203D01*
X96206Y82206D01*
X96211Y82207D01*
X96359Y82309D01*
X98550Y84501D01*
X101450Y84501D01*
X103501Y82450D01*
X103501Y79489D01*
X103502Y79481D01*
X103501Y79473D01*
X103522Y79383D01*
X103540Y79292D01*
X103545Y79286D01*
X103547Y79278D01*
X103649Y79130D01*
X105556Y77224D01*
X105560Y77221D01*
X105563Y77216D01*
X105643Y77166D01*
X105723Y77113D01*
X105728Y77112D01*
X105732Y77109D01*
X105826Y77093D01*
X105919Y77075D01*
X105925Y77076D01*
X105930Y77075D01*
X106022Y77097D01*
X106115Y77117D01*
X106120Y77120D01*
X106125Y77121D01*
X106273Y77224D01*
X106691Y77641D01*
X106693Y77646D01*
X106698Y77649D01*
X106749Y77729D01*
X106801Y77808D01*
X106802Y77813D01*
X106805Y77818D01*
X106821Y77912D01*
X106839Y78005D01*
X106838Y78010D01*
X106839Y78016D01*
X106817Y78108D01*
X106797Y78201D01*
X106794Y78206D01*
X106793Y78211D01*
X106691Y78359D01*
X105499Y79550D01*
X105499Y82450D01*
X107691Y84641D01*
X107693Y84646D01*
X107698Y84649D01*
X107749Y84729D01*
X107801Y84808D01*
X107802Y84813D01*
X107805Y84818D01*
X107821Y84911D01*
X107839Y85005D01*
X107838Y85010D01*
X107839Y85015D01*
X107817Y85108D01*
X107797Y85201D01*
X107794Y85206D01*
X107793Y85211D01*
X107691Y85359D01*
X107499Y85550D01*
X107499Y87992D01*
X107498Y87997D01*
X107499Y88002D01*
X107478Y88095D01*
X107460Y88189D01*
X107457Y88193D01*
X107456Y88198D01*
X107400Y88276D01*
X107347Y88354D01*
X107343Y88357D01*
X107340Y88361D01*
X107258Y88412D01*
X107179Y88464D01*
X107174Y88464D01*
X107169Y88467D01*
X106992Y88499D01*
X105550Y88499D01*
X103499Y90550D01*
X103499Y93450D01*
X105691Y95641D01*
X105693Y95646D01*
X105698Y95649D01*
X105749Y95729D01*
X105801Y95808D01*
X105802Y95813D01*
X105805Y95818D01*
X105821Y95912D01*
X105839Y96005D01*
X105838Y96010D01*
X105839Y96015D01*
X105817Y96108D01*
X105797Y96201D01*
X105794Y96206D01*
X105793Y96211D01*
X105691Y96359D01*
X104499Y97550D01*
X104499Y100450D01*
X106691Y102641D01*
X106693Y102646D01*
X106698Y102649D01*
X106749Y102729D01*
X106801Y102808D01*
X106802Y102813D01*
X106805Y102818D01*
X106821Y102912D01*
X106839Y103005D01*
X106838Y103010D01*
X106839Y103015D01*
X106817Y103108D01*
X106797Y103201D01*
X106794Y103206D01*
X106793Y103211D01*
X106691Y103359D01*
X104499Y105550D01*
X104499Y108450D01*
X106550Y110501D01*
X109450Y110501D01*
X111301Y108649D01*
X111308Y108645D01*
X111313Y108639D01*
X111392Y108589D01*
X111468Y108538D01*
X111476Y108537D01*
X111483Y108533D01*
X111660Y108501D01*
X115278Y108501D01*
X116306Y107473D01*
X116633Y107146D01*
X116636Y107144D01*
X116637Y107142D01*
X116718Y107090D01*
X116800Y107035D01*
X116803Y107034D01*
X116805Y107033D01*
X116901Y107016D01*
X116997Y106997D01*
X117000Y106998D01*
X117002Y106997D01*
X117099Y107019D01*
X117193Y107039D01*
X117195Y107040D01*
X117198Y107041D01*
X117279Y107099D01*
X117358Y107153D01*
X117359Y107155D01*
X117361Y107157D01*
X117414Y107241D01*
X117465Y107322D01*
X117466Y107325D01*
X117467Y107327D01*
X117487Y107438D01*
X117691Y107641D01*
X117693Y107646D01*
X117698Y107649D01*
X117749Y107729D01*
X117801Y107808D01*
X117802Y107813D01*
X117805Y107818D01*
X117821Y107912D01*
X117839Y108005D01*
X117838Y108010D01*
X117839Y108016D01*
X117817Y108108D01*
X117797Y108201D01*
X117794Y108206D01*
X117793Y108211D01*
X117691Y108359D01*
X115499Y110550D01*
X115499Y111492D01*
X115498Y111497D01*
X115499Y111502D01*
X115478Y111595D01*
X115460Y111689D01*
X115457Y111693D01*
X115456Y111698D01*
X115400Y111776D01*
X115347Y111854D01*
X115343Y111857D01*
X115340Y111861D01*
X115258Y111912D01*
X115179Y111964D01*
X115174Y111964D01*
X115169Y111967D01*
X114992Y111999D01*
X112272Y111999D01*
X110221Y114050D01*
X110221Y116950D01*
X112272Y119001D01*
X115172Y119001D01*
X115773Y118399D01*
X115780Y118395D01*
X115784Y118389D01*
X115863Y118340D01*
X115940Y118288D01*
X115948Y118287D01*
X115955Y118283D01*
X116132Y118251D01*
X138040Y118251D01*
X138048Y118252D01*
X138055Y118251D01*
X138145Y118272D01*
X138236Y118290D01*
X138243Y118295D01*
X138251Y118297D01*
X138399Y118399D01*
X140000Y120001D01*
X142900Y120001D01*
X144951Y117950D01*
X144951Y115050D01*
X142900Y112999D01*
X140000Y112999D01*
X138399Y114601D01*
X138392Y114605D01*
X138387Y114611D01*
X138309Y114660D01*
X138232Y114712D01*
X138224Y114713D01*
X138217Y114717D01*
X138040Y114749D01*
X122426Y114749D01*
X122424Y114749D01*
X122421Y114749D01*
X122326Y114729D01*
X122230Y114710D01*
X122227Y114708D01*
X122225Y114708D01*
X122144Y114652D01*
X122064Y114597D01*
X122062Y114595D01*
X122060Y114593D01*
X122006Y114508D01*
X121955Y114429D01*
X121954Y114426D01*
X121953Y114424D01*
X121936Y114328D01*
X121919Y114232D01*
X121920Y114229D01*
X121919Y114227D01*
X121941Y114132D01*
X121963Y114036D01*
X121964Y114034D01*
X121965Y114031D01*
X122067Y113883D01*
X122501Y113450D01*
X122501Y112008D01*
X122502Y112003D01*
X122501Y111998D01*
X122522Y111905D01*
X122540Y111811D01*
X122543Y111807D01*
X122544Y111802D01*
X122600Y111724D01*
X122653Y111646D01*
X122657Y111643D01*
X122660Y111639D01*
X122742Y111588D01*
X122821Y111536D01*
X122826Y111536D01*
X122831Y111533D01*
X123008Y111501D01*
X123278Y111501D01*
X127001Y107778D01*
X127001Y102832D01*
X127002Y102824D01*
X127001Y102816D01*
X127022Y102726D01*
X127040Y102635D01*
X127045Y102629D01*
X127047Y102621D01*
X127149Y102473D01*
X138973Y90649D01*
X138980Y90645D01*
X138984Y90639D01*
X139063Y90590D01*
X139140Y90538D01*
X139148Y90537D01*
X139154Y90533D01*
X139332Y90501D01*
X142272Y90501D01*
X161517Y71256D01*
X161517Y22744D01*
X160489Y21717D01*
X150283Y11511D01*
X149256Y10483D01*
X108238Y10483D01*
G37*
%LPD*%
G36*
X40010Y32162D02*
X40010Y32162D01*
X40015Y32161D01*
X40108Y32183D01*
X40201Y32203D01*
X40206Y32206D01*
X40211Y32207D01*
X40359Y32309D01*
X41351Y33301D01*
X41355Y33308D01*
X41361Y33313D01*
X41410Y33391D01*
X41462Y33468D01*
X41463Y33476D01*
X41467Y33483D01*
X41499Y33660D01*
X41499Y54527D01*
X41498Y54535D01*
X41499Y54543D01*
X41478Y54633D01*
X41460Y54724D01*
X41455Y54730D01*
X41453Y54738D01*
X41351Y54886D01*
X39515Y56722D01*
X39515Y65809D01*
X42839Y69133D01*
X42841Y69136D01*
X42843Y69137D01*
X42896Y69218D01*
X42950Y69300D01*
X42951Y69303D01*
X42952Y69305D01*
X42970Y69401D01*
X42988Y69497D01*
X42987Y69500D01*
X42988Y69502D01*
X42966Y69599D01*
X42946Y69693D01*
X42945Y69695D01*
X42944Y69698D01*
X42888Y69778D01*
X42832Y69858D01*
X42830Y69859D01*
X42828Y69861D01*
X42746Y69913D01*
X42663Y69965D01*
X42660Y69966D01*
X42658Y69967D01*
X42481Y69999D01*
X40050Y69999D01*
X37999Y72050D01*
X37999Y74950D01*
X40050Y77001D01*
X42950Y77001D01*
X45001Y74950D01*
X45001Y72519D01*
X45001Y72517D01*
X45001Y72514D01*
X45021Y72419D01*
X45040Y72323D01*
X45042Y72321D01*
X45042Y72318D01*
X45098Y72237D01*
X45153Y72157D01*
X45155Y72156D01*
X45157Y72153D01*
X45240Y72100D01*
X45321Y72048D01*
X45324Y72047D01*
X45326Y72046D01*
X45422Y72029D01*
X45518Y72012D01*
X45521Y72013D01*
X45523Y72012D01*
X45617Y72034D01*
X45714Y72056D01*
X45716Y72057D01*
X45719Y72058D01*
X45867Y72161D01*
X53351Y79645D01*
X53355Y79651D01*
X53361Y79656D01*
X53410Y79734D01*
X53462Y79812D01*
X53463Y79819D01*
X53467Y79826D01*
X53499Y80003D01*
X53499Y81278D01*
X59722Y87501D01*
X60324Y87501D01*
X60326Y87501D01*
X60329Y87501D01*
X60424Y87521D01*
X60520Y87540D01*
X60523Y87542D01*
X60525Y87542D01*
X60606Y87598D01*
X60686Y87653D01*
X60688Y87655D01*
X60690Y87657D01*
X60743Y87740D01*
X60795Y87821D01*
X60796Y87824D01*
X60797Y87826D01*
X60814Y87922D01*
X60831Y88018D01*
X60830Y88021D01*
X60831Y88023D01*
X60809Y88118D01*
X60787Y88214D01*
X60786Y88216D01*
X60785Y88219D01*
X60683Y88367D01*
X59699Y89351D01*
X59692Y89355D01*
X59687Y89361D01*
X59609Y89410D01*
X59532Y89462D01*
X59524Y89463D01*
X59517Y89467D01*
X59340Y89499D01*
X50346Y89499D01*
X50339Y89498D01*
X50331Y89499D01*
X50241Y89478D01*
X50150Y89460D01*
X50143Y89455D01*
X50136Y89453D01*
X49988Y89351D01*
X34649Y74012D01*
X34645Y74006D01*
X34639Y74001D01*
X34590Y73922D01*
X34538Y73845D01*
X34537Y73838D01*
X34533Y73831D01*
X34501Y73654D01*
X34501Y33676D01*
X34501Y33674D01*
X34501Y33671D01*
X34521Y33575D01*
X34540Y33480D01*
X34542Y33477D01*
X34542Y33475D01*
X34598Y33394D01*
X34653Y33314D01*
X34655Y33312D01*
X34657Y33310D01*
X34740Y33257D01*
X34821Y33205D01*
X34824Y33204D01*
X34826Y33203D01*
X34922Y33186D01*
X35018Y33169D01*
X35021Y33170D01*
X35023Y33169D01*
X35116Y33191D01*
X35214Y33213D01*
X35216Y33214D01*
X35219Y33215D01*
X35367Y33317D01*
X35550Y33501D01*
X38450Y33501D01*
X39641Y32309D01*
X39646Y32307D01*
X39649Y32302D01*
X39729Y32251D01*
X39808Y32199D01*
X39813Y32198D01*
X39818Y32195D01*
X39912Y32179D01*
X40005Y32161D01*
X40010Y32162D01*
G37*
G36*
X142833Y25502D02*
X142833Y25502D01*
X142841Y25501D01*
X142930Y25522D01*
X143022Y25540D01*
X143028Y25545D01*
X143036Y25547D01*
X143184Y25649D01*
X146351Y28816D01*
X146355Y28823D01*
X146361Y28827D01*
X146410Y28906D01*
X146462Y28983D01*
X146463Y28991D01*
X146467Y28998D01*
X146499Y29175D01*
X146499Y55324D01*
X146499Y55326D01*
X146499Y55329D01*
X146479Y55425D01*
X146460Y55520D01*
X146458Y55523D01*
X146458Y55525D01*
X146402Y55606D01*
X146347Y55686D01*
X146345Y55688D01*
X146343Y55690D01*
X146260Y55743D01*
X146179Y55795D01*
X146176Y55796D01*
X146174Y55797D01*
X146078Y55814D01*
X145982Y55831D01*
X145979Y55830D01*
X145977Y55831D01*
X145884Y55809D01*
X145786Y55787D01*
X145784Y55786D01*
X145781Y55785D01*
X145633Y55683D01*
X145450Y55499D01*
X142550Y55499D01*
X140375Y57675D01*
X140372Y57676D01*
X140371Y57678D01*
X140290Y57731D01*
X140208Y57786D01*
X140205Y57786D01*
X140203Y57787D01*
X140107Y57805D01*
X140011Y57823D01*
X140008Y57823D01*
X140006Y57823D01*
X139909Y57802D01*
X139815Y57782D01*
X139813Y57780D01*
X139810Y57779D01*
X139730Y57723D01*
X139650Y57667D01*
X139649Y57665D01*
X139647Y57663D01*
X139595Y57581D01*
X139543Y57498D01*
X139542Y57495D01*
X139541Y57493D01*
X139509Y57316D01*
X139509Y31652D01*
X139510Y31644D01*
X139509Y31637D01*
X139530Y31547D01*
X139548Y31456D01*
X139553Y31449D01*
X139555Y31441D01*
X139657Y31293D01*
X141501Y29450D01*
X141501Y26550D01*
X141317Y26367D01*
X141316Y26364D01*
X141314Y26363D01*
X141261Y26282D01*
X141206Y26200D01*
X141206Y26197D01*
X141205Y26195D01*
X141187Y26099D01*
X141169Y26003D01*
X141169Y26000D01*
X141169Y25998D01*
X141191Y25901D01*
X141210Y25807D01*
X141212Y25805D01*
X141213Y25802D01*
X141270Y25721D01*
X141325Y25642D01*
X141327Y25641D01*
X141329Y25639D01*
X141413Y25586D01*
X141494Y25535D01*
X141497Y25534D01*
X141499Y25533D01*
X141676Y25501D01*
X142825Y25501D01*
X142833Y25502D01*
G37*
%LPC*%
G36*
X35800Y165648D02*
X35800Y165648D01*
X33749Y167699D01*
X33749Y170599D01*
X35615Y172464D01*
X35616Y172467D01*
X35618Y172468D01*
X35671Y172549D01*
X35726Y172631D01*
X35726Y172634D01*
X35727Y172636D01*
X35745Y172732D01*
X35763Y172828D01*
X35763Y172831D01*
X35763Y172833D01*
X35742Y172930D01*
X35722Y173024D01*
X35720Y173026D01*
X35719Y173029D01*
X35663Y173109D01*
X35607Y173189D01*
X35605Y173190D01*
X35603Y173193D01*
X35521Y173244D01*
X35438Y173297D01*
X35435Y173297D01*
X35433Y173298D01*
X35310Y173321D01*
X33249Y175381D01*
X33249Y178281D01*
X35300Y180332D01*
X38200Y180332D01*
X40251Y178281D01*
X40251Y175381D01*
X38385Y173516D01*
X38384Y173514D01*
X38382Y173512D01*
X38329Y173431D01*
X38274Y173349D01*
X38274Y173346D01*
X38273Y173344D01*
X38255Y173248D01*
X38237Y173152D01*
X38237Y173149D01*
X38237Y173147D01*
X38258Y173050D01*
X38278Y172956D01*
X38280Y172954D01*
X38281Y172951D01*
X38337Y172871D01*
X38393Y172791D01*
X38395Y172790D01*
X38397Y172788D01*
X38479Y172736D01*
X38562Y172684D01*
X38565Y172683D01*
X38567Y172682D01*
X38690Y172660D01*
X40751Y170599D01*
X40751Y167699D01*
X38700Y165648D01*
X35800Y165648D01*
G37*
%LPD*%
%LPC*%
G36*
X37050Y190267D02*
X37050Y190267D01*
X34999Y192318D01*
X34999Y195218D01*
X36415Y196633D01*
X36416Y196636D01*
X36418Y196637D01*
X36471Y196718D01*
X36526Y196800D01*
X36526Y196803D01*
X36527Y196805D01*
X36545Y196901D01*
X36563Y196997D01*
X36563Y197000D01*
X36563Y197002D01*
X36542Y197099D01*
X36522Y197193D01*
X36520Y197195D01*
X36519Y197198D01*
X36463Y197278D01*
X36407Y197358D01*
X36405Y197359D01*
X36403Y197361D01*
X36320Y197414D01*
X36238Y197465D01*
X36235Y197466D01*
X36233Y197467D01*
X36056Y197499D01*
X36050Y197499D01*
X33999Y199550D01*
X33999Y202450D01*
X36050Y204501D01*
X38950Y204501D01*
X41001Y202450D01*
X41001Y199550D01*
X39585Y198135D01*
X39584Y198132D01*
X39582Y198131D01*
X39529Y198050D01*
X39474Y197968D01*
X39474Y197965D01*
X39473Y197963D01*
X39455Y197867D01*
X39437Y197771D01*
X39437Y197768D01*
X39437Y197766D01*
X39458Y197669D01*
X39478Y197575D01*
X39480Y197573D01*
X39481Y197570D01*
X39537Y197490D01*
X39593Y197410D01*
X39595Y197409D01*
X39597Y197407D01*
X39680Y197354D01*
X39762Y197303D01*
X39765Y197302D01*
X39767Y197301D01*
X39944Y197269D01*
X39950Y197269D01*
X42001Y195218D01*
X42001Y192318D01*
X39950Y190267D01*
X37050Y190267D01*
G37*
%LPD*%
%LPC*%
G36*
X81550Y206849D02*
X81550Y206849D01*
X80034Y208366D01*
X80029Y208368D01*
X80026Y208373D01*
X79946Y208424D01*
X79867Y208476D01*
X79862Y208477D01*
X79857Y208480D01*
X79763Y208496D01*
X79670Y208514D01*
X79665Y208513D01*
X79659Y208514D01*
X79567Y208492D01*
X79474Y208472D01*
X79469Y208469D01*
X79464Y208468D01*
X79316Y208366D01*
X77950Y206999D01*
X75050Y206999D01*
X72999Y209050D01*
X72999Y211950D01*
X75050Y214001D01*
X77950Y214001D01*
X79466Y212484D01*
X79471Y212482D01*
X79474Y212477D01*
X79554Y212426D01*
X79633Y212374D01*
X79638Y212373D01*
X79643Y212370D01*
X79737Y212354D01*
X79830Y212336D01*
X79835Y212337D01*
X79840Y212336D01*
X79933Y212358D01*
X80026Y212378D01*
X80031Y212381D01*
X80036Y212382D01*
X80184Y212484D01*
X81550Y213851D01*
X84450Y213851D01*
X86501Y211800D01*
X86501Y208900D01*
X84450Y206849D01*
X81550Y206849D01*
G37*
%LPD*%
%LPC*%
G36*
X45050Y206999D02*
X45050Y206999D01*
X42999Y209050D01*
X42999Y211950D01*
X45050Y214001D01*
X47950Y214001D01*
X49189Y212761D01*
X49194Y212758D01*
X49197Y212754D01*
X49277Y212703D01*
X49356Y212650D01*
X49362Y212649D01*
X49366Y212647D01*
X49460Y212631D01*
X49553Y212613D01*
X49558Y212614D01*
X49564Y212613D01*
X49656Y212635D01*
X49749Y212654D01*
X49754Y212657D01*
X49759Y212659D01*
X49907Y212761D01*
X51252Y214106D01*
X54152Y214106D01*
X56203Y212056D01*
X56203Y209156D01*
X54152Y207105D01*
X51252Y207105D01*
X50013Y208344D01*
X50008Y208347D01*
X50005Y208352D01*
X49925Y208403D01*
X49846Y208455D01*
X49840Y208456D01*
X49836Y208459D01*
X49742Y208475D01*
X49649Y208493D01*
X49643Y208492D01*
X49638Y208493D01*
X49546Y208471D01*
X49453Y208451D01*
X49448Y208448D01*
X49443Y208447D01*
X49295Y208344D01*
X47950Y206999D01*
X45050Y206999D01*
G37*
%LPD*%
%LPC*%
G36*
X22421Y159999D02*
X22421Y159999D01*
X20370Y162050D01*
X20370Y164950D01*
X21626Y166206D01*
X21629Y166210D01*
X21633Y166213D01*
X21684Y166294D01*
X21737Y166373D01*
X21738Y166378D01*
X21741Y166382D01*
X21757Y166476D01*
X21775Y166570D01*
X21773Y166575D01*
X21774Y166580D01*
X21753Y166673D01*
X21733Y166766D01*
X21730Y166770D01*
X21729Y166775D01*
X21626Y166923D01*
X20499Y168050D01*
X20499Y170950D01*
X22550Y173001D01*
X25450Y173001D01*
X27501Y170950D01*
X27501Y168050D01*
X26245Y166794D01*
X26242Y166790D01*
X26238Y166787D01*
X26187Y166707D01*
X26134Y166627D01*
X26133Y166622D01*
X26130Y166618D01*
X26114Y166524D01*
X26096Y166430D01*
X26097Y166425D01*
X26097Y166420D01*
X26118Y166327D01*
X26138Y166234D01*
X26141Y166230D01*
X26142Y166225D01*
X26245Y166077D01*
X27372Y164950D01*
X27372Y162050D01*
X25321Y159999D01*
X22421Y159999D01*
G37*
%LPD*%
%LPC*%
G36*
X58127Y219172D02*
X58127Y219172D01*
X56076Y221223D01*
X56076Y224123D01*
X58127Y226174D01*
X61027Y226174D01*
X63078Y224123D01*
X63078Y221223D01*
X61027Y219172D01*
X58127Y219172D01*
G37*
%LPD*%
%LPC*%
G36*
X65604Y206849D02*
X65604Y206849D01*
X63553Y208900D01*
X63553Y211800D01*
X65604Y213851D01*
X68504Y213851D01*
X70555Y211800D01*
X70555Y208900D01*
X68504Y206849D01*
X65604Y206849D01*
G37*
%LPD*%
%LPC*%
G36*
X155550Y202499D02*
X155550Y202499D01*
X153499Y204550D01*
X153499Y207450D01*
X155550Y209501D01*
X158450Y209501D01*
X160501Y207450D01*
X160501Y204550D01*
X158450Y202499D01*
X155550Y202499D01*
G37*
%LPD*%
%LPC*%
G36*
X145050Y189499D02*
X145050Y189499D01*
X142999Y191550D01*
X142999Y194450D01*
X145050Y196501D01*
X147950Y196501D01*
X150001Y194450D01*
X150001Y191550D01*
X147950Y189499D01*
X145050Y189499D01*
G37*
%LPD*%
%LPC*%
G36*
X121050Y187701D02*
X121050Y187701D01*
X118999Y189752D01*
X118999Y192652D01*
X121050Y194703D01*
X123950Y194703D01*
X126001Y192652D01*
X126001Y189752D01*
X123950Y187701D01*
X121050Y187701D01*
G37*
%LPD*%
%LPC*%
G36*
X149050Y178499D02*
X149050Y178499D01*
X146999Y180550D01*
X146999Y183450D01*
X149050Y185501D01*
X151950Y185501D01*
X154001Y183450D01*
X154001Y180550D01*
X151950Y178499D01*
X149050Y178499D01*
G37*
%LPD*%
%LPC*%
G36*
X21050Y176921D02*
X21050Y176921D01*
X18999Y178972D01*
X18999Y181872D01*
X21050Y183923D01*
X23950Y183923D01*
X26001Y181872D01*
X26001Y178972D01*
X23950Y176921D01*
X21050Y176921D01*
G37*
%LPD*%
%LPC*%
G36*
X90800Y161499D02*
X90800Y161499D01*
X88749Y163550D01*
X88749Y166450D01*
X90800Y168501D01*
X93700Y168501D01*
X95751Y166450D01*
X95751Y163550D01*
X93700Y161499D01*
X90800Y161499D01*
G37*
%LPD*%
%LPC*%
G36*
X32336Y155249D02*
X32336Y155249D01*
X30285Y157300D01*
X30285Y160200D01*
X32336Y162251D01*
X35236Y162251D01*
X37286Y160200D01*
X37286Y157300D01*
X35236Y155249D01*
X32336Y155249D01*
G37*
%LPD*%
%LPC*%
G36*
X60800Y147749D02*
X60800Y147749D01*
X58749Y149800D01*
X58749Y152700D01*
X60800Y154751D01*
X63700Y154751D01*
X65751Y152700D01*
X65751Y149800D01*
X63700Y147749D01*
X60800Y147749D01*
G37*
%LPD*%
%LPC*%
G36*
X75550Y131499D02*
X75550Y131499D01*
X73499Y133550D01*
X73499Y136450D01*
X75550Y138501D01*
X78450Y138501D01*
X80501Y136450D01*
X80501Y133550D01*
X78450Y131499D01*
X75550Y131499D01*
G37*
%LPD*%
%LPC*%
G36*
X19375Y125249D02*
X19375Y125249D01*
X17325Y127300D01*
X17325Y130200D01*
X19375Y132251D01*
X22275Y132251D01*
X24326Y130200D01*
X24326Y127300D01*
X22275Y125249D01*
X19375Y125249D01*
G37*
%LPD*%
%LPC*%
G36*
X147550Y99499D02*
X147550Y99499D01*
X145499Y101550D01*
X145499Y104450D01*
X147550Y106501D01*
X150450Y106501D01*
X152501Y104450D01*
X152501Y101550D01*
X150450Y99499D01*
X147550Y99499D01*
G37*
%LPD*%
%LPC*%
G36*
X22550Y91499D02*
X22550Y91499D01*
X20499Y93550D01*
X20499Y96450D01*
X22550Y98501D01*
X25450Y98501D01*
X27501Y96450D01*
X27501Y93550D01*
X25450Y91499D01*
X22550Y91499D01*
G37*
%LPD*%
%LPC*%
G36*
X156050Y82999D02*
X156050Y82999D01*
X153999Y85050D01*
X153999Y87950D01*
X156050Y90001D01*
X158950Y90001D01*
X161001Y87950D01*
X161001Y85050D01*
X158950Y82999D01*
X156050Y82999D01*
G37*
%LPD*%
%LPC*%
G36*
X85550Y20499D02*
X85550Y20499D01*
X83499Y22550D01*
X83499Y25450D01*
X85550Y27501D01*
X88450Y27501D01*
X90501Y25450D01*
X90501Y22550D01*
X88450Y20499D01*
X85550Y20499D01*
G37*
%LPD*%
D10*
X76150Y226000D03*
X88850Y226000D03*
D11*
X35000Y226500D03*
X25000Y226500D03*
D10*
X20500Y210850D03*
X20500Y198150D03*
X159000Y137550D03*
X159000Y150250D03*
X159000Y112150D03*
X159000Y124850D03*
D12*
X37000Y58000D03*
X144000Y30000D03*
X159000Y101000D03*
X150000Y138000D03*
X18000Y93500D03*
X87000Y14000D03*
D13*
X150000Y138000D02*
X150000Y140929D01*
X151000Y141929D01*
X151000Y142250D01*
X159000Y150250D01*
D14*
X150000Y138000D02*
X150000Y120000D01*
X152000Y118000D01*
X152000Y115403D02*
X151750Y115153D01*
X152000Y115403D02*
X152000Y118000D01*
X151750Y108250D02*
X159000Y101000D01*
X151750Y108250D02*
X151750Y115153D01*
D12*
X82500Y102500D03*
X99000Y113500D03*
X139500Y102000D03*
D15*
X147240Y98750D02*
X150760Y98750D01*
X143990Y102000D02*
X139500Y102000D01*
X143990Y102000D02*
X147240Y98750D01*
X150760Y98750D02*
X153010Y101000D01*
X159000Y101000D01*
D12*
X37000Y30000D03*
X144000Y59000D03*
X157500Y86500D03*
X94500Y141500D03*
X33786Y158750D03*
X24000Y169500D03*
X23871Y163500D03*
X20000Y156000D03*
X27500Y143500D03*
X77000Y135000D03*
X161000Y187500D03*
X146000Y144000D03*
X128500Y143500D03*
X157000Y159000D03*
X52918Y176282D03*
X80250Y171697D03*
X139500Y187000D03*
X133000Y204000D03*
X102000Y228988D03*
X17512Y220000D03*
X63869Y228988D03*
X42000Y163000D03*
X92500Y208000D03*
X66500Y165000D03*
X53500Y191500D03*
X116000Y176000D03*
X51500Y201500D03*
X157000Y223500D03*
X154550Y216000D03*
X108900Y154150D03*
X41500Y73500D03*
X137500Y70500D03*
X141000Y161000D03*
X37500Y201000D03*
X150500Y182000D03*
X34000Y144500D03*
X102000Y179000D03*
X37250Y169149D03*
D13*
X100500Y179000D02*
X102000Y179000D01*
X100500Y214350D02*
X88850Y226000D01*
X100500Y214350D02*
X100500Y209000D01*
X100500Y179000D01*
D16*
X100500Y209000D03*
D12*
X108500Y205000D03*
X36750Y176831D03*
X38500Y193768D03*
X56500Y140500D03*
X76500Y210500D03*
X112000Y228988D03*
X83000Y210350D03*
X136750Y228988D03*
X72000Y115000D03*
X143000Y125000D03*
X32500Y103500D03*
D14*
X72000Y115000D02*
X72000Y123000D01*
X36500Y123000D01*
X32000Y118500D01*
X32000Y104000D01*
X32500Y103500D01*
X72000Y123000D02*
X85500Y123000D01*
X87500Y125000D01*
X143000Y125000D01*
D12*
X119000Y112000D03*
X94000Y29000D03*
X149000Y103000D03*
D17*
X160016Y23366D02*
X148634Y11984D01*
X122657Y110000D02*
X121000Y110000D01*
X119000Y112000D01*
X94000Y26843D02*
X108859Y11984D01*
X148634Y11984D01*
X160016Y23366D02*
X160016Y70634D01*
X94000Y29000D02*
X94000Y26843D01*
X125500Y107157D02*
X122657Y110000D01*
X125500Y107157D02*
X125500Y102000D01*
X138500Y89000D01*
X141650Y89000D01*
X160016Y70634D01*
D12*
X121000Y106000D03*
X100000Y26500D03*
D17*
X147806Y13984D02*
X158016Y24194D01*
X158016Y69806D01*
X140822Y87000D01*
X137500Y87000D01*
X121000Y103500D01*
X121000Y106000D01*
X100000Y26343D02*
X112359Y13984D01*
X100000Y26343D02*
X100000Y26500D01*
X112359Y13984D02*
X147806Y13984D01*
D12*
X108000Y107000D03*
X106500Y30000D03*
D17*
X146977Y15984D02*
X156016Y25023D01*
X156016Y68977D01*
X109000Y26343D02*
X119359Y15984D01*
X146977Y15984D01*
X109000Y27500D02*
X106500Y30000D01*
X109000Y27500D02*
X109000Y26343D01*
X136843Y84500D02*
X117000Y104343D01*
X117000Y104657D01*
X114657Y107000D01*
X108000Y107000D01*
X136843Y84500D02*
X140493Y84500D01*
X156016Y68977D01*
D12*
X113000Y103000D03*
X113000Y28000D03*
D17*
X146149Y17984D02*
X154016Y25851D01*
X154016Y68149D01*
X115000Y101000D02*
X113000Y103000D01*
X125359Y17984D02*
X146149Y17984D01*
X115343Y28000D02*
X113000Y28000D01*
X115343Y28000D02*
X125359Y17984D01*
X154016Y68149D02*
X140165Y82000D01*
X136515Y82000D01*
X117515Y101000D01*
X115000Y101000D01*
D12*
X108000Y99000D03*
X119000Y30000D03*
D17*
X145320Y19984D02*
X152016Y26680D01*
X152016Y67320D01*
X139828Y79508D01*
X135149Y79508D01*
X119000Y27843D02*
X126859Y19984D01*
X145320Y19984D01*
X119000Y28843D02*
X119000Y30000D01*
X119000Y28500D02*
X119000Y27843D01*
X119000Y28500D02*
X119000Y28843D01*
X115657Y99000D02*
X108000Y99000D01*
X115657Y99000D02*
X135149Y79508D01*
D12*
X114000Y95000D03*
X125500Y28000D03*
D17*
X132992Y77008D02*
X115000Y95000D01*
X114000Y95000D01*
X150016Y27508D02*
X144492Y21984D01*
X150016Y27508D02*
X150016Y66492D01*
X144492Y21984D02*
X131359Y21984D01*
X150016Y66492D02*
X139500Y77008D01*
X132992Y77008D01*
X125500Y27843D02*
X131359Y21984D01*
X125500Y27843D02*
X125500Y28000D01*
D12*
X107000Y92000D03*
X132000Y30000D03*
D18*
X131992Y26840D02*
X134840Y23992D01*
X132011Y74508D02*
X139160Y74508D01*
X134840Y23992D02*
X143660Y23992D01*
X148008Y28340D01*
X132000Y30000D02*
X131992Y29992D01*
X131992Y26840D01*
X148008Y28340D02*
X148008Y65660D01*
X139160Y74508D01*
X116519Y90000D02*
X114000Y90000D01*
D17*
X113657Y90000D01*
X112657Y91000D01*
X108000Y91000D02*
X107000Y92000D01*
X108000Y91000D02*
X112657Y91000D01*
D18*
X116519Y90000D02*
X132011Y74508D01*
D12*
X111000Y87000D03*
X138000Y28000D03*
D18*
X120008Y83660D02*
X117660Y86008D01*
X111992Y86008D02*
X111000Y87000D01*
X111992Y86008D02*
X117660Y86008D01*
X120008Y83660D02*
X120008Y81660D01*
X138000Y63668D02*
X138000Y28000D01*
X138000Y63668D02*
X120008Y81660D01*
D12*
X116000Y82000D03*
X133000Y63000D03*
D17*
X118657Y79500D02*
X118500Y79500D01*
X116000Y82000D01*
X133000Y65157D02*
X133000Y63000D01*
X133000Y65157D02*
X118657Y79500D01*
D12*
X117000Y75500D03*
X131000Y57000D03*
D17*
X128500Y59500D01*
X128500Y63157D01*
X117000Y74657D02*
X117000Y75500D01*
X117000Y74657D02*
X128500Y63157D01*
D12*
X109000Y81000D03*
X124500Y61500D03*
D17*
X113000Y73000D01*
X109000Y80657D02*
X109000Y81000D01*
X113000Y76657D02*
X113000Y73000D01*
X113000Y76657D02*
X109000Y80657D01*
D12*
X109000Y75000D03*
X118500Y57000D03*
D17*
X116000Y59500D01*
X116000Y61657D01*
X109000Y68657D02*
X109000Y75000D01*
X109000Y68657D02*
X116000Y61657D01*
D12*
X100000Y81000D03*
X112000Y60000D03*
D17*
X100000Y80657D02*
X100000Y81000D01*
X100000Y80657D02*
X104000Y76657D01*
X104000Y68000D01*
X112000Y60000D01*
D12*
X100000Y75000D03*
X106000Y57500D03*
D17*
X106000Y61500D01*
X100000Y67500D02*
X100000Y75000D01*
X100000Y67500D02*
X106000Y61500D01*
D12*
X92000Y81000D03*
X99500Y60500D03*
D17*
X92000Y80657D02*
X92000Y81000D01*
X92000Y80657D02*
X96000Y76657D01*
X96000Y64000D02*
X99500Y60500D01*
X96000Y64000D02*
X96000Y76657D01*
D12*
X92000Y75000D03*
X93500Y57000D03*
D17*
X93500Y62500D01*
X91500Y64500D01*
X91500Y74500D01*
X92000Y75000D01*
D12*
X85000Y81500D03*
X86500Y60500D03*
D17*
X86500Y64843D01*
X88000Y66343D01*
X88000Y78500D01*
X85000Y81500D01*
D12*
X84000Y75500D03*
X80500Y57500D03*
D17*
X80500Y61500D01*
X84000Y65000D01*
X84000Y75500D01*
D12*
X79000Y82000D03*
X74000Y63500D03*
D17*
X80000Y73343D02*
X80000Y81157D01*
X79157Y82000D01*
X79000Y82000D01*
X74000Y67343D02*
X74000Y63500D01*
X74000Y67343D02*
X80000Y73343D01*
D12*
X76000Y76000D03*
X67500Y59000D03*
D17*
X67500Y67500D01*
X76000Y76000D01*
D12*
X72500Y81000D03*
X60500Y62000D03*
D17*
X61000Y62500D01*
X61000Y66343D01*
X71000Y76343D02*
X71000Y79500D01*
X72500Y81000D01*
X71000Y76343D02*
X61000Y66343D01*
D12*
X67000Y78000D03*
X54500Y58500D03*
D17*
X65000Y74343D02*
X65000Y76000D01*
X67000Y78000D01*
X54500Y63843D02*
X54500Y58500D01*
X54500Y63843D02*
X65000Y74343D01*
D12*
X61000Y76000D03*
X49324Y64324D03*
D17*
X50324Y64324D02*
X61000Y75000D01*
X50324Y64324D02*
X49324Y64324D01*
X61000Y75000D02*
X61000Y76000D01*
D12*
X62000Y82000D03*
X45016Y59000D03*
D17*
X45016Y66359D01*
X60657Y82000D02*
X62000Y82000D01*
X47157Y68500D02*
X45016Y66359D01*
X47157Y68500D02*
X47843Y68500D01*
X60657Y81314D02*
X60657Y82000D01*
X60657Y81314D02*
X47843Y68500D01*
D12*
X67500Y85000D03*
X43000Y30000D03*
D17*
X43000Y55359D01*
X41016Y57343D01*
X67500Y85000D02*
X67500Y86000D01*
X41016Y65188D02*
X41016Y57343D01*
X60343Y86000D02*
X67500Y86000D01*
X55000Y80657D02*
X55000Y79172D01*
X55000Y80657D02*
X60343Y86000D01*
X55000Y79172D02*
X41016Y65188D01*
D12*
X63000Y91000D03*
X49000Y27000D03*
D17*
X49515Y91000D02*
X63000Y91000D01*
X33000Y28343D02*
X35343Y26000D01*
X44657Y26000D01*
X33000Y74485D02*
X49515Y91000D01*
X33000Y74485D02*
X33000Y28343D01*
X44657Y26000D02*
X45657Y27000D01*
X49000Y27000D01*
D12*
X69000Y91000D03*
X55500Y30500D03*
D17*
X55500Y27843D02*
X50657Y23000D01*
X31000Y27515D02*
X31000Y75314D01*
X35515Y23000D02*
X50657Y23000D01*
X35515Y23000D02*
X31000Y27515D01*
X31000Y75314D02*
X50686Y95000D01*
X64657Y95000D01*
X55500Y30500D02*
X55500Y27843D01*
X68657Y91000D02*
X69000Y91000D01*
X68657Y91000D02*
X64657Y95000D01*
D12*
X62000Y99000D03*
X62000Y27000D03*
D17*
X34686Y21000D02*
X29000Y26686D01*
X29000Y76142D01*
X51858Y99000D01*
X62000Y99000D01*
X56657Y21000D02*
X34686Y21000D01*
X62000Y26343D02*
X62000Y27000D01*
X62000Y26343D02*
X56657Y21000D01*
D12*
X68000Y99000D03*
X68000Y31000D03*
D17*
X33858Y19000D02*
X27000Y25858D01*
X27000Y76971D01*
X68000Y27343D02*
X59657Y19000D01*
X33858Y19000D01*
X27000Y76971D02*
X53029Y103000D01*
X63657Y103000D01*
X68000Y31000D02*
X68000Y27343D01*
X67657Y99000D02*
X63657Y103000D01*
X67657Y99000D02*
X68000Y99000D01*
D12*
X60000Y107000D03*
X74500Y27000D03*
D17*
X65485Y17000D02*
X33029Y17000D01*
X25000Y25029D01*
X25000Y77799D01*
X54201Y107000D01*
X60000Y107000D01*
X74500Y27000D02*
X74500Y26015D01*
X65485Y17000D01*
D12*
X87000Y24000D03*
X66000Y107000D03*
X81000Y31000D03*
D17*
X32201Y15000D02*
X23000Y24201D01*
X23000Y78628D01*
X80500Y27343D02*
X68157Y15000D01*
X32201Y15000D01*
X23000Y78628D02*
X55373Y111000D01*
X61657Y111000D01*
X81000Y31000D02*
X80500Y30500D01*
X80500Y27343D01*
X65657Y107000D02*
X61657Y111000D01*
X65657Y107000D02*
X66000Y107000D01*
D12*
X20825Y128750D03*
X122500Y191202D03*
X24000Y95000D03*
X106000Y199000D03*
X105500Y193000D03*
X18012Y229000D03*
X67054Y210350D03*
X31702Y220298D03*
X46500Y210500D03*
X92250Y165000D03*
X52702Y210606D03*
X59577Y222673D03*
X22500Y180422D03*
X39500Y106150D03*
D18*
X34660Y98992D02*
X30340Y98992D01*
X27492Y101840D01*
X34961Y126008D02*
X84500Y126008D01*
X27492Y118539D02*
X27492Y101840D01*
X27492Y118539D02*
X34961Y126008D01*
X39500Y106150D02*
X39500Y103832D01*
X34660Y98992D01*
X84500Y126008D02*
X87500Y129008D01*
X87500Y140000D01*
D12*
X87500Y140000D03*
X17697Y87500D03*
X62250Y151250D03*
X157000Y206000D03*
X162220Y169386D03*
X40500Y222500D03*
X146500Y193000D03*
X105750Y210528D03*
X113722Y115500D03*
X141450Y116500D03*
D15*
X114722Y116500D01*
X113722Y115500D01*
M02*
