G04 EAGLE Gerber RS-274X export*
G75*
%MOMM*%
%FSLAX34Y34*%
%LPD*%
%INSilkscreen Bottom*%
%IPPOS*%
%AMOC8*
5,1,8,0,0,1.08239X$1,22.5*%
G01*
%ADD10C,0.127000*%
%ADD11C,0.152400*%
%ADD12R,0.300000X0.300000*%


D10*
X24460Y2100D02*
X156540Y2100D01*
X156540Y27500D01*
X93675Y27500D01*
X87325Y27500D01*
X80975Y27500D01*
X74625Y27500D01*
X68275Y27500D01*
X61925Y27500D01*
X55575Y27500D01*
X49225Y27500D01*
X42875Y27500D01*
X36525Y27500D01*
X24460Y27500D01*
X24460Y2100D01*
X36525Y27500D02*
X36525Y31945D01*
X42875Y31945D02*
X42875Y27500D01*
X49225Y27500D02*
X49225Y31945D01*
X55575Y31945D02*
X55575Y27500D01*
X61925Y27500D02*
X61925Y31945D01*
X68275Y31945D02*
X68275Y27500D01*
X74625Y27500D02*
X74625Y31945D01*
X80975Y31945D02*
X80975Y27500D01*
X87325Y27500D02*
X87325Y31945D01*
X93675Y31945D02*
X93675Y27500D01*
X100025Y27500D02*
X100025Y31945D01*
X106375Y31945D02*
X106375Y27500D01*
X112725Y27500D02*
X112725Y31945D01*
X119075Y31945D02*
X119075Y27500D01*
X125425Y27500D02*
X125425Y31945D01*
X131775Y31945D02*
X131775Y27500D01*
X138125Y27500D02*
X138125Y31945D01*
X144475Y31945D02*
X144475Y27500D01*
X30500Y61500D02*
X30500Y126500D01*
X40500Y126500D01*
X140500Y126500D02*
X150500Y126500D01*
X150500Y61500D01*
X30500Y61500D01*
D11*
X150019Y135744D02*
X152222Y133540D01*
X150019Y135744D02*
X150019Y129134D01*
X152222Y129134D02*
X147816Y129134D01*
X37222Y134642D02*
X36121Y135744D01*
X33917Y135744D01*
X32816Y134642D01*
X32816Y133540D01*
X33917Y132439D01*
X32816Y131337D01*
X32816Y130236D01*
X33917Y129134D01*
X36121Y129134D01*
X37222Y130236D01*
X37222Y131337D01*
X36121Y132439D01*
X37222Y133540D01*
X37222Y134642D01*
X36121Y132439D02*
X33917Y132439D01*
D10*
X96500Y216500D02*
X99500Y216500D01*
X99500Y213500D01*
X29500Y213500D02*
X29500Y216500D01*
X32500Y216500D01*
X32500Y146500D02*
X29500Y146500D01*
X29500Y149500D01*
X99500Y149500D02*
X99500Y146500D01*
X96500Y146500D01*
X99500Y216500D02*
X102500Y216500D01*
X99500Y216500D02*
X99500Y219500D01*
D11*
X139436Y174564D02*
X147564Y174564D01*
X147564Y166436D01*
X139436Y166436D01*
X139436Y174564D01*
D10*
X137500Y166500D02*
X136500Y166500D01*
X136500Y165500D01*
X137500Y165500D01*
X137500Y166500D01*
D11*
X31064Y131936D02*
X22936Y131936D01*
X22936Y140064D01*
X31064Y140064D01*
X31064Y131936D01*
D10*
X33000Y140000D02*
X34000Y140000D01*
X34000Y141000D01*
X33000Y141000D01*
X33000Y140000D01*
X154412Y161832D02*
X154412Y183168D01*
X154412Y161832D02*
X165588Y161832D01*
X165588Y183168D01*
X154412Y183168D01*
D12*
X67000Y229500D03*
D10*
X111500Y161000D02*
X127500Y161000D01*
X111500Y161000D02*
X111500Y181000D01*
X127500Y181000D01*
X127500Y161000D01*
X125500Y159000D02*
X125502Y159089D01*
X125508Y159178D01*
X125518Y159267D01*
X125532Y159355D01*
X125549Y159442D01*
X125571Y159528D01*
X125597Y159614D01*
X125626Y159698D01*
X125659Y159781D01*
X125695Y159862D01*
X125736Y159942D01*
X125779Y160019D01*
X125826Y160095D01*
X125877Y160168D01*
X125930Y160239D01*
X125987Y160308D01*
X126047Y160374D01*
X126110Y160438D01*
X126175Y160498D01*
X126243Y160556D01*
X126314Y160610D01*
X126387Y160661D01*
X126462Y160709D01*
X126539Y160754D01*
X126618Y160795D01*
X126699Y160832D01*
X126781Y160866D01*
X126865Y160897D01*
X126950Y160923D01*
X127036Y160946D01*
X127123Y160964D01*
X127211Y160979D01*
X127300Y160990D01*
X127389Y160997D01*
X127478Y161000D01*
X127567Y160999D01*
X127656Y160994D01*
X127744Y160985D01*
X127833Y160972D01*
X127920Y160955D01*
X128007Y160935D01*
X128093Y160910D01*
X128177Y160882D01*
X128260Y160850D01*
X128342Y160814D01*
X128422Y160775D01*
X128500Y160732D01*
X128576Y160686D01*
X128650Y160636D01*
X128722Y160583D01*
X128791Y160527D01*
X128858Y160468D01*
X128922Y160406D01*
X128983Y160342D01*
X129042Y160274D01*
X129097Y160204D01*
X129149Y160132D01*
X129198Y160057D01*
X129243Y159981D01*
X129285Y159902D01*
X129323Y159822D01*
X129358Y159740D01*
X129389Y159656D01*
X129417Y159571D01*
X129440Y159485D01*
X129460Y159398D01*
X129476Y159311D01*
X129488Y159222D01*
X129496Y159134D01*
X129500Y159045D01*
X129500Y158955D01*
X129496Y158866D01*
X129488Y158778D01*
X129476Y158689D01*
X129460Y158602D01*
X129440Y158515D01*
X129417Y158429D01*
X129389Y158344D01*
X129358Y158260D01*
X129323Y158178D01*
X129285Y158098D01*
X129243Y158019D01*
X129198Y157943D01*
X129149Y157868D01*
X129097Y157796D01*
X129042Y157726D01*
X128983Y157658D01*
X128922Y157594D01*
X128858Y157532D01*
X128791Y157473D01*
X128722Y157417D01*
X128650Y157364D01*
X128576Y157314D01*
X128500Y157268D01*
X128422Y157225D01*
X128342Y157186D01*
X128260Y157150D01*
X128177Y157118D01*
X128093Y157090D01*
X128007Y157065D01*
X127920Y157045D01*
X127833Y157028D01*
X127744Y157015D01*
X127656Y157006D01*
X127567Y157001D01*
X127478Y157000D01*
X127389Y157003D01*
X127300Y157010D01*
X127211Y157021D01*
X127123Y157036D01*
X127036Y157054D01*
X126950Y157077D01*
X126865Y157103D01*
X126781Y157134D01*
X126699Y157168D01*
X126618Y157205D01*
X126539Y157246D01*
X126462Y157291D01*
X126387Y157339D01*
X126314Y157390D01*
X126243Y157444D01*
X126175Y157502D01*
X126110Y157562D01*
X126047Y157626D01*
X125987Y157692D01*
X125930Y157761D01*
X125877Y157832D01*
X125826Y157905D01*
X125779Y157981D01*
X125736Y158058D01*
X125695Y158138D01*
X125659Y158219D01*
X125626Y158302D01*
X125597Y158386D01*
X125571Y158472D01*
X125549Y158558D01*
X125532Y158645D01*
X125518Y158733D01*
X125508Y158822D01*
X125502Y158911D01*
X125500Y159000D01*
D11*
X118500Y222000D02*
X148500Y222000D01*
X118500Y222000D02*
X118500Y197000D01*
X148500Y197000D01*
X148500Y222000D01*
X148500Y225500D01*
X148500Y222000D02*
X151500Y222000D01*
X151500Y225500D01*
X148500Y225500D01*
D12*
X113000Y223500D03*
X141500Y229000D03*
X157000Y202000D03*
X157000Y211500D03*
X51000Y226000D03*
M02*
