G04 EAGLE Gerber RS-274X export*
G75*
%MOMM*%
%FSLAX34Y34*%
%LPD*%
%INSolderpaste Top*%
%IPPOS*%
%AMOC8*
5,1,8,0,0,1.08239X$1,22.5*%
G01*
%ADD10R,0.350000X0.250000*%
%ADD11R,0.381000X0.762000*%
%ADD12R,0.381000X1.016000*%
%ADD13C,0.350000*%
%ADD14R,0.700000X0.900000*%
%ADD15C,0.250000*%
%ADD16R,0.400000X1.500000*%
%ADD17R,1.000000X1.500000*%
%ADD18R,0.460000X0.400000*%
%ADD19R,0.500000X0.800000*%
%ADD20R,0.800000X0.500000*%
%ADD21R,0.800000X0.300000*%
%ADD22R,0.430000X0.280000*%
%ADD23R,0.400000X0.460000*%
%ADD24R,0.250000X0.350000*%
%ADD25R,0.900000X0.700000*%
%ADD26R,0.260000X0.900000*%
%ADD27R,0.685800X0.762000*%
%ADD28R,0.280000X0.430000*%


D10*
X38800Y125400D03*
X38800Y120400D03*
D11*
X119075Y37660D03*
X112725Y37660D03*
X125425Y37660D03*
X106375Y37660D03*
X131775Y37660D03*
X100025Y37660D03*
X138125Y37660D03*
X144475Y37660D03*
X93675Y37660D03*
X87325Y37660D03*
D12*
X144475Y49090D03*
X138125Y49090D03*
X131775Y49090D03*
X125425Y49090D03*
X119075Y49090D03*
X112725Y49090D03*
X106375Y49090D03*
X100025Y49090D03*
D11*
X80975Y37660D03*
X74625Y37660D03*
X68275Y37660D03*
X61925Y37660D03*
X55575Y37660D03*
X49225Y37660D03*
X42875Y37660D03*
X36525Y37660D03*
D12*
X93675Y49090D03*
X87325Y49090D03*
X80975Y49090D03*
X74625Y49090D03*
X68275Y49090D03*
X61925Y49090D03*
X55575Y49090D03*
X49225Y49090D03*
X42875Y49090D03*
X36525Y49090D03*
D13*
X130500Y65500D03*
X125500Y65500D03*
X120500Y65500D03*
X115500Y65500D03*
X110500Y65500D03*
X105500Y65500D03*
X100500Y65500D03*
X95500Y65500D03*
X90500Y65500D03*
X85500Y65500D03*
X80500Y65500D03*
X75500Y65500D03*
X70500Y65500D03*
X65500Y65500D03*
X60500Y65500D03*
X55500Y65500D03*
X130500Y70500D03*
X125500Y70500D03*
X120500Y70500D03*
X115500Y70500D03*
X110500Y70500D03*
X105500Y70500D03*
X100500Y70500D03*
X95500Y70500D03*
X90500Y70500D03*
X85500Y70500D03*
X80500Y70500D03*
X75500Y70500D03*
X70500Y70500D03*
X65500Y70500D03*
X60500Y70500D03*
X55500Y70500D03*
X130500Y75500D03*
X125500Y75500D03*
X55500Y75500D03*
X130500Y80500D03*
X130500Y85500D03*
X125500Y80500D03*
X55500Y80500D03*
X50500Y80500D03*
X125500Y85500D03*
X55500Y85500D03*
X50500Y85500D03*
X130500Y90500D03*
X125500Y90500D03*
X55500Y90500D03*
X50500Y90500D03*
X130500Y95500D03*
X125500Y95500D03*
X55500Y95500D03*
X50500Y95500D03*
X130500Y100500D03*
X125500Y100500D03*
X55500Y100500D03*
X50500Y100500D03*
X130500Y105500D03*
X125500Y105500D03*
X55500Y105500D03*
X50500Y105500D03*
X130500Y110500D03*
X125500Y110500D03*
X55500Y110500D03*
X50500Y110500D03*
X130500Y115500D03*
X125500Y115500D03*
X55500Y115500D03*
X50500Y65500D03*
X50500Y70500D03*
X50500Y75500D03*
X50500Y115500D03*
X130500Y120500D03*
X125500Y120500D03*
X120500Y120500D03*
X115500Y120500D03*
X110500Y120500D03*
X105500Y120500D03*
X100500Y120500D03*
X95500Y120500D03*
X90500Y120500D03*
X85500Y120500D03*
X80500Y120500D03*
X75500Y120500D03*
X70500Y120500D03*
X65500Y120500D03*
X60500Y120500D03*
X55500Y120500D03*
X50500Y120500D03*
X130500Y125500D03*
X125500Y125500D03*
X120500Y125500D03*
X115500Y125500D03*
X110500Y125500D03*
X105500Y125500D03*
X100500Y125500D03*
X95500Y125500D03*
X90500Y125500D03*
X85500Y125500D03*
X80500Y125500D03*
X75500Y125500D03*
X70500Y125500D03*
X65500Y125500D03*
X60500Y125500D03*
X55500Y125500D03*
X50500Y125500D03*
X90400Y95500D03*
D14*
X78500Y139000D03*
X65500Y139000D03*
D15*
X25032Y105468D03*
X20968Y105468D03*
X25032Y109532D03*
X20968Y109532D03*
D10*
X33000Y110500D03*
X33000Y115500D03*
D16*
X136500Y196000D03*
X146500Y196000D03*
D17*
X125500Y221600D03*
X157500Y221600D03*
D16*
X60000Y196000D03*
X70000Y196000D03*
D17*
X49000Y221600D03*
X101000Y221600D03*
D16*
X80000Y196000D03*
X90000Y196000D03*
D18*
X161000Y168500D03*
X161000Y178500D03*
D19*
X17500Y136000D03*
X27500Y136000D03*
X37500Y136000D03*
X47500Y136000D03*
D20*
X52918Y146282D03*
X52918Y156282D03*
X52918Y166282D03*
X52918Y176282D03*
D19*
X47500Y186518D03*
X37500Y186518D03*
X27500Y186518D03*
X17500Y186518D03*
D21*
X66500Y175000D03*
X66500Y170000D03*
X66500Y165000D03*
X66500Y160000D03*
X92500Y160000D03*
X92500Y165000D03*
X92500Y170000D03*
X92500Y175000D03*
D22*
X118000Y162950D03*
X118000Y168050D03*
D23*
X133500Y147500D03*
X123500Y147500D03*
D22*
X102000Y142050D03*
X102000Y136950D03*
X108000Y142050D03*
X108000Y136950D03*
D24*
X157000Y187500D03*
X152000Y187500D03*
D10*
X100000Y170000D03*
X100000Y175000D03*
D22*
X28000Y127050D03*
X28000Y121950D03*
D24*
X21500Y119000D03*
X16500Y119000D03*
X157000Y183500D03*
X152000Y183500D03*
D25*
X160000Y87000D03*
X160000Y100000D03*
D22*
X39500Y114550D03*
X39500Y109450D03*
D15*
X108650Y162150D03*
X108650Y157900D03*
X104400Y162150D03*
X104400Y157900D03*
D26*
X150000Y172000D03*
X150000Y157500D03*
X144000Y172000D03*
X138000Y172000D03*
X132000Y172000D03*
X132000Y157500D03*
X138000Y157500D03*
X144000Y157500D03*
D27*
X128334Y184500D03*
X117666Y184500D03*
D22*
X124000Y167950D03*
X124000Y173050D03*
X124000Y157450D03*
X124000Y162550D03*
D28*
X138950Y181500D03*
X144050Y181500D03*
D24*
X21500Y123000D03*
X16500Y123000D03*
X21500Y115000D03*
X16500Y115000D03*
D22*
X146500Y121050D03*
X146500Y115950D03*
X141500Y110950D03*
X141500Y116050D03*
M02*
