G04 EAGLE Gerber RS-274X export*
G75*
%MOMM*%
%FSLAX34Y34*%
%LPD*%
%INBottom Copper*%
%IPPOS*%
%AMOC8*
5,1,8,0,0,1.08239X$1,22.5*%
G01*
%ADD10R,0.350000X0.300000*%
%ADD11R,0.550000X0.300000*%
%ADD12R,0.300000X0.350000*%
%ADD13R,0.300000X0.550000*%
%ADD14R,0.700000X0.900000*%
%ADD15C,0.650000*%
%ADD16C,1.050000*%
%ADD17R,0.550000X1.000000*%
%ADD18R,0.900000X0.700000*%
%ADD19R,0.280000X0.430000*%
%ADD20R,0.350000X0.250000*%
%ADD21P,1.319650X8X112.500000*%
%ADD22R,0.430000X0.280000*%
%ADD23C,0.125000*%
%ADD24C,0.450000*%
%ADD25C,0.250000*%
%ADD26C,0.600000*%
%ADD27C,0.200000*%

G36*
X35467Y-44733D02*
X35467Y-44733D01*
X35499Y-44735D01*
X35606Y-44713D01*
X35714Y-44697D01*
X35744Y-44684D01*
X35775Y-44678D01*
X35871Y-44626D01*
X35971Y-44581D01*
X35996Y-44560D01*
X36024Y-44545D01*
X36102Y-44469D01*
X36185Y-44398D01*
X36203Y-44371D01*
X36226Y-44348D01*
X36280Y-44253D01*
X36340Y-44162D01*
X36349Y-44131D01*
X36365Y-44103D01*
X36390Y-43997D01*
X36422Y-43892D01*
X36423Y-43860D01*
X36430Y-43829D01*
X36425Y-43719D01*
X36426Y-43610D01*
X36417Y-43579D01*
X36416Y-43547D01*
X36380Y-43444D01*
X36351Y-43338D01*
X36334Y-43311D01*
X36323Y-43280D01*
X36270Y-43207D01*
X36203Y-43098D01*
X36167Y-43066D01*
X36142Y-43031D01*
X34653Y-41543D01*
X34653Y-35457D01*
X38957Y-31153D01*
X45232Y-31153D01*
X45283Y-31172D01*
X45315Y-31175D01*
X45346Y-31184D01*
X45455Y-31186D01*
X45564Y-31194D01*
X45595Y-31188D01*
X45628Y-31188D01*
X45733Y-31159D01*
X45840Y-31137D01*
X45868Y-31122D01*
X45900Y-31113D01*
X45993Y-31055D01*
X46089Y-31004D01*
X46112Y-30982D01*
X46140Y-30965D01*
X46213Y-30884D01*
X46291Y-30808D01*
X46307Y-30779D01*
X46329Y-30755D01*
X46376Y-30657D01*
X46430Y-30562D01*
X46438Y-30531D01*
X46452Y-30502D01*
X46466Y-30412D01*
X46495Y-30288D01*
X46493Y-30239D01*
X46499Y-30197D01*
X46499Y-28286D01*
X49136Y-25649D01*
X52864Y-25649D01*
X53309Y-26094D01*
X53361Y-26133D01*
X53406Y-26179D01*
X53473Y-26217D01*
X53535Y-26264D01*
X53595Y-26286D01*
X53651Y-26318D01*
X53726Y-26336D01*
X53799Y-26363D01*
X53863Y-26368D01*
X53925Y-26383D01*
X54003Y-26379D01*
X54080Y-26385D01*
X54143Y-26372D01*
X54207Y-26369D01*
X54280Y-26343D01*
X54356Y-26327D01*
X54413Y-26297D01*
X54474Y-26276D01*
X54530Y-26235D01*
X54605Y-26195D01*
X54666Y-26136D01*
X54723Y-26094D01*
X55207Y-25610D01*
X55264Y-25534D01*
X55329Y-25462D01*
X55349Y-25421D01*
X55376Y-25385D01*
X55410Y-25295D01*
X55452Y-25208D01*
X55458Y-25166D01*
X55475Y-25121D01*
X55485Y-24993D01*
X55499Y-24904D01*
X55499Y-23750D01*
X55490Y-23687D01*
X55491Y-23625D01*
X55491Y-23622D01*
X55470Y-23547D01*
X55459Y-23471D01*
X55433Y-23412D01*
X55416Y-23350D01*
X55375Y-23284D01*
X55343Y-23214D01*
X55301Y-23165D01*
X55268Y-23110D01*
X55210Y-23058D01*
X55160Y-23000D01*
X55106Y-22964D01*
X55058Y-22921D01*
X54989Y-22888D01*
X54924Y-22845D01*
X54862Y-22826D01*
X54805Y-22798D01*
X54758Y-22791D01*
X52610Y-20643D01*
X52534Y-20586D01*
X52462Y-20521D01*
X52421Y-20501D01*
X52385Y-20474D01*
X52295Y-20440D01*
X52208Y-20398D01*
X52166Y-20392D01*
X52121Y-20375D01*
X51993Y-20365D01*
X51904Y-20351D01*
X49136Y-20351D01*
X46499Y-17714D01*
X46499Y-13986D01*
X48207Y-12278D01*
X48264Y-12202D01*
X48329Y-12130D01*
X48349Y-12089D01*
X48376Y-12053D01*
X48410Y-11963D01*
X48452Y-11876D01*
X48458Y-11834D01*
X48475Y-11789D01*
X48485Y-11661D01*
X48499Y-11572D01*
X48499Y-10464D01*
X52141Y-6823D01*
X52179Y-6771D01*
X52225Y-6726D01*
X52264Y-6659D01*
X52310Y-6597D01*
X52333Y-6537D01*
X52364Y-6481D01*
X52382Y-6406D01*
X52410Y-6333D01*
X52414Y-6269D01*
X52429Y-6207D01*
X52425Y-6129D01*
X52431Y-6052D01*
X52418Y-5989D01*
X52415Y-5925D01*
X52389Y-5852D01*
X52374Y-5776D01*
X52344Y-5719D01*
X52322Y-5659D01*
X52281Y-5602D01*
X52241Y-5527D01*
X52182Y-5466D01*
X52141Y-5410D01*
X51249Y-4518D01*
X51249Y5518D01*
X51982Y6251D01*
X52000Y6251D01*
X52064Y6260D01*
X52128Y6259D01*
X52203Y6280D01*
X52279Y6291D01*
X52338Y6317D01*
X52400Y6334D01*
X52466Y6375D01*
X52536Y6407D01*
X52585Y6449D01*
X52640Y6482D01*
X52692Y6540D01*
X52750Y6590D01*
X52786Y6644D01*
X52829Y6692D01*
X52862Y6761D01*
X52905Y6826D01*
X52924Y6888D01*
X52952Y6945D01*
X52963Y7015D01*
X52987Y7096D01*
X52988Y7181D01*
X52999Y7250D01*
X52999Y7450D01*
X55050Y9501D01*
X57950Y9501D01*
X59031Y8419D01*
X59057Y8400D01*
X59078Y8375D01*
X59170Y8315D01*
X59257Y8250D01*
X59287Y8239D01*
X59314Y8221D01*
X59419Y8189D01*
X59521Y8151D01*
X59553Y8148D01*
X59584Y8139D01*
X59693Y8137D01*
X59802Y8129D01*
X59834Y8135D01*
X59866Y8135D01*
X59971Y8164D01*
X60078Y8186D01*
X60107Y8201D01*
X60138Y8210D01*
X60231Y8267D01*
X60327Y8319D01*
X60350Y8341D01*
X60378Y8358D01*
X60451Y8439D01*
X60529Y8516D01*
X60545Y8544D01*
X60567Y8568D01*
X60614Y8666D01*
X60668Y8761D01*
X60676Y8792D01*
X60690Y8821D01*
X60704Y8911D01*
X60733Y9035D01*
X60731Y9084D01*
X60737Y9126D01*
X60737Y18960D01*
X60733Y18992D01*
X60735Y19024D01*
X60713Y19131D01*
X60697Y19239D01*
X60684Y19268D01*
X60678Y19300D01*
X60626Y19397D01*
X60581Y19496D01*
X60560Y19521D01*
X60545Y19549D01*
X60469Y19627D01*
X60398Y19710D01*
X60371Y19728D01*
X60348Y19751D01*
X60253Y19805D01*
X60162Y19865D01*
X60131Y19874D01*
X60103Y19890D01*
X59996Y19915D01*
X59892Y19947D01*
X59860Y19948D01*
X59828Y19955D01*
X59719Y19949D01*
X59610Y19951D01*
X59579Y19942D01*
X59547Y19941D01*
X59444Y19905D01*
X59338Y19876D01*
X59311Y19859D01*
X59280Y19848D01*
X59207Y19795D01*
X59098Y19728D01*
X59066Y19692D01*
X59031Y19666D01*
X58925Y19560D01*
X58915Y19551D01*
X58860Y19518D01*
X58808Y19460D01*
X58750Y19410D01*
X58714Y19356D01*
X58671Y19308D01*
X58638Y19239D01*
X58595Y19174D01*
X58576Y19112D01*
X58548Y19055D01*
X58537Y18985D01*
X58513Y18904D01*
X58512Y18819D01*
X58501Y18750D01*
X58501Y18732D01*
X57768Y17999D01*
X57746Y17999D01*
X57651Y17986D01*
X57555Y17981D01*
X57512Y17966D01*
X57467Y17959D01*
X57380Y17920D01*
X57289Y17888D01*
X57254Y17863D01*
X57210Y17843D01*
X57113Y17760D01*
X57040Y17707D01*
X55793Y16460D01*
X55736Y16384D01*
X55671Y16312D01*
X55651Y16271D01*
X55624Y16235D01*
X55590Y16145D01*
X55548Y16058D01*
X55542Y16016D01*
X55525Y15971D01*
X55515Y15843D01*
X55501Y15754D01*
X55501Y12986D01*
X52864Y10349D01*
X49136Y10349D01*
X47178Y12307D01*
X47102Y12364D01*
X47030Y12429D01*
X46989Y12449D01*
X46953Y12476D01*
X46863Y12510D01*
X46776Y12552D01*
X46734Y12558D01*
X46689Y12575D01*
X46561Y12585D01*
X46472Y12599D01*
X42289Y12599D01*
X36099Y18789D01*
X36099Y20854D01*
X36086Y20949D01*
X36081Y21045D01*
X36066Y21088D01*
X36059Y21133D01*
X36020Y21220D01*
X35988Y21311D01*
X35963Y21346D01*
X35943Y21390D01*
X35860Y21487D01*
X35807Y21560D01*
X35560Y21807D01*
X35484Y21864D01*
X35412Y21929D01*
X35371Y21949D01*
X35335Y21976D01*
X35245Y22010D01*
X35158Y22052D01*
X35116Y22058D01*
X35071Y22075D01*
X34943Y22085D01*
X34854Y22099D01*
X33120Y22099D01*
X33110Y22109D01*
X33043Y22147D01*
X32981Y22194D01*
X32921Y22217D01*
X32865Y22248D01*
X32790Y22266D01*
X32717Y22293D01*
X32653Y22298D01*
X32591Y22313D01*
X32513Y22309D01*
X32436Y22315D01*
X32373Y22302D01*
X32309Y22299D01*
X32236Y22273D01*
X32160Y22258D01*
X32103Y22227D01*
X32042Y22206D01*
X31986Y22165D01*
X31911Y22125D01*
X31884Y22099D01*
X28032Y22099D01*
X27299Y22832D01*
X27299Y26469D01*
X27286Y26564D01*
X27281Y26660D01*
X27266Y26703D01*
X27259Y26748D01*
X27220Y26835D01*
X27188Y26926D01*
X27163Y26961D01*
X27143Y27005D01*
X27060Y27102D01*
X27007Y27175D01*
X25124Y29057D01*
X25124Y31958D01*
X27175Y34008D01*
X30075Y34008D01*
X32126Y31958D01*
X32126Y30604D01*
X32139Y30509D01*
X32144Y30412D01*
X32159Y30369D01*
X32166Y30324D01*
X32201Y30247D01*
X32201Y29900D01*
X32210Y29836D01*
X32209Y29772D01*
X32230Y29697D01*
X32241Y29621D01*
X32267Y29562D01*
X32284Y29500D01*
X32325Y29434D01*
X32357Y29364D01*
X32399Y29315D01*
X32432Y29260D01*
X32490Y29208D01*
X32540Y29150D01*
X32594Y29114D01*
X32642Y29071D01*
X32711Y29038D01*
X32776Y28995D01*
X32838Y28976D01*
X32895Y28948D01*
X32965Y28937D01*
X33046Y28913D01*
X33131Y28912D01*
X33200Y28901D01*
X36968Y28901D01*
X37701Y28168D01*
X37701Y26446D01*
X37714Y26351D01*
X37719Y26255D01*
X37734Y26212D01*
X37741Y26167D01*
X37780Y26080D01*
X37812Y25989D01*
X37837Y25954D01*
X37857Y25910D01*
X37940Y25813D01*
X37993Y25740D01*
X40601Y23132D01*
X40601Y21068D01*
X40614Y20973D01*
X40619Y20877D01*
X40634Y20834D01*
X40641Y20789D01*
X40680Y20701D01*
X40712Y20610D01*
X40737Y20576D01*
X40757Y20532D01*
X40840Y20435D01*
X40893Y20361D01*
X43861Y17393D01*
X43938Y17336D01*
X44010Y17271D01*
X44051Y17251D01*
X44087Y17224D01*
X44177Y17190D01*
X44263Y17148D01*
X44305Y17142D01*
X44351Y17125D01*
X44479Y17115D01*
X44568Y17101D01*
X46472Y17101D01*
X46567Y17114D01*
X46663Y17119D01*
X46706Y17134D01*
X46751Y17141D01*
X46839Y17180D01*
X46929Y17212D01*
X46964Y17237D01*
X47008Y17257D01*
X47105Y17340D01*
X47178Y17393D01*
X49136Y19351D01*
X51500Y19351D01*
X51564Y19360D01*
X51628Y19359D01*
X51703Y19380D01*
X51779Y19391D01*
X51838Y19417D01*
X51900Y19434D01*
X51966Y19475D01*
X52036Y19507D01*
X52085Y19549D01*
X52140Y19582D01*
X52192Y19640D01*
X52250Y19690D01*
X52286Y19744D01*
X52329Y19792D01*
X52362Y19861D01*
X52405Y19926D01*
X52424Y19988D01*
X52452Y20045D01*
X52463Y20115D01*
X52487Y20196D01*
X52488Y20281D01*
X52499Y20350D01*
X52499Y22268D01*
X52525Y22293D01*
X52563Y22345D01*
X52609Y22390D01*
X52647Y22457D01*
X52694Y22519D01*
X52717Y22579D01*
X52748Y22635D01*
X52766Y22710D01*
X52793Y22783D01*
X52798Y22847D01*
X52813Y22909D01*
X52809Y22987D01*
X52815Y23064D01*
X52802Y23127D01*
X52799Y23191D01*
X52773Y23264D01*
X52758Y23340D01*
X52727Y23397D01*
X52706Y23458D01*
X52665Y23514D01*
X52625Y23589D01*
X52566Y23650D01*
X52525Y23707D01*
X52491Y23741D01*
X52491Y23778D01*
X52470Y23853D01*
X52459Y23929D01*
X52433Y23988D01*
X52416Y24050D01*
X52375Y24116D01*
X52343Y24186D01*
X52301Y24235D01*
X52268Y24290D01*
X52210Y24342D01*
X52160Y24400D01*
X52106Y24436D01*
X52058Y24479D01*
X51989Y24512D01*
X51924Y24555D01*
X51862Y24574D01*
X51805Y24602D01*
X51735Y24613D01*
X51654Y24637D01*
X51569Y24638D01*
X51500Y24649D01*
X49136Y24649D01*
X46499Y27286D01*
X46499Y30154D01*
X46490Y30218D01*
X46491Y30282D01*
X46470Y30357D01*
X46459Y30433D01*
X46433Y30492D01*
X46416Y30554D01*
X46375Y30620D01*
X46343Y30690D01*
X46301Y30739D01*
X46268Y30794D01*
X46210Y30846D01*
X46160Y30904D01*
X46106Y30940D01*
X46058Y30983D01*
X45989Y31016D01*
X45924Y31059D01*
X45862Y31078D01*
X45805Y31106D01*
X45735Y31117D01*
X45654Y31141D01*
X45569Y31142D01*
X45500Y31153D01*
X39957Y31153D01*
X35653Y35457D01*
X35653Y41543D01*
X37142Y43031D01*
X37161Y43057D01*
X37185Y43078D01*
X37246Y43170D01*
X37311Y43257D01*
X37322Y43287D01*
X37340Y43314D01*
X37372Y43419D01*
X37410Y43521D01*
X37413Y43553D01*
X37422Y43584D01*
X37424Y43693D01*
X37432Y43802D01*
X37426Y43834D01*
X37426Y43866D01*
X37397Y43971D01*
X37375Y44078D01*
X37359Y44107D01*
X37351Y44138D01*
X37294Y44231D01*
X37242Y44327D01*
X37220Y44350D01*
X37203Y44378D01*
X37122Y44451D01*
X37045Y44529D01*
X37017Y44545D01*
X36993Y44567D01*
X36895Y44614D01*
X36800Y44668D01*
X36769Y44676D01*
X36740Y44690D01*
X36650Y44704D01*
X36526Y44733D01*
X36477Y44731D01*
X36435Y44737D01*
X8250Y44737D01*
X8186Y44728D01*
X8122Y44729D01*
X8047Y44708D01*
X7971Y44697D01*
X7912Y44671D01*
X7850Y44654D01*
X7784Y44613D01*
X7714Y44581D01*
X7665Y44539D01*
X7610Y44506D01*
X7558Y44448D01*
X7500Y44398D01*
X7464Y44344D01*
X7421Y44296D01*
X7388Y44227D01*
X7345Y44162D01*
X7326Y44100D01*
X7298Y44043D01*
X7287Y43973D01*
X7263Y43892D01*
X7262Y43807D01*
X7251Y43738D01*
X7251Y36750D01*
X7260Y36686D01*
X7259Y36622D01*
X7280Y36547D01*
X7291Y36471D01*
X7317Y36412D01*
X7334Y36350D01*
X7375Y36284D01*
X7407Y36214D01*
X7449Y36165D01*
X7482Y36110D01*
X7540Y36058D01*
X7590Y36000D01*
X7644Y35964D01*
X7692Y35921D01*
X7761Y35888D01*
X7826Y35845D01*
X7888Y35826D01*
X7945Y35798D01*
X8015Y35787D01*
X8096Y35763D01*
X8181Y35762D01*
X8250Y35751D01*
X9450Y35751D01*
X11501Y33700D01*
X11501Y33639D01*
X11505Y33607D01*
X11503Y33575D01*
X11525Y33468D01*
X11541Y33360D01*
X11554Y33330D01*
X11560Y33299D01*
X11612Y33202D01*
X11657Y33103D01*
X11678Y33078D01*
X11693Y33050D01*
X11769Y32971D01*
X11840Y32888D01*
X11867Y32871D01*
X11890Y32848D01*
X11985Y32794D01*
X12076Y32734D01*
X12107Y32725D01*
X12135Y32709D01*
X12241Y32683D01*
X12346Y32652D01*
X12378Y32651D01*
X12409Y32644D01*
X12519Y32649D01*
X12628Y32648D01*
X12659Y32656D01*
X12691Y32658D01*
X12794Y32694D01*
X12900Y32723D01*
X12927Y32740D01*
X12958Y32751D01*
X13031Y32804D01*
X13140Y32871D01*
X13172Y32907D01*
X13207Y32932D01*
X14025Y33751D01*
X16925Y33751D01*
X18976Y31700D01*
X18976Y28800D01*
X18768Y28593D01*
X18711Y28516D01*
X18646Y28444D01*
X18626Y28403D01*
X18599Y28367D01*
X18565Y28277D01*
X18523Y28191D01*
X18517Y28149D01*
X18500Y28103D01*
X18490Y27976D01*
X18476Y27886D01*
X18476Y23600D01*
X18485Y23536D01*
X18484Y23472D01*
X18505Y23397D01*
X18516Y23321D01*
X18542Y23262D01*
X18559Y23200D01*
X18600Y23134D01*
X18632Y23064D01*
X18674Y23015D01*
X18707Y22960D01*
X18765Y22908D01*
X18815Y22850D01*
X18869Y22814D01*
X18917Y22771D01*
X18986Y22738D01*
X19051Y22695D01*
X19113Y22676D01*
X19170Y22648D01*
X19240Y22637D01*
X19321Y22613D01*
X19406Y22612D01*
X19475Y22601D01*
X23618Y22601D01*
X24351Y21868D01*
X24351Y18350D01*
X24360Y18286D01*
X24359Y18222D01*
X24380Y18147D01*
X24391Y18071D01*
X24417Y18012D01*
X24434Y17950D01*
X24475Y17884D01*
X24507Y17814D01*
X24549Y17765D01*
X24582Y17710D01*
X24640Y17658D01*
X24690Y17600D01*
X24744Y17564D01*
X24792Y17521D01*
X24861Y17488D01*
X24926Y17445D01*
X24988Y17426D01*
X25045Y17398D01*
X25115Y17387D01*
X25196Y17363D01*
X25281Y17362D01*
X25350Y17351D01*
X28868Y17351D01*
X29601Y16618D01*
X29601Y12582D01*
X28868Y11849D01*
X22375Y11849D01*
X21349Y12875D01*
X21349Y13350D01*
X21340Y13414D01*
X21341Y13478D01*
X21320Y13553D01*
X21309Y13629D01*
X21283Y13688D01*
X21266Y13750D01*
X21225Y13816D01*
X21193Y13886D01*
X21151Y13935D01*
X21118Y13990D01*
X21060Y14042D01*
X21010Y14100D01*
X20956Y14136D01*
X20908Y14179D01*
X20839Y14212D01*
X20774Y14255D01*
X20712Y14274D01*
X20655Y14302D01*
X20585Y14313D01*
X20504Y14337D01*
X20419Y14338D01*
X20350Y14349D01*
X19875Y14349D01*
X19828Y14396D01*
X19777Y14435D01*
X19732Y14481D01*
X19664Y14519D01*
X19602Y14565D01*
X19542Y14588D01*
X19486Y14620D01*
X19411Y14638D01*
X19339Y14665D01*
X19274Y14670D01*
X19212Y14685D01*
X19135Y14681D01*
X19057Y14687D01*
X18994Y14674D01*
X18930Y14670D01*
X18857Y14645D01*
X18781Y14629D01*
X18725Y14599D01*
X14461Y14599D01*
X14390Y14616D01*
X14317Y14643D01*
X14253Y14648D01*
X14190Y14663D01*
X14113Y14659D01*
X14036Y14665D01*
X13973Y14652D01*
X13909Y14649D01*
X13835Y14623D01*
X13760Y14608D01*
X13744Y14599D01*
X9461Y14599D01*
X9390Y14616D01*
X9317Y14643D01*
X9253Y14648D01*
X9190Y14663D01*
X9113Y14659D01*
X9036Y14665D01*
X8973Y14652D01*
X8909Y14649D01*
X8835Y14623D01*
X8760Y14608D01*
X8744Y14599D01*
X4461Y14599D01*
X4390Y14616D01*
X4317Y14643D01*
X4253Y14648D01*
X4190Y14663D01*
X4113Y14659D01*
X4036Y14665D01*
X3973Y14652D01*
X3909Y14649D01*
X3835Y14623D01*
X3760Y14608D01*
X3737Y14595D01*
X3732Y14595D01*
X3700Y14597D01*
X3593Y14575D01*
X3485Y14559D01*
X3456Y14546D01*
X3424Y14540D01*
X3328Y14488D01*
X3228Y14443D01*
X3203Y14422D01*
X3175Y14407D01*
X3097Y14331D01*
X3014Y14260D01*
X2996Y14233D01*
X2973Y14210D01*
X2919Y14115D01*
X2859Y14024D01*
X2850Y13993D01*
X2834Y13965D01*
X2809Y13859D01*
X2777Y13754D01*
X2776Y13722D01*
X2769Y13691D01*
X2775Y13581D01*
X2773Y13472D01*
X2782Y13441D01*
X2783Y13409D01*
X2819Y13306D01*
X2848Y13200D01*
X2865Y13173D01*
X2876Y13142D01*
X2929Y13069D01*
X2996Y12960D01*
X3032Y12928D01*
X3058Y12893D01*
X5751Y10200D01*
X5751Y-382D01*
X3793Y-2339D01*
X3736Y-2416D01*
X3671Y-2488D01*
X3651Y-2529D01*
X3624Y-2565D01*
X3590Y-2655D01*
X3548Y-2741D01*
X3542Y-2783D01*
X3525Y-2829D01*
X3515Y-2956D01*
X3501Y-3046D01*
X3501Y-5450D01*
X2532Y-6418D01*
X2513Y-6444D01*
X2488Y-6465D01*
X2429Y-6557D01*
X2363Y-6644D01*
X2352Y-6674D01*
X2334Y-6701D01*
X2302Y-6806D01*
X2264Y-6908D01*
X2261Y-6940D01*
X2252Y-6971D01*
X2250Y-7080D01*
X2242Y-7189D01*
X2248Y-7221D01*
X2248Y-7253D01*
X2277Y-7358D01*
X2299Y-7465D01*
X2314Y-7494D01*
X2323Y-7525D01*
X2380Y-7618D01*
X2432Y-7714D01*
X2454Y-7737D01*
X2471Y-7765D01*
X2552Y-7838D01*
X2629Y-7916D01*
X2657Y-7932D01*
X2681Y-7954D01*
X2779Y-8001D01*
X2874Y-8055D01*
X2905Y-8063D01*
X2934Y-8077D01*
X3024Y-8091D01*
X3148Y-8120D01*
X3197Y-8118D01*
X3239Y-8124D01*
X20600Y-8124D01*
X20664Y-8115D01*
X20728Y-8116D01*
X20803Y-8095D01*
X20879Y-8084D01*
X20938Y-8058D01*
X21000Y-8041D01*
X21066Y-8000D01*
X21136Y-7968D01*
X21185Y-7926D01*
X21240Y-7893D01*
X21292Y-7835D01*
X21350Y-7785D01*
X21386Y-7731D01*
X21429Y-7683D01*
X21462Y-7614D01*
X21505Y-7549D01*
X21524Y-7487D01*
X21552Y-7430D01*
X21563Y-7360D01*
X21587Y-7279D01*
X21588Y-7194D01*
X21599Y-7125D01*
X21599Y-3261D01*
X21616Y-3190D01*
X21643Y-3117D01*
X21648Y-3053D01*
X21663Y-2990D01*
X21659Y-2913D01*
X21665Y-2836D01*
X21652Y-2773D01*
X21649Y-2709D01*
X21623Y-2635D01*
X21608Y-2560D01*
X21599Y-2544D01*
X21599Y1618D01*
X22332Y2351D01*
X28868Y2351D01*
X29601Y1618D01*
X29601Y-2539D01*
X29584Y-2610D01*
X29557Y-2683D01*
X29552Y-2747D01*
X29537Y-2809D01*
X29541Y-2887D01*
X29535Y-2964D01*
X29548Y-3027D01*
X29551Y-3091D01*
X29577Y-3164D01*
X29592Y-3240D01*
X29601Y-3256D01*
X29601Y-7539D01*
X29584Y-7610D01*
X29557Y-7683D01*
X29552Y-7747D01*
X29537Y-7809D01*
X29541Y-7887D01*
X29535Y-7964D01*
X29548Y-8027D01*
X29551Y-8091D01*
X29577Y-8164D01*
X29592Y-8240D01*
X29601Y-8256D01*
X29601Y-12539D01*
X29584Y-12610D01*
X29557Y-12683D01*
X29552Y-12747D01*
X29537Y-12809D01*
X29541Y-12887D01*
X29535Y-12964D01*
X29548Y-13027D01*
X29551Y-13091D01*
X29577Y-13164D01*
X29592Y-13240D01*
X29601Y-13256D01*
X29601Y-17418D01*
X28768Y-18250D01*
X28711Y-18327D01*
X28646Y-18399D01*
X28626Y-18440D01*
X28599Y-18476D01*
X28565Y-18566D01*
X28523Y-18652D01*
X28517Y-18694D01*
X28500Y-18740D01*
X28490Y-18867D01*
X28476Y-18957D01*
X28476Y-22500D01*
X28485Y-22564D01*
X28484Y-22628D01*
X28505Y-22703D01*
X28516Y-22779D01*
X28542Y-22838D01*
X28559Y-22900D01*
X28600Y-22966D01*
X28632Y-23036D01*
X28674Y-23085D01*
X28707Y-23140D01*
X28765Y-23192D01*
X28815Y-23250D01*
X28869Y-23286D01*
X28917Y-23329D01*
X28986Y-23362D01*
X29051Y-23405D01*
X29113Y-23424D01*
X29170Y-23452D01*
X29240Y-23463D01*
X29321Y-23487D01*
X29406Y-23488D01*
X29475Y-23499D01*
X30450Y-23499D01*
X32501Y-25550D01*
X32501Y-28450D01*
X30450Y-30501D01*
X27550Y-30501D01*
X25258Y-28208D01*
X25206Y-28170D01*
X25161Y-28124D01*
X25094Y-28085D01*
X25032Y-28039D01*
X24972Y-28016D01*
X24916Y-27985D01*
X24840Y-27967D01*
X24768Y-27939D01*
X24704Y-27935D01*
X24641Y-27920D01*
X24564Y-27924D01*
X24487Y-27918D01*
X24424Y-27931D01*
X24360Y-27934D01*
X24286Y-27960D01*
X24211Y-27975D01*
X24154Y-28005D01*
X24093Y-28027D01*
X24037Y-28068D01*
X23962Y-28108D01*
X23901Y-28167D01*
X23844Y-28208D01*
X21259Y-30793D01*
X21240Y-30819D01*
X21215Y-30840D01*
X21155Y-30932D01*
X21090Y-31019D01*
X21079Y-31049D01*
X21061Y-31076D01*
X21029Y-31181D01*
X20990Y-31283D01*
X20988Y-31315D01*
X20979Y-31346D01*
X20977Y-31455D01*
X20969Y-31564D01*
X20975Y-31596D01*
X20975Y-31628D01*
X21004Y-31733D01*
X21026Y-31840D01*
X21041Y-31869D01*
X21050Y-31900D01*
X21107Y-31993D01*
X21159Y-32089D01*
X21181Y-32112D01*
X21198Y-32140D01*
X21279Y-32213D01*
X21355Y-32291D01*
X21384Y-32307D01*
X21407Y-32329D01*
X21506Y-32376D01*
X21601Y-32430D01*
X21632Y-32438D01*
X21661Y-32452D01*
X21750Y-32466D01*
X21875Y-32495D01*
X21924Y-32493D01*
X21966Y-32499D01*
X24293Y-32499D01*
X26682Y-33489D01*
X28511Y-35318D01*
X29501Y-37707D01*
X29501Y-40293D01*
X28511Y-42682D01*
X28162Y-43031D01*
X28143Y-43057D01*
X28118Y-43078D01*
X28058Y-43170D01*
X27993Y-43257D01*
X27981Y-43287D01*
X27964Y-43314D01*
X27932Y-43419D01*
X27893Y-43521D01*
X27891Y-43553D01*
X27881Y-43584D01*
X27880Y-43693D01*
X27871Y-43802D01*
X27878Y-43834D01*
X27878Y-43866D01*
X27907Y-43971D01*
X27929Y-44078D01*
X27944Y-44107D01*
X27953Y-44138D01*
X28010Y-44231D01*
X28061Y-44327D01*
X28084Y-44350D01*
X28101Y-44378D01*
X28182Y-44451D01*
X28258Y-44529D01*
X28286Y-44545D01*
X28310Y-44567D01*
X28409Y-44614D01*
X28504Y-44668D01*
X28535Y-44676D01*
X28564Y-44690D01*
X28654Y-44704D01*
X28778Y-44733D01*
X28826Y-44731D01*
X28869Y-44737D01*
X35435Y-44737D01*
X35467Y-44733D01*
G37*
G36*
X-36686Y18260D02*
X-36686Y18260D01*
X-36622Y18259D01*
X-36547Y18280D01*
X-36471Y18291D01*
X-36412Y18317D01*
X-36350Y18334D01*
X-36284Y18375D01*
X-36214Y18407D01*
X-36165Y18449D01*
X-36110Y18482D01*
X-36058Y18540D01*
X-36000Y18590D01*
X-35964Y18644D01*
X-35921Y18692D01*
X-35888Y18761D01*
X-35845Y18826D01*
X-35826Y18888D01*
X-35798Y18945D01*
X-35787Y19015D01*
X-35763Y19096D01*
X-35762Y19181D01*
X-35751Y19250D01*
X-35751Y29054D01*
X-31021Y33783D01*
X-30971Y33791D01*
X-30912Y33817D01*
X-30850Y33834D01*
X-30784Y33875D01*
X-30714Y33907D01*
X-30665Y33949D01*
X-30610Y33982D01*
X-30558Y34040D01*
X-30500Y34090D01*
X-30464Y34144D01*
X-30421Y34192D01*
X-30388Y34261D01*
X-30345Y34326D01*
X-30326Y34388D01*
X-30298Y34445D01*
X-30287Y34515D01*
X-30263Y34596D01*
X-30262Y34681D01*
X-30251Y34750D01*
X-30251Y43738D01*
X-30260Y43802D01*
X-30259Y43866D01*
X-30280Y43941D01*
X-30291Y44017D01*
X-30317Y44076D01*
X-30334Y44138D01*
X-30375Y44204D01*
X-30407Y44274D01*
X-30449Y44323D01*
X-30482Y44378D01*
X-30540Y44430D01*
X-30590Y44488D01*
X-30644Y44524D01*
X-30692Y44567D01*
X-30761Y44600D01*
X-30826Y44643D01*
X-30888Y44662D01*
X-30945Y44690D01*
X-31015Y44701D01*
X-31096Y44725D01*
X-31181Y44726D01*
X-31250Y44737D01*
X-44738Y44737D01*
X-44802Y44728D01*
X-44866Y44729D01*
X-44941Y44708D01*
X-45017Y44697D01*
X-45076Y44671D01*
X-45138Y44654D01*
X-45204Y44613D01*
X-45274Y44581D01*
X-45323Y44539D01*
X-45378Y44506D01*
X-45430Y44448D01*
X-45488Y44398D01*
X-45524Y44344D01*
X-45567Y44296D01*
X-45600Y44227D01*
X-45643Y44162D01*
X-45662Y44100D01*
X-45690Y44043D01*
X-45701Y43973D01*
X-45725Y43892D01*
X-45726Y43807D01*
X-45737Y43738D01*
X-45737Y19250D01*
X-45728Y19186D01*
X-45729Y19122D01*
X-45708Y19047D01*
X-45697Y18971D01*
X-45671Y18912D01*
X-45654Y18850D01*
X-45613Y18784D01*
X-45581Y18714D01*
X-45539Y18665D01*
X-45506Y18610D01*
X-45448Y18558D01*
X-45398Y18500D01*
X-45344Y18464D01*
X-45296Y18421D01*
X-45227Y18388D01*
X-45162Y18345D01*
X-45100Y18326D01*
X-45043Y18298D01*
X-44973Y18287D01*
X-44892Y18263D01*
X-44807Y18262D01*
X-44738Y18251D01*
X-36750Y18251D01*
X-36686Y18260D01*
G37*
G36*
X-33537Y-44733D02*
X-33537Y-44733D01*
X-33504Y-44735D01*
X-33397Y-44713D01*
X-33289Y-44697D01*
X-33260Y-44684D01*
X-33228Y-44678D01*
X-33132Y-44626D01*
X-33032Y-44581D01*
X-33008Y-44560D01*
X-32979Y-44545D01*
X-32901Y-44469D01*
X-32818Y-44398D01*
X-32800Y-44371D01*
X-32777Y-44348D01*
X-32724Y-44253D01*
X-32664Y-44162D01*
X-32654Y-44131D01*
X-32638Y-44103D01*
X-32613Y-43997D01*
X-32581Y-43892D01*
X-32581Y-43860D01*
X-32573Y-43829D01*
X-32579Y-43719D01*
X-32578Y-43610D01*
X-32586Y-43579D01*
X-32588Y-43547D01*
X-32624Y-43444D01*
X-32653Y-43338D01*
X-32670Y-43311D01*
X-32680Y-43280D01*
X-32734Y-43207D01*
X-32801Y-43098D01*
X-32837Y-43066D01*
X-32862Y-43031D01*
X-33211Y-42682D01*
X-34201Y-40293D01*
X-34201Y-37707D01*
X-33211Y-35318D01*
X-31382Y-33489D01*
X-28993Y-32499D01*
X-28432Y-32499D01*
X-28400Y-32495D01*
X-28368Y-32497D01*
X-28261Y-32475D01*
X-28153Y-32459D01*
X-28123Y-32446D01*
X-28092Y-32440D01*
X-27995Y-32388D01*
X-27896Y-32343D01*
X-27871Y-32322D01*
X-27843Y-32307D01*
X-27765Y-32231D01*
X-27681Y-32160D01*
X-27664Y-32133D01*
X-27641Y-32110D01*
X-27587Y-32016D01*
X-27527Y-31924D01*
X-27518Y-31893D01*
X-27502Y-31865D01*
X-27477Y-31759D01*
X-27445Y-31654D01*
X-27444Y-31622D01*
X-27437Y-31590D01*
X-27442Y-31481D01*
X-27441Y-31372D01*
X-27450Y-31341D01*
X-27451Y-31309D01*
X-27487Y-31206D01*
X-27501Y-31156D01*
X-27501Y-19838D01*
X-27495Y-19819D01*
X-27457Y-19717D01*
X-27454Y-19685D01*
X-27445Y-19654D01*
X-27443Y-19545D01*
X-27435Y-19436D01*
X-27441Y-19404D01*
X-27441Y-19372D01*
X-27470Y-19267D01*
X-27492Y-19160D01*
X-27507Y-19131D01*
X-27516Y-19100D01*
X-27573Y-19007D01*
X-27625Y-18911D01*
X-27647Y-18888D01*
X-27664Y-18860D01*
X-27745Y-18787D01*
X-27821Y-18709D01*
X-27849Y-18693D01*
X-27874Y-18671D01*
X-27972Y-18624D01*
X-28067Y-18570D01*
X-28098Y-18562D01*
X-28127Y-18548D01*
X-28217Y-18534D01*
X-28341Y-18505D01*
X-28390Y-18507D01*
X-28432Y-18501D01*
X-35136Y-18501D01*
X-35231Y-18514D01*
X-35327Y-18519D01*
X-35370Y-18534D01*
X-35415Y-18541D01*
X-35503Y-18580D01*
X-35594Y-18612D01*
X-35628Y-18637D01*
X-35672Y-18657D01*
X-35770Y-18740D01*
X-35843Y-18793D01*
X-36550Y-19501D01*
X-37500Y-19501D01*
X-37564Y-19510D01*
X-37628Y-19509D01*
X-37703Y-19530D01*
X-37779Y-19541D01*
X-37838Y-19567D01*
X-37900Y-19584D01*
X-37966Y-19625D01*
X-38036Y-19657D01*
X-38085Y-19699D01*
X-38140Y-19732D01*
X-38192Y-19790D01*
X-38250Y-19840D01*
X-38286Y-19894D01*
X-38329Y-19942D01*
X-38362Y-20011D01*
X-38405Y-20076D01*
X-38424Y-20138D01*
X-38452Y-20195D01*
X-38463Y-20265D01*
X-38487Y-20346D01*
X-38488Y-20431D01*
X-38499Y-20500D01*
X-38499Y-31018D01*
X-39232Y-31751D01*
X-44738Y-31751D01*
X-44802Y-31760D01*
X-44866Y-31759D01*
X-44941Y-31780D01*
X-45017Y-31791D01*
X-45076Y-31817D01*
X-45138Y-31834D01*
X-45204Y-31875D01*
X-45274Y-31907D01*
X-45323Y-31949D01*
X-45378Y-31982D01*
X-45430Y-32040D01*
X-45488Y-32090D01*
X-45524Y-32144D01*
X-45567Y-32192D01*
X-45600Y-32261D01*
X-45643Y-32326D01*
X-45662Y-32388D01*
X-45690Y-32445D01*
X-45701Y-32515D01*
X-45725Y-32596D01*
X-45726Y-32681D01*
X-45737Y-32750D01*
X-45737Y-43738D01*
X-45728Y-43802D01*
X-45729Y-43866D01*
X-45708Y-43941D01*
X-45697Y-44017D01*
X-45671Y-44076D01*
X-45654Y-44138D01*
X-45613Y-44204D01*
X-45581Y-44274D01*
X-45539Y-44323D01*
X-45506Y-44378D01*
X-45448Y-44430D01*
X-45398Y-44488D01*
X-45344Y-44524D01*
X-45296Y-44567D01*
X-45227Y-44600D01*
X-45162Y-44643D01*
X-45100Y-44662D01*
X-45043Y-44690D01*
X-44973Y-44701D01*
X-44892Y-44725D01*
X-44807Y-44726D01*
X-44738Y-44737D01*
X-33569Y-44737D01*
X-33537Y-44733D01*
G37*
G36*
X-5794Y-15474D02*
X-5794Y-15474D01*
X-5730Y-15470D01*
X-5657Y-15445D01*
X-5581Y-15429D01*
X-5525Y-15399D01*
X-4464Y-15399D01*
X-4432Y-15395D01*
X-4400Y-15397D01*
X-4293Y-15375D01*
X-4185Y-15359D01*
X-4155Y-15346D01*
X-4124Y-15340D01*
X-4027Y-15288D01*
X-3928Y-15243D01*
X-3903Y-15222D01*
X-3875Y-15207D01*
X-3797Y-15131D01*
X-3713Y-15060D01*
X-3696Y-15033D01*
X-3673Y-15010D01*
X-3619Y-14915D01*
X-3559Y-14824D01*
X-3550Y-14793D01*
X-3534Y-14765D01*
X-3508Y-14659D01*
X-3477Y-14554D01*
X-3476Y-14522D01*
X-3469Y-14491D01*
X-3474Y-14381D01*
X-3473Y-14272D01*
X-3481Y-14241D01*
X-3483Y-14209D01*
X-3519Y-14106D01*
X-3548Y-14000D01*
X-3565Y-13973D01*
X-3576Y-13942D01*
X-3629Y-13869D01*
X-3696Y-13760D01*
X-3732Y-13728D01*
X-3757Y-13693D01*
X-6001Y-11450D01*
X-6001Y-8550D01*
X-3793Y-6343D01*
X-3736Y-6266D01*
X-3671Y-6194D01*
X-3651Y-6153D01*
X-3624Y-6117D01*
X-3590Y-6027D01*
X-3548Y-5941D01*
X-3542Y-5899D01*
X-3525Y-5853D01*
X-3515Y-5726D01*
X-3501Y-5636D01*
X-3501Y-2550D01*
X-1450Y-499D01*
X-86Y-499D01*
X9Y-486D01*
X105Y-481D01*
X148Y-466D01*
X194Y-459D01*
X281Y-420D01*
X372Y-388D01*
X406Y-363D01*
X450Y-343D01*
X548Y-260D01*
X621Y-207D01*
X1707Y879D01*
X1764Y956D01*
X1829Y1027D01*
X1849Y1068D01*
X1876Y1105D01*
X1910Y1195D01*
X1952Y1281D01*
X1958Y1323D01*
X1975Y1369D01*
X1985Y1496D01*
X1999Y1586D01*
X1999Y8233D01*
X1990Y8295D01*
X1991Y8351D01*
X1983Y8380D01*
X1981Y8424D01*
X1966Y8467D01*
X1959Y8512D01*
X1926Y8585D01*
X1916Y8623D01*
X1906Y8638D01*
X1888Y8690D01*
X1863Y8724D01*
X1843Y8769D01*
X1780Y8842D01*
X1768Y8863D01*
X1752Y8877D01*
X1707Y8939D01*
X-2418Y13064D01*
X-2444Y13083D01*
X-2465Y13108D01*
X-2557Y13168D01*
X-2644Y13233D01*
X-2674Y13245D01*
X-2701Y13262D01*
X-2806Y13294D01*
X-2908Y13333D01*
X-2940Y13335D01*
X-2971Y13345D01*
X-3080Y13346D01*
X-3189Y13355D01*
X-3221Y13348D01*
X-3253Y13349D01*
X-3358Y13319D01*
X-3465Y13297D01*
X-3494Y13282D01*
X-3525Y13273D01*
X-3618Y13216D01*
X-3714Y13165D01*
X-3737Y13142D01*
X-3765Y13125D01*
X-3838Y13044D01*
X-3916Y12968D01*
X-3932Y12940D01*
X-3954Y12916D01*
X-4001Y12818D01*
X-4055Y12723D01*
X-4063Y12691D01*
X-4077Y12662D01*
X-4091Y12573D01*
X-4120Y12448D01*
X-4118Y12400D01*
X-4124Y12358D01*
X-4124Y10489D01*
X-4111Y10394D01*
X-4106Y10298D01*
X-4091Y10255D01*
X-4084Y10210D01*
X-4045Y10122D01*
X-4013Y10031D01*
X-3988Y9997D01*
X-3968Y9953D01*
X-3885Y9855D01*
X-3832Y9782D01*
X-2499Y8450D01*
X-2499Y5550D01*
X-4550Y3499D01*
X-7400Y3499D01*
X-7464Y3490D01*
X-7528Y3491D01*
X-7603Y3470D01*
X-7679Y3459D01*
X-7738Y3433D01*
X-7800Y3416D01*
X-7866Y3375D01*
X-7936Y3343D01*
X-7985Y3301D01*
X-8040Y3268D01*
X-8092Y3210D01*
X-8150Y3160D01*
X-8186Y3106D01*
X-8229Y3058D01*
X-8262Y2989D01*
X-8305Y2924D01*
X-8324Y2862D01*
X-8352Y2805D01*
X-8363Y2735D01*
X-8387Y2654D01*
X-8388Y2593D01*
X-9132Y1849D01*
X-15668Y1849D01*
X-16401Y2582D01*
X-16401Y6739D01*
X-16384Y6810D01*
X-16357Y6883D01*
X-16352Y6947D01*
X-16337Y7009D01*
X-16341Y7087D01*
X-16335Y7164D01*
X-16348Y7227D01*
X-16351Y7291D01*
X-16377Y7364D01*
X-16392Y7440D01*
X-16401Y7456D01*
X-16401Y8633D01*
X-16414Y8727D01*
X-16419Y8824D01*
X-16434Y8867D01*
X-16441Y8912D01*
X-16480Y8999D01*
X-16512Y9090D01*
X-16537Y9125D01*
X-16557Y9169D01*
X-16640Y9266D01*
X-16693Y9339D01*
X-17543Y10189D01*
X-17569Y10208D01*
X-17590Y10233D01*
X-17682Y10293D01*
X-17769Y10358D01*
X-17799Y10370D01*
X-17826Y10387D01*
X-17931Y10419D01*
X-18033Y10458D01*
X-18065Y10460D01*
X-18096Y10470D01*
X-18205Y10471D01*
X-18314Y10480D01*
X-18346Y10473D01*
X-18378Y10474D01*
X-18483Y10444D01*
X-18590Y10422D01*
X-18619Y10407D01*
X-18650Y10398D01*
X-18743Y10341D01*
X-18839Y10290D01*
X-18862Y10267D01*
X-18890Y10250D01*
X-18963Y10169D01*
X-19041Y10093D01*
X-19057Y10065D01*
X-19079Y10041D01*
X-19126Y9943D01*
X-19180Y9848D01*
X-19188Y9816D01*
X-19202Y9787D01*
X-19216Y9698D01*
X-19245Y9573D01*
X-19243Y9525D01*
X-19249Y9483D01*
X-19249Y9482D01*
X-19900Y8832D01*
X-19938Y8780D01*
X-19984Y8735D01*
X-20022Y8668D01*
X-20069Y8606D01*
X-20092Y8546D01*
X-20123Y8490D01*
X-20141Y8415D01*
X-20168Y8342D01*
X-20173Y8278D01*
X-20188Y8215D01*
X-20184Y8138D01*
X-20190Y8061D01*
X-20177Y7998D01*
X-20174Y7934D01*
X-20148Y7861D01*
X-20133Y7785D01*
X-20102Y7728D01*
X-20081Y7667D01*
X-20040Y7611D01*
X-20000Y7536D01*
X-19941Y7475D01*
X-19900Y7418D01*
X-19499Y7018D01*
X-19499Y1450D01*
X-19486Y1355D01*
X-19481Y1259D01*
X-19466Y1215D01*
X-19459Y1171D01*
X-19420Y1083D01*
X-19388Y992D01*
X-19363Y958D01*
X-19343Y914D01*
X-19260Y816D01*
X-19207Y743D01*
X-16107Y-2357D01*
X-16030Y-2414D01*
X-15959Y-2479D01*
X-15918Y-2499D01*
X-15881Y-2526D01*
X-15791Y-2560D01*
X-15705Y-2602D01*
X-15663Y-2608D01*
X-15617Y-2625D01*
X-15490Y-2635D01*
X-15400Y-2649D01*
X-9132Y-2649D01*
X-8399Y-3382D01*
X-8399Y-7539D01*
X-8416Y-7610D01*
X-8443Y-7683D01*
X-8448Y-7747D01*
X-8463Y-7810D01*
X-8459Y-7887D01*
X-8465Y-7964D01*
X-8452Y-8027D01*
X-8449Y-8091D01*
X-8423Y-8165D01*
X-8408Y-8240D01*
X-8399Y-8256D01*
X-8399Y-12520D01*
X-8420Y-12557D01*
X-8438Y-12632D01*
X-8465Y-12704D01*
X-8470Y-12768D01*
X-8485Y-12831D01*
X-8481Y-12908D01*
X-8487Y-12985D01*
X-8474Y-13048D01*
X-8470Y-13113D01*
X-8445Y-13186D01*
X-8429Y-13261D01*
X-8399Y-13318D01*
X-8378Y-13379D01*
X-8336Y-13436D01*
X-8297Y-13510D01*
X-8237Y-13571D01*
X-8196Y-13628D01*
X-8149Y-13675D01*
X-8149Y-14150D01*
X-8140Y-14214D01*
X-8141Y-14278D01*
X-8120Y-14353D01*
X-8109Y-14429D01*
X-8083Y-14488D01*
X-8066Y-14550D01*
X-8025Y-14616D01*
X-7993Y-14686D01*
X-7951Y-14735D01*
X-7918Y-14790D01*
X-7860Y-14842D01*
X-7810Y-14900D01*
X-7756Y-14936D01*
X-7708Y-14979D01*
X-7639Y-15012D01*
X-7574Y-15055D01*
X-7512Y-15074D01*
X-7455Y-15102D01*
X-7385Y-15113D01*
X-7304Y-15137D01*
X-7219Y-15138D01*
X-7150Y-15149D01*
X-6675Y-15149D01*
X-6628Y-15196D01*
X-6577Y-15235D01*
X-6532Y-15281D01*
X-6464Y-15319D01*
X-6402Y-15365D01*
X-6342Y-15388D01*
X-6286Y-15420D01*
X-6211Y-15438D01*
X-6139Y-15465D01*
X-6074Y-15470D01*
X-6012Y-15485D01*
X-5935Y-15481D01*
X-5857Y-15487D01*
X-5794Y-15474D01*
G37*
G36*
X-18936Y20760D02*
X-18936Y20760D01*
X-18872Y20759D01*
X-18797Y20780D01*
X-18721Y20791D01*
X-18662Y20817D01*
X-18600Y20834D01*
X-18534Y20875D01*
X-18464Y20907D01*
X-18415Y20949D01*
X-18360Y20982D01*
X-18308Y21040D01*
X-18250Y21090D01*
X-18214Y21144D01*
X-18171Y21192D01*
X-18138Y21261D01*
X-18095Y21326D01*
X-18076Y21388D01*
X-18048Y21445D01*
X-18037Y21515D01*
X-18013Y21596D01*
X-18012Y21681D01*
X-18001Y21750D01*
X-18001Y22100D01*
X-18014Y22195D01*
X-18019Y22292D01*
X-18034Y22335D01*
X-18041Y22380D01*
X-18080Y22467D01*
X-18112Y22558D01*
X-18137Y22592D01*
X-18157Y22637D01*
X-18240Y22734D01*
X-18293Y22807D01*
X-19001Y23514D01*
X-19001Y28086D01*
X-19014Y28181D01*
X-19019Y28277D01*
X-19034Y28320D01*
X-19041Y28365D01*
X-19080Y28452D01*
X-19112Y28543D01*
X-19137Y28578D01*
X-19157Y28622D01*
X-19240Y28719D01*
X-19293Y28792D01*
X-20208Y29707D01*
X-20284Y29764D01*
X-20356Y29829D01*
X-20397Y29849D01*
X-20433Y29876D01*
X-20523Y29910D01*
X-20610Y29952D01*
X-20652Y29958D01*
X-20697Y29975D01*
X-20825Y29985D01*
X-20914Y29999D01*
X-29086Y29999D01*
X-29181Y29986D01*
X-29277Y29981D01*
X-29320Y29966D01*
X-29365Y29959D01*
X-29452Y29920D01*
X-29543Y29888D01*
X-29578Y29863D01*
X-29622Y29843D01*
X-29719Y29760D01*
X-29792Y29707D01*
X-31707Y27792D01*
X-31764Y27716D01*
X-31829Y27644D01*
X-31849Y27603D01*
X-31876Y27567D01*
X-31910Y27477D01*
X-31952Y27390D01*
X-31958Y27348D01*
X-31975Y27303D01*
X-31985Y27175D01*
X-31999Y27086D01*
X-31999Y21750D01*
X-31990Y21686D01*
X-31991Y21622D01*
X-31970Y21547D01*
X-31959Y21471D01*
X-31933Y21412D01*
X-31916Y21350D01*
X-31875Y21284D01*
X-31843Y21214D01*
X-31801Y21165D01*
X-31768Y21110D01*
X-31710Y21058D01*
X-31660Y21000D01*
X-31606Y20964D01*
X-31558Y20921D01*
X-31489Y20888D01*
X-31424Y20845D01*
X-31362Y20826D01*
X-31305Y20798D01*
X-31235Y20787D01*
X-31154Y20763D01*
X-31069Y20762D01*
X-31000Y20751D01*
X-19000Y20751D01*
X-18936Y20760D01*
G37*
%LPC*%
G36*
X38150Y-15501D02*
X38150Y-15501D01*
X36099Y-13450D01*
X36099Y-10550D01*
X38150Y-8499D01*
X41050Y-8499D01*
X43101Y-10550D01*
X43101Y-13450D01*
X41050Y-15501D01*
X38150Y-15501D01*
G37*
%LPD*%
G36*
X-9892Y13102D02*
X-9892Y13102D01*
X-9883Y13101D01*
X-9795Y13122D01*
X-9705Y13140D01*
X-9698Y13145D01*
X-9690Y13147D01*
X-9617Y13201D01*
X-9541Y13253D01*
X-9537Y13260D01*
X-9530Y13265D01*
X-9483Y13343D01*
X-9434Y13420D01*
X-9433Y13429D01*
X-9428Y13436D01*
X-9401Y13600D01*
X-9401Y14100D01*
X-9402Y14108D01*
X-9401Y14116D01*
X-9402Y14120D01*
X-9401Y14125D01*
X-9423Y14209D01*
X-9440Y14295D01*
X-9445Y14302D01*
X-9447Y14309D01*
X-9449Y14312D01*
X-9451Y14317D01*
X-9547Y14453D01*
X-11047Y15953D01*
X-11056Y15959D01*
X-11062Y15967D01*
X-11063Y15968D01*
X-11065Y15970D01*
X-11140Y16015D01*
X-11213Y16063D01*
X-11225Y16065D01*
X-11236Y16072D01*
X-11400Y16099D01*
X-14400Y16099D01*
X-14408Y16098D01*
X-14417Y16099D01*
X-14505Y16078D01*
X-14595Y16060D01*
X-14602Y16055D01*
X-14610Y16053D01*
X-14683Y15999D01*
X-14759Y15947D01*
X-14763Y15940D01*
X-14770Y15935D01*
X-14817Y15857D01*
X-14866Y15780D01*
X-14867Y15771D01*
X-14872Y15764D01*
X-14899Y15600D01*
X-14899Y13600D01*
X-14898Y13592D01*
X-14899Y13583D01*
X-14878Y13495D01*
X-14860Y13405D01*
X-14855Y13398D01*
X-14853Y13390D01*
X-14799Y13317D01*
X-14747Y13241D01*
X-14740Y13237D01*
X-14735Y13230D01*
X-14657Y13183D01*
X-14580Y13134D01*
X-14571Y13133D01*
X-14564Y13128D01*
X-14400Y13101D01*
X-9900Y13101D01*
X-9892Y13102D01*
G37*
G36*
X22608Y-21898D02*
X22608Y-21898D01*
X22617Y-21899D01*
X22705Y-21878D01*
X22795Y-21860D01*
X22802Y-21855D01*
X22810Y-21853D01*
X22883Y-21799D01*
X22959Y-21747D01*
X22963Y-21740D01*
X22970Y-21735D01*
X23017Y-21657D01*
X23066Y-21580D01*
X23067Y-21571D01*
X23072Y-21564D01*
X23099Y-21400D01*
X23099Y-18400D01*
X23098Y-18394D01*
X23099Y-18388D01*
X23098Y-18382D01*
X23099Y-18375D01*
X23077Y-18291D01*
X23060Y-18205D01*
X23053Y-18196D01*
X23053Y-18195D01*
X23052Y-18194D01*
X23049Y-18183D01*
X22953Y-18047D01*
X21453Y-16547D01*
X21446Y-16542D01*
X21442Y-16537D01*
X21439Y-16535D01*
X21435Y-16530D01*
X21360Y-16486D01*
X21287Y-16437D01*
X21275Y-16435D01*
X21264Y-16428D01*
X21100Y-16401D01*
X20600Y-16401D01*
X20592Y-16402D01*
X20583Y-16401D01*
X20495Y-16422D01*
X20405Y-16440D01*
X20398Y-16445D01*
X20390Y-16447D01*
X20317Y-16501D01*
X20241Y-16553D01*
X20237Y-16560D01*
X20230Y-16565D01*
X20183Y-16643D01*
X20134Y-16720D01*
X20133Y-16729D01*
X20128Y-16736D01*
X20101Y-16900D01*
X20101Y-21400D01*
X20102Y-21408D01*
X20101Y-21417D01*
X20122Y-21505D01*
X20140Y-21595D01*
X20145Y-21602D01*
X20147Y-21610D01*
X20201Y-21683D01*
X20253Y-21759D01*
X20260Y-21763D01*
X20265Y-21770D01*
X20343Y-21817D01*
X20420Y-21866D01*
X20429Y-21867D01*
X20436Y-21872D01*
X20600Y-21899D01*
X22600Y-21899D01*
X22608Y-21898D01*
G37*
G36*
X27608Y13102D02*
X27608Y13102D01*
X27617Y13101D01*
X27705Y13122D01*
X27795Y13140D01*
X27802Y13145D01*
X27810Y13147D01*
X27883Y13201D01*
X27959Y13253D01*
X27963Y13260D01*
X27970Y13265D01*
X28017Y13343D01*
X28066Y13420D01*
X28067Y13429D01*
X28072Y13436D01*
X28099Y13600D01*
X28099Y15600D01*
X28098Y15607D01*
X28099Y15614D01*
X28099Y15615D01*
X28099Y15617D01*
X28078Y15705D01*
X28060Y15795D01*
X28055Y15802D01*
X28053Y15810D01*
X27999Y15883D01*
X27947Y15959D01*
X27940Y15963D01*
X27935Y15970D01*
X27857Y16017D01*
X27780Y16066D01*
X27771Y16067D01*
X27764Y16072D01*
X27600Y16099D01*
X24600Y16099D01*
X24588Y16097D01*
X24575Y16099D01*
X24491Y16077D01*
X24405Y16060D01*
X24395Y16053D01*
X24383Y16049D01*
X24247Y15953D01*
X22747Y14453D01*
X22744Y14448D01*
X22741Y14446D01*
X22738Y14441D01*
X22730Y14435D01*
X22686Y14360D01*
X22637Y14287D01*
X22636Y14282D01*
X22634Y14279D01*
X22633Y14272D01*
X22628Y14264D01*
X22601Y14100D01*
X22601Y13600D01*
X22602Y13592D01*
X22601Y13583D01*
X22622Y13495D01*
X22640Y13405D01*
X22645Y13398D01*
X22647Y13390D01*
X22701Y13317D01*
X22753Y13241D01*
X22760Y13237D01*
X22765Y13230D01*
X22843Y13183D01*
X22920Y13134D01*
X22929Y13133D01*
X22936Y13128D01*
X23100Y13101D01*
X27600Y13101D01*
X27608Y13102D01*
G37*
G36*
X21112Y15603D02*
X21112Y15603D01*
X21125Y15601D01*
X21209Y15623D01*
X21295Y15640D01*
X21305Y15648D01*
X21317Y15651D01*
X21453Y15747D01*
X22953Y17247D01*
X22955Y17249D01*
X22957Y17251D01*
X22962Y17259D01*
X22970Y17265D01*
X23015Y17340D01*
X23063Y17413D01*
X23065Y17425D01*
X23072Y17436D01*
X23099Y17600D01*
X23099Y20600D01*
X23098Y20605D01*
X23099Y20610D01*
X23098Y20613D01*
X23099Y20617D01*
X23078Y20705D01*
X23060Y20795D01*
X23055Y20802D01*
X23053Y20810D01*
X22999Y20883D01*
X22947Y20959D01*
X22940Y20963D01*
X22935Y20970D01*
X22857Y21017D01*
X22780Y21066D01*
X22771Y21067D01*
X22764Y21072D01*
X22600Y21099D01*
X20600Y21099D01*
X20592Y21098D01*
X20583Y21099D01*
X20495Y21078D01*
X20405Y21060D01*
X20398Y21055D01*
X20390Y21053D01*
X20317Y20999D01*
X20241Y20947D01*
X20237Y20940D01*
X20230Y20935D01*
X20183Y20857D01*
X20134Y20780D01*
X20133Y20771D01*
X20128Y20764D01*
X20101Y20600D01*
X20101Y16100D01*
X20102Y16092D01*
X20101Y16083D01*
X20122Y15995D01*
X20140Y15905D01*
X20145Y15898D01*
X20147Y15890D01*
X20201Y15817D01*
X20253Y15741D01*
X20260Y15737D01*
X20265Y15730D01*
X20343Y15683D01*
X20420Y15634D01*
X20429Y15633D01*
X20436Y15628D01*
X20600Y15601D01*
X21100Y15601D01*
X21112Y15603D01*
G37*
G36*
X-11388Y-16897D02*
X-11388Y-16897D01*
X-11375Y-16899D01*
X-11291Y-16877D01*
X-11205Y-16860D01*
X-11195Y-16853D01*
X-11183Y-16849D01*
X-11047Y-16753D01*
X-9547Y-15253D01*
X-9545Y-15251D01*
X-9543Y-15249D01*
X-9538Y-15241D01*
X-9530Y-15235D01*
X-9486Y-15160D01*
X-9437Y-15087D01*
X-9435Y-15075D01*
X-9428Y-15064D01*
X-9401Y-14900D01*
X-9401Y-14400D01*
X-9402Y-14393D01*
X-9401Y-14386D01*
X-9401Y-14385D01*
X-9401Y-14383D01*
X-9422Y-14295D01*
X-9440Y-14205D01*
X-9445Y-14198D01*
X-9447Y-14190D01*
X-9501Y-14117D01*
X-9553Y-14041D01*
X-9560Y-14037D01*
X-9565Y-14030D01*
X-9643Y-13983D01*
X-9720Y-13934D01*
X-9729Y-13933D01*
X-9736Y-13928D01*
X-9900Y-13901D01*
X-14400Y-13901D01*
X-14408Y-13902D01*
X-14417Y-13901D01*
X-14505Y-13922D01*
X-14595Y-13940D01*
X-14602Y-13945D01*
X-14610Y-13947D01*
X-14683Y-14001D01*
X-14759Y-14053D01*
X-14763Y-14060D01*
X-14770Y-14065D01*
X-14817Y-14143D01*
X-14866Y-14220D01*
X-14867Y-14229D01*
X-14872Y-14236D01*
X-14899Y-14400D01*
X-14899Y-16400D01*
X-14898Y-16408D01*
X-14899Y-16417D01*
X-14878Y-16505D01*
X-14860Y-16595D01*
X-14855Y-16602D01*
X-14853Y-16610D01*
X-14799Y-16683D01*
X-14747Y-16759D01*
X-14740Y-16763D01*
X-14735Y-16770D01*
X-14657Y-16817D01*
X-14580Y-16866D01*
X-14571Y-16867D01*
X-14564Y-16872D01*
X-14400Y-16899D01*
X-11400Y-16899D01*
X-11388Y-16897D01*
G37*
G36*
X-7392Y-21898D02*
X-7392Y-21898D01*
X-7383Y-21899D01*
X-7295Y-21878D01*
X-7205Y-21860D01*
X-7198Y-21855D01*
X-7190Y-21853D01*
X-7117Y-21799D01*
X-7041Y-21747D01*
X-7037Y-21740D01*
X-7030Y-21735D01*
X-6983Y-21657D01*
X-6934Y-21580D01*
X-6933Y-21571D01*
X-6928Y-21564D01*
X-6901Y-21400D01*
X-6901Y-16900D01*
X-6902Y-16895D01*
X-6901Y-16890D01*
X-6902Y-16887D01*
X-6901Y-16883D01*
X-6922Y-16795D01*
X-6940Y-16705D01*
X-6945Y-16698D01*
X-6947Y-16690D01*
X-7001Y-16617D01*
X-7053Y-16541D01*
X-7060Y-16537D01*
X-7065Y-16530D01*
X-7143Y-16483D01*
X-7220Y-16434D01*
X-7229Y-16433D01*
X-7236Y-16428D01*
X-7400Y-16401D01*
X-7900Y-16401D01*
X-7912Y-16403D01*
X-7925Y-16401D01*
X-8009Y-16423D01*
X-8095Y-16440D01*
X-8105Y-16448D01*
X-8117Y-16451D01*
X-8253Y-16547D01*
X-9753Y-18047D01*
X-9760Y-18058D01*
X-9770Y-18065D01*
X-9815Y-18140D01*
X-9863Y-18213D01*
X-9865Y-18223D01*
X-9866Y-18225D01*
X-9866Y-18227D01*
X-9872Y-18236D01*
X-9899Y-18400D01*
X-9899Y-21400D01*
X-9898Y-21408D01*
X-9899Y-21417D01*
X-9878Y-21505D01*
X-9860Y-21595D01*
X-9855Y-21602D01*
X-9853Y-21610D01*
X-9799Y-21683D01*
X-9747Y-21759D01*
X-9740Y-21763D01*
X-9735Y-21770D01*
X-9657Y-21817D01*
X-9580Y-21866D01*
X-9571Y-21867D01*
X-9564Y-21872D01*
X-9400Y-21899D01*
X-7400Y-21899D01*
X-7392Y-21898D01*
G37*
G36*
X-7392Y15602D02*
X-7392Y15602D01*
X-7383Y15601D01*
X-7295Y15622D01*
X-7205Y15640D01*
X-7198Y15645D01*
X-7190Y15647D01*
X-7117Y15701D01*
X-7041Y15753D01*
X-7037Y15760D01*
X-7030Y15765D01*
X-6983Y15843D01*
X-6934Y15920D01*
X-6933Y15929D01*
X-6928Y15936D01*
X-6901Y16100D01*
X-6901Y20600D01*
X-6902Y20605D01*
X-6901Y20610D01*
X-6902Y20613D01*
X-6901Y20617D01*
X-6922Y20705D01*
X-6940Y20795D01*
X-6945Y20802D01*
X-6947Y20810D01*
X-7001Y20883D01*
X-7053Y20959D01*
X-7060Y20963D01*
X-7065Y20970D01*
X-7143Y21017D01*
X-7220Y21066D01*
X-7229Y21067D01*
X-7236Y21072D01*
X-7400Y21099D01*
X-9400Y21099D01*
X-9408Y21098D01*
X-9417Y21099D01*
X-9505Y21078D01*
X-9595Y21060D01*
X-9602Y21055D01*
X-9610Y21053D01*
X-9683Y20999D01*
X-9759Y20947D01*
X-9763Y20940D01*
X-9770Y20935D01*
X-9817Y20857D01*
X-9866Y20780D01*
X-9867Y20771D01*
X-9872Y20764D01*
X-9899Y20600D01*
X-9899Y17600D01*
X-9897Y17588D01*
X-9899Y17575D01*
X-9877Y17491D01*
X-9860Y17405D01*
X-9853Y17395D01*
X-9849Y17383D01*
X-9753Y17247D01*
X-8253Y15747D01*
X-8242Y15740D01*
X-8235Y15730D01*
X-8160Y15686D01*
X-8087Y15637D01*
X-8075Y15635D01*
X-8064Y15628D01*
X-7900Y15601D01*
X-7400Y15601D01*
X-7392Y15602D01*
G37*
G36*
X27608Y-16898D02*
X27608Y-16898D01*
X27617Y-16899D01*
X27705Y-16878D01*
X27795Y-16860D01*
X27802Y-16855D01*
X27810Y-16853D01*
X27883Y-16799D01*
X27959Y-16747D01*
X27963Y-16740D01*
X27970Y-16735D01*
X28017Y-16657D01*
X28066Y-16580D01*
X28067Y-16571D01*
X28072Y-16564D01*
X28099Y-16400D01*
X28099Y-14400D01*
X28098Y-14393D01*
X28099Y-14386D01*
X28099Y-14385D01*
X28099Y-14383D01*
X28078Y-14295D01*
X28060Y-14205D01*
X28055Y-14198D01*
X28053Y-14190D01*
X27999Y-14117D01*
X27947Y-14041D01*
X27940Y-14037D01*
X27935Y-14030D01*
X27857Y-13983D01*
X27780Y-13934D01*
X27771Y-13933D01*
X27764Y-13928D01*
X27600Y-13901D01*
X23100Y-13901D01*
X23092Y-13902D01*
X23083Y-13901D01*
X22995Y-13922D01*
X22905Y-13940D01*
X22898Y-13945D01*
X22890Y-13947D01*
X22817Y-14001D01*
X22741Y-14053D01*
X22737Y-14060D01*
X22730Y-14065D01*
X22683Y-14143D01*
X22634Y-14220D01*
X22633Y-14229D01*
X22628Y-14236D01*
X22601Y-14400D01*
X22601Y-14900D01*
X22603Y-14912D01*
X22601Y-14925D01*
X22623Y-15009D01*
X22640Y-15095D01*
X22648Y-15105D01*
X22651Y-15117D01*
X22747Y-15253D01*
X24247Y-16753D01*
X24258Y-16760D01*
X24265Y-16770D01*
X24340Y-16815D01*
X24413Y-16863D01*
X24425Y-16865D01*
X24436Y-16872D01*
X24600Y-16899D01*
X27600Y-16899D01*
X27608Y-16898D01*
G37*
D10*
X-13400Y-15400D03*
D11*
X-12400Y-10400D03*
X-12400Y-5400D03*
X-12400Y-400D03*
X-12400Y4600D03*
X-12400Y9600D03*
D10*
X-13400Y14600D03*
D12*
X-8400Y19600D03*
D13*
X-3400Y18600D03*
X1600Y18600D03*
X6600Y18600D03*
X11600Y18600D03*
X16600Y18600D03*
D12*
X21600Y19600D03*
D10*
X26600Y14600D03*
D11*
X25600Y9600D03*
X25600Y4600D03*
X25600Y-400D03*
X25600Y-5400D03*
X25600Y-10400D03*
D10*
X26600Y-15400D03*
D12*
X21600Y-20400D03*
D13*
X16600Y-19400D03*
X11600Y-19400D03*
X6600Y-19400D03*
X1600Y-19400D03*
X-3400Y-19400D03*
D12*
X-8400Y-20400D03*
D14*
X-25500Y40000D03*
X-38500Y40000D03*
X-10500Y40000D03*
X2500Y40000D03*
X43000Y500D03*
X56000Y500D03*
D15*
X51000Y29150D03*
X43850Y22000D03*
X51000Y14850D03*
X51000Y-15850D03*
X43850Y-23000D03*
X51000Y-30150D03*
D16*
X-40400Y-39000D03*
X-27700Y-39000D03*
X-15000Y-39000D03*
X-2300Y-39000D03*
X10400Y-39000D03*
D17*
X-33000Y-25500D03*
X-23500Y-25500D03*
X-42500Y-25500D03*
X-42500Y1500D03*
X-23500Y1500D03*
D18*
X-25000Y13500D03*
X-25000Y26500D03*
X-41000Y13500D03*
X-41000Y26500D03*
D19*
X35050Y25500D03*
X29950Y25500D03*
D20*
X55500Y20500D03*
X55500Y25500D03*
X58500Y-25500D03*
X58500Y-20500D03*
D21*
X43000Y38500D03*
X42000Y-38500D03*
D22*
X56500Y-37450D03*
X56500Y-42550D03*
D19*
X58050Y40500D03*
X52950Y40500D03*
D23*
X-19723Y31875D02*
X-30277Y31875D01*
X-16125Y17325D02*
X-13400Y14600D01*
X-30277Y31875D02*
X-33875Y28277D01*
X-33875Y-9875D02*
X-34000Y-10000D01*
D24*
X-34000Y-10000D03*
D23*
X-33875Y-9875D02*
X-33875Y28277D01*
X-17125Y24291D02*
X-16125Y23291D01*
X-16125Y17325D01*
X-17125Y29277D02*
X-19723Y31875D01*
X-17125Y29277D02*
X-17125Y24291D01*
X-30277Y18875D02*
X-31375Y17777D01*
X-30277Y18875D02*
X-19723Y18875D01*
X-18625Y17777D01*
X-18625Y13923D01*
X-14302Y9600D01*
X-12400Y9600D01*
X-31375Y-5625D02*
X-27000Y-10000D01*
D24*
X-27000Y-10000D03*
D23*
X-31375Y-5625D02*
X-31375Y17777D01*
D24*
X-6000Y7000D03*
D23*
X-7775Y18975D02*
X-8400Y19600D01*
X-7775Y18975D02*
X-7775Y16073D01*
X-6000Y14298D01*
X-6000Y7000D01*
D24*
X0Y-4000D03*
D23*
X-2775Y17975D02*
X-3400Y18600D01*
X-2775Y17975D02*
X-2775Y16073D01*
X0Y-3480D02*
X0Y-4000D01*
X0Y-3480D02*
X3875Y395D01*
X3875Y9423D01*
X-2775Y16073D01*
D24*
X-12000Y25000D03*
D23*
X975Y19225D02*
X1600Y18600D01*
X975Y19225D02*
X975Y21127D01*
X-2898Y25000D01*
X-12000Y25000D01*
X2500Y40000D02*
X3875Y38625D01*
X3875Y30541D01*
X6600Y27816D02*
X6600Y18600D01*
X6600Y27816D02*
X3875Y30541D01*
D24*
X-2500Y-10000D03*
D23*
X25200Y-10000D01*
X25600Y-10400D01*
X26600Y-15400D02*
X26600Y-22800D01*
X10400Y-39000D01*
D25*
X-23500Y12000D02*
X-25000Y13500D01*
X-23500Y12000D02*
X-23500Y1500D01*
X-16600Y-5400D02*
X-12400Y-5400D01*
X-16600Y-5400D02*
X-23500Y1500D01*
D16*
X23000Y-39000D03*
D24*
X-23788Y-3788D03*
D25*
X-23788Y1212D01*
D23*
X-23500Y1500D01*
X25600Y4600D02*
X25600Y9600D01*
D25*
X-33000Y-25500D02*
X-33000Y-27286D01*
X-40400Y-34686D01*
X-40400Y-39000D01*
X35500Y11000D02*
X43000Y500D01*
D24*
X-22000Y27000D03*
X-1000Y3000D03*
D25*
X-11400Y600D02*
X-12400Y-400D01*
X-11400Y600D02*
X-3614Y600D01*
X-1214Y3000D01*
X-1000Y3000D01*
D24*
X11000Y8000D03*
D23*
X-41000Y26500D02*
X-41000Y37500D01*
X-38500Y40000D01*
D24*
X-43000Y40000D03*
X32000Y-12000D03*
X15500Y-5000D03*
D26*
X35500Y11000D03*
D25*
X-42500Y-17500D02*
X-42500Y-25500D01*
X-42500Y-17500D02*
X-41000Y-16000D01*
X-38000Y-16000D01*
X-26000Y-16000D01*
X-23500Y-18500D02*
X-23500Y-25500D01*
X-23500Y-18500D02*
X-26000Y-16000D01*
D24*
X12000Y-26000D03*
X-1000Y30000D03*
X-38000Y-16000D03*
X29000Y-27000D03*
X-19000Y-15000D03*
X39600Y-12000D03*
D25*
X-10500Y40000D02*
X-25500Y40000D01*
D24*
X-8250Y30000D03*
D23*
X-10500Y32250D01*
X-10500Y40000D01*
D24*
X15475Y30250D03*
D23*
X16600Y29125D02*
X16600Y18600D01*
X16600Y29125D02*
X15475Y30250D01*
D24*
X8000Y32250D03*
D23*
X11600Y28291D02*
X11600Y18600D01*
X11600Y28291D02*
X11350Y28541D01*
X11350Y28900D01*
X8000Y32250D01*
D25*
X56500Y6000D02*
X56000Y500D01*
X51000Y-11500D02*
X51000Y-15850D01*
X51000Y-11500D02*
X56500Y-6000D01*
X56500Y6000D01*
D24*
X56500Y6000D03*
D27*
X55650Y-20500D02*
X58500Y-20500D01*
X55650Y-20500D02*
X51000Y-15850D01*
X54650Y25500D02*
X55500Y25500D01*
X54650Y25500D02*
X51000Y29150D01*
D24*
X28625Y30507D03*
D27*
X29950Y29182D01*
X29950Y25500D01*
D25*
X-41000Y13500D02*
X-41000Y11000D01*
X-43000Y9000D01*
X-43000Y2000D01*
X-42500Y1500D01*
D27*
X53850Y-30150D02*
X58500Y-25500D01*
X53850Y-30150D02*
X51000Y-30150D01*
X51000Y-31950D02*
X56500Y-37450D01*
X51000Y-31950D02*
X51000Y-30150D01*
X38350Y22200D02*
X35050Y25500D01*
X38350Y22200D02*
X38350Y19722D01*
X43222Y14850D01*
X51000Y14850D01*
X55500Y19350D01*
X55500Y20500D01*
X58182Y22000D02*
X59500Y23318D01*
X59500Y27682D01*
X57000Y22000D02*
X55500Y20500D01*
X57000Y22000D02*
X58182Y22000D01*
X59500Y27682D02*
X58050Y29132D01*
X58050Y40500D01*
X56500Y-42550D02*
X55100Y-42550D01*
X55050Y-42600D01*
X54918Y-42600D01*
X50818Y-38500D02*
X42000Y-38500D01*
X50818Y-38500D02*
X54918Y-42600D01*
X50950Y38500D02*
X52950Y40500D01*
X50950Y38500D02*
X43000Y38500D01*
M02*
