G04 EAGLE Gerber RS-274X export*
G75*
%MOMM*%
%FSLAX34Y34*%
%LPD*%
%INCopper Layer 15*%
%IPPOS*%
%AMOC8*
5,1,8,0,0,1.08239X$1,22.5*%
G01*
%ADD10C,0.700000*%
%ADD11C,1.050000*%
%ADD12C,1.219200*%
%ADD13C,0.500000*%
%ADD14C,0.125000*%
%ADD15C,0.650000*%

G36*
X35467Y-44733D02*
X35467Y-44733D01*
X35499Y-44735D01*
X35606Y-44713D01*
X35714Y-44697D01*
X35744Y-44684D01*
X35775Y-44678D01*
X35872Y-44626D01*
X35971Y-44581D01*
X35996Y-44560D01*
X36024Y-44545D01*
X36102Y-44469D01*
X36185Y-44398D01*
X36203Y-44371D01*
X36226Y-44348D01*
X36280Y-44254D01*
X36340Y-44162D01*
X36349Y-44131D01*
X36365Y-44103D01*
X36390Y-43997D01*
X36422Y-43892D01*
X36423Y-43860D01*
X36430Y-43829D01*
X36425Y-43719D01*
X36426Y-43610D01*
X36417Y-43579D01*
X36416Y-43547D01*
X36380Y-43444D01*
X36351Y-43338D01*
X36334Y-43311D01*
X36323Y-43280D01*
X36270Y-43207D01*
X36203Y-43098D01*
X36167Y-43066D01*
X36142Y-43031D01*
X35772Y-42662D01*
X34653Y-39961D01*
X34653Y-37039D01*
X35772Y-34338D01*
X37838Y-32272D01*
X40539Y-31153D01*
X43461Y-31153D01*
X44868Y-31736D01*
X44982Y-31765D01*
X45096Y-31800D01*
X45119Y-31800D01*
X45141Y-31806D01*
X45259Y-31802D01*
X45378Y-31804D01*
X45400Y-31798D01*
X45423Y-31797D01*
X45535Y-31760D01*
X45650Y-31728D01*
X45669Y-31716D01*
X45691Y-31709D01*
X45789Y-31643D01*
X45890Y-31580D01*
X45905Y-31563D01*
X45924Y-31550D01*
X45999Y-31459D01*
X46079Y-31371D01*
X46089Y-31350D01*
X46103Y-31333D01*
X46150Y-31224D01*
X46202Y-31117D01*
X46205Y-31096D01*
X46215Y-31074D01*
X46235Y-30910D01*
X46237Y-30902D01*
X46237Y-30888D01*
X46249Y-30813D01*
X46249Y-28750D01*
X46240Y-28686D01*
X46241Y-28622D01*
X46220Y-28547D01*
X46209Y-28471D01*
X46183Y-28412D01*
X46166Y-28350D01*
X46125Y-28284D01*
X46093Y-28214D01*
X46051Y-28165D01*
X46018Y-28110D01*
X45960Y-28058D01*
X45910Y-28000D01*
X45856Y-27964D01*
X45808Y-27921D01*
X45739Y-27888D01*
X45674Y-27845D01*
X45612Y-27826D01*
X45555Y-27798D01*
X45485Y-27787D01*
X45404Y-27763D01*
X45319Y-27762D01*
X45250Y-27751D01*
X41882Y-27751D01*
X39099Y-24968D01*
X39099Y-21032D01*
X41882Y-18249D01*
X45250Y-18249D01*
X45314Y-18240D01*
X45378Y-18241D01*
X45453Y-18220D01*
X45529Y-18209D01*
X45588Y-18183D01*
X45650Y-18166D01*
X45716Y-18125D01*
X45786Y-18093D01*
X45835Y-18051D01*
X45890Y-18018D01*
X45942Y-17960D01*
X46000Y-17910D01*
X46036Y-17856D01*
X46079Y-17808D01*
X46112Y-17739D01*
X46155Y-17674D01*
X46174Y-17612D01*
X46202Y-17555D01*
X46213Y-17485D01*
X46237Y-17404D01*
X46238Y-17319D01*
X46249Y-17250D01*
X46249Y-13882D01*
X49032Y-11099D01*
X52968Y-11099D01*
X55751Y-13882D01*
X55751Y-17818D01*
X52968Y-20601D01*
X49600Y-20601D01*
X49536Y-20610D01*
X49472Y-20609D01*
X49397Y-20630D01*
X49321Y-20641D01*
X49262Y-20667D01*
X49200Y-20684D01*
X49134Y-20725D01*
X49064Y-20757D01*
X49015Y-20799D01*
X48960Y-20832D01*
X48908Y-20890D01*
X48850Y-20940D01*
X48814Y-20994D01*
X48771Y-21042D01*
X48738Y-21111D01*
X48695Y-21176D01*
X48676Y-21238D01*
X48648Y-21295D01*
X48637Y-21365D01*
X48613Y-21446D01*
X48612Y-21531D01*
X48601Y-21600D01*
X48601Y-24400D01*
X48610Y-24464D01*
X48609Y-24528D01*
X48630Y-24603D01*
X48641Y-24679D01*
X48667Y-24738D01*
X48684Y-24800D01*
X48725Y-24866D01*
X48757Y-24936D01*
X48799Y-24985D01*
X48832Y-25040D01*
X48890Y-25092D01*
X48940Y-25150D01*
X48994Y-25186D01*
X49042Y-25229D01*
X49111Y-25262D01*
X49176Y-25305D01*
X49238Y-25324D01*
X49295Y-25352D01*
X49365Y-25363D01*
X49446Y-25387D01*
X49531Y-25388D01*
X49600Y-25399D01*
X52968Y-25399D01*
X55751Y-28182D01*
X55751Y-32118D01*
X52968Y-34901D01*
X49957Y-34901D01*
X49839Y-34917D01*
X49721Y-34929D01*
X49700Y-34937D01*
X49677Y-34941D01*
X49570Y-34989D01*
X49459Y-35033D01*
X49441Y-35047D01*
X49420Y-35057D01*
X49331Y-35134D01*
X49237Y-35207D01*
X49224Y-35225D01*
X49206Y-35240D01*
X49141Y-35340D01*
X49072Y-35436D01*
X49064Y-35457D01*
X49052Y-35476D01*
X49017Y-35590D01*
X48977Y-35701D01*
X48976Y-35724D01*
X48969Y-35746D01*
X48968Y-35864D01*
X48961Y-35983D01*
X48966Y-36004D01*
X48966Y-36028D01*
X49015Y-36207D01*
X49033Y-36282D01*
X49347Y-37039D01*
X49347Y-39961D01*
X48228Y-42662D01*
X47858Y-43031D01*
X47839Y-43057D01*
X47815Y-43078D01*
X47755Y-43170D01*
X47689Y-43257D01*
X47678Y-43287D01*
X47660Y-43314D01*
X47628Y-43419D01*
X47590Y-43521D01*
X47587Y-43553D01*
X47578Y-43584D01*
X47576Y-43693D01*
X47568Y-43802D01*
X47574Y-43834D01*
X47574Y-43866D01*
X47603Y-43971D01*
X47625Y-44078D01*
X47641Y-44107D01*
X47649Y-44138D01*
X47707Y-44231D01*
X47758Y-44327D01*
X47780Y-44350D01*
X47797Y-44378D01*
X47878Y-44451D01*
X47955Y-44529D01*
X47983Y-44545D01*
X48007Y-44567D01*
X48105Y-44614D01*
X48200Y-44668D01*
X48231Y-44676D01*
X48260Y-44690D01*
X48350Y-44704D01*
X48474Y-44733D01*
X48523Y-44731D01*
X48565Y-44737D01*
X59738Y-44737D01*
X59802Y-44728D01*
X59866Y-44729D01*
X59941Y-44708D01*
X60017Y-44697D01*
X60076Y-44671D01*
X60138Y-44654D01*
X60204Y-44613D01*
X60274Y-44581D01*
X60323Y-44539D01*
X60378Y-44506D01*
X60430Y-44448D01*
X60488Y-44398D01*
X60524Y-44344D01*
X60567Y-44296D01*
X60600Y-44227D01*
X60643Y-44162D01*
X60662Y-44100D01*
X60690Y-44043D01*
X60701Y-43973D01*
X60725Y-43892D01*
X60726Y-43807D01*
X60737Y-43738D01*
X60737Y2521D01*
X60733Y2552D01*
X60735Y2585D01*
X60713Y2692D01*
X60697Y2800D01*
X60684Y2829D01*
X60678Y2861D01*
X60626Y2957D01*
X60581Y3057D01*
X60560Y3081D01*
X60545Y3110D01*
X60469Y3188D01*
X60398Y3271D01*
X60371Y3289D01*
X60348Y3312D01*
X60253Y3366D01*
X60162Y3425D01*
X60131Y3435D01*
X60103Y3451D01*
X59997Y3476D01*
X59892Y3508D01*
X59860Y3508D01*
X59829Y3516D01*
X59719Y3510D01*
X59610Y3512D01*
X59579Y3503D01*
X59547Y3501D01*
X59444Y3466D01*
X59338Y3436D01*
X59311Y3419D01*
X59280Y3409D01*
X59207Y3356D01*
X59098Y3288D01*
X59066Y3252D01*
X59031Y3227D01*
X58054Y2249D01*
X54946Y2249D01*
X52749Y4446D01*
X52749Y7554D01*
X53589Y8393D01*
X53608Y8419D01*
X53633Y8440D01*
X53693Y8532D01*
X53758Y8619D01*
X53770Y8649D01*
X53787Y8676D01*
X53819Y8781D01*
X53858Y8883D01*
X53860Y8915D01*
X53870Y8946D01*
X53871Y9055D01*
X53880Y9164D01*
X53873Y9196D01*
X53874Y9228D01*
X53844Y9333D01*
X53822Y9440D01*
X53807Y9469D01*
X53798Y9500D01*
X53741Y9593D01*
X53690Y9689D01*
X53667Y9712D01*
X53650Y9740D01*
X53569Y9813D01*
X53493Y9891D01*
X53465Y9907D01*
X53441Y9929D01*
X53343Y9976D01*
X53248Y10030D01*
X53216Y10038D01*
X53187Y10052D01*
X53098Y10066D01*
X52973Y10095D01*
X52925Y10093D01*
X52883Y10099D01*
X49032Y10099D01*
X46249Y12882D01*
X46249Y16250D01*
X46241Y16311D01*
X46241Y16345D01*
X46241Y16346D01*
X46241Y16378D01*
X46220Y16453D01*
X46209Y16529D01*
X46183Y16588D01*
X46166Y16650D01*
X46125Y16716D01*
X46093Y16786D01*
X46051Y16835D01*
X46018Y16890D01*
X45960Y16942D01*
X45910Y17000D01*
X45856Y17036D01*
X45808Y17079D01*
X45739Y17112D01*
X45674Y17155D01*
X45612Y17174D01*
X45555Y17202D01*
X45485Y17213D01*
X45404Y17237D01*
X45319Y17238D01*
X45250Y17249D01*
X41882Y17249D01*
X39099Y20032D01*
X39099Y23968D01*
X41882Y26751D01*
X45250Y26751D01*
X45314Y26760D01*
X45378Y26759D01*
X45453Y26780D01*
X45529Y26791D01*
X45588Y26817D01*
X45650Y26834D01*
X45716Y26875D01*
X45786Y26907D01*
X45835Y26949D01*
X45890Y26982D01*
X45942Y27040D01*
X46000Y27090D01*
X46036Y27144D01*
X46079Y27192D01*
X46112Y27261D01*
X46155Y27326D01*
X46174Y27388D01*
X46202Y27445D01*
X46213Y27515D01*
X46237Y27596D01*
X46238Y27681D01*
X46249Y27750D01*
X46249Y30398D01*
X46233Y30516D01*
X46221Y30634D01*
X46213Y30655D01*
X46209Y30678D01*
X46161Y30785D01*
X46117Y30896D01*
X46103Y30914D01*
X46093Y30935D01*
X46016Y31024D01*
X45943Y31118D01*
X45925Y31131D01*
X45910Y31149D01*
X45810Y31214D01*
X45714Y31283D01*
X45693Y31291D01*
X45674Y31303D01*
X45560Y31338D01*
X45449Y31378D01*
X45426Y31379D01*
X45404Y31386D01*
X45286Y31387D01*
X45167Y31394D01*
X45146Y31389D01*
X45122Y31389D01*
X44943Y31340D01*
X44868Y31322D01*
X44461Y31153D01*
X41539Y31153D01*
X38838Y32272D01*
X36772Y34338D01*
X35653Y37039D01*
X35653Y39961D01*
X36772Y42662D01*
X37142Y43031D01*
X37161Y43057D01*
X37185Y43078D01*
X37245Y43170D01*
X37311Y43257D01*
X37322Y43287D01*
X37340Y43314D01*
X37372Y43419D01*
X37410Y43521D01*
X37413Y43553D01*
X37422Y43584D01*
X37424Y43693D01*
X37432Y43802D01*
X37426Y43834D01*
X37426Y43866D01*
X37397Y43971D01*
X37375Y44078D01*
X37359Y44107D01*
X37351Y44138D01*
X37293Y44231D01*
X37242Y44327D01*
X37220Y44350D01*
X37203Y44378D01*
X37122Y44451D01*
X37045Y44529D01*
X37017Y44545D01*
X36993Y44567D01*
X36895Y44614D01*
X36800Y44668D01*
X36769Y44676D01*
X36740Y44690D01*
X36650Y44704D01*
X36526Y44733D01*
X36477Y44731D01*
X36435Y44737D01*
X-40021Y44737D01*
X-40052Y44733D01*
X-40085Y44735D01*
X-40192Y44713D01*
X-40300Y44697D01*
X-40329Y44684D01*
X-40361Y44678D01*
X-40457Y44626D01*
X-40557Y44581D01*
X-40581Y44560D01*
X-40610Y44545D01*
X-40688Y44469D01*
X-40771Y44398D01*
X-40789Y44371D01*
X-40812Y44348D01*
X-40866Y44253D01*
X-40925Y44162D01*
X-40935Y44131D01*
X-40951Y44103D01*
X-40976Y43997D01*
X-41008Y43892D01*
X-41008Y43860D01*
X-41016Y43829D01*
X-41010Y43719D01*
X-41012Y43610D01*
X-41003Y43579D01*
X-41001Y43547D01*
X-40966Y43444D01*
X-40936Y43338D01*
X-40919Y43311D01*
X-40909Y43280D01*
X-40856Y43207D01*
X-40788Y43098D01*
X-40752Y43066D01*
X-40727Y43031D01*
X-39249Y41554D01*
X-39249Y38446D01*
X-41446Y36249D01*
X-44738Y36249D01*
X-44802Y36240D01*
X-44866Y36241D01*
X-44941Y36220D01*
X-45017Y36209D01*
X-45076Y36183D01*
X-45138Y36166D01*
X-45204Y36125D01*
X-45274Y36093D01*
X-45323Y36051D01*
X-45378Y36018D01*
X-45430Y35960D01*
X-45488Y35910D01*
X-45524Y35856D01*
X-45567Y35808D01*
X-45600Y35739D01*
X-45643Y35674D01*
X-45662Y35612D01*
X-45690Y35555D01*
X-45701Y35485D01*
X-45725Y35404D01*
X-45726Y35319D01*
X-45737Y35250D01*
X-45737Y-3672D01*
X-45733Y-3704D01*
X-45735Y-3736D01*
X-45713Y-3843D01*
X-45697Y-3951D01*
X-45684Y-3981D01*
X-45678Y-4012D01*
X-45626Y-4109D01*
X-45581Y-4208D01*
X-45560Y-4233D01*
X-45545Y-4261D01*
X-45469Y-4340D01*
X-45398Y-4423D01*
X-45371Y-4440D01*
X-45348Y-4463D01*
X-45253Y-4517D01*
X-45162Y-4577D01*
X-45131Y-4587D01*
X-45103Y-4602D01*
X-44997Y-4628D01*
X-44892Y-4659D01*
X-44860Y-4660D01*
X-44829Y-4667D01*
X-44719Y-4662D01*
X-44610Y-4663D01*
X-44579Y-4655D01*
X-44547Y-4653D01*
X-44444Y-4617D01*
X-44338Y-4588D01*
X-44311Y-4571D01*
X-44280Y-4561D01*
X-44207Y-4507D01*
X-44098Y-4440D01*
X-44066Y-4404D01*
X-44031Y-4379D01*
X-41565Y-1912D01*
X-27630Y-1912D01*
X-27535Y-1898D01*
X-27439Y-1894D01*
X-27396Y-1879D01*
X-27351Y-1872D01*
X-27264Y-1833D01*
X-27173Y-1801D01*
X-27138Y-1776D01*
X-27094Y-1756D01*
X-26997Y-1673D01*
X-26924Y-1619D01*
X-25341Y-37D01*
X-22234Y-37D01*
X-20037Y-2234D01*
X-20037Y-5341D01*
X-22234Y-7538D01*
X-22250Y-7538D01*
X-22314Y-7547D01*
X-22378Y-7547D01*
X-22453Y-7567D01*
X-22529Y-7578D01*
X-22588Y-7605D01*
X-22650Y-7622D01*
X-22716Y-7663D01*
X-22786Y-7694D01*
X-22835Y-7736D01*
X-22890Y-7770D01*
X-22942Y-7827D01*
X-23000Y-7878D01*
X-23036Y-7932D01*
X-23079Y-7979D01*
X-23112Y-8049D01*
X-23155Y-8114D01*
X-23174Y-8175D01*
X-23202Y-8233D01*
X-23213Y-8302D01*
X-23237Y-8384D01*
X-23238Y-8468D01*
X-23249Y-8538D01*
X-23249Y-11554D01*
X-25446Y-13751D01*
X-28554Y-13751D01*
X-29793Y-12511D01*
X-29845Y-12472D01*
X-29890Y-12426D01*
X-29957Y-12388D01*
X-30019Y-12342D01*
X-30079Y-12319D01*
X-30135Y-12287D01*
X-30210Y-12269D01*
X-30283Y-12242D01*
X-30347Y-12237D01*
X-30410Y-12222D01*
X-30487Y-12226D01*
X-30564Y-12220D01*
X-30627Y-12233D01*
X-30691Y-12237D01*
X-30764Y-12262D01*
X-30840Y-12278D01*
X-30897Y-12308D01*
X-30958Y-12329D01*
X-31014Y-12371D01*
X-31089Y-12410D01*
X-31150Y-12470D01*
X-31207Y-12511D01*
X-32446Y-13751D01*
X-35554Y-13751D01*
X-37751Y-11554D01*
X-37751Y-8446D01*
X-36674Y-7369D01*
X-36654Y-7343D01*
X-36630Y-7322D01*
X-36570Y-7231D01*
X-36504Y-7144D01*
X-36493Y-7114D01*
X-36475Y-7087D01*
X-36443Y-6982D01*
X-36405Y-6880D01*
X-36402Y-6848D01*
X-36393Y-6817D01*
X-36391Y-6708D01*
X-36383Y-6599D01*
X-36390Y-6567D01*
X-36389Y-6535D01*
X-36418Y-6430D01*
X-36441Y-6323D01*
X-36456Y-6294D01*
X-36464Y-6263D01*
X-36522Y-6170D01*
X-36573Y-6074D01*
X-36596Y-6050D01*
X-36612Y-6023D01*
X-36693Y-5950D01*
X-36770Y-5871D01*
X-36798Y-5856D01*
X-36822Y-5834D01*
X-36920Y-5786D01*
X-37015Y-5732D01*
X-37047Y-5725D01*
X-37076Y-5711D01*
X-37165Y-5697D01*
X-37290Y-5668D01*
X-37338Y-5670D01*
X-37380Y-5663D01*
X-39597Y-5663D01*
X-39692Y-5677D01*
X-39788Y-5682D01*
X-39831Y-5697D01*
X-39876Y-5703D01*
X-39964Y-5743D01*
X-40054Y-5774D01*
X-40089Y-5799D01*
X-40133Y-5819D01*
X-40230Y-5903D01*
X-40303Y-5956D01*
X-41832Y-7484D01*
X-41889Y-7561D01*
X-41954Y-7632D01*
X-41974Y-7673D01*
X-42001Y-7710D01*
X-42035Y-7800D01*
X-42077Y-7886D01*
X-42083Y-7928D01*
X-42100Y-7974D01*
X-42110Y-8101D01*
X-42124Y-8191D01*
X-42124Y-22809D01*
X-42116Y-22868D01*
X-42116Y-22882D01*
X-42112Y-22897D01*
X-42111Y-22904D01*
X-42106Y-23000D01*
X-42091Y-23043D01*
X-42084Y-23088D01*
X-42045Y-23176D01*
X-42013Y-23267D01*
X-41988Y-23301D01*
X-41968Y-23345D01*
X-41885Y-23443D01*
X-41832Y-23516D01*
X-36391Y-28957D01*
X-36314Y-29014D01*
X-36243Y-29079D01*
X-36202Y-29099D01*
X-36165Y-29126D01*
X-36075Y-29160D01*
X-35989Y-29202D01*
X-35947Y-29208D01*
X-35901Y-29225D01*
X-35774Y-29235D01*
X-35684Y-29249D01*
X15902Y-29249D01*
X17293Y-30641D01*
X19428Y-32775D01*
X19436Y-32781D01*
X19442Y-32789D01*
X19549Y-32866D01*
X19654Y-32945D01*
X19663Y-32948D01*
X19670Y-32954D01*
X19794Y-32998D01*
X19918Y-33044D01*
X19927Y-33045D01*
X19936Y-33048D01*
X20067Y-33056D01*
X20199Y-33066D01*
X20208Y-33064D01*
X20218Y-33065D01*
X20293Y-33046D01*
X20475Y-33008D01*
X20496Y-32997D01*
X20517Y-32992D01*
X21707Y-32499D01*
X24293Y-32499D01*
X26682Y-33489D01*
X28511Y-35318D01*
X29501Y-37707D01*
X29501Y-40293D01*
X28511Y-42682D01*
X28162Y-43031D01*
X28143Y-43057D01*
X28118Y-43078D01*
X28058Y-43170D01*
X27993Y-43257D01*
X27981Y-43287D01*
X27964Y-43314D01*
X27932Y-43419D01*
X27893Y-43521D01*
X27891Y-43553D01*
X27881Y-43584D01*
X27880Y-43693D01*
X27871Y-43802D01*
X27878Y-43834D01*
X27878Y-43866D01*
X27907Y-43971D01*
X27929Y-44078D01*
X27944Y-44107D01*
X27953Y-44138D01*
X28010Y-44231D01*
X28061Y-44327D01*
X28084Y-44350D01*
X28101Y-44378D01*
X28182Y-44451D01*
X28258Y-44529D01*
X28286Y-44545D01*
X28310Y-44567D01*
X28409Y-44614D01*
X28504Y-44668D01*
X28535Y-44676D01*
X28564Y-44690D01*
X28654Y-44704D01*
X28778Y-44733D01*
X28826Y-44731D01*
X28869Y-44737D01*
X35435Y-44737D01*
X35467Y-44733D01*
G37*
%LPC*%
G36*
X30446Y-15751D02*
X30446Y-15751D01*
X28249Y-13554D01*
X28249Y-10446D01*
X30446Y-8249D01*
X30784Y-8249D01*
X30816Y-8245D01*
X30848Y-8247D01*
X30955Y-8225D01*
X31063Y-8209D01*
X31093Y-8196D01*
X31124Y-8190D01*
X31221Y-8138D01*
X31320Y-8093D01*
X31345Y-8072D01*
X31373Y-8057D01*
X31452Y-7981D01*
X31535Y-7910D01*
X31552Y-7883D01*
X31575Y-7860D01*
X31629Y-7765D01*
X31689Y-7674D01*
X31699Y-7643D01*
X31714Y-7615D01*
X31740Y-7509D01*
X31771Y-7404D01*
X31772Y-7372D01*
X31779Y-7341D01*
X31774Y-7231D01*
X31775Y-7122D01*
X31767Y-7091D01*
X31765Y-7059D01*
X31729Y-6956D01*
X31700Y-6850D01*
X31683Y-6823D01*
X31673Y-6792D01*
X31619Y-6719D01*
X31552Y-6610D01*
X31516Y-6578D01*
X31491Y-6543D01*
X23516Y1432D01*
X22124Y2823D01*
X22124Y31809D01*
X22111Y31904D01*
X22106Y32000D01*
X22091Y32043D01*
X22084Y32088D01*
X22045Y32176D01*
X22013Y32267D01*
X21988Y32301D01*
X21968Y32345D01*
X21885Y32443D01*
X21832Y32516D01*
X19891Y34457D01*
X19814Y34514D01*
X19743Y34579D01*
X19702Y34599D01*
X19665Y34626D01*
X19575Y34660D01*
X19489Y34702D01*
X19447Y34708D01*
X19401Y34725D01*
X19274Y34735D01*
X19184Y34749D01*
X18692Y34749D01*
X18661Y34745D01*
X18628Y34747D01*
X18521Y34725D01*
X18413Y34709D01*
X18384Y34696D01*
X18352Y34690D01*
X18256Y34638D01*
X18156Y34593D01*
X18132Y34572D01*
X18103Y34557D01*
X18025Y34481D01*
X17942Y34410D01*
X17924Y34383D01*
X17901Y34360D01*
X17847Y34265D01*
X17788Y34174D01*
X17778Y34143D01*
X17762Y34115D01*
X17737Y34009D01*
X17705Y33904D01*
X17705Y33872D01*
X17697Y33841D01*
X17703Y33731D01*
X17701Y33622D01*
X17710Y33591D01*
X17712Y33559D01*
X17747Y33456D01*
X17777Y33350D01*
X17794Y33323D01*
X17804Y33292D01*
X17857Y33219D01*
X17925Y33110D01*
X17961Y33078D01*
X17986Y33043D01*
X19226Y31804D01*
X19226Y28696D01*
X17029Y26499D01*
X13921Y26499D01*
X11444Y28977D01*
X11393Y29015D01*
X11348Y29061D01*
X11281Y29099D01*
X11219Y29146D01*
X11158Y29169D01*
X11102Y29200D01*
X11027Y29218D01*
X10955Y29245D01*
X10891Y29250D01*
X10828Y29265D01*
X10751Y29261D01*
X10673Y29267D01*
X10611Y29254D01*
X10546Y29251D01*
X10473Y29225D01*
X10397Y29210D01*
X10341Y29179D01*
X10280Y29158D01*
X10223Y29117D01*
X10148Y29077D01*
X10088Y29018D01*
X10031Y28977D01*
X9554Y28499D01*
X6446Y28499D01*
X4249Y30696D01*
X4249Y33750D01*
X4240Y33814D01*
X4241Y33878D01*
X4220Y33953D01*
X4209Y34029D01*
X4183Y34088D01*
X4166Y34150D01*
X4125Y34216D01*
X4093Y34286D01*
X4051Y34335D01*
X4018Y34390D01*
X3960Y34442D01*
X3910Y34500D01*
X3856Y34536D01*
X3808Y34579D01*
X3739Y34612D01*
X3674Y34655D01*
X3612Y34674D01*
X3555Y34702D01*
X3485Y34713D01*
X3404Y34737D01*
X3319Y34738D01*
X3250Y34749D01*
X-434Y34749D01*
X-529Y34736D01*
X-625Y34731D01*
X-668Y34716D01*
X-713Y34709D01*
X-801Y34670D01*
X-892Y34638D01*
X-926Y34613D01*
X-970Y34593D01*
X-1068Y34510D01*
X-1141Y34457D01*
X-4207Y31391D01*
X-4264Y31314D01*
X-4329Y31243D01*
X-4349Y31202D01*
X-4376Y31165D01*
X-4410Y31075D01*
X-4452Y30989D01*
X-4458Y30947D01*
X-4475Y30901D01*
X-4485Y30774D01*
X-4499Y30684D01*
X-4499Y28446D01*
X-6696Y26249D01*
X-7250Y26249D01*
X-7314Y26240D01*
X-7378Y26241D01*
X-7453Y26220D01*
X-7529Y26209D01*
X-7588Y26183D01*
X-7650Y26166D01*
X-7716Y26125D01*
X-7786Y26093D01*
X-7835Y26051D01*
X-7890Y26018D01*
X-7942Y25960D01*
X-8000Y25910D01*
X-8036Y25856D01*
X-8079Y25808D01*
X-8112Y25739D01*
X-8155Y25674D01*
X-8174Y25612D01*
X-8202Y25555D01*
X-8213Y25485D01*
X-8237Y25404D01*
X-8238Y25319D01*
X-8249Y25250D01*
X-8249Y23446D01*
X-10446Y21249D01*
X-13554Y21249D01*
X-15751Y23446D01*
X-15751Y26554D01*
X-13554Y28751D01*
X-13000Y28751D01*
X-12936Y28760D01*
X-12872Y28759D01*
X-12797Y28780D01*
X-12721Y28791D01*
X-12662Y28817D01*
X-12600Y28834D01*
X-12534Y28875D01*
X-12464Y28907D01*
X-12415Y28949D01*
X-12360Y28982D01*
X-12308Y29040D01*
X-12250Y29090D01*
X-12214Y29144D01*
X-12171Y29192D01*
X-12138Y29261D01*
X-12095Y29326D01*
X-12076Y29388D01*
X-12048Y29445D01*
X-12037Y29515D01*
X-12013Y29596D01*
X-12012Y29681D01*
X-12001Y29750D01*
X-12001Y31554D01*
X-9804Y33751D01*
X-7566Y33751D01*
X-7471Y33764D01*
X-7375Y33769D01*
X-7332Y33784D01*
X-7287Y33791D01*
X-7199Y33830D01*
X-7108Y33862D01*
X-7074Y33887D01*
X-7030Y33907D01*
X-6932Y33990D01*
X-6859Y34043D01*
X-2402Y38501D01*
X21152Y38501D01*
X25526Y34126D01*
X25578Y34088D01*
X25623Y34042D01*
X25690Y34003D01*
X25752Y33957D01*
X25812Y33934D01*
X25868Y33903D01*
X25943Y33885D01*
X26016Y33857D01*
X26080Y33853D01*
X26142Y33838D01*
X26220Y33842D01*
X26297Y33836D01*
X26360Y33849D01*
X26424Y33852D01*
X26497Y33877D01*
X26573Y33893D01*
X26630Y33923D01*
X26691Y33945D01*
X26747Y33986D01*
X26822Y34026D01*
X26883Y34085D01*
X26940Y34126D01*
X27071Y34258D01*
X30179Y34258D01*
X32376Y32061D01*
X32376Y28954D01*
X30179Y26757D01*
X26875Y26757D01*
X26811Y26748D01*
X26747Y26748D01*
X26672Y26728D01*
X26596Y26717D01*
X26537Y26690D01*
X26475Y26673D01*
X26409Y26633D01*
X26339Y26601D01*
X26290Y26559D01*
X26235Y26525D01*
X26183Y26468D01*
X26125Y26417D01*
X26089Y26363D01*
X26046Y26316D01*
X26013Y26246D01*
X25970Y26181D01*
X25951Y26120D01*
X25923Y26062D01*
X25912Y25993D01*
X25888Y25912D01*
X25887Y25827D01*
X25876Y25757D01*
X25876Y4791D01*
X25889Y4696D01*
X25894Y4600D01*
X25909Y4557D01*
X25916Y4512D01*
X25955Y4424D01*
X25987Y4333D01*
X26012Y4299D01*
X26032Y4255D01*
X26115Y4157D01*
X26168Y4084D01*
X38209Y-7957D01*
X38286Y-8014D01*
X38357Y-8079D01*
X38398Y-8099D01*
X38435Y-8126D01*
X38525Y-8160D01*
X38611Y-8202D01*
X38653Y-8208D01*
X38699Y-8225D01*
X38826Y-8235D01*
X38916Y-8249D01*
X41154Y-8249D01*
X43351Y-10446D01*
X43351Y-13554D01*
X41154Y-15751D01*
X38046Y-15751D01*
X36507Y-14211D01*
X36455Y-14172D01*
X36410Y-14126D01*
X36343Y-14088D01*
X36281Y-14042D01*
X36221Y-14019D01*
X36165Y-13987D01*
X36090Y-13969D01*
X36017Y-13942D01*
X35953Y-13937D01*
X35891Y-13922D01*
X35813Y-13926D01*
X35736Y-13920D01*
X35673Y-13933D01*
X35609Y-13937D01*
X35536Y-13962D01*
X35460Y-13978D01*
X35403Y-14008D01*
X35342Y-14029D01*
X35286Y-14071D01*
X35211Y-14110D01*
X35150Y-14170D01*
X35093Y-14211D01*
X33554Y-15751D01*
X30446Y-15751D01*
G37*
%LPD*%
%LPC*%
G36*
X-4054Y-13751D02*
X-4054Y-13751D01*
X-6251Y-11554D01*
X-6251Y-8446D01*
X-4043Y-6239D01*
X-3986Y-6162D01*
X-3921Y-6091D01*
X-3901Y-6050D01*
X-3874Y-6013D01*
X-3840Y-5923D01*
X-3798Y-5837D01*
X-3792Y-5795D01*
X-3775Y-5750D01*
X-3765Y-5622D01*
X-3751Y-5532D01*
X-3751Y-2446D01*
X-3011Y-1707D01*
X-2972Y-1655D01*
X-2926Y-1610D01*
X-2888Y-1543D01*
X-2842Y-1481D01*
X-2819Y-1421D01*
X-2787Y-1365D01*
X-2769Y-1290D01*
X-2742Y-1217D01*
X-2737Y-1153D01*
X-2722Y-1091D01*
X-2726Y-1013D01*
X-2720Y-936D01*
X-2733Y-873D01*
X-2737Y-809D01*
X-2762Y-736D01*
X-2778Y-660D01*
X-2808Y-603D01*
X-2829Y-542D01*
X-2871Y-486D01*
X-2910Y-411D01*
X-2970Y-350D01*
X-3011Y-293D01*
X-4751Y1446D01*
X-4751Y2250D01*
X-4760Y2312D01*
X-4759Y2355D01*
X-4759Y2356D01*
X-4759Y2378D01*
X-4780Y2453D01*
X-4791Y2529D01*
X-4817Y2588D01*
X-4834Y2650D01*
X-4875Y2716D01*
X-4907Y2786D01*
X-4949Y2835D01*
X-4982Y2890D01*
X-5040Y2942D01*
X-5090Y3000D01*
X-5144Y3036D01*
X-5192Y3079D01*
X-5261Y3112D01*
X-5326Y3155D01*
X-5388Y3174D01*
X-5445Y3202D01*
X-5515Y3213D01*
X-5596Y3237D01*
X-5681Y3238D01*
X-5750Y3249D01*
X-7554Y3249D01*
X-9751Y5446D01*
X-9751Y8554D01*
X-7554Y10751D01*
X-4446Y10751D01*
X-2249Y8554D01*
X-2249Y7750D01*
X-2240Y7686D01*
X-2241Y7622D01*
X-2220Y7547D01*
X-2209Y7471D01*
X-2183Y7412D01*
X-2166Y7350D01*
X-2125Y7284D01*
X-2093Y7214D01*
X-2051Y7165D01*
X-2018Y7110D01*
X-1960Y7058D01*
X-1910Y7000D01*
X-1856Y6964D01*
X-1808Y6921D01*
X-1739Y6888D01*
X-1674Y6845D01*
X-1612Y6826D01*
X-1555Y6798D01*
X-1485Y6787D01*
X-1404Y6763D01*
X-1319Y6762D01*
X-1250Y6751D01*
X554Y6751D01*
X2751Y4554D01*
X2751Y1446D01*
X2011Y707D01*
X1972Y655D01*
X1926Y610D01*
X1888Y543D01*
X1842Y481D01*
X1819Y421D01*
X1787Y365D01*
X1769Y290D01*
X1742Y217D01*
X1737Y153D01*
X1722Y91D01*
X1726Y13D01*
X1720Y-64D01*
X1733Y-127D01*
X1737Y-191D01*
X1762Y-264D01*
X1778Y-340D01*
X1808Y-397D01*
X1829Y-458D01*
X1871Y-514D01*
X1910Y-589D01*
X1970Y-650D01*
X2011Y-707D01*
X3751Y-2446D01*
X3751Y-5554D01*
X1543Y-7761D01*
X1486Y-7838D01*
X1421Y-7909D01*
X1401Y-7950D01*
X1374Y-7987D01*
X1340Y-8077D01*
X1298Y-8163D01*
X1292Y-8205D01*
X1275Y-8250D01*
X1265Y-8378D01*
X1251Y-8468D01*
X1251Y-11554D01*
X-946Y-13751D01*
X-4054Y-13751D01*
G37*
%LPD*%
%LPC*%
G36*
X33636Y6499D02*
X33636Y6499D01*
X30999Y9136D01*
X30999Y12864D01*
X33636Y15501D01*
X37364Y15501D01*
X40001Y12864D01*
X40001Y9136D01*
X37364Y6499D01*
X33636Y6499D01*
G37*
%LPD*%
%LPC*%
G36*
X-23554Y23249D02*
X-23554Y23249D01*
X-25751Y25446D01*
X-25751Y28554D01*
X-23554Y30751D01*
X-20446Y30751D01*
X-18249Y28554D01*
X-18249Y25446D01*
X-20446Y23249D01*
X-23554Y23249D01*
G37*
%LPD*%
%LPC*%
G36*
X9446Y4249D02*
X9446Y4249D01*
X7249Y6446D01*
X7249Y9554D01*
X9446Y11751D01*
X12554Y11751D01*
X14751Y9554D01*
X14751Y6446D01*
X12554Y4249D01*
X9446Y4249D01*
G37*
%LPD*%
%LPC*%
G36*
X13946Y-8751D02*
X13946Y-8751D01*
X11749Y-6554D01*
X11749Y-3446D01*
X13946Y-1249D01*
X17054Y-1249D01*
X19251Y-3446D01*
X19251Y-6554D01*
X17054Y-8751D01*
X13946Y-8751D01*
G37*
%LPD*%
D10*
X51000Y29150D03*
X43850Y22000D03*
X51000Y14850D03*
X51000Y-15850D03*
X43850Y-23000D03*
X51000Y-30150D03*
D11*
X-40400Y-39000D03*
X-27700Y-39000D03*
X-15000Y-39000D03*
X-2300Y-39000D03*
X10400Y-39000D03*
D12*
X43000Y38500D03*
X42000Y-38500D03*
D13*
X-34000Y-10000D03*
X-27000Y-10000D03*
X-6000Y7000D03*
X0Y-4000D03*
X-12000Y25000D03*
X-2500Y-10000D03*
D11*
X23000Y-39000D03*
D13*
X-23788Y-3788D03*
D14*
X15125Y-31125D02*
X23000Y-39000D01*
X-36875Y-31125D02*
X-44000Y-24000D01*
X-44000Y-7000D01*
X-40788Y-3788D02*
X-23788Y-3788D01*
X-36875Y-31125D02*
X15125Y-31125D01*
X-40788Y-3788D02*
X-44000Y-7000D01*
D13*
X-22000Y27000D03*
X-1000Y3000D03*
X11000Y8000D03*
X-43000Y40000D03*
X32000Y-12000D03*
X15500Y-5000D03*
D15*
X35500Y11000D03*
D13*
X12000Y-26000D03*
X-1000Y30000D03*
X-38000Y-16000D03*
X29000Y-27000D03*
X-19000Y-15000D03*
X39600Y-12000D03*
X-8250Y30000D03*
D14*
X24000Y3600D02*
X39600Y-12000D01*
X24000Y3600D02*
X24000Y33000D01*
X20375Y36625D02*
X-1625Y36625D01*
X20375Y36625D02*
X24000Y33000D01*
X-1625Y36625D02*
X-8250Y30000D01*
D13*
X15475Y30250D03*
X8000Y32250D03*
X56500Y6000D03*
X28625Y30507D03*
M02*
