G04 EAGLE Gerber RS-274X export*
G75*
%MOMM*%
%FSLAX34Y34*%
%LPD*%
%INTop Copper*%
%IPPOS*%
%AMOC8*
5,1,8,0,0,1.08239X$1,22.5*%
G01*
%ADD10R,0.240000X0.600000*%
%ADD11R,2.400000X1.650000*%
%ADD12C,0.250000*%
%ADD13R,0.800000X0.800000*%
%ADD14R,0.900000X0.700000*%
%ADD15R,0.700000X0.900000*%
%ADD16C,0.650000*%
%ADD17C,1.050000*%
%ADD18R,1.500000X0.400000*%
%ADD19R,1.500000X1.000000*%
%ADD20R,0.280000X0.430000*%
%ADD21P,1.319650X8X112.500000*%
%ADD22C,0.450000*%
%ADD23C,0.125000*%
%ADD24C,0.200000*%
%ADD25C,0.600000*%

G36*
X-41582Y-19745D02*
X-41582Y-19745D01*
X-41550Y-19747D01*
X-41443Y-19725D01*
X-41335Y-19709D01*
X-41305Y-19696D01*
X-41274Y-19690D01*
X-41177Y-19638D01*
X-41078Y-19593D01*
X-41053Y-19572D01*
X-41025Y-19557D01*
X-40946Y-19481D01*
X-40863Y-19410D01*
X-40846Y-19383D01*
X-40823Y-19360D01*
X-40769Y-19265D01*
X-40709Y-19174D01*
X-40700Y-19143D01*
X-40684Y-19115D01*
X-40658Y-19009D01*
X-40627Y-18904D01*
X-40626Y-18872D01*
X-40619Y-18841D01*
X-40624Y-18731D01*
X-40623Y-18622D01*
X-40631Y-18591D01*
X-40633Y-18559D01*
X-40669Y-18456D01*
X-40698Y-18350D01*
X-40715Y-18323D01*
X-40726Y-18292D01*
X-40779Y-18219D01*
X-40846Y-18110D01*
X-40882Y-18078D01*
X-40907Y-18043D01*
X-41501Y-17450D01*
X-41501Y-14550D01*
X-39450Y-12499D01*
X-38500Y-12499D01*
X-38436Y-12490D01*
X-38372Y-12491D01*
X-38297Y-12470D01*
X-38221Y-12459D01*
X-38162Y-12433D01*
X-38100Y-12416D01*
X-38034Y-12375D01*
X-37964Y-12343D01*
X-37915Y-12301D01*
X-37860Y-12268D01*
X-37808Y-12210D01*
X-37750Y-12160D01*
X-37714Y-12106D01*
X-37671Y-12058D01*
X-37638Y-11989D01*
X-37595Y-11924D01*
X-37576Y-11862D01*
X-37548Y-11805D01*
X-37537Y-11735D01*
X-37513Y-11654D01*
X-37512Y-11569D01*
X-37501Y-11500D01*
X-37501Y-8550D01*
X-35450Y-6499D01*
X-32550Y-6499D01*
X-31207Y-7843D01*
X-31155Y-7881D01*
X-31110Y-7927D01*
X-31043Y-7965D01*
X-30981Y-8012D01*
X-30921Y-8035D01*
X-30865Y-8066D01*
X-30790Y-8084D01*
X-30717Y-8111D01*
X-30653Y-8116D01*
X-30591Y-8131D01*
X-30513Y-8127D01*
X-30436Y-8133D01*
X-30373Y-8120D01*
X-30309Y-8117D01*
X-30236Y-8091D01*
X-30160Y-8076D01*
X-30103Y-8045D01*
X-30042Y-8024D01*
X-29986Y-7983D01*
X-29911Y-7943D01*
X-29850Y-7884D01*
X-29793Y-7843D01*
X-28450Y-6499D01*
X-28288Y-6499D01*
X-28224Y-6490D01*
X-28160Y-6491D01*
X-28085Y-6470D01*
X-28008Y-6459D01*
X-27950Y-6433D01*
X-27888Y-6416D01*
X-27822Y-6375D01*
X-27752Y-6343D01*
X-27703Y-6301D01*
X-27648Y-6268D01*
X-27596Y-6210D01*
X-27537Y-6160D01*
X-27502Y-6106D01*
X-27459Y-6058D01*
X-27425Y-5989D01*
X-27383Y-5924D01*
X-27364Y-5862D01*
X-27336Y-5805D01*
X-27325Y-5735D01*
X-27300Y-5654D01*
X-27299Y-5569D01*
X-27288Y-5500D01*
X-27288Y-2338D01*
X-25238Y-287D01*
X-22338Y-287D01*
X-21168Y-1457D01*
X-21091Y-1514D01*
X-21020Y-1579D01*
X-20979Y-1599D01*
X-20942Y-1626D01*
X-20852Y-1660D01*
X-20766Y-1702D01*
X-20724Y-1708D01*
X-20679Y-1725D01*
X-20551Y-1735D01*
X-20461Y-1749D01*
X-4482Y-1749D01*
X-4400Y-1832D01*
X-4323Y-1889D01*
X-4251Y-1954D01*
X-4210Y-1974D01*
X-4174Y-2001D01*
X-4084Y-2035D01*
X-3998Y-2077D01*
X-3956Y-2083D01*
X-3910Y-2100D01*
X-3783Y-2110D01*
X-3693Y-2124D01*
X-3489Y-2124D01*
X-3394Y-2111D01*
X-3298Y-2106D01*
X-3255Y-2091D01*
X-3210Y-2084D01*
X-3122Y-2045D01*
X-3031Y-2013D01*
X-2997Y-1988D01*
X-2953Y-1968D01*
X-2856Y-1885D01*
X-2782Y-1832D01*
X-1450Y-499D01*
X1485Y-499D01*
X1569Y-562D01*
X1599Y-573D01*
X1626Y-591D01*
X1731Y-623D01*
X1833Y-661D01*
X1865Y-664D01*
X1896Y-673D01*
X2005Y-675D01*
X2114Y-683D01*
X2146Y-677D01*
X2178Y-677D01*
X2283Y-648D01*
X2390Y-626D01*
X2419Y-611D01*
X2450Y-602D01*
X2543Y-544D01*
X2639Y-493D01*
X2662Y-471D01*
X2690Y-454D01*
X2763Y-373D01*
X2841Y-297D01*
X2857Y-269D01*
X2879Y-245D01*
X2926Y-146D01*
X2980Y-51D01*
X2988Y-20D01*
X3002Y9D01*
X3016Y99D01*
X3045Y223D01*
X3043Y272D01*
X3049Y314D01*
X3049Y1518D01*
X3782Y2251D01*
X7218Y2251D01*
X7293Y2175D01*
X7345Y2137D01*
X7390Y2091D01*
X7457Y2053D01*
X7519Y2006D01*
X7579Y1983D01*
X7635Y1952D01*
X7710Y1934D01*
X7783Y1907D01*
X7847Y1902D01*
X7909Y1887D01*
X7987Y1891D01*
X8064Y1885D01*
X8127Y1898D01*
X8191Y1901D01*
X8264Y1927D01*
X8340Y1942D01*
X8397Y1973D01*
X8458Y1994D01*
X8514Y2035D01*
X8589Y2075D01*
X8650Y2134D01*
X8707Y2175D01*
X8782Y2251D01*
X12218Y2251D01*
X12951Y1518D01*
X12951Y-500D01*
X12964Y-595D01*
X12969Y-691D01*
X12984Y-734D01*
X12991Y-779D01*
X13001Y-802D01*
X13001Y-5435D01*
X13014Y-5530D01*
X13019Y-5626D01*
X13034Y-5669D01*
X13041Y-5714D01*
X13080Y-5801D01*
X13112Y-5892D01*
X13137Y-5927D01*
X13157Y-5971D01*
X13240Y-6068D01*
X13293Y-6141D01*
X14251Y-7099D01*
X14251Y-15000D01*
X14260Y-15064D01*
X14259Y-15128D01*
X14280Y-15203D01*
X14291Y-15279D01*
X14317Y-15338D01*
X14334Y-15400D01*
X14375Y-15466D01*
X14407Y-15536D01*
X14449Y-15585D01*
X14482Y-15640D01*
X14540Y-15692D01*
X14590Y-15750D01*
X14644Y-15786D01*
X14692Y-15829D01*
X14761Y-15862D01*
X14826Y-15905D01*
X14888Y-15924D01*
X14945Y-15952D01*
X15015Y-15963D01*
X15096Y-15987D01*
X15181Y-15988D01*
X15250Y-15999D01*
X36236Y-15999D01*
X36268Y-15995D01*
X36300Y-15997D01*
X36407Y-15975D01*
X36515Y-15959D01*
X36545Y-15946D01*
X36576Y-15940D01*
X36673Y-15888D01*
X36772Y-15843D01*
X36797Y-15822D01*
X36825Y-15807D01*
X36904Y-15731D01*
X36987Y-15660D01*
X37004Y-15633D01*
X37027Y-15610D01*
X37081Y-15515D01*
X37141Y-15424D01*
X37150Y-15393D01*
X37166Y-15365D01*
X37192Y-15259D01*
X37223Y-15154D01*
X37224Y-15122D01*
X37231Y-15091D01*
X37226Y-14981D01*
X37227Y-14872D01*
X37219Y-14841D01*
X37217Y-14809D01*
X37181Y-14706D01*
X37152Y-14600D01*
X37135Y-14573D01*
X37124Y-14542D01*
X37071Y-14469D01*
X37004Y-14360D01*
X36968Y-14328D01*
X36943Y-14293D01*
X36099Y-13450D01*
X36099Y-11566D01*
X36086Y-11471D01*
X36081Y-11375D01*
X36066Y-11332D01*
X36059Y-11287D01*
X36020Y-11199D01*
X35988Y-11108D01*
X35963Y-11074D01*
X35943Y-11030D01*
X35860Y-10932D01*
X35807Y-10859D01*
X34466Y-9519D01*
X34459Y-9471D01*
X34433Y-9412D01*
X34416Y-9350D01*
X34375Y-9284D01*
X34343Y-9214D01*
X34301Y-9165D01*
X34268Y-9110D01*
X34210Y-9058D01*
X34160Y-9000D01*
X34106Y-8964D01*
X34058Y-8921D01*
X33989Y-8888D01*
X33924Y-8845D01*
X33862Y-8826D01*
X33805Y-8798D01*
X33735Y-8787D01*
X33654Y-8763D01*
X33569Y-8762D01*
X33500Y-8751D01*
X22746Y-8751D01*
X20539Y-6543D01*
X20462Y-6486D01*
X20391Y-6421D01*
X20350Y-6401D01*
X20314Y-6374D01*
X20223Y-6340D01*
X20137Y-6298D01*
X20095Y-6292D01*
X20050Y-6275D01*
X19922Y-6265D01*
X19833Y-6251D01*
X18782Y-6251D01*
X18049Y-5518D01*
X18049Y1518D01*
X18782Y2251D01*
X22218Y2251D01*
X22293Y2175D01*
X22345Y2137D01*
X22390Y2091D01*
X22457Y2053D01*
X22519Y2006D01*
X22579Y1983D01*
X22635Y1952D01*
X22710Y1934D01*
X22783Y1907D01*
X22847Y1902D01*
X22909Y1887D01*
X22987Y1891D01*
X23064Y1885D01*
X23127Y1898D01*
X23191Y1901D01*
X23264Y1927D01*
X23340Y1942D01*
X23397Y1973D01*
X23458Y1994D01*
X23514Y2035D01*
X23589Y2075D01*
X23650Y2134D01*
X23707Y2175D01*
X23782Y2251D01*
X27218Y2251D01*
X28093Y1375D01*
X28145Y1337D01*
X28190Y1291D01*
X28257Y1253D01*
X28319Y1206D01*
X28379Y1183D01*
X28435Y1152D01*
X28510Y1134D01*
X28583Y1107D01*
X28647Y1102D01*
X28709Y1087D01*
X28787Y1091D01*
X28864Y1085D01*
X28927Y1098D01*
X28991Y1101D01*
X29064Y1127D01*
X29140Y1142D01*
X29197Y1173D01*
X29258Y1194D01*
X29314Y1235D01*
X29389Y1275D01*
X29450Y1334D01*
X29507Y1375D01*
X29532Y1401D01*
X33380Y1401D01*
X33390Y1391D01*
X33457Y1353D01*
X33519Y1306D01*
X33579Y1283D01*
X33635Y1252D01*
X33710Y1234D01*
X33783Y1207D01*
X33847Y1202D01*
X33910Y1187D01*
X33987Y1191D01*
X34064Y1185D01*
X34127Y1198D01*
X34191Y1201D01*
X34264Y1227D01*
X34340Y1242D01*
X34397Y1273D01*
X34458Y1294D01*
X34514Y1335D01*
X34589Y1375D01*
X34616Y1401D01*
X38468Y1401D01*
X39201Y668D01*
X39201Y-1054D01*
X39214Y-1149D01*
X39219Y-1245D01*
X39234Y-1288D01*
X39241Y-1333D01*
X39280Y-1421D01*
X39312Y-1511D01*
X39337Y-1546D01*
X39357Y-1590D01*
X39440Y-1687D01*
X39493Y-1760D01*
X45540Y-7807D01*
X45617Y-7864D01*
X45688Y-7929D01*
X45729Y-7949D01*
X45765Y-7976D01*
X45855Y-8010D01*
X45942Y-8052D01*
X45984Y-8058D01*
X46029Y-8075D01*
X46157Y-8085D01*
X46246Y-8099D01*
X54211Y-8099D01*
X57140Y-11028D01*
X59031Y-12920D01*
X59057Y-12940D01*
X59078Y-12964D01*
X59170Y-13024D01*
X59257Y-13090D01*
X59287Y-13101D01*
X59314Y-13119D01*
X59419Y-13151D01*
X59521Y-13189D01*
X59553Y-13192D01*
X59584Y-13201D01*
X59693Y-13202D01*
X59802Y-13211D01*
X59834Y-13204D01*
X59866Y-13205D01*
X59971Y-13176D01*
X60078Y-13153D01*
X60107Y-13138D01*
X60138Y-13130D01*
X60231Y-13072D01*
X60327Y-13021D01*
X60350Y-12998D01*
X60378Y-12981D01*
X60451Y-12900D01*
X60529Y-12824D01*
X60545Y-12796D01*
X60567Y-12772D01*
X60614Y-12674D01*
X60668Y-12579D01*
X60676Y-12547D01*
X60690Y-12518D01*
X60704Y-12429D01*
X60733Y-12304D01*
X60731Y-12256D01*
X60737Y-12214D01*
X60737Y2874D01*
X60733Y2906D01*
X60735Y2938D01*
X60713Y3045D01*
X60697Y3153D01*
X60684Y3183D01*
X60678Y3214D01*
X60626Y3311D01*
X60581Y3410D01*
X60560Y3435D01*
X60545Y3463D01*
X60469Y3541D01*
X60398Y3625D01*
X60371Y3642D01*
X60348Y3665D01*
X60253Y3719D01*
X60162Y3779D01*
X60131Y3788D01*
X60103Y3804D01*
X59997Y3830D01*
X59892Y3861D01*
X59860Y3862D01*
X59829Y3869D01*
X59719Y3864D01*
X59610Y3865D01*
X59579Y3857D01*
X59547Y3855D01*
X59444Y3819D01*
X59338Y3790D01*
X59311Y3773D01*
X59280Y3762D01*
X59207Y3709D01*
X59098Y3642D01*
X59066Y3606D01*
X59031Y3581D01*
X57950Y2499D01*
X55050Y2499D01*
X52999Y4550D01*
X52999Y7450D01*
X53707Y8157D01*
X53764Y8234D01*
X53829Y8306D01*
X53849Y8347D01*
X53876Y8383D01*
X53910Y8473D01*
X53952Y8559D01*
X53958Y8601D01*
X53975Y8647D01*
X53985Y8774D01*
X53999Y8864D01*
X53999Y9350D01*
X53990Y9414D01*
X53991Y9478D01*
X53970Y9553D01*
X53959Y9629D01*
X53933Y9688D01*
X53916Y9750D01*
X53875Y9816D01*
X53843Y9886D01*
X53801Y9935D01*
X53768Y9990D01*
X53710Y10042D01*
X53660Y10100D01*
X53606Y10136D01*
X53558Y10179D01*
X53489Y10212D01*
X53424Y10255D01*
X53362Y10274D01*
X53305Y10302D01*
X53235Y10313D01*
X53154Y10337D01*
X53069Y10338D01*
X53000Y10349D01*
X49136Y10349D01*
X46499Y12986D01*
X46499Y16714D01*
X49136Y19351D01*
X53250Y19351D01*
X53314Y19360D01*
X53378Y19359D01*
X53453Y19380D01*
X53529Y19391D01*
X53588Y19417D01*
X53650Y19434D01*
X53716Y19475D01*
X53786Y19507D01*
X53835Y19549D01*
X53890Y19582D01*
X53942Y19640D01*
X54000Y19690D01*
X54036Y19744D01*
X54079Y19792D01*
X54112Y19861D01*
X54155Y19926D01*
X54174Y19988D01*
X54202Y20045D01*
X54213Y20115D01*
X54237Y20196D01*
X54238Y20281D01*
X54249Y20350D01*
X54249Y21950D01*
X54236Y22045D01*
X54231Y22141D01*
X54216Y22184D01*
X54209Y22229D01*
X54170Y22317D01*
X54138Y22408D01*
X54113Y22442D01*
X54093Y22486D01*
X54010Y22584D01*
X53957Y22657D01*
X52257Y24357D01*
X52180Y24414D01*
X52109Y24479D01*
X52068Y24499D01*
X52031Y24526D01*
X51941Y24560D01*
X51855Y24602D01*
X51813Y24608D01*
X51767Y24625D01*
X51640Y24635D01*
X51550Y24649D01*
X49136Y24649D01*
X46499Y27286D01*
X46499Y30154D01*
X46490Y30218D01*
X46491Y30282D01*
X46470Y30357D01*
X46459Y30433D01*
X46433Y30492D01*
X46416Y30554D01*
X46375Y30620D01*
X46343Y30690D01*
X46301Y30739D01*
X46268Y30794D01*
X46210Y30846D01*
X46160Y30904D01*
X46106Y30940D01*
X46058Y30983D01*
X45989Y31016D01*
X45924Y31059D01*
X45862Y31078D01*
X45805Y31106D01*
X45735Y31117D01*
X45654Y31141D01*
X45569Y31142D01*
X45500Y31153D01*
X39957Y31153D01*
X35653Y35457D01*
X35653Y41543D01*
X37142Y43031D01*
X37161Y43057D01*
X37185Y43078D01*
X37246Y43170D01*
X37311Y43257D01*
X37322Y43287D01*
X37340Y43314D01*
X37372Y43419D01*
X37410Y43521D01*
X37413Y43553D01*
X37422Y43584D01*
X37424Y43693D01*
X37432Y43802D01*
X37426Y43834D01*
X37426Y43866D01*
X37397Y43971D01*
X37375Y44078D01*
X37359Y44107D01*
X37351Y44138D01*
X37294Y44231D01*
X37242Y44327D01*
X37220Y44350D01*
X37203Y44378D01*
X37122Y44451D01*
X37045Y44529D01*
X37017Y44545D01*
X36993Y44567D01*
X36895Y44614D01*
X36800Y44668D01*
X36769Y44676D01*
X36740Y44690D01*
X36650Y44704D01*
X36526Y44733D01*
X36477Y44731D01*
X36435Y44737D01*
X21250Y44737D01*
X21186Y44728D01*
X21122Y44729D01*
X21047Y44708D01*
X20971Y44697D01*
X20912Y44671D01*
X20850Y44654D01*
X20784Y44613D01*
X20714Y44581D01*
X20665Y44539D01*
X20610Y44506D01*
X20558Y44448D01*
X20500Y44398D01*
X20464Y44344D01*
X20421Y44296D01*
X20388Y44227D01*
X20345Y44162D01*
X20326Y44100D01*
X20298Y44043D01*
X20287Y43973D01*
X20263Y43892D01*
X20262Y43807D01*
X20251Y43738D01*
X20251Y34375D01*
X20264Y34280D01*
X20269Y34183D01*
X20284Y34140D01*
X20291Y34095D01*
X20330Y34008D01*
X20362Y33917D01*
X20387Y33883D01*
X20407Y33838D01*
X20490Y33741D01*
X20543Y33668D01*
X22476Y31736D01*
X22476Y31250D01*
X22485Y31186D01*
X22484Y31122D01*
X22505Y31047D01*
X22516Y30971D01*
X22542Y30912D01*
X22559Y30850D01*
X22600Y30784D01*
X22632Y30714D01*
X22674Y30665D01*
X22707Y30610D01*
X22765Y30558D01*
X22815Y30500D01*
X22869Y30464D01*
X22917Y30421D01*
X22986Y30388D01*
X23051Y30345D01*
X23113Y30326D01*
X23170Y30298D01*
X23240Y30287D01*
X23321Y30263D01*
X23406Y30262D01*
X23475Y30251D01*
X24125Y30251D01*
X24189Y30260D01*
X24253Y30259D01*
X24328Y30280D01*
X24404Y30291D01*
X24463Y30317D01*
X24525Y30334D01*
X24591Y30375D01*
X24661Y30407D01*
X24710Y30449D01*
X24765Y30482D01*
X24817Y30540D01*
X24875Y30590D01*
X24911Y30644D01*
X24954Y30692D01*
X24987Y30761D01*
X25030Y30826D01*
X25049Y30888D01*
X25077Y30945D01*
X25088Y31015D01*
X25112Y31096D01*
X25113Y31181D01*
X25124Y31250D01*
X25124Y31958D01*
X27175Y34008D01*
X30075Y34008D01*
X32126Y31958D01*
X32126Y29057D01*
X30070Y27002D01*
X30009Y26993D01*
X29912Y26988D01*
X29869Y26973D01*
X29824Y26967D01*
X29737Y26927D01*
X29646Y26896D01*
X29612Y26871D01*
X29567Y26851D01*
X29470Y26767D01*
X29397Y26714D01*
X28243Y25560D01*
X28186Y25484D01*
X28121Y25412D01*
X28101Y25371D01*
X28074Y25335D01*
X28040Y25245D01*
X27998Y25158D01*
X27992Y25116D01*
X27975Y25071D01*
X27965Y24943D01*
X27951Y24854D01*
X27951Y22482D01*
X27218Y21749D01*
X23782Y21749D01*
X23707Y21825D01*
X23655Y21863D01*
X23610Y21909D01*
X23543Y21947D01*
X23481Y21994D01*
X23421Y22017D01*
X23365Y22048D01*
X23290Y22066D01*
X23217Y22093D01*
X23153Y22098D01*
X23091Y22113D01*
X23013Y22109D01*
X22936Y22115D01*
X22873Y22102D01*
X22809Y22099D01*
X22736Y22073D01*
X22660Y22058D01*
X22603Y22027D01*
X22542Y22006D01*
X22486Y21965D01*
X22411Y21925D01*
X22350Y21866D01*
X22293Y21825D01*
X22218Y21749D01*
X18782Y21749D01*
X18707Y21825D01*
X18655Y21863D01*
X18610Y21909D01*
X18543Y21947D01*
X18481Y21994D01*
X18421Y22017D01*
X18365Y22048D01*
X18290Y22066D01*
X18217Y22093D01*
X18153Y22098D01*
X18091Y22113D01*
X18013Y22109D01*
X17936Y22115D01*
X17873Y22102D01*
X17809Y22099D01*
X17736Y22073D01*
X17660Y22058D01*
X17603Y22027D01*
X17542Y22006D01*
X17486Y21965D01*
X17411Y21925D01*
X17350Y21866D01*
X17293Y21825D01*
X17218Y21749D01*
X13782Y21749D01*
X13707Y21825D01*
X13655Y21863D01*
X13610Y21909D01*
X13543Y21947D01*
X13481Y21994D01*
X13421Y22017D01*
X13365Y22048D01*
X13290Y22066D01*
X13217Y22093D01*
X13153Y22098D01*
X13091Y22113D01*
X13013Y22109D01*
X12936Y22115D01*
X12873Y22102D01*
X12809Y22099D01*
X12736Y22073D01*
X12660Y22058D01*
X12603Y22027D01*
X12542Y22006D01*
X12486Y21965D01*
X12411Y21925D01*
X12350Y21866D01*
X12293Y21825D01*
X12218Y21749D01*
X8782Y21749D01*
X8707Y21825D01*
X8655Y21863D01*
X8610Y21909D01*
X8543Y21947D01*
X8481Y21994D01*
X8421Y22017D01*
X8365Y22048D01*
X8290Y22066D01*
X8217Y22093D01*
X8153Y22098D01*
X8091Y22113D01*
X8013Y22109D01*
X7936Y22115D01*
X7873Y22102D01*
X7809Y22099D01*
X7736Y22073D01*
X7660Y22058D01*
X7603Y22027D01*
X7542Y22006D01*
X7486Y21965D01*
X7411Y21925D01*
X7350Y21866D01*
X7293Y21825D01*
X7218Y21749D01*
X3782Y21749D01*
X3049Y22482D01*
X3049Y24500D01*
X3036Y24595D01*
X3031Y24691D01*
X3016Y24734D01*
X3009Y24779D01*
X2970Y24867D01*
X2938Y24958D01*
X2913Y24992D01*
X2893Y25036D01*
X2810Y25134D01*
X2757Y25207D01*
X1664Y26300D01*
X1612Y26338D01*
X1567Y26384D01*
X1500Y26423D01*
X1438Y26469D01*
X1378Y26492D01*
X1322Y26523D01*
X1247Y26541D01*
X1174Y26569D01*
X1110Y26574D01*
X1047Y26588D01*
X970Y26584D01*
X893Y26590D01*
X830Y26577D01*
X766Y26574D01*
X693Y26549D01*
X617Y26533D01*
X560Y26503D01*
X551Y26499D01*
X-2450Y26499D01*
X-3918Y27968D01*
X-3970Y28006D01*
X-4015Y28052D01*
X-4082Y28090D01*
X-4144Y28137D01*
X-4204Y28160D01*
X-4260Y28191D01*
X-4335Y28209D01*
X-4408Y28236D01*
X-4472Y28241D01*
X-4535Y28256D01*
X-4612Y28252D01*
X-4689Y28258D01*
X-4752Y28245D01*
X-4816Y28242D01*
X-4889Y28216D01*
X-4965Y28201D01*
X-5022Y28170D01*
X-5083Y28149D01*
X-5139Y28108D01*
X-5214Y28068D01*
X-5275Y28009D01*
X-5332Y27968D01*
X-6800Y26499D01*
X-7500Y26499D01*
X-7564Y26490D01*
X-7628Y26491D01*
X-7703Y26470D01*
X-7779Y26459D01*
X-7838Y26433D01*
X-7900Y26416D01*
X-7966Y26375D01*
X-8036Y26343D01*
X-8085Y26301D01*
X-8140Y26268D01*
X-8192Y26210D01*
X-8250Y26160D01*
X-8286Y26106D01*
X-8329Y26058D01*
X-8362Y25989D01*
X-8405Y25924D01*
X-8424Y25862D01*
X-8452Y25805D01*
X-8463Y25735D01*
X-8487Y25654D01*
X-8488Y25569D01*
X-8499Y25500D01*
X-8499Y23550D01*
X-10550Y21499D01*
X-13450Y21499D01*
X-15501Y23550D01*
X-15501Y26434D01*
X-15514Y26529D01*
X-15519Y26625D01*
X-15534Y26668D01*
X-15541Y26713D01*
X-15580Y26801D01*
X-15612Y26892D01*
X-15637Y26926D01*
X-15657Y26970D01*
X-15740Y27068D01*
X-15793Y27141D01*
X-17376Y28723D01*
X-17376Y32250D01*
X-17384Y32310D01*
X-17384Y32333D01*
X-17385Y32335D01*
X-17384Y32378D01*
X-17405Y32453D01*
X-17416Y32529D01*
X-17442Y32588D01*
X-17459Y32650D01*
X-17500Y32716D01*
X-17532Y32786D01*
X-17574Y32835D01*
X-17607Y32890D01*
X-17665Y32942D01*
X-17715Y33000D01*
X-17769Y33036D01*
X-17817Y33079D01*
X-17886Y33112D01*
X-17951Y33155D01*
X-18013Y33174D01*
X-18070Y33202D01*
X-18140Y33213D01*
X-18221Y33237D01*
X-18306Y33238D01*
X-18375Y33249D01*
X-19518Y33249D01*
X-20251Y33982D01*
X-20251Y43738D01*
X-20260Y43802D01*
X-20259Y43866D01*
X-20280Y43941D01*
X-20291Y44017D01*
X-20317Y44076D01*
X-20334Y44138D01*
X-20375Y44204D01*
X-20407Y44274D01*
X-20449Y44323D01*
X-20482Y44378D01*
X-20540Y44430D01*
X-20590Y44488D01*
X-20644Y44524D01*
X-20692Y44567D01*
X-20761Y44600D01*
X-20826Y44643D01*
X-20888Y44662D01*
X-20945Y44690D01*
X-21015Y44701D01*
X-21096Y44725D01*
X-21181Y44726D01*
X-21250Y44737D01*
X-44738Y44737D01*
X-44802Y44728D01*
X-44866Y44729D01*
X-44941Y44708D01*
X-45017Y44697D01*
X-45076Y44671D01*
X-45138Y44654D01*
X-45204Y44613D01*
X-45274Y44581D01*
X-45323Y44539D01*
X-45378Y44506D01*
X-45430Y44448D01*
X-45488Y44398D01*
X-45524Y44344D01*
X-45567Y44296D01*
X-45600Y44227D01*
X-45643Y44162D01*
X-45662Y44100D01*
X-45690Y44043D01*
X-45701Y43973D01*
X-45725Y43892D01*
X-45726Y43807D01*
X-45737Y43738D01*
X-45737Y33250D01*
X-45728Y33186D01*
X-45729Y33122D01*
X-45708Y33047D01*
X-45697Y32971D01*
X-45671Y32912D01*
X-45654Y32850D01*
X-45613Y32784D01*
X-45581Y32714D01*
X-45539Y32665D01*
X-45506Y32610D01*
X-45448Y32558D01*
X-45398Y32500D01*
X-45344Y32464D01*
X-45296Y32421D01*
X-45227Y32388D01*
X-45162Y32345D01*
X-45100Y32326D01*
X-45043Y32298D01*
X-44973Y32287D01*
X-44892Y32263D01*
X-44807Y32262D01*
X-44738Y32251D01*
X-30082Y32251D01*
X-29349Y31518D01*
X-29349Y20482D01*
X-30082Y19749D01*
X-44738Y19749D01*
X-44802Y19740D01*
X-44866Y19741D01*
X-44941Y19720D01*
X-45017Y19709D01*
X-45076Y19683D01*
X-45138Y19666D01*
X-45204Y19625D01*
X-45274Y19593D01*
X-45323Y19551D01*
X-45378Y19518D01*
X-45430Y19460D01*
X-45488Y19410D01*
X-45524Y19356D01*
X-45567Y19308D01*
X-45600Y19239D01*
X-45643Y19174D01*
X-45662Y19112D01*
X-45690Y19055D01*
X-45701Y18985D01*
X-45725Y18904D01*
X-45726Y18819D01*
X-45737Y18750D01*
X-45737Y-18750D01*
X-45728Y-18814D01*
X-45729Y-18878D01*
X-45708Y-18953D01*
X-45697Y-19029D01*
X-45671Y-19088D01*
X-45654Y-19150D01*
X-45613Y-19216D01*
X-45581Y-19286D01*
X-45539Y-19335D01*
X-45506Y-19390D01*
X-45448Y-19442D01*
X-45398Y-19500D01*
X-45344Y-19536D01*
X-45296Y-19579D01*
X-45227Y-19612D01*
X-45162Y-19655D01*
X-45100Y-19674D01*
X-45043Y-19702D01*
X-44973Y-19713D01*
X-44892Y-19737D01*
X-44807Y-19738D01*
X-44738Y-19749D01*
X-41614Y-19749D01*
X-41582Y-19745D01*
G37*
G36*
X35467Y-44733D02*
X35467Y-44733D01*
X35499Y-44735D01*
X35606Y-44713D01*
X35714Y-44697D01*
X35744Y-44684D01*
X35775Y-44678D01*
X35871Y-44626D01*
X35971Y-44581D01*
X35996Y-44560D01*
X36024Y-44545D01*
X36102Y-44469D01*
X36185Y-44398D01*
X36203Y-44371D01*
X36226Y-44348D01*
X36280Y-44253D01*
X36340Y-44162D01*
X36349Y-44131D01*
X36365Y-44103D01*
X36390Y-43997D01*
X36422Y-43892D01*
X36423Y-43860D01*
X36430Y-43829D01*
X36425Y-43719D01*
X36426Y-43610D01*
X36417Y-43579D01*
X36416Y-43547D01*
X36380Y-43444D01*
X36351Y-43338D01*
X36334Y-43311D01*
X36323Y-43280D01*
X36270Y-43207D01*
X36203Y-43098D01*
X36167Y-43066D01*
X36142Y-43031D01*
X34653Y-41543D01*
X34653Y-35457D01*
X38957Y-31153D01*
X45232Y-31153D01*
X45283Y-31172D01*
X45315Y-31175D01*
X45346Y-31184D01*
X45455Y-31186D01*
X45564Y-31194D01*
X45595Y-31188D01*
X45628Y-31188D01*
X45733Y-31159D01*
X45840Y-31137D01*
X45868Y-31122D01*
X45900Y-31113D01*
X45993Y-31055D01*
X46089Y-31004D01*
X46112Y-30982D01*
X46140Y-30965D01*
X46213Y-30884D01*
X46291Y-30808D01*
X46307Y-30779D01*
X46329Y-30755D01*
X46376Y-30657D01*
X46430Y-30562D01*
X46438Y-30531D01*
X46452Y-30502D01*
X46466Y-30412D01*
X46495Y-30288D01*
X46493Y-30239D01*
X46499Y-30197D01*
X46499Y-28286D01*
X48457Y-26328D01*
X48514Y-26252D01*
X48579Y-26180D01*
X48599Y-26139D01*
X48626Y-26103D01*
X48660Y-26013D01*
X48702Y-25926D01*
X48708Y-25884D01*
X48725Y-25839D01*
X48735Y-25711D01*
X48749Y-25622D01*
X48749Y-22696D01*
X49409Y-22037D01*
X49447Y-21985D01*
X49493Y-21940D01*
X49531Y-21873D01*
X49578Y-21811D01*
X49600Y-21751D01*
X49632Y-21695D01*
X49650Y-21620D01*
X49677Y-21547D01*
X49682Y-21483D01*
X49697Y-21421D01*
X49693Y-21343D01*
X49699Y-21266D01*
X49686Y-21203D01*
X49683Y-21139D01*
X49657Y-21066D01*
X49642Y-20990D01*
X49611Y-20933D01*
X49590Y-20872D01*
X49549Y-20816D01*
X49509Y-20741D01*
X49450Y-20680D01*
X49409Y-20623D01*
X48828Y-20043D01*
X48752Y-19986D01*
X48680Y-19921D01*
X48639Y-19901D01*
X48603Y-19874D01*
X48513Y-19840D01*
X48426Y-19798D01*
X48384Y-19792D01*
X48339Y-19775D01*
X48211Y-19765D01*
X48122Y-19751D01*
X42918Y-19751D01*
X42823Y-19764D01*
X42727Y-19769D01*
X42684Y-19784D01*
X42639Y-19791D01*
X42551Y-19830D01*
X42460Y-19862D01*
X42426Y-19887D01*
X42382Y-19907D01*
X42285Y-19990D01*
X42211Y-20043D01*
X41254Y-21001D01*
X36750Y-21001D01*
X36686Y-21010D01*
X36622Y-21009D01*
X36547Y-21030D01*
X36471Y-21041D01*
X36412Y-21067D01*
X36350Y-21084D01*
X36284Y-21125D01*
X36214Y-21157D01*
X36165Y-21199D01*
X36110Y-21232D01*
X36058Y-21290D01*
X36000Y-21340D01*
X35964Y-21394D01*
X35921Y-21442D01*
X35888Y-21511D01*
X35845Y-21576D01*
X35826Y-21638D01*
X35798Y-21695D01*
X35787Y-21765D01*
X35763Y-21846D01*
X35762Y-21931D01*
X35751Y-22000D01*
X35751Y-29518D01*
X35018Y-30251D01*
X31114Y-30251D01*
X31019Y-30264D01*
X30923Y-30269D01*
X30880Y-30284D01*
X30835Y-30291D01*
X30747Y-30330D01*
X30656Y-30362D01*
X30622Y-30387D01*
X30578Y-30407D01*
X30480Y-30490D01*
X30466Y-30501D01*
X27536Y-30501D01*
X27516Y-30486D01*
X27444Y-30421D01*
X27404Y-30401D01*
X27367Y-30374D01*
X27277Y-30340D01*
X27191Y-30298D01*
X27149Y-30292D01*
X27103Y-30275D01*
X26976Y-30265D01*
X26886Y-30251D01*
X24861Y-30251D01*
X24790Y-30234D01*
X24717Y-30207D01*
X24653Y-30202D01*
X24590Y-30187D01*
X24513Y-30191D01*
X24436Y-30185D01*
X24373Y-30198D01*
X24309Y-30201D01*
X24235Y-30227D01*
X24160Y-30242D01*
X24144Y-30251D01*
X13982Y-30251D01*
X13525Y-29793D01*
X13448Y-29736D01*
X13376Y-29671D01*
X13335Y-29651D01*
X13299Y-29624D01*
X13209Y-29590D01*
X13123Y-29548D01*
X13081Y-29542D01*
X13035Y-29525D01*
X12908Y-29515D01*
X12818Y-29501D01*
X11250Y-29501D01*
X11186Y-29510D01*
X11122Y-29509D01*
X11047Y-29530D01*
X10971Y-29541D01*
X10912Y-29567D01*
X10850Y-29584D01*
X10784Y-29625D01*
X10714Y-29657D01*
X10665Y-29699D01*
X10610Y-29732D01*
X10558Y-29790D01*
X10500Y-29840D01*
X10464Y-29894D01*
X10421Y-29942D01*
X10388Y-30011D01*
X10345Y-30076D01*
X10326Y-30138D01*
X10298Y-30195D01*
X10287Y-30265D01*
X10263Y-30346D01*
X10262Y-30431D01*
X10251Y-30500D01*
X10251Y-31500D01*
X10260Y-31564D01*
X10259Y-31628D01*
X10280Y-31703D01*
X10291Y-31779D01*
X10317Y-31838D01*
X10334Y-31900D01*
X10375Y-31966D01*
X10407Y-32036D01*
X10449Y-32085D01*
X10482Y-32140D01*
X10540Y-32192D01*
X10590Y-32250D01*
X10644Y-32286D01*
X10692Y-32329D01*
X10761Y-32362D01*
X10826Y-32405D01*
X10888Y-32424D01*
X10945Y-32452D01*
X11015Y-32463D01*
X11096Y-32487D01*
X11181Y-32488D01*
X11250Y-32499D01*
X11693Y-32499D01*
X14082Y-33489D01*
X15993Y-35400D01*
X16045Y-35439D01*
X16090Y-35485D01*
X16157Y-35523D01*
X16219Y-35569D01*
X16279Y-35592D01*
X16335Y-35624D01*
X16410Y-35641D01*
X16483Y-35669D01*
X16547Y-35674D01*
X16609Y-35689D01*
X16687Y-35685D01*
X16764Y-35691D01*
X16827Y-35678D01*
X16891Y-35674D01*
X16964Y-35649D01*
X17040Y-35633D01*
X17097Y-35603D01*
X17158Y-35582D01*
X17214Y-35540D01*
X17289Y-35501D01*
X17350Y-35441D01*
X17407Y-35400D01*
X19318Y-33489D01*
X21707Y-32499D01*
X24293Y-32499D01*
X26682Y-33489D01*
X28511Y-35318D01*
X29501Y-37707D01*
X29501Y-40293D01*
X28511Y-42682D01*
X28162Y-43031D01*
X28143Y-43057D01*
X28118Y-43078D01*
X28058Y-43170D01*
X27993Y-43257D01*
X27981Y-43287D01*
X27964Y-43314D01*
X27932Y-43419D01*
X27893Y-43521D01*
X27891Y-43553D01*
X27881Y-43584D01*
X27880Y-43693D01*
X27871Y-43802D01*
X27878Y-43834D01*
X27878Y-43866D01*
X27907Y-43971D01*
X27929Y-44078D01*
X27944Y-44107D01*
X27953Y-44138D01*
X28010Y-44231D01*
X28061Y-44327D01*
X28084Y-44350D01*
X28101Y-44378D01*
X28182Y-44451D01*
X28258Y-44529D01*
X28286Y-44545D01*
X28310Y-44567D01*
X28409Y-44614D01*
X28504Y-44668D01*
X28535Y-44676D01*
X28564Y-44690D01*
X28654Y-44704D01*
X28778Y-44733D01*
X28826Y-44731D01*
X28869Y-44737D01*
X35435Y-44737D01*
X35467Y-44733D01*
G37*
G36*
X-33537Y-44733D02*
X-33537Y-44733D01*
X-33504Y-44735D01*
X-33397Y-44713D01*
X-33289Y-44697D01*
X-33260Y-44684D01*
X-33228Y-44678D01*
X-33132Y-44626D01*
X-33032Y-44581D01*
X-33008Y-44560D01*
X-32979Y-44545D01*
X-32901Y-44469D01*
X-32818Y-44398D01*
X-32800Y-44371D01*
X-32777Y-44348D01*
X-32724Y-44253D01*
X-32664Y-44162D01*
X-32654Y-44131D01*
X-32638Y-44103D01*
X-32613Y-43997D01*
X-32581Y-43892D01*
X-32581Y-43860D01*
X-32573Y-43829D01*
X-32579Y-43719D01*
X-32578Y-43610D01*
X-32586Y-43579D01*
X-32588Y-43547D01*
X-32624Y-43444D01*
X-32653Y-43338D01*
X-32670Y-43311D01*
X-32680Y-43280D01*
X-32734Y-43207D01*
X-32801Y-43098D01*
X-32837Y-43066D01*
X-32862Y-43031D01*
X-33211Y-42682D01*
X-34201Y-40293D01*
X-34201Y-37707D01*
X-33211Y-35318D01*
X-31850Y-33957D01*
X-31831Y-33931D01*
X-31806Y-33910D01*
X-31746Y-33818D01*
X-31681Y-33731D01*
X-31669Y-33701D01*
X-31652Y-33674D01*
X-31620Y-33569D01*
X-31581Y-33467D01*
X-31579Y-33435D01*
X-31569Y-33404D01*
X-31568Y-33295D01*
X-31559Y-33186D01*
X-31566Y-33154D01*
X-31566Y-33122D01*
X-31595Y-33017D01*
X-31617Y-32910D01*
X-31632Y-32881D01*
X-31641Y-32850D01*
X-31698Y-32757D01*
X-31749Y-32661D01*
X-31772Y-32638D01*
X-31789Y-32610D01*
X-31870Y-32537D01*
X-31946Y-32459D01*
X-31974Y-32443D01*
X-31998Y-32421D01*
X-32096Y-32374D01*
X-32192Y-32320D01*
X-32223Y-32312D01*
X-32252Y-32298D01*
X-32341Y-32284D01*
X-32466Y-32255D01*
X-32515Y-32257D01*
X-32557Y-32251D01*
X-44738Y-32251D01*
X-44802Y-32260D01*
X-44866Y-32259D01*
X-44941Y-32280D01*
X-45017Y-32291D01*
X-45076Y-32317D01*
X-45138Y-32334D01*
X-45204Y-32375D01*
X-45274Y-32407D01*
X-45323Y-32449D01*
X-45378Y-32482D01*
X-45430Y-32540D01*
X-45488Y-32590D01*
X-45524Y-32644D01*
X-45567Y-32692D01*
X-45600Y-32761D01*
X-45643Y-32826D01*
X-45662Y-32888D01*
X-45690Y-32945D01*
X-45701Y-33015D01*
X-45725Y-33096D01*
X-45726Y-33181D01*
X-45737Y-33250D01*
X-45737Y-43738D01*
X-45728Y-43802D01*
X-45729Y-43866D01*
X-45708Y-43941D01*
X-45697Y-44017D01*
X-45671Y-44076D01*
X-45654Y-44138D01*
X-45613Y-44204D01*
X-45581Y-44274D01*
X-45539Y-44323D01*
X-45506Y-44378D01*
X-45448Y-44430D01*
X-45398Y-44488D01*
X-45344Y-44524D01*
X-45296Y-44567D01*
X-45227Y-44600D01*
X-45162Y-44643D01*
X-45100Y-44662D01*
X-45043Y-44690D01*
X-44973Y-44701D01*
X-44892Y-44725D01*
X-44807Y-44726D01*
X-44738Y-44737D01*
X-33569Y-44737D01*
X-33537Y-44733D01*
G37*
%LPC*%
G36*
X-20518Y1749D02*
X-20518Y1749D01*
X-21251Y2482D01*
X-21251Y7518D01*
X-20518Y8251D01*
X-10114Y8251D01*
X-10019Y8264D01*
X-9923Y8269D01*
X-9880Y8284D01*
X-9835Y8291D01*
X-9747Y8330D01*
X-9656Y8362D01*
X-9622Y8387D01*
X-9578Y8407D01*
X-9481Y8490D01*
X-9407Y8543D01*
X-7450Y10501D01*
X-4550Y10501D01*
X-2499Y8450D01*
X-2499Y5550D01*
X-3457Y4593D01*
X-3514Y4516D01*
X-3579Y4444D01*
X-3599Y4403D01*
X-3626Y4367D01*
X-3660Y4277D01*
X-3702Y4191D01*
X-3708Y4149D01*
X-3725Y4103D01*
X-3735Y3976D01*
X-3749Y3886D01*
X-3749Y2482D01*
X-4482Y1749D01*
X-20518Y1749D01*
G37*
%LPD*%
D10*
X25500Y26000D03*
X20500Y26000D03*
X15500Y26000D03*
X10500Y26000D03*
X5500Y26000D03*
X5500Y-2000D03*
X10500Y-2000D03*
X15500Y-2000D03*
X20500Y-2000D03*
X25500Y-2000D03*
D11*
X15500Y12000D03*
D12*
X15500Y14500D02*
X32500Y14500D01*
X15500Y14500D02*
X15500Y12000D01*
X15500Y9500D02*
X32500Y9500D01*
X15500Y9500D02*
X15500Y12000D01*
X15500Y9500D02*
X-1500Y9500D01*
X-1500Y14500D02*
X14500Y14500D01*
X14500Y12000D01*
X15500Y12000D01*
D13*
X5000Y-28620D03*
X5000Y-13380D03*
D14*
X19000Y-12500D03*
X19000Y-25500D03*
D15*
X15500Y39500D03*
X28500Y39500D03*
X-2500Y39000D03*
X-15500Y39000D03*
D16*
X51000Y29150D03*
X43850Y22000D03*
X51000Y14850D03*
X51000Y-15850D03*
X43850Y-23000D03*
X51000Y-30150D03*
D17*
X-40400Y-39000D03*
X-27700Y-39000D03*
X-15000Y-39000D03*
X-2300Y-39000D03*
X10400Y-39000D03*
D18*
X-12500Y-15000D03*
X-12500Y-5000D03*
D19*
X-38100Y-26000D03*
X-38100Y26000D03*
D18*
X-12500Y5000D03*
X-12500Y15000D03*
D14*
X30000Y-12500D03*
X30000Y-25500D03*
D20*
X36550Y-2000D03*
X31450Y-2000D03*
D21*
X43000Y38500D03*
X42000Y-38500D03*
D22*
X-34000Y-10000D03*
D23*
X-34000Y-14500D02*
X-27700Y-20800D01*
X-34000Y-14500D02*
X-34000Y-10000D01*
X-27700Y-20800D02*
X-27700Y-39000D01*
D22*
X-27000Y-10000D03*
D23*
X-27000Y-17000D02*
X-24375Y-19625D01*
X-27000Y-17000D02*
X-27000Y-10000D01*
X-15000Y-36836D02*
X-15000Y-39000D01*
X-24375Y-27461D02*
X-24375Y-19625D01*
X-24375Y-27461D02*
X-15000Y-36836D01*
D22*
X-6000Y7000D03*
D23*
X-8000Y5000D01*
X-12500Y5000D01*
D22*
X0Y-4000D03*
D23*
X-11500Y-4000D02*
X-12500Y-5000D01*
X-11500Y-4000D02*
X0Y-4000D01*
D22*
X-12000Y25000D03*
D23*
X-12000Y26000D01*
X-15500Y29500D01*
X-15500Y39000D01*
X-21875Y-19425D02*
X-2300Y-39000D01*
D22*
X-2500Y-10000D03*
D23*
X-23125Y-13291D02*
X-23125Y-16709D01*
X-21875Y-17959D01*
X-21875Y-19425D01*
X-19834Y-10000D02*
X-2500Y-10000D01*
X-19834Y-10000D02*
X-23125Y-13291D01*
D17*
X23000Y-39000D03*
D22*
X-23788Y-3788D03*
D12*
X15500Y11000D02*
X15500Y12000D01*
X15500Y-9000D02*
X19000Y-12500D01*
X15500Y-9000D02*
X15500Y-5000D01*
X15500Y-2000D01*
D23*
X15500Y12000D02*
X26500Y12000D01*
D12*
X43850Y22000D02*
X28500Y37350D01*
X28500Y39500D01*
D24*
X12500Y15000D02*
X-12500Y15000D01*
X12500Y15000D02*
X15500Y12000D01*
D12*
X15500Y11000D02*
X35500Y11000D01*
D22*
X-22000Y27000D03*
X-1000Y3000D03*
X11000Y8000D03*
X-43000Y40000D03*
D23*
X19000Y-12500D02*
X30000Y-12500D01*
X15500Y-2000D02*
X15500Y11000D01*
D22*
X32000Y-12000D03*
X15500Y-5000D03*
D25*
X35500Y11000D03*
D12*
X19000Y-25500D02*
X12000Y-25500D01*
D22*
X12000Y-26000D03*
D12*
X12000Y-25500D01*
D22*
X-1000Y30000D03*
D12*
X1500Y30000D02*
X5500Y26000D01*
X1500Y30000D02*
X-1000Y30000D01*
D22*
X-38000Y-16000D03*
D12*
X19000Y-25500D02*
X30000Y-25500D01*
D22*
X29000Y-27000D03*
X-19000Y-15000D03*
D12*
X5000Y-28620D02*
X7620Y-26000D01*
X12000Y-26000D01*
X5000Y-28620D02*
X1120Y-28620D01*
X-12500Y-15000D01*
X5500Y-12880D02*
X5500Y-2000D01*
X5500Y-12880D02*
X5000Y-13380D01*
X-2000Y39500D02*
X15500Y39500D01*
X-2000Y39500D02*
X-2500Y39000D01*
D23*
X15500Y39500D02*
X15500Y36059D01*
X20600Y26100D02*
X20500Y26000D01*
X20600Y26100D02*
X20600Y30959D01*
X15500Y36059D01*
D22*
X39600Y-12000D03*
D23*
X23523Y-6875D02*
X20425Y-3777D01*
X20425Y-2075D02*
X20500Y-2000D01*
X20425Y-2075D02*
X20425Y-3777D01*
D22*
X-8250Y30000D03*
D23*
X36375Y-8223D02*
X36375Y-8775D01*
X39600Y-12000D01*
X36375Y-8223D02*
X35027Y-6875D01*
X23523Y-6875D01*
X15500Y26000D02*
X15500Y30225D01*
X15475Y30250D01*
D22*
X15475Y30250D03*
D23*
X10500Y29750D02*
X10500Y26000D01*
X10500Y29750D02*
X8000Y32250D01*
D22*
X8000Y32250D03*
D12*
X10500Y-2000D02*
X10500Y-6884D01*
X56500Y6000D02*
X56500Y12218D01*
X56750Y12468D01*
X56750Y23400D01*
X51000Y29150D01*
X41468Y-17250D02*
X40218Y-18500D01*
X49600Y-17250D02*
X51000Y-15850D01*
X49600Y-17250D02*
X41468Y-17250D01*
D22*
X56500Y6000D03*
D12*
X40218Y-18500D02*
X13464Y-18500D01*
X11750Y-16786D02*
X11750Y-8134D01*
X11750Y-16786D02*
X13464Y-18500D01*
X11750Y-8134D02*
X10500Y-6884D01*
D24*
X25500Y26000D02*
X28625Y29125D01*
X28625Y30507D01*
D22*
X28625Y30507D03*
D24*
X31450Y-2000D02*
X25500Y-2000D01*
X53278Y-10350D02*
X56500Y-13572D01*
X56500Y-18128D01*
X44900Y-10350D02*
X36550Y-2000D01*
X51000Y-23628D02*
X51000Y-30150D01*
X53278Y-10350D02*
X44900Y-10350D01*
X56500Y-18128D02*
X51000Y-23628D01*
M02*
