G04 EAGLE Gerber RS-274X export*
G75*
%MOMM*%
%FSLAX34Y34*%
%LPD*%
%INCopper Layer 2*%
%IPPOS*%
%AMOC8*
5,1,8,0,0,1.08239X$1,22.5*%
G01*
%ADD10C,0.700000*%
%ADD11C,1.050000*%
%ADD12C,1.219200*%
%ADD13C,0.500000*%
%ADD14C,0.650000*%

G36*
X-33537Y-44733D02*
X-33537Y-44733D01*
X-33504Y-44735D01*
X-33397Y-44713D01*
X-33289Y-44697D01*
X-33260Y-44684D01*
X-33228Y-44678D01*
X-33132Y-44626D01*
X-33032Y-44581D01*
X-33008Y-44560D01*
X-32979Y-44545D01*
X-32901Y-44469D01*
X-32818Y-44398D01*
X-32800Y-44371D01*
X-32777Y-44348D01*
X-32724Y-44253D01*
X-32664Y-44162D01*
X-32654Y-44131D01*
X-32638Y-44103D01*
X-32613Y-43997D01*
X-32581Y-43892D01*
X-32581Y-43860D01*
X-32573Y-43829D01*
X-32579Y-43719D01*
X-32578Y-43610D01*
X-32586Y-43579D01*
X-32588Y-43547D01*
X-32624Y-43444D01*
X-32653Y-43338D01*
X-32670Y-43311D01*
X-32680Y-43280D01*
X-32734Y-43207D01*
X-32801Y-43098D01*
X-32837Y-43066D01*
X-32862Y-43031D01*
X-33211Y-42682D01*
X-34201Y-40293D01*
X-34201Y-37707D01*
X-33211Y-35318D01*
X-31382Y-33489D01*
X-28993Y-32499D01*
X-26407Y-32499D01*
X-24018Y-33489D01*
X-22057Y-35450D01*
X-22005Y-35489D01*
X-21960Y-35535D01*
X-21893Y-35573D01*
X-21831Y-35619D01*
X-21771Y-35642D01*
X-21715Y-35674D01*
X-21640Y-35691D01*
X-21567Y-35719D01*
X-21503Y-35724D01*
X-21441Y-35739D01*
X-21363Y-35735D01*
X-21286Y-35741D01*
X-21223Y-35728D01*
X-21159Y-35724D01*
X-21086Y-35699D01*
X-21010Y-35683D01*
X-20953Y-35653D01*
X-20892Y-35632D01*
X-20836Y-35590D01*
X-20761Y-35551D01*
X-20700Y-35491D01*
X-20643Y-35450D01*
X-18682Y-33489D01*
X-16293Y-32499D01*
X-13707Y-32499D01*
X-11318Y-33489D01*
X-9357Y-35450D01*
X-9305Y-35489D01*
X-9260Y-35535D01*
X-9193Y-35573D01*
X-9131Y-35619D01*
X-9071Y-35642D01*
X-9015Y-35674D01*
X-8940Y-35691D01*
X-8867Y-35719D01*
X-8803Y-35724D01*
X-8741Y-35739D01*
X-8663Y-35735D01*
X-8586Y-35741D01*
X-8523Y-35728D01*
X-8459Y-35724D01*
X-8386Y-35699D01*
X-8310Y-35683D01*
X-8253Y-35653D01*
X-8192Y-35632D01*
X-8136Y-35590D01*
X-8061Y-35551D01*
X-8000Y-35491D01*
X-7943Y-35450D01*
X-5982Y-33489D01*
X-3593Y-32499D01*
X-1007Y-32499D01*
X1382Y-33489D01*
X3343Y-35450D01*
X3395Y-35489D01*
X3440Y-35535D01*
X3507Y-35573D01*
X3569Y-35619D01*
X3629Y-35642D01*
X3685Y-35674D01*
X3760Y-35691D01*
X3833Y-35719D01*
X3897Y-35724D01*
X3959Y-35739D01*
X4037Y-35735D01*
X4114Y-35741D01*
X4177Y-35728D01*
X4241Y-35724D01*
X4314Y-35699D01*
X4390Y-35683D01*
X4447Y-35653D01*
X4508Y-35632D01*
X4564Y-35590D01*
X4639Y-35551D01*
X4700Y-35491D01*
X4757Y-35450D01*
X6718Y-33489D01*
X9107Y-32499D01*
X11693Y-32499D01*
X14082Y-33489D01*
X15993Y-35400D01*
X16045Y-35439D01*
X16090Y-35485D01*
X16157Y-35523D01*
X16219Y-35569D01*
X16279Y-35592D01*
X16335Y-35624D01*
X16410Y-35641D01*
X16483Y-35669D01*
X16547Y-35674D01*
X16609Y-35689D01*
X16687Y-35685D01*
X16764Y-35691D01*
X16827Y-35678D01*
X16891Y-35674D01*
X16964Y-35649D01*
X17040Y-35633D01*
X17097Y-35603D01*
X17158Y-35582D01*
X17214Y-35540D01*
X17289Y-35501D01*
X17350Y-35441D01*
X17407Y-35400D01*
X19318Y-33489D01*
X21707Y-32499D01*
X24293Y-32499D01*
X26682Y-33489D01*
X28511Y-35318D01*
X29501Y-37707D01*
X29501Y-40293D01*
X28511Y-42682D01*
X28162Y-43031D01*
X28143Y-43057D01*
X28118Y-43078D01*
X28058Y-43170D01*
X27993Y-43257D01*
X27981Y-43287D01*
X27964Y-43314D01*
X27932Y-43419D01*
X27893Y-43521D01*
X27891Y-43553D01*
X27881Y-43584D01*
X27880Y-43693D01*
X27871Y-43802D01*
X27878Y-43834D01*
X27878Y-43866D01*
X27907Y-43971D01*
X27929Y-44078D01*
X27944Y-44107D01*
X27953Y-44138D01*
X28010Y-44231D01*
X28061Y-44327D01*
X28084Y-44350D01*
X28101Y-44378D01*
X28182Y-44451D01*
X28258Y-44529D01*
X28286Y-44545D01*
X28310Y-44567D01*
X28409Y-44614D01*
X28504Y-44668D01*
X28535Y-44676D01*
X28564Y-44690D01*
X28654Y-44704D01*
X28778Y-44733D01*
X28826Y-44731D01*
X28869Y-44737D01*
X35435Y-44737D01*
X35467Y-44733D01*
X35499Y-44735D01*
X35606Y-44713D01*
X35714Y-44697D01*
X35744Y-44684D01*
X35775Y-44678D01*
X35872Y-44626D01*
X35971Y-44581D01*
X35996Y-44560D01*
X36024Y-44545D01*
X36102Y-44469D01*
X36185Y-44398D01*
X36203Y-44371D01*
X36226Y-44348D01*
X36280Y-44254D01*
X36340Y-44162D01*
X36349Y-44131D01*
X36365Y-44103D01*
X36390Y-43997D01*
X36422Y-43892D01*
X36423Y-43860D01*
X36430Y-43829D01*
X36425Y-43719D01*
X36426Y-43610D01*
X36417Y-43579D01*
X36416Y-43547D01*
X36380Y-43444D01*
X36351Y-43338D01*
X36334Y-43311D01*
X36323Y-43280D01*
X36270Y-43207D01*
X36203Y-43098D01*
X36167Y-43066D01*
X36142Y-43031D01*
X35772Y-42662D01*
X34653Y-39961D01*
X34653Y-37039D01*
X35772Y-34338D01*
X37838Y-32272D01*
X40539Y-31153D01*
X43461Y-31153D01*
X44868Y-31736D01*
X44982Y-31765D01*
X45096Y-31800D01*
X45119Y-31800D01*
X45141Y-31806D01*
X45259Y-31802D01*
X45378Y-31804D01*
X45400Y-31798D01*
X45423Y-31797D01*
X45535Y-31760D01*
X45650Y-31728D01*
X45669Y-31716D01*
X45691Y-31709D01*
X45789Y-31643D01*
X45890Y-31580D01*
X45905Y-31563D01*
X45924Y-31550D01*
X45999Y-31459D01*
X46079Y-31371D01*
X46089Y-31350D01*
X46103Y-31333D01*
X46150Y-31224D01*
X46202Y-31117D01*
X46205Y-31096D01*
X46215Y-31074D01*
X46235Y-30910D01*
X46237Y-30902D01*
X46237Y-30888D01*
X46249Y-30813D01*
X46249Y-28182D01*
X49032Y-25399D01*
X52968Y-25399D01*
X55751Y-28182D01*
X55751Y-32118D01*
X52968Y-34901D01*
X49957Y-34901D01*
X49839Y-34917D01*
X49721Y-34929D01*
X49700Y-34937D01*
X49677Y-34941D01*
X49570Y-34989D01*
X49459Y-35033D01*
X49441Y-35047D01*
X49420Y-35057D01*
X49331Y-35134D01*
X49237Y-35207D01*
X49224Y-35225D01*
X49206Y-35240D01*
X49141Y-35340D01*
X49072Y-35436D01*
X49064Y-35457D01*
X49052Y-35476D01*
X49017Y-35590D01*
X48977Y-35701D01*
X48976Y-35724D01*
X48969Y-35746D01*
X48968Y-35864D01*
X48961Y-35983D01*
X48966Y-36004D01*
X48966Y-36028D01*
X49015Y-36207D01*
X49033Y-36282D01*
X49347Y-37039D01*
X49347Y-39961D01*
X48228Y-42662D01*
X47858Y-43031D01*
X47839Y-43057D01*
X47815Y-43078D01*
X47755Y-43170D01*
X47689Y-43257D01*
X47678Y-43287D01*
X47660Y-43314D01*
X47628Y-43419D01*
X47590Y-43521D01*
X47587Y-43553D01*
X47578Y-43584D01*
X47576Y-43693D01*
X47568Y-43802D01*
X47574Y-43834D01*
X47574Y-43866D01*
X47603Y-43971D01*
X47625Y-44078D01*
X47641Y-44107D01*
X47649Y-44138D01*
X47707Y-44231D01*
X47758Y-44327D01*
X47780Y-44350D01*
X47797Y-44378D01*
X47878Y-44451D01*
X47955Y-44529D01*
X47983Y-44545D01*
X48007Y-44567D01*
X48105Y-44614D01*
X48200Y-44668D01*
X48231Y-44676D01*
X48260Y-44690D01*
X48350Y-44704D01*
X48474Y-44733D01*
X48523Y-44731D01*
X48565Y-44737D01*
X59738Y-44737D01*
X59802Y-44728D01*
X59866Y-44729D01*
X59941Y-44708D01*
X60017Y-44697D01*
X60076Y-44671D01*
X60138Y-44654D01*
X60204Y-44613D01*
X60274Y-44581D01*
X60323Y-44539D01*
X60378Y-44506D01*
X60430Y-44448D01*
X60488Y-44398D01*
X60524Y-44344D01*
X60567Y-44296D01*
X60600Y-44227D01*
X60643Y-44162D01*
X60662Y-44100D01*
X60690Y-44043D01*
X60701Y-43973D01*
X60725Y-43892D01*
X60726Y-43807D01*
X60737Y-43738D01*
X60737Y2521D01*
X60733Y2552D01*
X60735Y2585D01*
X60713Y2692D01*
X60697Y2800D01*
X60684Y2829D01*
X60678Y2861D01*
X60626Y2957D01*
X60581Y3057D01*
X60560Y3081D01*
X60545Y3110D01*
X60469Y3188D01*
X60398Y3271D01*
X60371Y3289D01*
X60348Y3312D01*
X60253Y3366D01*
X60162Y3425D01*
X60131Y3435D01*
X60103Y3451D01*
X59997Y3476D01*
X59892Y3508D01*
X59860Y3508D01*
X59829Y3516D01*
X59719Y3510D01*
X59610Y3512D01*
X59579Y3503D01*
X59547Y3501D01*
X59444Y3466D01*
X59338Y3436D01*
X59311Y3419D01*
X59280Y3409D01*
X59207Y3356D01*
X59098Y3288D01*
X59066Y3252D01*
X59031Y3227D01*
X58054Y2249D01*
X54946Y2249D01*
X52749Y4446D01*
X52749Y7554D01*
X53589Y8393D01*
X53608Y8419D01*
X53633Y8440D01*
X53693Y8532D01*
X53758Y8619D01*
X53770Y8649D01*
X53787Y8676D01*
X53819Y8781D01*
X53858Y8883D01*
X53860Y8915D01*
X53870Y8946D01*
X53871Y9055D01*
X53880Y9164D01*
X53873Y9196D01*
X53874Y9228D01*
X53844Y9333D01*
X53822Y9440D01*
X53807Y9469D01*
X53798Y9500D01*
X53741Y9593D01*
X53690Y9689D01*
X53667Y9712D01*
X53650Y9740D01*
X53569Y9813D01*
X53493Y9891D01*
X53465Y9907D01*
X53441Y9929D01*
X53343Y9976D01*
X53248Y10030D01*
X53216Y10038D01*
X53187Y10052D01*
X53098Y10066D01*
X52973Y10095D01*
X52925Y10093D01*
X52883Y10099D01*
X49032Y10099D01*
X46249Y12882D01*
X46249Y16818D01*
X49032Y19601D01*
X52968Y19601D01*
X55751Y16818D01*
X55751Y12882D01*
X54325Y11457D01*
X54306Y11431D01*
X54281Y11410D01*
X54221Y11318D01*
X54156Y11231D01*
X54144Y11201D01*
X54127Y11174D01*
X54095Y11069D01*
X54056Y10967D01*
X54054Y10935D01*
X54044Y10904D01*
X54043Y10795D01*
X54034Y10686D01*
X54041Y10654D01*
X54041Y10622D01*
X54070Y10517D01*
X54092Y10410D01*
X54107Y10381D01*
X54116Y10350D01*
X54173Y10257D01*
X54225Y10161D01*
X54247Y10138D01*
X54264Y10110D01*
X54345Y10037D01*
X54421Y9959D01*
X54449Y9943D01*
X54473Y9921D01*
X54572Y9874D01*
X54667Y9820D01*
X54698Y9812D01*
X54727Y9798D01*
X54816Y9784D01*
X54941Y9755D01*
X54990Y9757D01*
X55032Y9751D01*
X58054Y9751D01*
X59031Y8773D01*
X59057Y8754D01*
X59078Y8729D01*
X59170Y8669D01*
X59257Y8604D01*
X59287Y8592D01*
X59314Y8575D01*
X59419Y8543D01*
X59521Y8504D01*
X59553Y8502D01*
X59584Y8492D01*
X59693Y8491D01*
X59802Y8482D01*
X59834Y8489D01*
X59866Y8488D01*
X59971Y8518D01*
X60078Y8540D01*
X60107Y8555D01*
X60138Y8564D01*
X60231Y8621D01*
X60327Y8672D01*
X60350Y8695D01*
X60378Y8712D01*
X60451Y8793D01*
X60529Y8869D01*
X60545Y8897D01*
X60567Y8921D01*
X60614Y9019D01*
X60668Y9114D01*
X60676Y9146D01*
X60690Y9175D01*
X60704Y9264D01*
X60733Y9389D01*
X60731Y9437D01*
X60737Y9479D01*
X60737Y43738D01*
X60728Y43802D01*
X60729Y43866D01*
X60708Y43941D01*
X60697Y44017D01*
X60671Y44076D01*
X60654Y44138D01*
X60613Y44204D01*
X60581Y44274D01*
X60539Y44323D01*
X60506Y44378D01*
X60448Y44430D01*
X60398Y44488D01*
X60344Y44524D01*
X60296Y44567D01*
X60227Y44600D01*
X60162Y44643D01*
X60100Y44662D01*
X60043Y44690D01*
X59973Y44701D01*
X59892Y44725D01*
X59807Y44726D01*
X59738Y44737D01*
X49565Y44737D01*
X49533Y44733D01*
X49501Y44735D01*
X49394Y44713D01*
X49286Y44697D01*
X49256Y44684D01*
X49225Y44678D01*
X49128Y44626D01*
X49029Y44581D01*
X49004Y44560D01*
X48976Y44545D01*
X48898Y44469D01*
X48815Y44398D01*
X48797Y44371D01*
X48774Y44348D01*
X48720Y44254D01*
X48660Y44162D01*
X48651Y44131D01*
X48635Y44103D01*
X48610Y43997D01*
X48578Y43892D01*
X48577Y43860D01*
X48570Y43829D01*
X48575Y43719D01*
X48574Y43610D01*
X48583Y43579D01*
X48584Y43547D01*
X48620Y43444D01*
X48649Y43338D01*
X48666Y43311D01*
X48677Y43280D01*
X48730Y43207D01*
X48797Y43098D01*
X48833Y43066D01*
X48858Y43031D01*
X49228Y42662D01*
X50347Y39961D01*
X50347Y37039D01*
X49619Y35282D01*
X49590Y35168D01*
X49555Y35054D01*
X49555Y35031D01*
X49549Y35009D01*
X49553Y34891D01*
X49551Y34772D01*
X49558Y34750D01*
X49558Y34727D01*
X49595Y34615D01*
X49627Y34500D01*
X49639Y34481D01*
X49646Y34459D01*
X49712Y34361D01*
X49775Y34260D01*
X49792Y34245D01*
X49805Y34226D01*
X49896Y34151D01*
X49984Y34071D01*
X50005Y34061D01*
X50022Y34047D01*
X50131Y34000D01*
X50238Y33948D01*
X50259Y33945D01*
X50281Y33935D01*
X50466Y33913D01*
X50542Y33901D01*
X52968Y33901D01*
X55751Y31118D01*
X55751Y27182D01*
X52968Y24399D01*
X49032Y24399D01*
X46249Y27182D01*
X46249Y30398D01*
X46233Y30516D01*
X46221Y30634D01*
X46213Y30655D01*
X46209Y30678D01*
X46161Y30785D01*
X46117Y30896D01*
X46103Y30914D01*
X46093Y30935D01*
X46016Y31024D01*
X45943Y31118D01*
X45925Y31131D01*
X45910Y31149D01*
X45810Y31214D01*
X45714Y31283D01*
X45693Y31291D01*
X45674Y31303D01*
X45560Y31338D01*
X45449Y31378D01*
X45426Y31379D01*
X45404Y31386D01*
X45286Y31387D01*
X45167Y31394D01*
X45146Y31389D01*
X45122Y31389D01*
X44943Y31340D01*
X44868Y31322D01*
X44461Y31153D01*
X41539Y31153D01*
X38838Y32272D01*
X36772Y34338D01*
X35653Y37039D01*
X35653Y39961D01*
X36772Y42662D01*
X37142Y43031D01*
X37161Y43057D01*
X37185Y43078D01*
X37245Y43170D01*
X37311Y43257D01*
X37322Y43287D01*
X37340Y43314D01*
X37372Y43419D01*
X37410Y43521D01*
X37413Y43553D01*
X37422Y43584D01*
X37424Y43693D01*
X37432Y43802D01*
X37426Y43834D01*
X37426Y43866D01*
X37397Y43971D01*
X37375Y44078D01*
X37359Y44107D01*
X37351Y44138D01*
X37293Y44231D01*
X37242Y44327D01*
X37220Y44350D01*
X37203Y44378D01*
X37122Y44451D01*
X37045Y44529D01*
X37017Y44545D01*
X36993Y44567D01*
X36895Y44614D01*
X36800Y44668D01*
X36769Y44676D01*
X36740Y44690D01*
X36650Y44704D01*
X36526Y44733D01*
X36477Y44731D01*
X36435Y44737D01*
X-44738Y44737D01*
X-44802Y44728D01*
X-44866Y44729D01*
X-44941Y44708D01*
X-45017Y44697D01*
X-45076Y44671D01*
X-45138Y44654D01*
X-45204Y44613D01*
X-45274Y44581D01*
X-45323Y44539D01*
X-45378Y44506D01*
X-45430Y44448D01*
X-45488Y44398D01*
X-45524Y44344D01*
X-45567Y44296D01*
X-45600Y44227D01*
X-45643Y44162D01*
X-45662Y44100D01*
X-45690Y44043D01*
X-45701Y43973D01*
X-45725Y43892D01*
X-45726Y43807D01*
X-45737Y43738D01*
X-45737Y-43738D01*
X-45728Y-43802D01*
X-45729Y-43866D01*
X-45708Y-43941D01*
X-45697Y-44017D01*
X-45671Y-44076D01*
X-45654Y-44138D01*
X-45613Y-44204D01*
X-45581Y-44274D01*
X-45539Y-44323D01*
X-45506Y-44378D01*
X-45448Y-44430D01*
X-45398Y-44488D01*
X-45344Y-44524D01*
X-45296Y-44567D01*
X-45227Y-44600D01*
X-45162Y-44643D01*
X-45100Y-44662D01*
X-45043Y-44690D01*
X-44973Y-44701D01*
X-44892Y-44725D01*
X-44807Y-44726D01*
X-44738Y-44737D01*
X-33569Y-44737D01*
X-33537Y-44733D01*
G37*
%LPC*%
G36*
X-39554Y-19751D02*
X-39554Y-19751D01*
X-41751Y-17554D01*
X-41751Y-14446D01*
X-39554Y-12249D01*
X-38750Y-12249D01*
X-38686Y-12240D01*
X-38622Y-12241D01*
X-38547Y-12220D01*
X-38471Y-12209D01*
X-38412Y-12183D01*
X-38350Y-12166D01*
X-38284Y-12125D01*
X-38214Y-12093D01*
X-38165Y-12051D01*
X-38110Y-12018D01*
X-38058Y-11960D01*
X-38000Y-11910D01*
X-37964Y-11856D01*
X-37921Y-11808D01*
X-37888Y-11739D01*
X-37845Y-11674D01*
X-37826Y-11612D01*
X-37798Y-11555D01*
X-37787Y-11485D01*
X-37763Y-11404D01*
X-37762Y-11319D01*
X-37751Y-11250D01*
X-37751Y-8446D01*
X-35554Y-6249D01*
X-32446Y-6249D01*
X-31207Y-7489D01*
X-31155Y-7528D01*
X-31110Y-7574D01*
X-31077Y-7592D01*
X-31075Y-7594D01*
X-31066Y-7599D01*
X-31043Y-7612D01*
X-30981Y-7658D01*
X-30921Y-7681D01*
X-30865Y-7713D01*
X-30790Y-7731D01*
X-30717Y-7758D01*
X-30653Y-7763D01*
X-30591Y-7778D01*
X-30513Y-7774D01*
X-30436Y-7780D01*
X-30373Y-7767D01*
X-30309Y-7763D01*
X-30236Y-7738D01*
X-30160Y-7722D01*
X-30103Y-7692D01*
X-30042Y-7671D01*
X-29986Y-7629D01*
X-29948Y-7609D01*
X-29947Y-7609D01*
X-29911Y-7590D01*
X-29850Y-7530D01*
X-29793Y-7489D01*
X-28554Y-6249D01*
X-28538Y-6249D01*
X-28474Y-6240D01*
X-28410Y-6241D01*
X-28335Y-6220D01*
X-28258Y-6209D01*
X-28200Y-6183D01*
X-28138Y-6166D01*
X-28072Y-6125D01*
X-28002Y-6093D01*
X-27953Y-6051D01*
X-27898Y-6018D01*
X-27846Y-5960D01*
X-27787Y-5910D01*
X-27752Y-5856D01*
X-27709Y-5808D01*
X-27675Y-5739D01*
X-27633Y-5674D01*
X-27614Y-5612D01*
X-27586Y-5555D01*
X-27575Y-5485D01*
X-27550Y-5404D01*
X-27549Y-5319D01*
X-27538Y-5250D01*
X-27538Y-2234D01*
X-25341Y-37D01*
X-22234Y-37D01*
X-20037Y-2234D01*
X-20037Y-5341D01*
X-22234Y-7538D01*
X-22250Y-7538D01*
X-22314Y-7547D01*
X-22378Y-7547D01*
X-22453Y-7567D01*
X-22529Y-7578D01*
X-22588Y-7605D01*
X-22650Y-7622D01*
X-22716Y-7663D01*
X-22786Y-7694D01*
X-22835Y-7736D01*
X-22890Y-7770D01*
X-22942Y-7827D01*
X-23000Y-7878D01*
X-23036Y-7932D01*
X-23079Y-7979D01*
X-23112Y-8049D01*
X-23155Y-8114D01*
X-23174Y-8175D01*
X-23202Y-8233D01*
X-23213Y-8302D01*
X-23237Y-8384D01*
X-23238Y-8468D01*
X-23249Y-8538D01*
X-23249Y-11533D01*
X-23245Y-11564D01*
X-23247Y-11597D01*
X-23225Y-11704D01*
X-23209Y-11812D01*
X-23196Y-11841D01*
X-23190Y-11873D01*
X-23138Y-11969D01*
X-23093Y-12069D01*
X-23072Y-12093D01*
X-23057Y-12122D01*
X-22981Y-12200D01*
X-22910Y-12283D01*
X-22883Y-12301D01*
X-22860Y-12324D01*
X-22765Y-12378D01*
X-22674Y-12437D01*
X-22643Y-12447D01*
X-22615Y-12463D01*
X-22509Y-12488D01*
X-22404Y-12520D01*
X-22372Y-12520D01*
X-22341Y-12528D01*
X-22231Y-12522D01*
X-22122Y-12524D01*
X-22091Y-12515D01*
X-22059Y-12513D01*
X-21956Y-12478D01*
X-21850Y-12448D01*
X-21823Y-12431D01*
X-21792Y-12421D01*
X-21719Y-12368D01*
X-21610Y-12300D01*
X-21578Y-12264D01*
X-21543Y-12239D01*
X-20554Y-11249D01*
X-17446Y-11249D01*
X-15249Y-13446D01*
X-15249Y-16554D01*
X-17446Y-18751D01*
X-20554Y-18751D01*
X-22751Y-16554D01*
X-22751Y-13467D01*
X-22755Y-13436D01*
X-22753Y-13403D01*
X-22775Y-13296D01*
X-22791Y-13188D01*
X-22804Y-13159D01*
X-22810Y-13127D01*
X-22862Y-13031D01*
X-22907Y-12931D01*
X-22928Y-12907D01*
X-22943Y-12878D01*
X-23019Y-12800D01*
X-23090Y-12717D01*
X-23117Y-12699D01*
X-23140Y-12676D01*
X-23235Y-12622D01*
X-23326Y-12563D01*
X-23357Y-12553D01*
X-23385Y-12537D01*
X-23491Y-12512D01*
X-23596Y-12480D01*
X-23628Y-12480D01*
X-23659Y-12472D01*
X-23769Y-12478D01*
X-23878Y-12476D01*
X-23909Y-12485D01*
X-23941Y-12487D01*
X-24044Y-12522D01*
X-24150Y-12552D01*
X-24177Y-12569D01*
X-24208Y-12579D01*
X-24281Y-12632D01*
X-24390Y-12700D01*
X-24422Y-12736D01*
X-24457Y-12761D01*
X-25446Y-13751D01*
X-28554Y-13751D01*
X-29793Y-12511D01*
X-29845Y-12472D01*
X-29890Y-12426D01*
X-29957Y-12388D01*
X-30019Y-12342D01*
X-30079Y-12319D01*
X-30135Y-12287D01*
X-30210Y-12269D01*
X-30283Y-12242D01*
X-30347Y-12237D01*
X-30410Y-12222D01*
X-30487Y-12226D01*
X-30564Y-12220D01*
X-30627Y-12233D01*
X-30691Y-12237D01*
X-30764Y-12262D01*
X-30840Y-12278D01*
X-30897Y-12308D01*
X-30958Y-12329D01*
X-31014Y-12371D01*
X-31089Y-12410D01*
X-31150Y-12470D01*
X-31207Y-12511D01*
X-32446Y-13751D01*
X-33250Y-13751D01*
X-33314Y-13760D01*
X-33378Y-13759D01*
X-33453Y-13780D01*
X-33529Y-13791D01*
X-33588Y-13817D01*
X-33650Y-13834D01*
X-33716Y-13875D01*
X-33786Y-13907D01*
X-33835Y-13949D01*
X-33890Y-13982D01*
X-33942Y-14040D01*
X-34000Y-14090D01*
X-34036Y-14144D01*
X-34079Y-14192D01*
X-34112Y-14261D01*
X-34155Y-14326D01*
X-34174Y-14388D01*
X-34202Y-14445D01*
X-34213Y-14515D01*
X-34237Y-14596D01*
X-34238Y-14681D01*
X-34249Y-14750D01*
X-34249Y-17554D01*
X-36446Y-19751D01*
X-39554Y-19751D01*
G37*
%LPD*%
%LPC*%
G36*
X-13554Y21249D02*
X-13554Y21249D01*
X-15751Y23446D01*
X-15751Y26554D01*
X-13554Y28751D01*
X-13000Y28751D01*
X-12936Y28760D01*
X-12872Y28759D01*
X-12797Y28780D01*
X-12721Y28791D01*
X-12662Y28817D01*
X-12600Y28834D01*
X-12534Y28875D01*
X-12464Y28907D01*
X-12415Y28949D01*
X-12360Y28982D01*
X-12308Y29040D01*
X-12250Y29090D01*
X-12214Y29144D01*
X-12171Y29192D01*
X-12138Y29261D01*
X-12095Y29326D01*
X-12076Y29388D01*
X-12048Y29445D01*
X-12037Y29515D01*
X-12013Y29596D01*
X-12012Y29681D01*
X-12001Y29750D01*
X-12001Y31554D01*
X-9804Y33751D01*
X-6696Y33751D01*
X-5332Y32386D01*
X-5280Y32347D01*
X-5235Y32301D01*
X-5168Y32263D01*
X-5106Y32217D01*
X-5046Y32194D01*
X-4990Y32162D01*
X-4915Y32144D01*
X-4842Y32117D01*
X-4778Y32112D01*
X-4715Y32097D01*
X-4638Y32101D01*
X-4561Y32095D01*
X-4498Y32108D01*
X-4434Y32112D01*
X-4361Y32137D01*
X-4285Y32153D01*
X-4228Y32183D01*
X-4167Y32204D01*
X-4111Y32246D01*
X-4036Y32285D01*
X-3975Y32345D01*
X-3918Y32386D01*
X-2554Y33751D01*
X554Y33751D01*
X2543Y31761D01*
X2569Y31742D01*
X2590Y31717D01*
X2682Y31657D01*
X2769Y31592D01*
X2799Y31580D01*
X2826Y31563D01*
X2931Y31531D01*
X3033Y31492D01*
X3065Y31490D01*
X3096Y31480D01*
X3205Y31479D01*
X3314Y31470D01*
X3346Y31477D01*
X3378Y31476D01*
X3483Y31506D01*
X3590Y31528D01*
X3619Y31543D01*
X3650Y31552D01*
X3743Y31609D01*
X3839Y31660D01*
X3862Y31683D01*
X3890Y31700D01*
X3963Y31781D01*
X4041Y31857D01*
X4057Y31885D01*
X4079Y31909D01*
X4126Y32007D01*
X4180Y32102D01*
X4188Y32134D01*
X4202Y32163D01*
X4216Y32252D01*
X4245Y32377D01*
X4243Y32425D01*
X4249Y32467D01*
X4249Y33804D01*
X6446Y36001D01*
X9554Y36001D01*
X12031Y33523D01*
X12082Y33485D01*
X12127Y33439D01*
X12195Y33401D01*
X12257Y33354D01*
X12317Y33331D01*
X12373Y33300D01*
X12448Y33282D01*
X12520Y33255D01*
X12584Y33250D01*
X12647Y33235D01*
X12724Y33239D01*
X12802Y33233D01*
X12864Y33246D01*
X12929Y33249D01*
X13002Y33275D01*
X13078Y33290D01*
X13134Y33321D01*
X13195Y33342D01*
X13252Y33383D01*
X13327Y33423D01*
X13387Y33482D01*
X13444Y33523D01*
X13921Y34001D01*
X17029Y34001D01*
X19226Y31804D01*
X19226Y28696D01*
X17029Y26499D01*
X13921Y26499D01*
X11444Y28977D01*
X11393Y29015D01*
X11348Y29061D01*
X11281Y29099D01*
X11219Y29146D01*
X11158Y29169D01*
X11102Y29200D01*
X11027Y29218D01*
X10955Y29245D01*
X10891Y29250D01*
X10828Y29265D01*
X10751Y29261D01*
X10673Y29267D01*
X10611Y29254D01*
X10546Y29251D01*
X10473Y29225D01*
X10397Y29210D01*
X10341Y29179D01*
X10280Y29158D01*
X10223Y29117D01*
X10148Y29077D01*
X10088Y29018D01*
X10031Y28977D01*
X9554Y28499D01*
X6446Y28499D01*
X4457Y30489D01*
X4431Y30508D01*
X4410Y30533D01*
X4318Y30593D01*
X4231Y30658D01*
X4201Y30670D01*
X4174Y30687D01*
X4069Y30719D01*
X3967Y30758D01*
X3935Y30760D01*
X3904Y30770D01*
X3795Y30771D01*
X3686Y30780D01*
X3654Y30773D01*
X3622Y30774D01*
X3517Y30744D01*
X3410Y30722D01*
X3381Y30707D01*
X3350Y30698D01*
X3257Y30641D01*
X3161Y30590D01*
X3138Y30567D01*
X3110Y30550D01*
X3037Y30469D01*
X2959Y30393D01*
X2943Y30365D01*
X2921Y30341D01*
X2874Y30243D01*
X2820Y30148D01*
X2812Y30116D01*
X2798Y30087D01*
X2784Y29998D01*
X2755Y29873D01*
X2757Y29825D01*
X2751Y29783D01*
X2751Y28446D01*
X554Y26249D01*
X-2554Y26249D01*
X-3918Y27614D01*
X-3970Y27653D01*
X-4015Y27699D01*
X-4082Y27737D01*
X-4144Y27783D01*
X-4204Y27806D01*
X-4260Y27838D01*
X-4335Y27856D01*
X-4408Y27883D01*
X-4472Y27888D01*
X-4534Y27903D01*
X-4612Y27899D01*
X-4689Y27905D01*
X-4752Y27892D01*
X-4816Y27888D01*
X-4889Y27863D01*
X-4965Y27847D01*
X-5022Y27817D01*
X-5083Y27796D01*
X-5139Y27754D01*
X-5214Y27715D01*
X-5275Y27655D01*
X-5332Y27614D01*
X-6696Y26249D01*
X-7250Y26249D01*
X-7314Y26240D01*
X-7378Y26241D01*
X-7453Y26220D01*
X-7529Y26209D01*
X-7588Y26183D01*
X-7650Y26166D01*
X-7716Y26125D01*
X-7786Y26093D01*
X-7835Y26051D01*
X-7890Y26018D01*
X-7942Y25960D01*
X-8000Y25910D01*
X-8036Y25856D01*
X-8079Y25808D01*
X-8112Y25739D01*
X-8155Y25674D01*
X-8174Y25612D01*
X-8202Y25555D01*
X-8213Y25485D01*
X-8237Y25404D01*
X-8238Y25319D01*
X-8249Y25250D01*
X-8249Y23446D01*
X-10446Y21249D01*
X-13554Y21249D01*
G37*
%LPD*%
%LPC*%
G36*
X-4054Y-13751D02*
X-4054Y-13751D01*
X-6251Y-11554D01*
X-6251Y-8446D01*
X-4043Y-6239D01*
X-3986Y-6162D01*
X-3921Y-6091D01*
X-3901Y-6050D01*
X-3874Y-6013D01*
X-3840Y-5923D01*
X-3798Y-5837D01*
X-3792Y-5795D01*
X-3775Y-5750D01*
X-3765Y-5622D01*
X-3751Y-5532D01*
X-3751Y-2446D01*
X-1554Y-249D01*
X1554Y-249D01*
X3751Y-2446D01*
X3751Y-5554D01*
X1543Y-7761D01*
X1486Y-7838D01*
X1421Y-7909D01*
X1401Y-7950D01*
X1374Y-7987D01*
X1340Y-8077D01*
X1298Y-8163D01*
X1292Y-8205D01*
X1275Y-8250D01*
X1265Y-8378D01*
X1251Y-8468D01*
X1251Y-11554D01*
X-946Y-13751D01*
X-4054Y-13751D01*
G37*
%LPD*%
%LPC*%
G36*
X49032Y-20601D02*
X49032Y-20601D01*
X46249Y-17818D01*
X46249Y-13882D01*
X49032Y-11099D01*
X52968Y-11099D01*
X55751Y-13882D01*
X55751Y-17818D01*
X52968Y-20601D01*
X49032Y-20601D01*
G37*
%LPD*%
%LPC*%
G36*
X27071Y26757D02*
X27071Y26757D01*
X24874Y28954D01*
X24874Y32061D01*
X27071Y34258D01*
X30179Y34258D01*
X32376Y32061D01*
X32376Y28954D01*
X30179Y26757D01*
X27071Y26757D01*
G37*
%LPD*%
%LPC*%
G36*
X-7554Y3249D02*
X-7554Y3249D01*
X-9751Y5446D01*
X-9751Y8554D01*
X-7554Y10751D01*
X-4446Y10751D01*
X-2249Y8554D01*
X-2249Y5446D01*
X-4446Y3249D01*
X-7554Y3249D01*
G37*
%LPD*%
%LPC*%
G36*
X38046Y-15751D02*
X38046Y-15751D01*
X35849Y-13554D01*
X35849Y-10446D01*
X38046Y-8249D01*
X41154Y-8249D01*
X43351Y-10446D01*
X43351Y-13554D01*
X41154Y-15751D01*
X38046Y-15751D01*
G37*
%LPD*%
%LPC*%
G36*
X10446Y-29751D02*
X10446Y-29751D01*
X8249Y-27554D01*
X8249Y-24446D01*
X10446Y-22249D01*
X13554Y-22249D01*
X15751Y-24446D01*
X15751Y-27554D01*
X13554Y-29751D01*
X10446Y-29751D01*
G37*
%LPD*%
%LPC*%
G36*
X27446Y-30751D02*
X27446Y-30751D01*
X25249Y-28554D01*
X25249Y-25446D01*
X27446Y-23249D01*
X30554Y-23249D01*
X32751Y-25446D01*
X32751Y-28554D01*
X30554Y-30751D01*
X27446Y-30751D01*
G37*
%LPD*%
D10*
X51000Y29150D03*
X43850Y22000D03*
X51000Y14850D03*
X51000Y-15850D03*
X43850Y-23000D03*
X51000Y-30150D03*
D11*
X-40400Y-39000D03*
X-27700Y-39000D03*
X-15000Y-39000D03*
X-2300Y-39000D03*
X10400Y-39000D03*
D12*
X43000Y38500D03*
X42000Y-38500D03*
D13*
X-34000Y-10000D03*
X-27000Y-10000D03*
X-6000Y7000D03*
X0Y-4000D03*
X-12000Y25000D03*
X-2500Y-10000D03*
D11*
X23000Y-39000D03*
D13*
X-23788Y-3788D03*
X-22000Y27000D03*
X-1000Y3000D03*
X11000Y8000D03*
X-43000Y40000D03*
X32000Y-12000D03*
X15500Y-5000D03*
D14*
X35500Y11000D03*
D13*
X12000Y-26000D03*
X-1000Y30000D03*
X-38000Y-16000D03*
X29000Y-27000D03*
X-19000Y-15000D03*
X39600Y-12000D03*
X-8250Y30000D03*
X15475Y30250D03*
X8000Y32250D03*
X56500Y6000D03*
X28625Y30507D03*
M02*
