G04 EAGLE Gerber RS-274X export*
G75*
%MOMM*%
%FSLAX34Y34*%
%LPD*%
%INSilkscreen Bottom*%
%IPPOS*%
%AMOC8*
5,1,8,0,0,1.08239X$1,22.5*%
G01*
%ADD10C,0.100000*%
%ADD11C,0.127000*%
%ADD12C,0.152400*%
%ADD13R,0.300000X0.300000*%

G36*
X56504Y22002D02*
X56504Y22002D01*
X56508Y22001D01*
X56602Y22021D01*
X56695Y22040D01*
X56698Y22043D01*
X56702Y22044D01*
X56780Y22099D01*
X56859Y22153D01*
X56861Y22156D01*
X56865Y22159D01*
X56914Y22240D01*
X56966Y22320D01*
X56967Y22325D01*
X56969Y22328D01*
X56983Y22422D01*
X56999Y22517D01*
X56998Y22521D01*
X56999Y22525D01*
X56975Y22617D01*
X56953Y22710D01*
X56950Y22713D01*
X56949Y22717D01*
X56853Y22853D01*
X55853Y23853D01*
X55846Y23858D01*
X55841Y23865D01*
X55838Y23866D01*
X55837Y23869D01*
X55780Y23902D01*
X55764Y23912D01*
X55687Y23963D01*
X55679Y23964D01*
X55672Y23969D01*
X55666Y23970D01*
X55502Y23998D01*
X55499Y23998D01*
X55492Y23999D01*
X55484Y23997D01*
X55475Y23999D01*
X55387Y23976D01*
X55329Y23963D01*
X55304Y23958D01*
X55303Y23958D01*
X55298Y23956D01*
X55291Y23951D01*
X55283Y23949D01*
X55147Y23853D01*
X54147Y22853D01*
X54145Y22849D01*
X54141Y22847D01*
X54090Y22767D01*
X54037Y22687D01*
X54036Y22683D01*
X54034Y22680D01*
X54018Y22586D01*
X54001Y22492D01*
X54002Y22488D01*
X54001Y22483D01*
X54023Y22392D01*
X54044Y22298D01*
X54046Y22294D01*
X54047Y22290D01*
X54103Y22214D01*
X54159Y22136D01*
X54162Y22133D01*
X54165Y22130D01*
X54247Y22081D01*
X54328Y22031D01*
X54332Y22031D01*
X54336Y22028D01*
X54500Y22001D01*
X56500Y22001D01*
X56504Y22002D01*
G37*
G36*
X59504Y-23998D02*
X59504Y-23998D01*
X59508Y-23999D01*
X59602Y-23979D01*
X59695Y-23960D01*
X59698Y-23957D01*
X59702Y-23956D01*
X59780Y-23901D01*
X59859Y-23847D01*
X59861Y-23844D01*
X59865Y-23841D01*
X59914Y-23760D01*
X59966Y-23680D01*
X59967Y-23675D01*
X59969Y-23672D01*
X59983Y-23578D01*
X59999Y-23483D01*
X59998Y-23479D01*
X59999Y-23475D01*
X59975Y-23383D01*
X59953Y-23290D01*
X59950Y-23287D01*
X59949Y-23283D01*
X59853Y-23147D01*
X58853Y-22147D01*
X58846Y-22142D01*
X58841Y-22136D01*
X58838Y-22134D01*
X58837Y-22131D01*
X58780Y-22098D01*
X58764Y-22088D01*
X58687Y-22037D01*
X58679Y-22036D01*
X58672Y-22031D01*
X58666Y-22030D01*
X58502Y-22002D01*
X58499Y-22002D01*
X58492Y-22001D01*
X58484Y-22003D01*
X58475Y-22001D01*
X58387Y-22024D01*
X58329Y-22037D01*
X58304Y-22042D01*
X58303Y-22043D01*
X58298Y-22044D01*
X58291Y-22049D01*
X58283Y-22051D01*
X58147Y-22147D01*
X57147Y-23147D01*
X57145Y-23151D01*
X57141Y-23153D01*
X57090Y-23233D01*
X57037Y-23313D01*
X57036Y-23317D01*
X57034Y-23320D01*
X57018Y-23414D01*
X57001Y-23508D01*
X57002Y-23512D01*
X57001Y-23517D01*
X57023Y-23608D01*
X57044Y-23702D01*
X57046Y-23706D01*
X57047Y-23710D01*
X57103Y-23786D01*
X57159Y-23865D01*
X57162Y-23867D01*
X57165Y-23870D01*
X57247Y-23919D01*
X57328Y-23969D01*
X57332Y-23969D01*
X57336Y-23972D01*
X57500Y-23999D01*
X59500Y-23999D01*
X59504Y-23998D01*
G37*
D10*
X-14900Y-21900D02*
X-11400Y-21900D01*
X-11400Y-18400D01*
X-14900Y-18400D01*
X-14900Y-21900D01*
X23600Y-21400D02*
X27600Y-21400D01*
X27600Y-17400D01*
X27600Y16600D02*
X27600Y20600D01*
X23600Y20600D01*
X-14400Y20600D02*
X-14400Y16600D01*
X-14400Y20600D02*
X-10400Y20600D01*
D11*
X32000Y22000D02*
X32006Y22466D01*
X32023Y22932D01*
X32051Y23398D01*
X32091Y23862D01*
X32143Y24326D01*
X32206Y24788D01*
X32280Y25248D01*
X32365Y25707D01*
X32462Y26163D01*
X32569Y26617D01*
X32688Y27068D01*
X32818Y27515D01*
X32959Y27960D01*
X33111Y28401D01*
X33273Y28838D01*
X33446Y29271D01*
X33630Y29700D01*
X33824Y30124D01*
X34029Y30543D01*
X34243Y30957D01*
X34468Y31365D01*
X34703Y31768D01*
X34948Y32165D01*
X35202Y32556D01*
X35466Y32940D01*
X35739Y33318D01*
X36021Y33689D01*
X36313Y34053D01*
X36613Y34410D01*
X36922Y34760D01*
X37239Y35101D01*
X37565Y35435D01*
X37899Y35761D01*
X38240Y36078D01*
X38590Y36387D01*
X38947Y36687D01*
X39311Y36979D01*
X39682Y37261D01*
X40060Y37534D01*
X40444Y37798D01*
X40835Y38052D01*
X41232Y38297D01*
X41635Y38532D01*
X42043Y38757D01*
X42457Y38971D01*
X42876Y39176D01*
X43300Y39370D01*
X43729Y39554D01*
X44162Y39727D01*
X44599Y39889D01*
X45040Y40041D01*
X45485Y40182D01*
X45932Y40312D01*
X46383Y40431D01*
X46837Y40538D01*
X47293Y40635D01*
X47752Y40720D01*
X48212Y40794D01*
X48674Y40857D01*
X49138Y40909D01*
X49602Y40949D01*
X50068Y40977D01*
X50534Y40994D01*
X51000Y41000D01*
X51466Y40994D01*
X51932Y40977D01*
X52398Y40949D01*
X52862Y40909D01*
X53326Y40857D01*
X53788Y40794D01*
X54248Y40720D01*
X54707Y40635D01*
X55163Y40538D01*
X55617Y40431D01*
X56068Y40312D01*
X56515Y40182D01*
X56960Y40041D01*
X57401Y39889D01*
X57838Y39727D01*
X58271Y39554D01*
X58700Y39370D01*
X59124Y39176D01*
X59543Y38971D01*
X59957Y38757D01*
X60365Y38532D01*
X60768Y38297D01*
X61165Y38052D01*
X61556Y37798D01*
X61940Y37534D01*
X62318Y37261D01*
X62689Y36979D01*
X63053Y36687D01*
X63410Y36387D01*
X63760Y36078D01*
X64101Y35761D01*
X64435Y35435D01*
X64761Y35101D01*
X65078Y34760D01*
X65387Y34410D01*
X65687Y34053D01*
X65979Y33689D01*
X66261Y33318D01*
X66534Y32940D01*
X66798Y32556D01*
X67052Y32165D01*
X67297Y31768D01*
X67532Y31365D01*
X67757Y30957D01*
X67971Y30543D01*
X68176Y30124D01*
X68370Y29700D01*
X68554Y29271D01*
X68727Y28838D01*
X68889Y28401D01*
X69041Y27960D01*
X69182Y27515D01*
X69312Y27068D01*
X69431Y26617D01*
X69538Y26163D01*
X69635Y25707D01*
X69720Y25248D01*
X69794Y24788D01*
X69857Y24326D01*
X69909Y23862D01*
X69949Y23398D01*
X69977Y22932D01*
X69994Y22466D01*
X70000Y22000D01*
X69994Y21534D01*
X69977Y21068D01*
X69949Y20602D01*
X69909Y20138D01*
X69857Y19674D01*
X69794Y19212D01*
X69720Y18752D01*
X69635Y18293D01*
X69538Y17837D01*
X69431Y17383D01*
X69312Y16932D01*
X69182Y16485D01*
X69041Y16040D01*
X68889Y15599D01*
X68727Y15162D01*
X68554Y14729D01*
X68370Y14300D01*
X68176Y13876D01*
X67971Y13457D01*
X67757Y13043D01*
X67532Y12635D01*
X67297Y12232D01*
X67052Y11835D01*
X66798Y11444D01*
X66534Y11060D01*
X66261Y10682D01*
X65979Y10311D01*
X65687Y9947D01*
X65387Y9590D01*
X65078Y9240D01*
X64761Y8899D01*
X64435Y8565D01*
X64101Y8239D01*
X63760Y7922D01*
X63410Y7613D01*
X63053Y7313D01*
X62689Y7021D01*
X62318Y6739D01*
X61940Y6466D01*
X61556Y6202D01*
X61165Y5948D01*
X60768Y5703D01*
X60365Y5468D01*
X59957Y5243D01*
X59543Y5029D01*
X59124Y4824D01*
X58700Y4630D01*
X58271Y4446D01*
X57838Y4273D01*
X57401Y4111D01*
X56960Y3959D01*
X56515Y3818D01*
X56068Y3688D01*
X55617Y3569D01*
X55163Y3462D01*
X54707Y3365D01*
X54248Y3280D01*
X53788Y3206D01*
X53326Y3143D01*
X52862Y3091D01*
X52398Y3051D01*
X51932Y3023D01*
X51466Y3006D01*
X51000Y3000D01*
X50534Y3006D01*
X50068Y3023D01*
X49602Y3051D01*
X49138Y3091D01*
X48674Y3143D01*
X48212Y3206D01*
X47752Y3280D01*
X47293Y3365D01*
X46837Y3462D01*
X46383Y3569D01*
X45932Y3688D01*
X45485Y3818D01*
X45040Y3959D01*
X44599Y4111D01*
X44162Y4273D01*
X43729Y4446D01*
X43300Y4630D01*
X42876Y4824D01*
X42457Y5029D01*
X42043Y5243D01*
X41635Y5468D01*
X41232Y5703D01*
X40835Y5948D01*
X40444Y6202D01*
X40060Y6466D01*
X39682Y6739D01*
X39311Y7021D01*
X38947Y7313D01*
X38590Y7613D01*
X38240Y7922D01*
X37899Y8239D01*
X37565Y8565D01*
X37239Y8899D01*
X36922Y9240D01*
X36613Y9590D01*
X36313Y9947D01*
X36021Y10311D01*
X35739Y10682D01*
X35466Y11060D01*
X35202Y11444D01*
X34948Y11835D01*
X34703Y12232D01*
X34468Y12635D01*
X34243Y13043D01*
X34029Y13457D01*
X33824Y13876D01*
X33630Y14300D01*
X33446Y14729D01*
X33273Y15162D01*
X33111Y15599D01*
X32959Y16040D01*
X32818Y16485D01*
X32688Y16932D01*
X32569Y17383D01*
X32462Y17837D01*
X32365Y18293D01*
X32280Y18752D01*
X32206Y19212D01*
X32143Y19674D01*
X32091Y20138D01*
X32051Y20602D01*
X32023Y21068D01*
X32006Y21534D01*
X32000Y22000D01*
X32000Y-23000D02*
X32006Y-22534D01*
X32023Y-22068D01*
X32051Y-21602D01*
X32091Y-21138D01*
X32143Y-20674D01*
X32206Y-20212D01*
X32280Y-19752D01*
X32365Y-19293D01*
X32462Y-18837D01*
X32569Y-18383D01*
X32688Y-17932D01*
X32818Y-17485D01*
X32959Y-17040D01*
X33111Y-16599D01*
X33273Y-16162D01*
X33446Y-15729D01*
X33630Y-15300D01*
X33824Y-14876D01*
X34029Y-14457D01*
X34243Y-14043D01*
X34468Y-13635D01*
X34703Y-13232D01*
X34948Y-12835D01*
X35202Y-12444D01*
X35466Y-12060D01*
X35739Y-11682D01*
X36021Y-11311D01*
X36313Y-10947D01*
X36613Y-10590D01*
X36922Y-10240D01*
X37239Y-9899D01*
X37565Y-9565D01*
X37899Y-9239D01*
X38240Y-8922D01*
X38590Y-8613D01*
X38947Y-8313D01*
X39311Y-8021D01*
X39682Y-7739D01*
X40060Y-7466D01*
X40444Y-7202D01*
X40835Y-6948D01*
X41232Y-6703D01*
X41635Y-6468D01*
X42043Y-6243D01*
X42457Y-6029D01*
X42876Y-5824D01*
X43300Y-5630D01*
X43729Y-5446D01*
X44162Y-5273D01*
X44599Y-5111D01*
X45040Y-4959D01*
X45485Y-4818D01*
X45932Y-4688D01*
X46383Y-4569D01*
X46837Y-4462D01*
X47293Y-4365D01*
X47752Y-4280D01*
X48212Y-4206D01*
X48674Y-4143D01*
X49138Y-4091D01*
X49602Y-4051D01*
X50068Y-4023D01*
X50534Y-4006D01*
X51000Y-4000D01*
X51466Y-4006D01*
X51932Y-4023D01*
X52398Y-4051D01*
X52862Y-4091D01*
X53326Y-4143D01*
X53788Y-4206D01*
X54248Y-4280D01*
X54707Y-4365D01*
X55163Y-4462D01*
X55617Y-4569D01*
X56068Y-4688D01*
X56515Y-4818D01*
X56960Y-4959D01*
X57401Y-5111D01*
X57838Y-5273D01*
X58271Y-5446D01*
X58700Y-5630D01*
X59124Y-5824D01*
X59543Y-6029D01*
X59957Y-6243D01*
X60365Y-6468D01*
X60768Y-6703D01*
X61165Y-6948D01*
X61556Y-7202D01*
X61940Y-7466D01*
X62318Y-7739D01*
X62689Y-8021D01*
X63053Y-8313D01*
X63410Y-8613D01*
X63760Y-8922D01*
X64101Y-9239D01*
X64435Y-9565D01*
X64761Y-9899D01*
X65078Y-10240D01*
X65387Y-10590D01*
X65687Y-10947D01*
X65979Y-11311D01*
X66261Y-11682D01*
X66534Y-12060D01*
X66798Y-12444D01*
X67052Y-12835D01*
X67297Y-13232D01*
X67532Y-13635D01*
X67757Y-14043D01*
X67971Y-14457D01*
X68176Y-14876D01*
X68370Y-15300D01*
X68554Y-15729D01*
X68727Y-16162D01*
X68889Y-16599D01*
X69041Y-17040D01*
X69182Y-17485D01*
X69312Y-17932D01*
X69431Y-18383D01*
X69538Y-18837D01*
X69635Y-19293D01*
X69720Y-19752D01*
X69794Y-20212D01*
X69857Y-20674D01*
X69909Y-21138D01*
X69949Y-21602D01*
X69977Y-22068D01*
X69994Y-22534D01*
X70000Y-23000D01*
X69994Y-23466D01*
X69977Y-23932D01*
X69949Y-24398D01*
X69909Y-24862D01*
X69857Y-25326D01*
X69794Y-25788D01*
X69720Y-26248D01*
X69635Y-26707D01*
X69538Y-27163D01*
X69431Y-27617D01*
X69312Y-28068D01*
X69182Y-28515D01*
X69041Y-28960D01*
X68889Y-29401D01*
X68727Y-29838D01*
X68554Y-30271D01*
X68370Y-30700D01*
X68176Y-31124D01*
X67971Y-31543D01*
X67757Y-31957D01*
X67532Y-32365D01*
X67297Y-32768D01*
X67052Y-33165D01*
X66798Y-33556D01*
X66534Y-33940D01*
X66261Y-34318D01*
X65979Y-34689D01*
X65687Y-35053D01*
X65387Y-35410D01*
X65078Y-35760D01*
X64761Y-36101D01*
X64435Y-36435D01*
X64101Y-36761D01*
X63760Y-37078D01*
X63410Y-37387D01*
X63053Y-37687D01*
X62689Y-37979D01*
X62318Y-38261D01*
X61940Y-38534D01*
X61556Y-38798D01*
X61165Y-39052D01*
X60768Y-39297D01*
X60365Y-39532D01*
X59957Y-39757D01*
X59543Y-39971D01*
X59124Y-40176D01*
X58700Y-40370D01*
X58271Y-40554D01*
X57838Y-40727D01*
X57401Y-40889D01*
X56960Y-41041D01*
X56515Y-41182D01*
X56068Y-41312D01*
X55617Y-41431D01*
X55163Y-41538D01*
X54707Y-41635D01*
X54248Y-41720D01*
X53788Y-41794D01*
X53326Y-41857D01*
X52862Y-41909D01*
X52398Y-41949D01*
X51932Y-41977D01*
X51466Y-41994D01*
X51000Y-42000D01*
X50534Y-41994D01*
X50068Y-41977D01*
X49602Y-41949D01*
X49138Y-41909D01*
X48674Y-41857D01*
X48212Y-41794D01*
X47752Y-41720D01*
X47293Y-41635D01*
X46837Y-41538D01*
X46383Y-41431D01*
X45932Y-41312D01*
X45485Y-41182D01*
X45040Y-41041D01*
X44599Y-40889D01*
X44162Y-40727D01*
X43729Y-40554D01*
X43300Y-40370D01*
X42876Y-40176D01*
X42457Y-39971D01*
X42043Y-39757D01*
X41635Y-39532D01*
X41232Y-39297D01*
X40835Y-39052D01*
X40444Y-38798D01*
X40060Y-38534D01*
X39682Y-38261D01*
X39311Y-37979D01*
X38947Y-37687D01*
X38590Y-37387D01*
X38240Y-37078D01*
X37899Y-36761D01*
X37565Y-36435D01*
X37239Y-36101D01*
X36922Y-35760D01*
X36613Y-35410D01*
X36313Y-35053D01*
X36021Y-34689D01*
X35739Y-34318D01*
X35466Y-33940D01*
X35202Y-33556D01*
X34948Y-33165D01*
X34703Y-32768D01*
X34468Y-32365D01*
X34243Y-31957D01*
X34029Y-31543D01*
X33824Y-31124D01*
X33630Y-30700D01*
X33446Y-30271D01*
X33273Y-29838D01*
X33111Y-29401D01*
X32959Y-28960D01*
X32818Y-28515D01*
X32688Y-28068D01*
X32569Y-27617D01*
X32462Y-27163D01*
X32365Y-26707D01*
X32280Y-26248D01*
X32206Y-25788D01*
X32143Y-25326D01*
X32091Y-24862D01*
X32051Y-24398D01*
X32023Y-23932D01*
X32006Y-23466D01*
X32000Y-23000D01*
D12*
X-18000Y-5000D02*
X-48000Y-5000D01*
X-48000Y-19000D01*
X-18000Y-19000D01*
X-18000Y-5000D01*
X-18236Y-24000D02*
X-18234Y-23906D01*
X-18228Y-23812D01*
X-18218Y-23718D01*
X-18204Y-23625D01*
X-18186Y-23532D01*
X-18165Y-23440D01*
X-18139Y-23350D01*
X-18110Y-23260D01*
X-18077Y-23172D01*
X-18040Y-23085D01*
X-18000Y-23000D01*
X-17956Y-22916D01*
X-17908Y-22835D01*
X-17858Y-22755D01*
X-17803Y-22678D01*
X-17746Y-22603D01*
X-17686Y-22531D01*
X-17622Y-22461D01*
X-17556Y-22394D01*
X-17487Y-22330D01*
X-17415Y-22269D01*
X-17341Y-22211D01*
X-17264Y-22156D01*
X-17185Y-22104D01*
X-17104Y-22056D01*
X-17021Y-22011D01*
X-16937Y-21970D01*
X-16850Y-21932D01*
X-16762Y-21898D01*
X-16673Y-21868D01*
X-16583Y-21841D01*
X-16491Y-21819D01*
X-16399Y-21800D01*
X-16305Y-21785D01*
X-16212Y-21774D01*
X-16118Y-21767D01*
X-16024Y-21764D01*
X-15929Y-21765D01*
X-15835Y-21770D01*
X-15741Y-21779D01*
X-15648Y-21792D01*
X-15555Y-21809D01*
X-15463Y-21829D01*
X-15372Y-21854D01*
X-15282Y-21882D01*
X-15194Y-21914D01*
X-15106Y-21950D01*
X-15021Y-21990D01*
X-14937Y-22033D01*
X-14855Y-22079D01*
X-14775Y-22129D01*
X-14697Y-22183D01*
X-14622Y-22239D01*
X-14549Y-22299D01*
X-14478Y-22362D01*
X-14411Y-22427D01*
X-14346Y-22496D01*
X-14284Y-22567D01*
X-14225Y-22640D01*
X-14169Y-22716D01*
X-14117Y-22795D01*
X-14068Y-22875D01*
X-14022Y-22958D01*
X-13980Y-23042D01*
X-13941Y-23128D01*
X-13906Y-23216D01*
X-13875Y-23305D01*
X-13847Y-23395D01*
X-13824Y-23486D01*
X-13804Y-23578D01*
X-13788Y-23671D01*
X-13776Y-23765D01*
X-13768Y-23859D01*
X-13764Y-23953D01*
X-13764Y-24047D01*
X-13768Y-24141D01*
X-13776Y-24235D01*
X-13788Y-24329D01*
X-13804Y-24422D01*
X-13824Y-24514D01*
X-13847Y-24605D01*
X-13875Y-24695D01*
X-13906Y-24784D01*
X-13941Y-24872D01*
X-13980Y-24958D01*
X-14022Y-25042D01*
X-14068Y-25125D01*
X-14117Y-25205D01*
X-14169Y-25284D01*
X-14225Y-25360D01*
X-14284Y-25433D01*
X-14346Y-25504D01*
X-14411Y-25573D01*
X-14478Y-25638D01*
X-14549Y-25701D01*
X-14622Y-25761D01*
X-14697Y-25817D01*
X-14775Y-25871D01*
X-14855Y-25921D01*
X-14937Y-25967D01*
X-15021Y-26010D01*
X-15106Y-26050D01*
X-15194Y-26086D01*
X-15282Y-26118D01*
X-15372Y-26146D01*
X-15463Y-26171D01*
X-15555Y-26191D01*
X-15648Y-26208D01*
X-15741Y-26221D01*
X-15835Y-26230D01*
X-15929Y-26235D01*
X-16024Y-26236D01*
X-16118Y-26233D01*
X-16212Y-26226D01*
X-16305Y-26215D01*
X-16399Y-26200D01*
X-16491Y-26181D01*
X-16583Y-26159D01*
X-16673Y-26132D01*
X-16762Y-26102D01*
X-16850Y-26068D01*
X-16937Y-26030D01*
X-17021Y-25989D01*
X-17104Y-25944D01*
X-17185Y-25896D01*
X-17264Y-25844D01*
X-17341Y-25789D01*
X-17415Y-25731D01*
X-17487Y-25670D01*
X-17556Y-25606D01*
X-17622Y-25539D01*
X-17686Y-25469D01*
X-17746Y-25397D01*
X-17803Y-25322D01*
X-17858Y-25245D01*
X-17908Y-25165D01*
X-17956Y-25084D01*
X-18000Y-25000D01*
X-18040Y-24915D01*
X-18077Y-24828D01*
X-18110Y-24740D01*
X-18139Y-24650D01*
X-18165Y-24560D01*
X-18186Y-24468D01*
X-18204Y-24375D01*
X-18218Y-24282D01*
X-18228Y-24188D01*
X-18234Y-24094D01*
X-18236Y-24000D01*
D13*
X32500Y25500D03*
X56500Y-40000D03*
X55500Y40500D03*
M02*
