G04 EAGLE Gerber RS-274X export*
G75*
%MOMM*%
%FSLAX34Y34*%
%LPD*%
%INSilkscreen Top*%
%IPPOS*%
%AMOC8*
5,1,8,0,0,1.08239X$1,22.5*%
G01*
%ADD10C,0.250000*%
%ADD11C,0.203200*%
%ADD12C,0.200000*%
%ADD13R,0.300000X0.300000*%


D10*
X30500Y17000D02*
X30500Y27000D01*
X28000Y27000D01*
X3000Y27000D02*
X500Y27000D01*
X500Y17000D01*
X500Y7000D02*
X500Y-3000D01*
X3000Y-3000D01*
X28000Y-3000D02*
X30500Y-3000D01*
X30500Y7000D01*
X29464Y29500D02*
X29466Y29619D01*
X29472Y29737D01*
X29482Y29856D01*
X29496Y29974D01*
X29514Y30091D01*
X29536Y30208D01*
X29561Y30324D01*
X29591Y30439D01*
X29624Y30553D01*
X29662Y30666D01*
X29703Y30777D01*
X29748Y30887D01*
X29796Y30996D01*
X29848Y31103D01*
X29904Y31208D01*
X29963Y31311D01*
X30025Y31412D01*
X30091Y31511D01*
X30160Y31607D01*
X30233Y31701D01*
X30308Y31793D01*
X30387Y31882D01*
X30468Y31969D01*
X30553Y32052D01*
X30640Y32133D01*
X30730Y32211D01*
X30822Y32286D01*
X30917Y32357D01*
X31014Y32426D01*
X31113Y32491D01*
X31215Y32552D01*
X31318Y32611D01*
X31424Y32665D01*
X31531Y32716D01*
X31640Y32764D01*
X31750Y32808D01*
X31862Y32848D01*
X31975Y32884D01*
X32090Y32917D01*
X32205Y32945D01*
X32321Y32970D01*
X32438Y32991D01*
X32556Y33008D01*
X32674Y33021D01*
X32792Y33030D01*
X32911Y33035D01*
X33030Y33036D01*
X33148Y33033D01*
X33267Y33026D01*
X33385Y33015D01*
X33503Y33000D01*
X33621Y32981D01*
X33737Y32958D01*
X33853Y32932D01*
X33968Y32901D01*
X34081Y32867D01*
X34194Y32828D01*
X34305Y32786D01*
X34415Y32741D01*
X34523Y32691D01*
X34629Y32638D01*
X34734Y32582D01*
X34836Y32522D01*
X34937Y32459D01*
X35035Y32392D01*
X35131Y32322D01*
X35225Y32249D01*
X35316Y32172D01*
X35404Y32093D01*
X35490Y32011D01*
X35573Y31926D01*
X35653Y31838D01*
X35730Y31748D01*
X35804Y31655D01*
X35875Y31559D01*
X35942Y31461D01*
X36006Y31361D01*
X36067Y31259D01*
X36125Y31155D01*
X36178Y31049D01*
X36229Y30942D01*
X36275Y30833D01*
X36318Y30722D01*
X36357Y30610D01*
X36393Y30496D01*
X36424Y30382D01*
X36452Y30266D01*
X36476Y30150D01*
X36496Y30033D01*
X36512Y29915D01*
X36524Y29797D01*
X36532Y29678D01*
X36536Y29559D01*
X36536Y29441D01*
X36532Y29322D01*
X36524Y29203D01*
X36512Y29085D01*
X36496Y28967D01*
X36476Y28850D01*
X36452Y28734D01*
X36424Y28618D01*
X36393Y28504D01*
X36357Y28390D01*
X36318Y28278D01*
X36275Y28167D01*
X36229Y28058D01*
X36178Y27951D01*
X36125Y27845D01*
X36067Y27741D01*
X36006Y27639D01*
X35942Y27539D01*
X35875Y27441D01*
X35804Y27345D01*
X35730Y27252D01*
X35653Y27162D01*
X35573Y27074D01*
X35490Y26989D01*
X35404Y26907D01*
X35316Y26828D01*
X35225Y26751D01*
X35131Y26678D01*
X35035Y26608D01*
X34937Y26541D01*
X34836Y26478D01*
X34734Y26418D01*
X34629Y26362D01*
X34523Y26309D01*
X34415Y26259D01*
X34305Y26214D01*
X34194Y26172D01*
X34081Y26133D01*
X33968Y26099D01*
X33853Y26068D01*
X33737Y26042D01*
X33621Y26019D01*
X33503Y26000D01*
X33385Y25985D01*
X33267Y25974D01*
X33148Y25967D01*
X33030Y25964D01*
X32911Y25965D01*
X32792Y25970D01*
X32674Y25979D01*
X32556Y25992D01*
X32438Y26009D01*
X32321Y26030D01*
X32205Y26055D01*
X32090Y26083D01*
X31975Y26116D01*
X31862Y26152D01*
X31750Y26192D01*
X31640Y26236D01*
X31531Y26284D01*
X31424Y26335D01*
X31318Y26389D01*
X31215Y26448D01*
X31113Y26509D01*
X31014Y26574D01*
X30917Y26643D01*
X30822Y26714D01*
X30730Y26789D01*
X30640Y26867D01*
X30553Y26948D01*
X30468Y27031D01*
X30387Y27118D01*
X30308Y27207D01*
X30233Y27299D01*
X30160Y27393D01*
X30091Y27489D01*
X30025Y27588D01*
X29963Y27689D01*
X29904Y27792D01*
X29848Y27897D01*
X29796Y28004D01*
X29748Y28113D01*
X29703Y28223D01*
X29662Y28334D01*
X29624Y28447D01*
X29591Y28561D01*
X29561Y28676D01*
X29536Y28792D01*
X29514Y28909D01*
X29496Y29026D01*
X29482Y29144D01*
X29472Y29263D01*
X29466Y29381D01*
X29464Y29500D01*
D11*
X7540Y-21000D02*
X2460Y-21000D01*
D12*
X-10000Y20000D02*
X-10000Y30000D01*
X-25000Y30000D01*
X-10000Y-20000D02*
X-10000Y-30000D01*
X-25000Y-30000D01*
X-50000Y-35000D02*
X-50000Y35000D01*
X-50000Y-35000D02*
X-25000Y-35000D01*
X-25000Y-30000D01*
X-25000Y30000D02*
X-25000Y35000D01*
X-50000Y35000D01*
D13*
X34000Y-2000D03*
M02*
