G04 EAGLE Gerber RS-274X export*
G75*
%MOMM*%
%FSLAX34Y34*%
%LPD*%
%INSoldermask Top*%
%IPPOS*%
%AMOC8*
5,1,8,0,0,1.08239X$1,22.5*%
G01*
%ADD10R,0.240000X0.600000*%
%ADD11R,2.400000X1.650000*%
%ADD12C,0.250000*%
%ADD13R,0.800000X0.800000*%
%ADD14R,0.900000X0.700000*%
%ADD15R,0.700000X0.900000*%
%ADD16C,0.650000*%
%ADD17C,1.050000*%
%ADD18R,1.500000X0.400000*%
%ADD19R,1.500000X1.000000*%
%ADD20R,0.280000X0.430000*%
%ADD21P,1.319650X8X112.500000*%


D10*
X25500Y26000D03*
X20500Y26000D03*
X15500Y26000D03*
X10500Y26000D03*
X5500Y26000D03*
X5500Y-2000D03*
X10500Y-2000D03*
X15500Y-2000D03*
X20500Y-2000D03*
X25500Y-2000D03*
D11*
X15500Y12000D03*
D12*
X4250Y14500D02*
X-1500Y14500D01*
X-1500Y9500D02*
X4250Y9500D01*
X28000Y14500D02*
X32500Y14500D01*
X32500Y9500D02*
X28500Y9500D01*
D13*
X5000Y-28620D03*
X5000Y-13380D03*
D14*
X19000Y-12500D03*
X19000Y-25500D03*
D15*
X15500Y39500D03*
X28500Y39500D03*
X-2500Y39000D03*
X-15500Y39000D03*
D16*
X51000Y29150D03*
X43850Y22000D03*
X51000Y14850D03*
X51000Y-15850D03*
X43850Y-23000D03*
X51000Y-30150D03*
D17*
X-40400Y-39000D03*
X-27700Y-39000D03*
X-15000Y-39000D03*
X-2300Y-39000D03*
X10400Y-39000D03*
D18*
X-12500Y-15000D03*
X-12500Y-5000D03*
D19*
X-38100Y-26000D03*
X-38100Y26000D03*
D18*
X-12500Y5000D03*
X-12500Y15000D03*
D14*
X30000Y-12500D03*
X30000Y-25500D03*
D20*
X36550Y-2000D03*
X31450Y-2000D03*
D21*
X43000Y38500D03*
X42000Y-38500D03*
D17*
X23000Y-39000D03*
M02*
