G04 EAGLE Gerber RS-274X export*
G75*
%MOMM*%
%FSLAX34Y34*%
%LPD*%
%INSolderpaste Bottom*%
%IPPOS*%
%AMOC8*
5,1,8,0,0,1.08239X$1,22.5*%
G01*
%ADD10R,0.350000X0.300000*%
%ADD11R,0.550000X0.300000*%
%ADD12R,0.300000X0.350000*%
%ADD13R,0.300000X0.550000*%
%ADD14R,0.700000X0.900000*%
%ADD15R,0.550000X1.000000*%
%ADD16R,0.900000X0.700000*%
%ADD17R,0.280000X0.430000*%
%ADD18R,0.350000X0.250000*%
%ADD19R,0.430000X0.280000*%


D10*
X-13400Y-15400D03*
D11*
X-12400Y-10400D03*
X-12400Y-5400D03*
X-12400Y-400D03*
X-12400Y4600D03*
X-12400Y9600D03*
D10*
X-13400Y14600D03*
D12*
X-8400Y19600D03*
D13*
X-3400Y18600D03*
X1600Y18600D03*
X6600Y18600D03*
X11600Y18600D03*
X16600Y18600D03*
D12*
X21600Y19600D03*
D10*
X26600Y14600D03*
D11*
X25600Y9600D03*
X25600Y4600D03*
X25600Y-400D03*
X25600Y-5400D03*
X25600Y-10400D03*
D10*
X26600Y-15400D03*
D12*
X21600Y-20400D03*
D13*
X16600Y-19400D03*
X11600Y-19400D03*
X6600Y-19400D03*
X1600Y-19400D03*
X-3400Y-19400D03*
D12*
X-8400Y-20400D03*
D14*
X-25500Y40000D03*
X-38500Y40000D03*
X-10500Y40000D03*
X2500Y40000D03*
X43000Y500D03*
X56000Y500D03*
D15*
X-33000Y-25500D03*
X-23500Y-25500D03*
X-42500Y-25500D03*
X-42500Y1500D03*
X-23500Y1500D03*
D16*
X-25000Y13500D03*
X-25000Y26500D03*
X-41000Y13500D03*
X-41000Y26500D03*
D17*
X35050Y25500D03*
X29950Y25500D03*
D18*
X55500Y20500D03*
X55500Y25500D03*
X58500Y-25500D03*
X58500Y-20500D03*
D19*
X56500Y-37450D03*
X56500Y-42550D03*
D17*
X58050Y40500D03*
X52950Y40500D03*
M02*
