G04 EAGLE Gerber RS-274X export*
G75*
%MOMM*%
%FSLAX34Y34*%
%LPD*%
%INBottom Copper*%
%IPPOS*%
%AMOC8*
5,1,8,0,0,1.08239X$1,22.5*%
G01*
%ADD10R,0.350000X0.250000*%
%ADD11R,0.800000X0.300000*%
%ADD12R,0.522000X0.725000*%
%ADD13C,1.625000*%
%ADD14R,0.280000X0.430000*%
%ADD15R,0.430000X0.280000*%
%ADD16C,0.750000*%
%ADD17C,0.152400*%
%ADD18C,0.400000*%
%ADD19C,0.150000*%
%ADD20C,0.100000*%
%ADD21C,0.060000*%

G36*
X-174612Y-40498D02*
X-174612Y-40498D01*
X-174608Y-40499D01*
X-174515Y-40479D01*
X-174421Y-40460D01*
X-174418Y-40457D01*
X-174414Y-40456D01*
X-174336Y-40401D01*
X-174257Y-40347D01*
X-174255Y-40344D01*
X-174252Y-40341D01*
X-174202Y-40260D01*
X-174150Y-40180D01*
X-174150Y-40175D01*
X-174147Y-40172D01*
X-174133Y-40078D01*
X-174117Y-39983D01*
X-174118Y-39979D01*
X-174118Y-39975D01*
X-174141Y-39883D01*
X-174163Y-39790D01*
X-174166Y-39787D01*
X-174167Y-39783D01*
X-174263Y-39647D01*
X-174413Y-39497D01*
X-175351Y-38559D01*
X-175351Y-28766D01*
X-175353Y-28754D01*
X-175351Y-28741D01*
X-175373Y-28657D01*
X-175390Y-28571D01*
X-175397Y-28561D01*
X-175401Y-28549D01*
X-175497Y-28413D01*
X-188513Y-15397D01*
X-188524Y-15390D01*
X-188531Y-15380D01*
X-188606Y-15335D01*
X-188679Y-15287D01*
X-188691Y-15285D01*
X-188702Y-15278D01*
X-188866Y-15251D01*
X-190199Y-15251D01*
X-190551Y-14899D01*
X-190551Y-14066D01*
X-190553Y-14054D01*
X-190551Y-14042D01*
X-190573Y-13957D01*
X-190590Y-13871D01*
X-190597Y-13861D01*
X-190601Y-13849D01*
X-190697Y-13713D01*
X-192263Y-12147D01*
X-192274Y-12140D01*
X-192281Y-12130D01*
X-192356Y-12085D01*
X-192429Y-12037D01*
X-192441Y-12035D01*
X-192452Y-12028D01*
X-192616Y-12001D01*
X-195450Y-12001D01*
X-197501Y-9950D01*
X-197501Y-7050D01*
X-196714Y-6263D01*
X-196711Y-6258D01*
X-196705Y-6254D01*
X-196656Y-6176D01*
X-196604Y-6098D01*
X-196603Y-6091D01*
X-196600Y-6086D01*
X-196585Y-5994D01*
X-196568Y-5902D01*
X-196569Y-5896D01*
X-196568Y-5890D01*
X-196591Y-5799D01*
X-196611Y-5708D01*
X-196614Y-5703D01*
X-196616Y-5697D01*
X-196672Y-5622D01*
X-196726Y-5546D01*
X-196731Y-5543D01*
X-196735Y-5537D01*
X-196876Y-5449D01*
X-196883Y-5446D01*
X-197446Y-4883D01*
X-197751Y-4148D01*
X-197751Y-3124D01*
X-194125Y-3124D01*
X-194117Y-3123D01*
X-194109Y-3124D01*
X-194020Y-3103D01*
X-194012Y-3101D01*
X-193875Y-3124D01*
X-190249Y-3124D01*
X-190249Y-4148D01*
X-190554Y-4883D01*
X-191117Y-5446D01*
X-191124Y-5449D01*
X-191129Y-5453D01*
X-191135Y-5454D01*
X-191212Y-5508D01*
X-191289Y-5560D01*
X-191292Y-5565D01*
X-191297Y-5569D01*
X-191346Y-5649D01*
X-191397Y-5727D01*
X-191398Y-5733D01*
X-191402Y-5739D01*
X-191416Y-5830D01*
X-191432Y-5923D01*
X-191430Y-5929D01*
X-191431Y-5935D01*
X-191408Y-6025D01*
X-191388Y-6116D01*
X-191384Y-6122D01*
X-191382Y-6128D01*
X-191286Y-6263D01*
X-190499Y-7050D01*
X-190499Y-9250D01*
X-190498Y-9258D01*
X-190499Y-9267D01*
X-190478Y-9355D01*
X-190460Y-9445D01*
X-190455Y-9452D01*
X-190453Y-9460D01*
X-190399Y-9533D01*
X-190347Y-9609D01*
X-190340Y-9613D01*
X-190335Y-9620D01*
X-190257Y-9667D01*
X-190180Y-9716D01*
X-190171Y-9717D01*
X-190164Y-9722D01*
X-190000Y-9749D01*
X-186750Y-9749D01*
X-186742Y-9748D01*
X-186733Y-9749D01*
X-186645Y-9728D01*
X-186555Y-9710D01*
X-186548Y-9705D01*
X-186540Y-9703D01*
X-186467Y-9649D01*
X-186391Y-9597D01*
X-186387Y-9590D01*
X-186380Y-9585D01*
X-186334Y-9507D01*
X-186284Y-9430D01*
X-186283Y-9421D01*
X-186278Y-9414D01*
X-186251Y-9250D01*
X-186251Y-6100D01*
X-186253Y-6090D01*
X-186251Y-6080D01*
X-186272Y-5993D01*
X-186290Y-5905D01*
X-186296Y-5897D01*
X-186299Y-5887D01*
X-186352Y-5815D01*
X-186403Y-5742D01*
X-186412Y-5736D01*
X-186418Y-5727D01*
X-186559Y-5639D01*
X-186783Y-5546D01*
X-187346Y-4983D01*
X-187651Y-4248D01*
X-187651Y-3149D01*
X-183700Y-3149D01*
X-183692Y-3148D01*
X-183684Y-3149D01*
X-183595Y-3128D01*
X-183505Y-3110D01*
X-183498Y-3105D01*
X-183497Y-3105D01*
X-183479Y-3116D01*
X-183471Y-3117D01*
X-183464Y-3122D01*
X-183300Y-3149D01*
X-179349Y-3149D01*
X-179349Y-4248D01*
X-179375Y-4309D01*
X-179376Y-4315D01*
X-179379Y-4320D01*
X-179395Y-4413D01*
X-179413Y-4504D01*
X-179411Y-4510D01*
X-179412Y-4517D01*
X-179391Y-4607D01*
X-179371Y-4699D01*
X-179368Y-4704D01*
X-179366Y-4710D01*
X-179311Y-4785D01*
X-179257Y-4862D01*
X-179252Y-4865D01*
X-179248Y-4870D01*
X-179168Y-4918D01*
X-179089Y-4967D01*
X-179083Y-4968D01*
X-179077Y-4972D01*
X-178913Y-4999D01*
X-178050Y-4999D01*
X-175999Y-7050D01*
X-175999Y-9950D01*
X-178050Y-12001D01*
X-180950Y-12001D01*
X-180958Y-12002D01*
X-180967Y-12001D01*
X-181055Y-12022D01*
X-181145Y-12040D01*
X-181152Y-12045D01*
X-181160Y-12047D01*
X-181233Y-12101D01*
X-181309Y-12153D01*
X-181313Y-12160D01*
X-181320Y-12165D01*
X-181367Y-12243D01*
X-181416Y-12320D01*
X-181417Y-12329D01*
X-181422Y-12336D01*
X-181449Y-12500D01*
X-181449Y-14899D01*
X-181801Y-15251D01*
X-183634Y-15251D01*
X-183638Y-15252D01*
X-183642Y-15251D01*
X-183735Y-15271D01*
X-183829Y-15290D01*
X-183832Y-15293D01*
X-183836Y-15294D01*
X-183914Y-15349D01*
X-183993Y-15403D01*
X-183995Y-15406D01*
X-183998Y-15409D01*
X-184048Y-15490D01*
X-184100Y-15570D01*
X-184100Y-15575D01*
X-184103Y-15578D01*
X-184117Y-15672D01*
X-184133Y-15767D01*
X-184132Y-15771D01*
X-184132Y-15775D01*
X-184109Y-15867D01*
X-184087Y-15960D01*
X-184084Y-15963D01*
X-184083Y-15967D01*
X-183987Y-16103D01*
X-173587Y-26503D01*
X-172649Y-27441D01*
X-172649Y-37234D01*
X-172647Y-37246D01*
X-172649Y-37259D01*
X-172627Y-37343D01*
X-172610Y-37429D01*
X-172603Y-37439D01*
X-172599Y-37451D01*
X-172503Y-37587D01*
X-169874Y-40215D01*
X-169867Y-40220D01*
X-169862Y-40227D01*
X-169785Y-40275D01*
X-169709Y-40325D01*
X-169700Y-40327D01*
X-169693Y-40331D01*
X-169603Y-40345D01*
X-169513Y-40362D01*
X-169505Y-40360D01*
X-169497Y-40361D01*
X-169408Y-40339D01*
X-169319Y-40319D01*
X-169312Y-40314D01*
X-169304Y-40312D01*
X-169168Y-40215D01*
X-167302Y-38349D01*
X-163698Y-38349D01*
X-162353Y-39694D01*
X-162349Y-39696D01*
X-162347Y-39700D01*
X-162267Y-39751D01*
X-162187Y-39804D01*
X-162183Y-39805D01*
X-162180Y-39807D01*
X-162086Y-39823D01*
X-161992Y-39840D01*
X-161988Y-39839D01*
X-161983Y-39840D01*
X-161892Y-39818D01*
X-161798Y-39797D01*
X-161794Y-39795D01*
X-161790Y-39794D01*
X-161714Y-39738D01*
X-161635Y-39682D01*
X-161633Y-39679D01*
X-161630Y-39676D01*
X-161581Y-39594D01*
X-161531Y-39513D01*
X-161531Y-39509D01*
X-161528Y-39505D01*
X-161501Y-39341D01*
X-161501Y-33359D01*
X-161502Y-33355D01*
X-161501Y-33351D01*
X-161521Y-33257D01*
X-161540Y-33164D01*
X-161543Y-33161D01*
X-161544Y-33156D01*
X-161599Y-33079D01*
X-161653Y-33000D01*
X-161656Y-32998D01*
X-161659Y-32994D01*
X-161740Y-32945D01*
X-161820Y-32893D01*
X-161825Y-32892D01*
X-161828Y-32890D01*
X-161922Y-32876D01*
X-162017Y-32860D01*
X-162021Y-32861D01*
X-162025Y-32860D01*
X-162117Y-32884D01*
X-162210Y-32906D01*
X-162213Y-32908D01*
X-162217Y-32909D01*
X-162353Y-33006D01*
X-163698Y-34351D01*
X-167302Y-34351D01*
X-169851Y-31802D01*
X-169851Y-28198D01*
X-167302Y-25649D01*
X-163698Y-25649D01*
X-162353Y-26994D01*
X-162349Y-26996D01*
X-162347Y-27000D01*
X-162267Y-27051D01*
X-162187Y-27104D01*
X-162183Y-27105D01*
X-162180Y-27107D01*
X-162086Y-27123D01*
X-161992Y-27140D01*
X-161988Y-27139D01*
X-161983Y-27140D01*
X-161892Y-27118D01*
X-161798Y-27097D01*
X-161794Y-27095D01*
X-161790Y-27094D01*
X-161714Y-27038D01*
X-161635Y-26982D01*
X-161633Y-26979D01*
X-161630Y-26976D01*
X-161581Y-26894D01*
X-161531Y-26813D01*
X-161531Y-26809D01*
X-161528Y-26805D01*
X-161501Y-26641D01*
X-161501Y-22478D01*
X-161512Y-22424D01*
X-161513Y-22369D01*
X-161531Y-22327D01*
X-161540Y-22283D01*
X-161572Y-22238D01*
X-161594Y-22187D01*
X-161627Y-22156D01*
X-161653Y-22119D01*
X-161699Y-22090D01*
X-161740Y-22052D01*
X-161782Y-22037D01*
X-161820Y-22012D01*
X-161875Y-22003D01*
X-161927Y-21984D01*
X-161972Y-21987D01*
X-162017Y-21979D01*
X-162070Y-21992D01*
X-162126Y-21995D01*
X-162174Y-22017D01*
X-162210Y-22025D01*
X-162236Y-22045D01*
X-162277Y-22063D01*
X-162776Y-22396D01*
X-163823Y-22830D01*
X-164501Y-22965D01*
X-164501Y-17800D01*
X-164502Y-17792D01*
X-164501Y-17784D01*
X-164522Y-17695D01*
X-164540Y-17605D01*
X-164545Y-17598D01*
X-164547Y-17590D01*
X-164601Y-17517D01*
X-164653Y-17441D01*
X-164660Y-17437D01*
X-164665Y-17430D01*
X-164743Y-17384D01*
X-164820Y-17334D01*
X-164829Y-17333D01*
X-164836Y-17329D01*
X-165000Y-17301D01*
X-165501Y-17301D01*
X-165501Y-17299D01*
X-165000Y-17299D01*
X-164992Y-17297D01*
X-164983Y-17299D01*
X-164895Y-17278D01*
X-164805Y-17260D01*
X-164798Y-17255D01*
X-164790Y-17253D01*
X-164717Y-17199D01*
X-164641Y-17147D01*
X-164637Y-17140D01*
X-164630Y-17135D01*
X-164583Y-17057D01*
X-164534Y-16979D01*
X-164533Y-16971D01*
X-164528Y-16964D01*
X-164501Y-16800D01*
X-164501Y-11635D01*
X-163823Y-11770D01*
X-162776Y-12204D01*
X-162277Y-12537D01*
X-162226Y-12558D01*
X-162180Y-12588D01*
X-162135Y-12595D01*
X-162093Y-12612D01*
X-162038Y-12612D01*
X-161983Y-12621D01*
X-161940Y-12610D01*
X-161895Y-12610D01*
X-161844Y-12588D01*
X-161790Y-12575D01*
X-161754Y-12548D01*
X-161712Y-12530D01*
X-161674Y-12490D01*
X-161630Y-12457D01*
X-161607Y-12418D01*
X-161576Y-12385D01*
X-161557Y-12333D01*
X-161528Y-12286D01*
X-161520Y-12234D01*
X-161507Y-12199D01*
X-161508Y-12166D01*
X-161501Y-12122D01*
X-161501Y-5378D01*
X-158622Y-2499D01*
X30122Y-2499D01*
X31397Y-3775D01*
X31401Y-3777D01*
X31403Y-3780D01*
X31483Y-3831D01*
X31563Y-3884D01*
X31567Y-3885D01*
X31570Y-3887D01*
X31664Y-3903D01*
X31758Y-3921D01*
X31762Y-3920D01*
X31767Y-3921D01*
X31858Y-3899D01*
X31952Y-3878D01*
X31956Y-3876D01*
X31960Y-3875D01*
X32036Y-3819D01*
X32115Y-3763D01*
X32117Y-3759D01*
X32120Y-3757D01*
X32168Y-3675D01*
X32219Y-3593D01*
X32219Y-3589D01*
X32222Y-3586D01*
X32249Y-3422D01*
X32249Y-2624D01*
X35875Y-2624D01*
X35883Y-2623D01*
X35891Y-2624D01*
X35980Y-2603D01*
X35988Y-2601D01*
X36125Y-2624D01*
X39767Y-2624D01*
X39771Y-2645D01*
X39790Y-2738D01*
X39793Y-2741D01*
X39794Y-2745D01*
X39849Y-2823D01*
X39903Y-2902D01*
X39906Y-2904D01*
X39909Y-2907D01*
X39990Y-2957D01*
X40070Y-3009D01*
X40075Y-3010D01*
X40078Y-3012D01*
X40172Y-3026D01*
X40267Y-3042D01*
X40271Y-3041D01*
X40275Y-3042D01*
X40367Y-3018D01*
X40460Y-2996D01*
X40463Y-2993D01*
X40467Y-2992D01*
X40603Y-2896D01*
X41903Y-1596D01*
X41910Y-1585D01*
X41920Y-1578D01*
X41965Y-1503D01*
X42013Y-1430D01*
X42015Y-1418D01*
X42022Y-1407D01*
X42049Y-1243D01*
X42049Y3690D01*
X42041Y3728D01*
X42043Y3767D01*
X42022Y3824D01*
X42010Y3884D01*
X41988Y3917D01*
X41974Y3953D01*
X41932Y3998D01*
X41897Y4048D01*
X41864Y4069D01*
X41837Y4098D01*
X41781Y4122D01*
X41730Y4155D01*
X41691Y4162D01*
X41655Y4178D01*
X41594Y4178D01*
X41533Y4188D01*
X41495Y4179D01*
X41456Y4180D01*
X41383Y4153D01*
X41340Y4142D01*
X41324Y4131D01*
X41300Y4122D01*
X40694Y3772D01*
X39677Y3499D01*
X39649Y3499D01*
X39649Y7500D01*
X39648Y7508D01*
X39649Y7516D01*
X39628Y7605D01*
X39610Y7695D01*
X39605Y7702D01*
X39603Y7710D01*
X39549Y7783D01*
X39497Y7858D01*
X39490Y7863D01*
X39485Y7870D01*
X39407Y7916D01*
X39330Y7966D01*
X39321Y7967D01*
X39314Y7971D01*
X39150Y7999D01*
X39142Y7997D01*
X39134Y7999D01*
X39133Y7999D01*
X39045Y7978D01*
X38955Y7959D01*
X38948Y7955D01*
X38940Y7953D01*
X38867Y7899D01*
X38791Y7847D01*
X38786Y7840D01*
X38780Y7835D01*
X38733Y7756D01*
X38684Y7679D01*
X38683Y7671D01*
X38678Y7664D01*
X38651Y7500D01*
X38651Y3286D01*
X38633Y3257D01*
X38584Y3180D01*
X38582Y3171D01*
X38578Y3164D01*
X38550Y3000D01*
X38550Y2150D01*
X38497Y2096D01*
X38490Y2086D01*
X38480Y2078D01*
X38435Y2004D01*
X38387Y1931D01*
X38385Y1918D01*
X38378Y1907D01*
X38351Y1743D01*
X38351Y1500D01*
X38353Y1490D01*
X38351Y1480D01*
X38372Y1393D01*
X38390Y1305D01*
X38396Y1297D01*
X38399Y1287D01*
X38452Y1215D01*
X38503Y1142D01*
X38512Y1136D01*
X38518Y1127D01*
X38659Y1039D01*
X38883Y946D01*
X39446Y383D01*
X39751Y-352D01*
X39751Y-1376D01*
X36125Y-1376D01*
X36117Y-1377D01*
X36109Y-1376D01*
X36020Y-1397D01*
X36012Y-1399D01*
X35875Y-1376D01*
X32249Y-1376D01*
X32249Y-862D01*
X32248Y-854D01*
X32249Y-845D01*
X32228Y-757D01*
X32210Y-667D01*
X32205Y-660D01*
X32203Y-652D01*
X32149Y-579D01*
X32097Y-503D01*
X32090Y-499D01*
X32085Y-492D01*
X32007Y-445D01*
X31930Y-396D01*
X31921Y-395D01*
X31914Y-390D01*
X31750Y-363D01*
X-178850Y-363D01*
X-178858Y-364D01*
X-178867Y-363D01*
X-178955Y-384D01*
X-179045Y-402D01*
X-179052Y-407D01*
X-179060Y-409D01*
X-179133Y-463D01*
X-179209Y-515D01*
X-179213Y-522D01*
X-179220Y-527D01*
X-179267Y-605D01*
X-179316Y-682D01*
X-179317Y-691D01*
X-179322Y-698D01*
X-179349Y-862D01*
X-179349Y-1751D01*
X-182801Y-1751D01*
X-182801Y-862D01*
X-182802Y-854D01*
X-182801Y-845D01*
X-182822Y-757D01*
X-182840Y-667D01*
X-182845Y-660D01*
X-182847Y-652D01*
X-182901Y-579D01*
X-182953Y-503D01*
X-182960Y-499D01*
X-182965Y-492D01*
X-183043Y-445D01*
X-183120Y-396D01*
X-183129Y-395D01*
X-183136Y-390D01*
X-183300Y-363D01*
X-183700Y-363D01*
X-183708Y-364D01*
X-183717Y-363D01*
X-183805Y-384D01*
X-183895Y-402D01*
X-183902Y-407D01*
X-183910Y-409D01*
X-183983Y-463D01*
X-184059Y-515D01*
X-184063Y-522D01*
X-184070Y-527D01*
X-184117Y-605D01*
X-184166Y-682D01*
X-184167Y-691D01*
X-184172Y-698D01*
X-184199Y-862D01*
X-184199Y-1751D01*
X-187651Y-1751D01*
X-187651Y-862D01*
X-187652Y-854D01*
X-187651Y-845D01*
X-187672Y-757D01*
X-187690Y-667D01*
X-187695Y-660D01*
X-187697Y-652D01*
X-187751Y-579D01*
X-187803Y-503D01*
X-187810Y-499D01*
X-187815Y-492D01*
X-187893Y-445D01*
X-187970Y-396D01*
X-187979Y-395D01*
X-187986Y-390D01*
X-188150Y-363D01*
X-189750Y-363D01*
X-189758Y-364D01*
X-189767Y-363D01*
X-189855Y-384D01*
X-189945Y-402D01*
X-189952Y-407D01*
X-189960Y-409D01*
X-190033Y-463D01*
X-190109Y-515D01*
X-190113Y-522D01*
X-190120Y-527D01*
X-190167Y-605D01*
X-190216Y-682D01*
X-190217Y-691D01*
X-190222Y-698D01*
X-190249Y-862D01*
X-190249Y-1876D01*
X-193376Y-1876D01*
X-193376Y-862D01*
X-193377Y-854D01*
X-193376Y-845D01*
X-193397Y-757D01*
X-193415Y-667D01*
X-193420Y-660D01*
X-193422Y-652D01*
X-193476Y-579D01*
X-193528Y-503D01*
X-193535Y-499D01*
X-193540Y-492D01*
X-193618Y-445D01*
X-193695Y-396D01*
X-193704Y-395D01*
X-193711Y-390D01*
X-193875Y-363D01*
X-194125Y-363D01*
X-194133Y-364D01*
X-194142Y-363D01*
X-194230Y-384D01*
X-194320Y-402D01*
X-194327Y-407D01*
X-194335Y-409D01*
X-194408Y-463D01*
X-194484Y-515D01*
X-194488Y-522D01*
X-194495Y-527D01*
X-194542Y-605D01*
X-194591Y-682D01*
X-194592Y-691D01*
X-194597Y-698D01*
X-194624Y-862D01*
X-194624Y-1876D01*
X-197751Y-1876D01*
X-197751Y-862D01*
X-197752Y-854D01*
X-197751Y-845D01*
X-197772Y-757D01*
X-197790Y-667D01*
X-197795Y-660D01*
X-197797Y-652D01*
X-197851Y-579D01*
X-197903Y-503D01*
X-197910Y-499D01*
X-197915Y-492D01*
X-197993Y-445D01*
X-198070Y-396D01*
X-198079Y-395D01*
X-198086Y-390D01*
X-198250Y-363D01*
X-226039Y-363D01*
X-226047Y-364D01*
X-226057Y-363D01*
X-226617Y-384D01*
X-227013Y12D01*
X-227020Y16D01*
X-227026Y25D01*
X-230361Y3116D01*
X-230363Y3118D01*
X-230365Y3120D01*
X-230447Y3169D01*
X-230530Y3220D01*
X-230533Y3220D01*
X-230536Y3222D01*
X-230700Y3249D01*
X-231450Y3249D01*
X-231458Y3248D01*
X-231466Y3249D01*
X-231555Y3228D01*
X-231645Y3210D01*
X-231652Y3205D01*
X-231660Y3203D01*
X-231733Y3149D01*
X-231809Y3097D01*
X-231813Y3090D01*
X-231820Y3085D01*
X-231866Y3007D01*
X-231871Y2999D01*
X-235949Y2999D01*
X-235950Y2999D01*
X-236750Y2999D01*
X-236758Y2998D01*
X-236766Y2999D01*
X-236855Y2978D01*
X-236945Y2960D01*
X-236952Y2955D01*
X-236960Y2953D01*
X-237002Y2922D01*
X-237071Y2966D01*
X-237079Y2967D01*
X-237086Y2972D01*
X-237250Y2999D01*
X-240026Y2999D01*
X-240051Y3033D01*
X-240103Y3109D01*
X-240110Y3113D01*
X-240115Y3120D01*
X-240193Y3167D01*
X-240270Y3216D01*
X-240278Y3217D01*
X-240286Y3222D01*
X-240450Y3249D01*
X-242566Y3249D01*
X-242570Y3248D01*
X-242574Y3249D01*
X-242667Y3229D01*
X-242761Y3210D01*
X-242764Y3207D01*
X-242768Y3206D01*
X-242846Y3151D01*
X-242925Y3097D01*
X-242927Y3094D01*
X-242930Y3091D01*
X-242980Y3010D01*
X-243032Y2930D01*
X-243032Y2925D01*
X-243035Y2922D01*
X-243049Y2828D01*
X-243065Y2733D01*
X-243064Y2729D01*
X-243064Y2725D01*
X-243041Y2633D01*
X-243019Y2540D01*
X-243016Y2537D01*
X-243015Y2533D01*
X-242919Y2397D01*
X-242419Y1897D01*
X-242408Y1890D01*
X-242401Y1880D01*
X-242326Y1835D01*
X-242253Y1787D01*
X-242241Y1785D01*
X-242230Y1778D01*
X-242066Y1751D01*
X-240450Y1751D01*
X-240441Y1752D01*
X-240433Y1751D01*
X-240345Y1772D01*
X-240255Y1790D01*
X-240248Y1795D01*
X-240240Y1797D01*
X-240167Y1851D01*
X-240091Y1903D01*
X-240086Y1910D01*
X-240080Y1915D01*
X-240033Y1993D01*
X-240028Y2001D01*
X-237250Y2001D01*
X-237242Y2002D01*
X-237234Y2001D01*
X-237145Y2022D01*
X-237055Y2040D01*
X-237048Y2045D01*
X-237040Y2047D01*
X-236998Y2078D01*
X-236929Y2034D01*
X-236921Y2033D01*
X-236914Y2028D01*
X-236750Y2001D01*
X-235950Y2001D01*
X-235949Y2001D01*
X-231874Y2001D01*
X-231849Y1967D01*
X-231797Y1891D01*
X-231790Y1887D01*
X-231785Y1880D01*
X-231707Y1833D01*
X-231629Y1784D01*
X-231621Y1783D01*
X-231614Y1778D01*
X-231450Y1751D01*
X-230999Y1751D01*
X-230999Y602D01*
X-231304Y-133D01*
X-231867Y-696D01*
X-232091Y-789D01*
X-232100Y-795D01*
X-232110Y-797D01*
X-232182Y-850D01*
X-232256Y-900D01*
X-232262Y-909D01*
X-232270Y-915D01*
X-232316Y-992D01*
X-232364Y-1067D01*
X-232366Y-1077D01*
X-232372Y-1086D01*
X-232399Y-1250D01*
X-232399Y-4249D01*
X-232797Y-4647D01*
X-232802Y-4654D01*
X-232809Y-4659D01*
X-232857Y-4737D01*
X-232907Y-4813D01*
X-232909Y-4821D01*
X-232913Y-4828D01*
X-232927Y-4918D01*
X-232944Y-5008D01*
X-232942Y-5016D01*
X-232943Y-5025D01*
X-232921Y-5113D01*
X-232901Y-5202D01*
X-232896Y-5209D01*
X-232894Y-5217D01*
X-232797Y-5353D01*
X-232399Y-5751D01*
X-232399Y-9072D01*
X-232398Y-9076D01*
X-232399Y-9080D01*
X-232379Y-9173D01*
X-232360Y-9267D01*
X-232357Y-9270D01*
X-232356Y-9274D01*
X-232301Y-9352D01*
X-232247Y-9430D01*
X-232244Y-9433D01*
X-232241Y-9436D01*
X-232160Y-9486D01*
X-232080Y-9537D01*
X-232075Y-9538D01*
X-232072Y-9540D01*
X-231978Y-9555D01*
X-231883Y-9571D01*
X-231879Y-9570D01*
X-231875Y-9570D01*
X-231783Y-9547D01*
X-231690Y-9525D01*
X-231687Y-9522D01*
X-231683Y-9521D01*
X-231547Y-9425D01*
X-225647Y-3525D01*
X-224622Y-2499D01*
X-207878Y-2499D01*
X-204499Y-5878D01*
X-204499Y-37172D01*
X-204497Y-37184D01*
X-204499Y-37196D01*
X-204477Y-37281D01*
X-204460Y-37366D01*
X-204453Y-37377D01*
X-204449Y-37389D01*
X-204353Y-37525D01*
X-201525Y-40353D01*
X-201514Y-40360D01*
X-201507Y-40370D01*
X-201432Y-40415D01*
X-201359Y-40463D01*
X-201346Y-40465D01*
X-201336Y-40472D01*
X-201172Y-40499D01*
X-174616Y-40499D01*
X-174612Y-40498D01*
G37*
G36*
X75008Y-12498D02*
X75008Y-12498D01*
X75017Y-12499D01*
X75105Y-12478D01*
X75195Y-12460D01*
X75202Y-12455D01*
X75210Y-12453D01*
X75283Y-12399D01*
X75359Y-12347D01*
X75363Y-12340D01*
X75370Y-12335D01*
X75417Y-12257D01*
X75466Y-12180D01*
X75467Y-12171D01*
X75472Y-12164D01*
X75499Y-12000D01*
X75499Y-5689D01*
X75491Y-5646D01*
X75492Y-5603D01*
X75471Y-5550D01*
X75460Y-5494D01*
X75435Y-5458D01*
X75419Y-5417D01*
X75379Y-5377D01*
X75347Y-5330D01*
X75310Y-5307D01*
X75280Y-5275D01*
X75227Y-5254D01*
X75180Y-5223D01*
X75137Y-5216D01*
X75096Y-5199D01*
X75039Y-5199D01*
X74983Y-5190D01*
X74941Y-5200D01*
X74898Y-5200D01*
X74845Y-5223D01*
X74790Y-5236D01*
X74755Y-5262D01*
X74715Y-5279D01*
X74665Y-5328D01*
X74630Y-5354D01*
X74618Y-5374D01*
X74596Y-5395D01*
X73724Y-6596D01*
X72596Y-7724D01*
X71307Y-8660D01*
X69887Y-9384D01*
X68371Y-9876D01*
X66999Y-10094D01*
X66999Y-500D01*
X66998Y-492D01*
X66999Y-484D01*
X66978Y-395D01*
X66960Y-305D01*
X66955Y-298D01*
X66953Y-290D01*
X66899Y-217D01*
X66847Y-141D01*
X66840Y-137D01*
X66835Y-130D01*
X66757Y-84D01*
X66680Y-34D01*
X66671Y-33D01*
X66664Y-29D01*
X66500Y-1D01*
X65999Y-1D01*
X65999Y1D01*
X66500Y1D01*
X66508Y3D01*
X66516Y1D01*
X66605Y22D01*
X66695Y40D01*
X66702Y45D01*
X66710Y47D01*
X66783Y101D01*
X66859Y153D01*
X66863Y160D01*
X66870Y165D01*
X66916Y243D01*
X66966Y321D01*
X66967Y329D01*
X66971Y336D01*
X66999Y500D01*
X66999Y10094D01*
X68371Y9876D01*
X69887Y9384D01*
X71307Y8660D01*
X72596Y7724D01*
X73724Y6596D01*
X74596Y5395D01*
X74628Y5366D01*
X74653Y5330D01*
X74701Y5299D01*
X74743Y5261D01*
X74784Y5246D01*
X74820Y5223D01*
X74877Y5213D01*
X74930Y5194D01*
X74974Y5197D01*
X75017Y5190D01*
X75072Y5203D01*
X75129Y5206D01*
X75168Y5226D01*
X75210Y5236D01*
X75256Y5270D01*
X75307Y5295D01*
X75335Y5328D01*
X75370Y5354D01*
X75399Y5403D01*
X75436Y5446D01*
X75449Y5487D01*
X75472Y5525D01*
X75483Y5594D01*
X75496Y5635D01*
X75494Y5659D01*
X75499Y5689D01*
X75499Y12000D01*
X75498Y12008D01*
X75499Y12017D01*
X75478Y12105D01*
X75460Y12195D01*
X75455Y12202D01*
X75453Y12210D01*
X75399Y12283D01*
X75347Y12359D01*
X75340Y12363D01*
X75335Y12370D01*
X75257Y12417D01*
X75180Y12466D01*
X75171Y12467D01*
X75164Y12472D01*
X75000Y12499D01*
X58590Y12499D01*
X58582Y12498D01*
X58573Y12499D01*
X58485Y12478D01*
X58395Y12460D01*
X58388Y12455D01*
X58380Y12453D01*
X58307Y12399D01*
X58231Y12347D01*
X58227Y12340D01*
X58220Y12335D01*
X58173Y12257D01*
X58124Y12180D01*
X58123Y12171D01*
X58118Y12164D01*
X58091Y12000D01*
X58091Y9369D01*
X53980Y9369D01*
X53972Y9367D01*
X53964Y9369D01*
X53875Y9348D01*
X53785Y9330D01*
X53778Y9325D01*
X53770Y9323D01*
X53697Y9269D01*
X53621Y9217D01*
X53617Y9210D01*
X53610Y9205D01*
X53564Y9127D01*
X53514Y9049D01*
X53513Y9041D01*
X53509Y9034D01*
X53481Y8870D01*
X53481Y7870D01*
X53483Y7862D01*
X53481Y7854D01*
X53502Y7765D01*
X53520Y7675D01*
X53525Y7668D01*
X53527Y7660D01*
X53581Y7587D01*
X53633Y7511D01*
X53640Y7507D01*
X53645Y7500D01*
X53723Y7454D01*
X53801Y7404D01*
X53809Y7403D01*
X53816Y7399D01*
X53980Y7371D01*
X58164Y7371D01*
X58189Y7336D01*
X58243Y7257D01*
X58246Y7255D01*
X58249Y7251D01*
X58330Y7201D01*
X58410Y7150D01*
X58415Y7149D01*
X58418Y7147D01*
X58512Y7133D01*
X58607Y7117D01*
X58611Y7118D01*
X58615Y7117D01*
X58707Y7141D01*
X58800Y7163D01*
X58803Y7166D01*
X58807Y7167D01*
X58943Y7263D01*
X59404Y7723D01*
X60693Y8660D01*
X62113Y9384D01*
X63629Y9876D01*
X65001Y10094D01*
X65001Y999D01*
X55598Y999D01*
X55555Y1027D01*
X55550Y1028D01*
X55547Y1030D01*
X55453Y1044D01*
X55358Y1060D01*
X55354Y1059D01*
X55350Y1060D01*
X55258Y1036D01*
X55165Y1014D01*
X55162Y1012D01*
X55158Y1010D01*
X55022Y914D01*
X54557Y449D01*
X53644Y-78D01*
X52627Y-351D01*
X52599Y-351D01*
X52599Y2245D01*
X52598Y2253D01*
X52599Y2262D01*
X52578Y2350D01*
X52560Y2440D01*
X52555Y2447D01*
X52553Y2455D01*
X52499Y2528D01*
X52447Y2604D01*
X52440Y2608D01*
X52435Y2615D01*
X52357Y2662D01*
X52280Y2711D01*
X52271Y2712D01*
X52264Y2717D01*
X52100Y2744D01*
X52092Y2743D01*
X52084Y2744D01*
X52083Y2744D01*
X51995Y2723D01*
X51905Y2705D01*
X51898Y2700D01*
X51890Y2698D01*
X51817Y2644D01*
X51741Y2592D01*
X51736Y2585D01*
X51730Y2580D01*
X51683Y2502D01*
X51634Y2425D01*
X51633Y2416D01*
X51628Y2409D01*
X51601Y2245D01*
X51601Y-351D01*
X51573Y-351D01*
X50556Y-78D01*
X49644Y449D01*
X48899Y1194D01*
X48372Y2106D01*
X48099Y3123D01*
X48099Y3645D01*
X48098Y3653D01*
X48099Y3662D01*
X48078Y3750D01*
X48060Y3840D01*
X48055Y3847D01*
X48053Y3855D01*
X47999Y3928D01*
X47947Y4004D01*
X47940Y4008D01*
X47935Y4015D01*
X47857Y4062D01*
X47780Y4111D01*
X47771Y4112D01*
X47764Y4117D01*
X47600Y4144D01*
X44750Y4144D01*
X44742Y4143D01*
X44733Y4144D01*
X44645Y4123D01*
X44555Y4105D01*
X44548Y4100D01*
X44540Y4098D01*
X44467Y4044D01*
X44391Y3992D01*
X44387Y3985D01*
X44380Y3980D01*
X44333Y3902D01*
X44284Y3825D01*
X44283Y3816D01*
X44278Y3809D01*
X44251Y3645D01*
X44251Y-2362D01*
X43320Y-3292D01*
X43318Y-3296D01*
X43314Y-3298D01*
X43264Y-3378D01*
X43210Y-3458D01*
X43210Y-3462D01*
X43207Y-3465D01*
X43192Y-3559D01*
X43174Y-3653D01*
X43175Y-3657D01*
X43174Y-3662D01*
X43196Y-3753D01*
X43217Y-3847D01*
X43219Y-3851D01*
X43220Y-3855D01*
X43276Y-3931D01*
X43332Y-4010D01*
X43336Y-4012D01*
X43338Y-4015D01*
X43420Y-4064D01*
X43501Y-4114D01*
X43506Y-4114D01*
X43509Y-4117D01*
X43673Y-4144D01*
X48119Y-4144D01*
X48180Y-4206D01*
X48186Y-4209D01*
X48189Y-4215D01*
X48268Y-4264D01*
X48346Y-4316D01*
X48353Y-4317D01*
X48358Y-4320D01*
X48449Y-4335D01*
X48542Y-4352D01*
X48548Y-4351D01*
X48554Y-4352D01*
X48645Y-4329D01*
X48736Y-4309D01*
X48741Y-4306D01*
X48747Y-4304D01*
X48822Y-4248D01*
X48898Y-4194D01*
X48901Y-4189D01*
X48906Y-4185D01*
X48995Y-4044D01*
X49174Y-3612D01*
X49737Y-3049D01*
X50472Y-2744D01*
X52481Y-2744D01*
X52481Y-7870D01*
X52482Y-7878D01*
X52481Y-7886D01*
X52502Y-7975D01*
X52520Y-8065D01*
X52525Y-8072D01*
X52527Y-8080D01*
X52581Y-8153D01*
X52633Y-8229D01*
X52640Y-8233D01*
X52645Y-8240D01*
X52723Y-8286D01*
X52800Y-8336D01*
X52809Y-8337D01*
X52816Y-8341D01*
X52980Y-8369D01*
X53481Y-8369D01*
X53481Y-8870D01*
X53483Y-8878D01*
X53481Y-8886D01*
X53502Y-8975D01*
X53520Y-9065D01*
X53525Y-9072D01*
X53527Y-9080D01*
X53581Y-9153D01*
X53633Y-9229D01*
X53640Y-9233D01*
X53645Y-9240D01*
X53723Y-9286D01*
X53801Y-9336D01*
X53809Y-9337D01*
X53816Y-9341D01*
X53980Y-9369D01*
X58091Y-9369D01*
X58091Y-12000D01*
X58092Y-12008D01*
X58091Y-12017D01*
X58112Y-12105D01*
X58130Y-12195D01*
X58135Y-12202D01*
X58137Y-12210D01*
X58191Y-12283D01*
X58243Y-12359D01*
X58250Y-12363D01*
X58255Y-12370D01*
X58333Y-12417D01*
X58410Y-12466D01*
X58419Y-12467D01*
X58426Y-12472D01*
X58590Y-12499D01*
X75000Y-12499D01*
X75008Y-12498D01*
G37*
G36*
X-242051Y-9998D02*
X-242051Y-9998D01*
X-242047Y-9999D01*
X-241954Y-9979D01*
X-241861Y-9960D01*
X-241857Y-9957D01*
X-241853Y-9956D01*
X-241776Y-9901D01*
X-241697Y-9847D01*
X-241694Y-9844D01*
X-241691Y-9841D01*
X-241641Y-9760D01*
X-241590Y-9680D01*
X-241589Y-9675D01*
X-241587Y-9672D01*
X-241573Y-9578D01*
X-241557Y-9483D01*
X-241558Y-9479D01*
X-241557Y-9475D01*
X-241581Y-9382D01*
X-241603Y-9290D01*
X-241605Y-9287D01*
X-241606Y-9282D01*
X-241621Y-9262D01*
X-241622Y-9257D01*
X-241640Y-9167D01*
X-241645Y-9160D01*
X-241647Y-9152D01*
X-241701Y-9079D01*
X-241753Y-9003D01*
X-241760Y-8999D01*
X-241765Y-8992D01*
X-241843Y-8945D01*
X-241920Y-8896D01*
X-241929Y-8895D01*
X-241936Y-8890D01*
X-242100Y-8863D01*
X-245564Y-8863D01*
X-245635Y-8792D01*
X-245642Y-8787D01*
X-245647Y-8780D01*
X-245724Y-8733D01*
X-245801Y-8682D01*
X-245809Y-8681D01*
X-245816Y-8676D01*
X-245906Y-8663D01*
X-245996Y-8646D01*
X-246005Y-8648D01*
X-246013Y-8646D01*
X-246101Y-8669D01*
X-246191Y-8689D01*
X-246197Y-8694D01*
X-246206Y-8696D01*
X-246341Y-8792D01*
X-246425Y-8876D01*
X-249325Y-8876D01*
X-251376Y-6825D01*
X-251376Y-3925D01*
X-251292Y-3841D01*
X-251287Y-3834D01*
X-251281Y-3829D01*
X-251233Y-3752D01*
X-251182Y-3675D01*
X-251181Y-3667D01*
X-251176Y-3660D01*
X-251163Y-3570D01*
X-251146Y-3480D01*
X-251148Y-3472D01*
X-251146Y-3463D01*
X-251169Y-3375D01*
X-251189Y-3286D01*
X-251194Y-3279D01*
X-251196Y-3271D01*
X-251292Y-3135D01*
X-255418Y991D01*
X-255429Y998D01*
X-255436Y1008D01*
X-255511Y1053D01*
X-255584Y1101D01*
X-255596Y1103D01*
X-255607Y1110D01*
X-255771Y1137D01*
X-257103Y1137D01*
X-257107Y1136D01*
X-257111Y1137D01*
X-257204Y1117D01*
X-257297Y1098D01*
X-257301Y1095D01*
X-257305Y1094D01*
X-257382Y1039D01*
X-257461Y985D01*
X-257464Y982D01*
X-257467Y979D01*
X-257517Y898D01*
X-257568Y818D01*
X-257569Y813D01*
X-257571Y810D01*
X-257586Y716D01*
X-257601Y621D01*
X-257601Y617D01*
X-257601Y613D01*
X-257577Y520D01*
X-257555Y428D01*
X-257553Y425D01*
X-257552Y421D01*
X-257456Y285D01*
X-257304Y133D01*
X-256999Y-602D01*
X-256999Y-2001D01*
X-261000Y-2001D01*
X-262750Y-2001D01*
X-262758Y-2002D01*
X-262766Y-2001D01*
X-262855Y-2022D01*
X-262945Y-2040D01*
X-262952Y-2045D01*
X-262960Y-2047D01*
X-263033Y-2101D01*
X-263109Y-2153D01*
X-263113Y-2160D01*
X-263120Y-2165D01*
X-263166Y-2243D01*
X-263216Y-2320D01*
X-263217Y-2329D01*
X-263221Y-2336D01*
X-263249Y-2500D01*
X-263247Y-2508D01*
X-263249Y-2516D01*
X-263249Y-2517D01*
X-263228Y-2605D01*
X-263209Y-2695D01*
X-263205Y-2702D01*
X-263203Y-2710D01*
X-263149Y-2783D01*
X-263097Y-2859D01*
X-263090Y-2863D01*
X-263085Y-2870D01*
X-263007Y-2917D01*
X-262929Y-2966D01*
X-262921Y-2967D01*
X-262914Y-2972D01*
X-262750Y-2999D01*
X-261000Y-2999D01*
X-256999Y-2999D01*
X-256999Y-4398D01*
X-257170Y-4809D01*
X-257172Y-4821D01*
X-257178Y-4832D01*
X-257191Y-4918D01*
X-257207Y-5004D01*
X-257205Y-5016D01*
X-257207Y-5029D01*
X-257170Y-5191D01*
X-256999Y-5602D01*
X-256999Y-6751D01*
X-260000Y-6751D01*
X-260008Y-6752D01*
X-260017Y-6751D01*
X-260105Y-6772D01*
X-260195Y-6790D01*
X-260202Y-6795D01*
X-260210Y-6797D01*
X-260283Y-6851D01*
X-260359Y-6903D01*
X-260363Y-6910D01*
X-260370Y-6915D01*
X-260417Y-6993D01*
X-260421Y-7001D01*
X-262750Y-7001D01*
X-262758Y-7002D01*
X-262766Y-7001D01*
X-262855Y-7022D01*
X-262945Y-7040D01*
X-262952Y-7045D01*
X-262960Y-7047D01*
X-263002Y-7078D01*
X-263071Y-7034D01*
X-263079Y-7033D01*
X-263086Y-7028D01*
X-263250Y-7001D01*
X-264500Y-7001D01*
X-264508Y-7002D01*
X-264516Y-7001D01*
X-264605Y-7022D01*
X-264695Y-7040D01*
X-264702Y-7045D01*
X-264710Y-7047D01*
X-264783Y-7101D01*
X-264858Y-7153D01*
X-264863Y-7160D01*
X-264870Y-7165D01*
X-264916Y-7243D01*
X-264966Y-7320D01*
X-264967Y-7329D01*
X-264971Y-7336D01*
X-264999Y-7500D01*
X-264997Y-7508D01*
X-264999Y-7516D01*
X-264999Y-7517D01*
X-264978Y-7605D01*
X-264959Y-7695D01*
X-264955Y-7702D01*
X-264953Y-7710D01*
X-264899Y-7783D01*
X-264847Y-7859D01*
X-264840Y-7863D01*
X-264835Y-7870D01*
X-264756Y-7917D01*
X-264679Y-7966D01*
X-264671Y-7967D01*
X-264664Y-7972D01*
X-264500Y-7999D01*
X-263250Y-7999D01*
X-263242Y-7998D01*
X-263234Y-7999D01*
X-263145Y-7978D01*
X-263055Y-7960D01*
X-263048Y-7955D01*
X-263040Y-7953D01*
X-262998Y-7922D01*
X-262929Y-7966D01*
X-262921Y-7967D01*
X-262914Y-7972D01*
X-262750Y-7999D01*
X-260424Y-7999D01*
X-260399Y-8033D01*
X-260347Y-8109D01*
X-260340Y-8113D01*
X-260335Y-8120D01*
X-260257Y-8167D01*
X-260180Y-8216D01*
X-260171Y-8217D01*
X-260164Y-8222D01*
X-260000Y-8249D01*
X-256999Y-8249D01*
X-256999Y-9494D01*
X-257000Y-9499D01*
X-256999Y-9508D01*
X-257000Y-9517D01*
X-256979Y-9605D01*
X-256961Y-9694D01*
X-256956Y-9702D01*
X-256954Y-9710D01*
X-256900Y-9783D01*
X-256849Y-9858D01*
X-256841Y-9863D01*
X-256836Y-9870D01*
X-256758Y-9917D01*
X-256681Y-9966D01*
X-256673Y-9967D01*
X-256665Y-9972D01*
X-256501Y-9999D01*
X-242056Y-9999D01*
X-242051Y-9998D01*
G37*
%LPC*%
G36*
X63629Y-9876D02*
X63629Y-9876D01*
X62113Y-9384D01*
X60693Y-8660D01*
X59404Y-7723D01*
X58943Y-7263D01*
X58940Y-7261D01*
X58937Y-7257D01*
X58857Y-7206D01*
X58777Y-7153D01*
X58773Y-7152D01*
X58770Y-7150D01*
X58676Y-7134D01*
X58582Y-7117D01*
X58578Y-7118D01*
X58573Y-7117D01*
X58482Y-7139D01*
X58388Y-7160D01*
X58384Y-7162D01*
X58380Y-7163D01*
X58304Y-7219D01*
X58225Y-7275D01*
X58223Y-7278D01*
X58220Y-7281D01*
X58172Y-7362D01*
X58166Y-7371D01*
X54479Y-7371D01*
X54479Y-2744D01*
X55598Y-2744D01*
X55645Y-2735D01*
X55693Y-2735D01*
X55741Y-2715D01*
X55793Y-2705D01*
X55832Y-2678D01*
X55876Y-2660D01*
X55914Y-2622D01*
X55957Y-2592D01*
X55983Y-2552D01*
X56016Y-2518D01*
X56036Y-2469D01*
X56064Y-2425D01*
X56072Y-2378D01*
X56090Y-2333D01*
X56090Y-2270D01*
X56097Y-2228D01*
X56091Y-2202D01*
X56091Y-2167D01*
X55906Y-999D01*
X65001Y-999D01*
X65001Y-10094D01*
X63629Y-9876D01*
G37*
%LPD*%
%LPC*%
G36*
X-167177Y-22830D02*
X-167177Y-22830D01*
X-168224Y-22396D01*
X-169166Y-21767D01*
X-169967Y-20966D01*
X-170596Y-20024D01*
X-171030Y-18977D01*
X-171165Y-18299D01*
X-166499Y-18299D01*
X-166499Y-22965D01*
X-167177Y-22830D01*
G37*
%LPD*%
%LPC*%
G36*
X-171165Y-16301D02*
X-171165Y-16301D01*
X-171030Y-15623D01*
X-170596Y-14576D01*
X-169967Y-13634D01*
X-169166Y-12833D01*
X-168224Y-12204D01*
X-167177Y-11770D01*
X-166499Y-11635D01*
X-166499Y-16301D01*
X-171165Y-16301D01*
G37*
%LPD*%
%LPC*%
G36*
X-189527Y-26001D02*
X-189527Y-26001D01*
X-190544Y-25728D01*
X-191456Y-25201D01*
X-192201Y-24456D01*
X-192728Y-23544D01*
X-193001Y-22527D01*
X-193001Y-22499D01*
X-189499Y-22499D01*
X-189499Y-26001D01*
X-189527Y-26001D01*
G37*
%LPD*%
%LPC*%
G36*
X-193001Y-21501D02*
X-193001Y-21501D01*
X-193001Y-21473D01*
X-192728Y-20456D01*
X-192201Y-19544D01*
X-191456Y-18799D01*
X-190544Y-18272D01*
X-189527Y-17999D01*
X-189499Y-17999D01*
X-189499Y-21501D01*
X-193001Y-21501D01*
G37*
%LPD*%
%LPC*%
G36*
X-188501Y-26001D02*
X-188501Y-26001D01*
X-188501Y-22499D01*
X-184999Y-22499D01*
X-184999Y-22527D01*
X-185272Y-23544D01*
X-185799Y-24456D01*
X-186544Y-25201D01*
X-187456Y-25728D01*
X-188473Y-26001D01*
X-188501Y-26001D01*
G37*
%LPD*%
%LPC*%
G36*
X-188501Y-21501D02*
X-188501Y-21501D01*
X-188501Y-17999D01*
X-188473Y-17999D01*
X-187456Y-18272D01*
X-186544Y-18799D01*
X-185799Y-19544D01*
X-185272Y-20456D01*
X-184999Y-21473D01*
X-184999Y-21501D01*
X-188501Y-21501D01*
G37*
%LPD*%
D10*
X36000Y-2000D03*
X36000Y3000D03*
D11*
X-237000Y7500D03*
X-237000Y2500D03*
X-237000Y-2500D03*
X-237000Y-7500D03*
X-263000Y-7500D03*
X-263000Y-2500D03*
X-263000Y2500D03*
X-263000Y7500D03*
D12*
X45260Y8370D03*
X53480Y8370D03*
X53480Y-8370D03*
X45260Y-8370D03*
D13*
X66000Y0D03*
D14*
X-188550Y-12500D03*
X-183450Y-12500D03*
D15*
X-183500Y-2450D03*
X-183500Y-7550D03*
D16*
X-165500Y-42700D03*
X-165500Y-30000D03*
X-165500Y-17300D03*
D10*
X-194000Y-2500D03*
X-194000Y-7500D03*
D17*
X-232578Y2500D02*
X-237000Y2500D01*
X-228454Y-1200D02*
X-198500Y-1200D01*
X-194000Y-1200D01*
X-183000Y-1200D01*
X-166000Y-1200D01*
X29124Y-1200D01*
X-228454Y-1200D02*
X-232578Y2500D01*
X-261000Y-2500D02*
X-261000Y-4000D01*
X-264500Y-7500D01*
D18*
X-264500Y-7500D03*
X-261000Y-2500D03*
D17*
X-237000Y2500D02*
X-235950Y2500D01*
D18*
X-235950Y2500D03*
D17*
X-263000Y-7500D02*
X-264500Y-7500D01*
X-263000Y-2500D02*
X-261000Y-2500D01*
D19*
X54000Y-4000D02*
X58000Y0D01*
X57000Y8370D02*
X53480Y8370D01*
X58000Y0D02*
X66000Y0D01*
X65370Y0D02*
X57000Y8370D01*
X65370Y0D02*
X66000Y0D01*
D18*
X39150Y7500D03*
D19*
X40100Y6550D02*
X40100Y-309D01*
X40100Y6550D02*
X39150Y7500D01*
X38409Y-2000D02*
X36000Y-2000D01*
X38409Y-2000D02*
X40100Y-309D01*
D18*
X52100Y3650D03*
D19*
X52100Y6990D01*
X53480Y8370D01*
X35200Y-1200D02*
X29124Y-1200D01*
X35200Y-1200D02*
X36000Y-2000D01*
D20*
X-183500Y-2450D02*
X-183500Y-1700D01*
X-183000Y-1200D01*
D18*
X-189000Y-22000D03*
D20*
X-198000Y-1700D02*
X-198500Y-1200D01*
X-198000Y-1700D02*
X-198000Y-10157D01*
X-189000Y-20500D02*
X-189000Y-22000D01*
X-189000Y-20500D02*
X-189000Y-19157D01*
X-198000Y-10157D01*
X-189000Y-20500D02*
X-195500Y-27000D01*
X-194000Y-2500D02*
X-194000Y-1200D01*
D19*
X-166000Y-16800D02*
X-165500Y-17300D01*
X-166000Y-16800D02*
X-166000Y-1200D01*
D17*
X-232936Y7362D02*
X-236862Y7362D01*
X-237000Y7500D01*
X-226074Y1000D02*
X34500Y1000D01*
X-226074Y1000D02*
X-232936Y7362D01*
X-237000Y7500D02*
X-238362Y7500D01*
D18*
X-238362Y7500D03*
D20*
X45260Y-7641D02*
X45260Y-8370D01*
D18*
X45000Y-9000D03*
D20*
X45000Y-8630D01*
X45260Y-8370D01*
D19*
X45260Y-6760D01*
X35650Y3000D02*
X35050Y3600D01*
X35650Y3000D02*
X36000Y3000D01*
D18*
X35050Y3600D03*
D19*
X35050Y1550D02*
X34500Y1000D01*
X35050Y1550D02*
X35050Y3600D01*
X-188550Y-12500D02*
X-189500Y-12500D01*
X-190000Y-12500D01*
X-193750Y-8750D01*
D18*
X-194000Y-8500D03*
D19*
X-193750Y-8750D01*
D20*
X-237000Y7500D02*
X-242056Y7500D01*
X-244700Y4856D01*
X-244700Y-751D02*
X-244711Y-762D01*
X-244700Y-751D02*
X-244700Y4856D01*
D18*
X-244711Y-762D03*
D20*
X-194000Y-7500D02*
X-193750Y-7750D01*
X-193750Y-8750D01*
D19*
X-174000Y-28000D02*
X-174000Y-38000D01*
X-169300Y-42700D01*
X-165500Y-42700D01*
X-174000Y-28000D02*
X-189500Y-12500D01*
D18*
X-261000Y7500D03*
D17*
X-263000Y7500D01*
D18*
X-238950Y-2500D03*
D17*
X-237000Y-2500D01*
D21*
X-238950Y-2500D02*
X-238950Y-2500D01*
D20*
X-237000Y-2500D01*
D17*
X-237000Y-7500D02*
X-245000Y-7500D01*
X-255000Y2500D02*
X-263000Y2500D01*
X-249000Y-3500D02*
X-245000Y-7500D01*
D18*
X-264950Y2500D03*
D17*
X-255000Y2500D02*
X-249000Y-3500D01*
X-237000Y-7500D02*
X-236000Y-7500D01*
D18*
X-247875Y-5375D03*
D20*
X-247875Y-4625D01*
X-249000Y-3500D01*
X-263000Y2500D02*
X-264950Y2500D01*
X43150Y6260D02*
X45260Y8370D01*
X43150Y6260D02*
X43150Y-1906D01*
X38500Y-6556D02*
X38500Y-6750D01*
D18*
X38500Y-6750D03*
D20*
X38500Y-6556D02*
X43150Y-1906D01*
X-183450Y-12450D02*
X-183450Y-12500D01*
X-183450Y-12450D02*
X-179500Y-8500D01*
D18*
X-179500Y-8500D03*
D20*
X-180450Y-7550D02*
X-183500Y-7550D01*
X-180450Y-7550D02*
X-179500Y-8500D01*
M02*
